<?xml version="1.0" encoding="utf-8"?>
<svg viewBox="-4384.133 -2059.76 4096 4096" xmlns="http://www.w3.org/2000/svg">
  <path class="a" d="M2916.75,1574.94c3.16-9.44,26-9.38,44.95-9.32,20.32.06,33.91.28,40.14,9.32,2.12,3.09,2,5.25,2.74,20.37,1,22.28,1.57,33.55,2.7,39.75,2.35,13,4.7,10.87,11.61,32.94,7.17,22.9,4.33,24.19,9.84,37.42,7.21,17.35,12.6,16.35,23,36.41,8.42,16.18,17.06,32.78,10,44.05s-25.62,10.64-27.58,10.55c-2.88-.14-15.54-1.06-24.51-10.55-10.73-11.36-3.87-22-11.68-44.05-2.16-6.1-9.12-16.2-23-36.41-3.76-5.46-11.36-16.38-26.55-37.42-20.39-28.21-22.52-30.44-23.49-37.41-2-14.27,4.82-20.12.24-35.28C2921.46,1583,2915,1580.31,2916.75,1574.94Z" transform="matrix(1, 0, 0, 1, -4383.633301, -2059.259766)" style="fill: rgb(109, 191, 191); opacity: 0.5; stroke: rgb(109, 191, 191);"/>
  <path class="a" d="M3043.4,1400.42c6-11.62,24.11-12.46,25.54-12.51,2.66-.08,12.38-.1,30.4,12.35,4.51,3.11,25.57,18.09,42.87,47.91,4.73,8.16,10.1,17.56,13.79,31.15,3.29,12.12,1.19,12.63,4.95,36.19,3,18.93,4.56,19.72,7.19,38.73,1.69,12.19,1.35,14,3.16,20.71,4.43,16.46,10.47,20.38,8.19,25.39-3.53,7.76-21.69,6.4-39.06,5.11-19.09-1.43-29.33-2.34-35.49-10.14-3.52-4.44-2.74-7.37-7.41-23.57-4-13.77-5.07-13.68-7.15-21.44-3.09-11.56-2.34-16.31-4-34.79-1.76-19.87-2.64-29.8-4.94-36.19-5.63-15.65-12.17-15.09-25-36.19C3046.82,1427.23,3037.5,1411.88,3043.4,1400.42Z" transform="matrix(1, 0, 0, 1, -4383.633301, -2059.259766)" style="fill: rgb(109, 191, 191); opacity: 0.5; stroke: rgb(109, 191, 191);"/>
  <path class="b" d="M3020.29,1574.93c-6-8-9.28-20.46-5-23.89,2-1.61,5.15-.75,7.85,0,10.47,2.92,22.59,13.58,20.49,23.89-.85,4.13-4.06,8.68-8.43,9.58C3028.49,1585.9,3022.47,1577.84,3020.29,1574.93Z" transform="matrix(1, 0, 0, 1, -4383.633301, -2059.259766)" style="fill: rgb(255, 255, 255); opacity: 0.5; stroke: rgb(255, 255, 255);"/>
  <path class="c" d="M2138.18,1133.05c4.4,2.3,6.71.65,21.27,0,1.17,0,7.82,0,21.12,0,7.63,0,15.28-.42,22.9,0,10.54.57,15.08,1.71,20.68-1.32,1.43-.77,6.5-3.51,6.83-7.82s-4.53-8-8.15-10.59c-6.79-4.86-10.86-4.93-19.36-8.3-13.4-5.3-12.15-8.5-22.9-11.74-6-1.83-11-2.07-20.91-2.56-11.68-.57-17.52-.86-21.48,1.51-7.62,4.55-11.21,14.77-10.19,23.51C2128.15,1117.11,2129.65,1128.59,2138.18,1133.05Z" transform="matrix(1, 0, 0, 1, -4383.633301, -2059.259766)" style="fill: rgb(255, 255, 255); opacity: 0.5; stroke: rgb(252, 252, 252);"/>
  <path class="d" d="M2246.81,1135.32" transform="matrix(1, 0, 0, 1, -4383.633301, -2059.259766)" style="fill: none; opacity: 0.5; stroke: rgb(252, 252, 252); stroke-width: 5px;"/>
  <path class="c" d="M2410.59,1137.7c3.06,2.25,5.25,1.36,20.71,1,12.09-.26,11.89.27,17.35-.32,7.93-.85,8.25-1.94,18.62-3.55,7.39-1.15,12-1.87,18.28-1.8,10.65.11,13.25,2.34,18.24,0,.31-.15,7.84-3.82,8.55-11,.82-8.27-8.11-13.77-8.55-14-3.66-2.19-5.53-1.45-18.28-2.39-10.74-.79-10.26-1.37-19.81-1.88-6.35-.34-11.18-.33-17-.32-11.83,0-10.86.48-17.35.32-14.35-.37-16.91-2.58-20.71,0-6.13,4.16-5.9,14.25-5.82,17.63C2404.85,1125.24,2405,1133.62,2410.59,1137.7Z" transform="matrix(1, 0, 0, 1, -4383.633301, -2059.259766)" style="fill: rgb(255, 255, 255); opacity: 0.5; stroke: rgb(252, 252, 252);"/>
  <path class="c" d="M2827.53,1416.39c6.8,5.43,7.93,6,10.32,8.79,4.79,5.46,4.69,8,6.91,8.44,5.81,1.06,17.57-14.62,16.11-30.67-.69-7.61-4.14-13-6.59-16.75-3.44-5.32-10.58-16.37-23.05-17.94-6.23-.79-16,.5-20.68,7.4-3.61,5.33-2.88,12.07-2.55,15.1a28.38,28.38,0,0,0,2.81,9.66C2812.08,1402.92,2813.92,1405.53,2827.53,1416.39Z" transform="matrix(1, 0, 0, 1, -4383.633301, -2059.259766)" style="fill: rgb(255, 255, 255); opacity: 0.5; stroke: rgb(252, 252, 252);"/>
  <path class="c" d="M1314,1095.66c3.29-12.07,17.07-23.1,29.29-21.79,13.77,1.47,14.66,17.42,29.62,19.07,11.06,1.21,16.88-6.8,24.67-2.47,4.77,2.65,7.57,8.44,7.68,13.79a17.65,17.65,0,0,1-7.67,14.55c-5.61,3.81-10.61,1.9-27.14.51-16.73-1.4-15.46.24-27.16-1.36-14.58-2-25.84-3.68-29.29-11.41C1312.17,1102.43,1313.31,1098.26,1314,1095.66Z" transform="matrix(1, 0, 0, 1, -4383.633301, -2059.259766)" style="fill: rgb(255, 255, 255); opacity: 0.5; stroke: rgb(252, 252, 252);"/>
  <path class="c" d="M977.44,975.17c4.95,3.44,10.56-.17,21-1.65,3.94-.56,2,.12,22.57.57,4,.08,12.55.24,23.44-.57,11.09-.83,15.1-2,15.8-4.33.55-1.89-1.18-4-1.86-4.74-3.18-3.78-8.38-4.51-13.94-4.63-10.59-.24-13.3,1.91-23.44,2.78-8.1.69-15.26.07-22.57-.57-9.66-.84-15.88-2.15-21,1.65-.9.67-3.56,2.64-3.65,5.51C973.68,972.49,977,974.89,977.44,975.17Z" transform="matrix(1, 0, 0, 1, -4383.633301, -2059.259766)" style="fill: rgb(255, 255, 255); opacity: 0.5; stroke: rgb(252, 252, 252);"/>
  <path class="c" d="M3141.7,2090.81c-6.21-2.84-11.69-9-19.88-39.7-3.58-13.41-5.71-24.71-9.83-46.77-4.08-21.87-5-29.21-5.56-36-.26-3.09-.76-9.67-.85-30-.12-24.92-.18-37.38,1-47.32,2.23-19.13,4.63-39.74,17.11-44.68.93-.37,7.94-3.3,12.67,0,7.09,5,1.55,18.63-.87,50.17-1.3,17-1.12,31.62-1,41.83.16,12.58.61,14.14.86,30,.41,25.8-.73,25.34,0,36a184.34,184.34,0,0,0,9.83,46.77c8.06,23.88,16.7,34.64,12.07,39.7C3154.05,2094.3,3146.44,2093,3141.7,2090.81Z" transform="matrix(1, 0, 0, 1, -4383.633301, -2059.259766)" style="fill: rgb(255, 255, 255); opacity: 0.5; stroke: rgb(252, 252, 252);"/>
  <path class="a" d="M2651,1155.1c6.14,16.18,14.83,15.33,38.22,42.05,12.9,14.75,15,20.48,28.34,32.17,15.12,13.3,24,16.13,31.86,15.8,2.24-.09,10.19-.53,16.79-6.11,10.76-9.1,9.93-25.3,9.56-32.67-1.29-25.32-16.28-43.21-24.84-53.42-6.84-8.15-25-29.3-55.93-38.16-13-3.74-31.27-9.1-41.36.43S2646.91,1144.24,2651,1155.1Z" transform="matrix(1, 0, 0, 1, -4383.633301, -2059.259766)" style="fill: rgb(109, 191, 191); opacity: 0.5; stroke: rgb(109, 191, 191);"/>
  <path class="e" d="M1264.16,1569.19c-4.91-10.15-8-16.56-6-23.49,1.85-6.19,7.28-10.93,12.77-12.76,5.07-1.69,8.84-.46,18.89,2.29,27.05,7.4,24.57,5.24,31.15,8.17,16.06,7.17,21.21,15.78,25.33,13.37,3.87-2.27,3.29-12.22,0-19.39-3.71-8.07-11-12-25.33-19.42-11.13-5.78-19.26-10-31.15-12.6-17.5-3.81-18.63,1.27-31.66-1.7-26-5.91-30.7-28.18-48.78-26.44-12.07,1.16-19.11,12-19.64,12.82-8.66,13.75-.45,29.8,0,30.64,3.32,6.26,6.78,7.46,19.64,16.8,15.22,11,12.32,10.76,39.92,31.71,15.14,11.49,21.06,15.4,22.14,14.3S1268.64,1578.44,1264.16,1569.19Z" transform="matrix(1, 0, 0, 1, -4383.633301, -2059.259766)" style="fill: rgb(255, 237, 0); opacity: 0.5; stroke: rgb(255, 237, 0);"/>
  <path class="e" d="M1351.66,1589.62" transform="matrix(1, 0, 0, 1, -4383.633301, -2059.259766)" style="fill: rgb(255, 237, 0); opacity: 0.5; stroke: rgb(255, 237, 0);"/>
  <path class="a" d="M3315.06,2738.56c-16.61-14.45-22.86-33.09-24.51-38.54-2.8-9.31-3.2-19.06-4-38.57-.47-11.39-.29-20.32,0-35.82.36-18.52.8-18.47.95-31.59.11-10.16-.24-21.26-.95-43.05-1-31.76-1.31-30.69-1.3-40.49,0-15.26.71-15.92,1.3-40.5.53-22,.8-33,0-38.83-3.33-24.43-11.52-28.28-10.28-44.31,1.48-19.3,14.82-32.69,16.34-34.17,14.19-13.88,37.57-13.75,83.74-13,50.48.89,59.88,7.11,65.36,12.94,5.76,6.12,8.78,15.47,14.81,34.17a198.26,198.26,0,0,1,9.68,44.31c.75,7.84.17,7.21,0,43.39v35.94c0,13.77,0,34.54,0,40.49,0,29.68,0,30.24,0,38.82-.1,20.93-.28,20.52-.3,35.82,0,19.44.27,38.74.3,40.93.39,26.45.79,27.51,0,33.46-1.31,9.92-3.49,26.41-13.23,38.54-15.79,19.66-44.7,19.44-68.47,19.27C3363,2757.66,3336.8,2757.47,3315.06,2738.56Z" transform="matrix(1, 0, 0, 1, -4383.633301, -2059.259766)" style="fill: rgb(109, 191, 191); opacity: 0.5; stroke: rgb(109, 191, 191);"/>
  <path class="a" d="M3813.07,3440.18c-15.67-8.56-25.49-19-34.69-28.77-10.46-11.11-12.94-16.59-28.3-38.07-18.34-25.66-20.44-25.71-32.07-42.27-19-27-17.14-32.18-36-63.28-31.22-51.44-41.26-45.53-47.27-70.19-8.52-35,9.42-56.15-7.15-73.71-7.67-8.13-20.17-12.76-31.66-12.06-5.37.33-14,2-26.55,12.06-6.71,5.38-41.94,35.08-41.77,77.71.1,22.05,9.56,24,31.56,72.13,25.61,56.05,17,62.62,37,91.91,12.83,18.78,12.18,9.93,62.79,61.58,28.37,29,36.18,39.5,56.2,53.07,23.06,15.62,35.78,24.7,54.59,26.23,37.89,3.07,72.51-12.16,86.13-32.14,3.65-5.35,4.28-8.65,3.71-11.4C3857.31,3452.22,3837.29,3453.4,3813.07,3440.18Z" transform="matrix(1, 0, 0, 1, -4383.633301, -2059.259766)" style="fill: rgb(109, 191, 191); opacity: 0.5; stroke: rgb(109, 191, 191);"/>
  <path class="f" d="M3805.79,2378c-5.65-5.55-22,1.56-30.62,5.29a87.59,87.59,0,0,0-20,12.26,130.58,130.58,0,0,0-27.85,30.88c-33.16,50.37-49.8,75.73-52.43,84-2.51,7.87-13.66,42.82-8,79.33,1,6.1,3.25,17.88,4.81,35.82,1.34,15.48,1.49,28.09,1.57,35.83.18,18.26-.68,18.61-.77,38.55-.09,21.65-.09,32.8,2.37,47.23,1.85,10.95,4.44,19,7.85,29.86,7,22.34,9.67,23.17,13.79,38.56,2.75,10.27,1.26,8.79,6.13,40.09,4,25.76,5.13,27.49,6.13,40.09.7,8.89.64,17.16.51,33.7-.25,32.13-1.68,32.94-.52,46.5,1.13,13.14,2.36,11.09,6.13,37,3.15,21.69,2.21,22.6,4.85,37a354,354,0,0,0,9.13,37c5.84,20.26,8.67,30.42,12.21,37,10.64,19.76,18.87,17.69,28.64,36.78,7.07,13.81,3.9,17.12,11.47,36.79a171.68,171.68,0,0,0,19.85,36.8c4.06,5.94,14.24,20.11,47.64,49,17.32,15,35.43,29,53,43.65,7.24,6,16.23,13.52,21.27,10.74,3.1-1.72,2.4-6.06,3.28-22.43,1.18-21.91,3.22-28.53-1.78-34.25-2.77-3.16-5.22-3.23-9.73-5.44-5.49-2.68-11.19-7.14-27.92-36.69-14.76-26.09-9.72-21.55-19.85-38.3-3.86-6.38-7.94-12.57-9.87-22.21-1.35-6.72-.15-7.08-1.6-17.65a151.77,151.77,0,0,0-5.3-23c-1.76-6.09-3.28-10.38-4.48-13.83-4.84-13.9-3.14-9.93-12.22-37-11.38-34-11.05-31.22-12.4-37-2.49-10.62-1.45-10.57-5.37-37-2.21-15-4.2-26.19-6.12-37s-4.2-23.64-7.66-40.1c-2.53-12-4.75-21.37-9.19-40.1-7.35-31-8.1-32.3-9.95-42.9-2.46-14.09-3.47-25-4.61-37.29-1.19-12.95-2.21-23.91-2.3-38.55-.06-10.93.54-20.13,1.75-38.54,1.59-24.18,2.27-24.38,2.81-38.55.29-7.72.19-18,0-38.55-.19-19.59-.29-29.51-.81-35.83-1.46-17.87-3.3-18.29-4.8-35.82a293.22,293.22,0,0,1-.48-39.66c1.16-21.61,3.48-21.56,4-39.67.72-23.12-3-24.93-1-40.48,1.08-8.33,2.65-11.63,13.26-38.84C3807.24,2388.73,3809.35,2381.55,3805.79,2378Z" transform="matrix(1, 0, 0, 1, -4383.633301, -2059.259766)" style="fill: rgb(255, 255, 0); opacity: 0.5; stroke: rgb(255, 255, 0);"/>
  <path class="f" d="M2622.64,3134.81c-1.91-2.93-.67-4.18-2-11.07-1.18-5.89-2.28-6-4.09-13.61a87.85,87.85,0,0,1-1.7-9.53,98.47,98.47,0,0,1-.62-12.94c.1-4.51.47-5.89-.06-9.19-.42-2.62-.9-3.28-1.36-6.13-.58-3.56-.3-5.39-.34-8.51,0-1.32-.09-2-2-14-1.51-9.21-1.65-9.89-2-11.23a42.3,42.3,0,0,0-4.77-10.9,23.34,23.34,0,0,0-5.78-6.8c-1.57-1.19-2.34-1.39-6.81-3.75-5.62-3-5.31-3.11-6.81-3.74-7.17-3-10.08,2.27-18,0-1.8-.52-5-2.28-11.24-5.79a64.49,64.49,0,0,0-5.78-3.06c-.89-.4-1.77-.77-8.17-3.07-3.1-1.11-4.67-1.67-5.79-2-2-.67-3.66-1.14-6.81-2-5.69-1.64-6.6-1.8-8.51-2.73a40.5,40.5,0,0,1-4.43-2.72c-5.23-3.46-5.68-4.39-8.85-6.13a36.23,36.23,0,0,0-6.46-2.72c-3.1-1-3.71-.83-9.2-2-4.65-1-8.14-2-10.55-2.73-2.9-.83-4.34-1.25-5.45-1.7-4.2-1.71-4.77-3-9.19-5.45s-4.83-1.67-9.87-4.42c-4.16-2.28-3.73-2.73-7.15-4.43-4.89-2.42-5.46-1.34-10.21-3.74-3.54-1.79-3.86-2.72-7.83-4.43-2.27-1-2.31-.73-5.45-2-4.24-1.76-6.39-2.68-7.49-4.43-1-1.55-.62-2.42-2-4.08a11.58,11.58,0,0,0-3.06-2.38,23.73,23.73,0,0,0-4.43-2.05c-.83-.28-3.5-1.55-8.85-4.08-3.16-1.5-5.51-2.7-10.21-5.11-5.67-2.9-7-3.66-8.17-4.42-3.2-2-4.8-3-6.13-4.43-3.78-4-5.51-11.13-3.7-15.71,3.44-8.66,20.57-8.73,35.36-8.8,14.28-.07,26.92-.13,38.81,7.49,3.42,2.2,4.21,3.38,15.32,11.23,8.31,5.88,12,8.12,16.34,10.22a92.34,92.34,0,0,0,12.25,4.76,122.52,122.52,0,0,0,16.68,4.09,88.56,88.56,0,0,0,16.34,1.7c6,0,10.26,0,15.49-1.87a67.06,67.06,0,0,0,10-4.94c5.46-3.09,6.42-4.32,9.2-4.76,3.9-.63,5.77,1.07,10.55,2.72,7.43,2.56,8.58-.4,21.79,1,5.78.62,9.94,1.1,15,3.4,1.25.58,4.24,2.54,10.21,6.47,8.27,5.45,9.59,6.63,10.89,8.51,2.42,3.51,1.51,4.72,4.09,7.49s4.37,2.33,8.51,5.45c.81.61,1.7,1.35,6.81,7.15,4.81,5.46,7.24,8.17,7.83,9.19,1,1.77,4.23,7.3,3.4,14-.14,1.15-.88,6.22-6.81,12.67-9.93,10.81-18.54,8.21-21.44,14.2-4.14,8.51,12.13,16.64,19.15,39.32.57,1.86.5,1.92,2.29,41,.92,20,1.41,30.28-5.36,37.62-1.43,1.56-5.14,5.58-10.64,5.62A12.88,12.88,0,0,1,2622.64,3134.81Z" transform="matrix(1, 0, 0, 1, -4383.633301, -2059.259766)" style="fill: rgb(255, 255, 0); opacity: 0.5; stroke: rgb(255, 255, 0);"/>
  <path class="f" d="M1853.46,2957.62c13.67-5.14,20.56,3.21,43.61,5.78,17.3,1.94,16.46-2.42,43.61-1.7a259.51,259.51,0,0,1,37,3.62c24.63,4.31,23.68,8.14,38.81,8.78,10.31.42,25.39-3.31,34.72,1.58,1.31.68,4.4,2.36,4.6,4.9.16,2-1.45,3.88-4.6,6.14-3.43,2.47-10.31,6.51-22.46,8.68a122.55,122.55,0,0,0-12.26,5.62c-21.27,10.92-15.62,44.69-38.81,64.34-14.68,12.44-33.21,12.69-37,12.66-18.57-.17-18.55-10.06-43.61-14.36-19.41-3.33-31.81.48-43.61-9.62-5.25-4.49-7.49-6.65-7.5-9.1,0-3.84,3.81-6.7,5.1-7.66,13-9.72,29.08,3.09,46-4.7,9.32-4.28,18.14-14.46,17.82-25.43-.29-10.1-8.29-20-17.82-23.38-15.72-5.6-25.73,10-43.61,4.19-6.7-2.18-15.44-7.68-15.67-14.51C1837.55,2966.31,1846.65,2960.18,1853.46,2957.62Z" transform="matrix(1, 0, 0, 1, -4383.633301, -2059.259766)" style="fill: rgb(255, 255, 0); opacity: 0.5; stroke: rgb(255, 255, 0);"/>
  <path class="f" d="M1862.42,2598c12.78,7.48,14.81,7.57,23.88,12.94a165.13,165.13,0,0,1,18.62,12.77,163,163,0,0,1,14.57,13.28c7.59,7.6,6.83,8,18.38,20.42,6.24,6.73,7.68,7.94,10.22,11.75s6.06,9.25,7.14,16.85a39.66,39.66,0,0,1-.51,12.76c-.78,4.91-1.41,8.88-4.08,13.28a30.16,30.16,0,0,1-10,9.7,40.67,40.67,0,0,1-11.49,5.11c-3.13.86-6.12,1.3-14.81,1.53-7.42.2-13.06.09-17.36,0-14.31-.3-21.48-.45-22.47-.51-7.35-.46-12.73-1.16-23.49-2.55-9.16-1.19-14-1.82-20.93-3.07-11.05-2-11.94-2.75-17.87-3.06-3.3-.17-6.26-.1-14.81-.51-5.08-.25-7.36-.43-10.22-1.53-3.85-1.5-4.42-3-8.17-5.11-5-2.84-12.74-5.08-14.29-3.06-2.06,2.66,6.21,13.33,14.29,20.93,9.88,9.29,17.71,12.34,43,23.89,33.2,15.16,32.2,15.61,40.35,18,8,2.32,19,3.92,41.24,7.13,5.37.77,18.78,2.67,36.77,4.62,17.27,1.88,25.91,2.81,35.23,3.06,16.94.46,26.43.71,38.81-2.31,9.36-2.29,23.88-5.83,36.76-18.33,3.7-3.58,14.78-14.33,17.88-30.93,3.43-18.45-5.06-33.07-17.88-55.15-6.17-10.64-16-27.21-34.72-42.38-9.93-8-19.55-13-38.81-23-6.64-3.44-17.38-8.37-38.59-18.09-34.42-15.78-26.74-11.84-34.19-15.46-27.48-13.38-32.1-18.47-42.5-17-12.88,1.78-24.22,12.12-23.1,17.9.24,1.25,1.06,2.25,12.77,9.7C1857.4,2594.87,1860.05,2596.56,1862.42,2598Z" transform="matrix(1, 0, 0, 1, -4383.633301, -2059.259766)" style="fill: rgb(255, 255, 0); opacity: 0.5; stroke: rgb(255, 255, 0);"/>
  <path class="f" d="M1534.47,2338.72c3.3,12.54,14.8,13.12,24.76,29.11,2.3,3.68,3.5,6.55,5.88,12.26,3.94,9.44,3.61,11.77,3.06,13.27-1.53,4.18-6.26,6-8.94,7-2.35.88-7.75,2.5-21.7-.32-7.13-1.44-11.9-3.12-20.42-6.11-11.34-4-17.08-6-20.43-9.21-5.4-5.11-5.39-9.21-10.21-10.72-5-1.56-11.76.65-13.28,4.59-2.13,5.52,6.54,13.2,11.24,17.36,10.51,9.33,20.33,13,32.68,17.94,0,0,19,7.6,42.12,17.75,23.9,10.47,29.56,14.37,42.13,14.74,5.64.17,19.57.58,25.53-8,3.48-5,2.91-11.15,2-16.34-5.19-31.27-25.56-55.83-27.58-58.22-18.21-21.5-34.89-29.27-42.13-32.17-5.07-2-19.68-7.87-24.25-2.55C1532.63,2331.75,1533.84,2336.36,1534.47,2338.72Z" transform="matrix(1, 0, 0, 1, -4383.633301, -2059.259766)" style="fill: rgb(255, 255, 0); opacity: 0.5; stroke: rgb(255, 255, 0);"/>
  <path class="f" d="M873.7,1854.38a55.75,55.75,0,0,0-2.81-7.91c-2.71-5.79-3.28-5.74-4.08-7.92-1.83-5-.51-9.64,1-15.06s2.34-4.8,6.38-14.81c2.49-6.15,2.49-7.12,4.6-11.49,2.34-4.83,3.65-7.55,6.41-10.44,1.91-2,4.58-3.63,9.93-6.92a64.9,64.9,0,0,1,9.19-5.11,52.16,52.16,0,0,1,11.49-3.06,76.19,76.19,0,0,1,11.49-1.28c2.1-.05,4.29,0,8.68.26,5.27.25,7.91.37,9.7.76a41,41,0,0,1,9.45,3.58c3.7,1.75,3.67,2.14,7.66,4.08s6.3,3.08,9.45,3.83c5.07,1.21,5.49-.21,11.23.73,6.71,1.1,9.18,3.55,11,2.08,1.57-1.27,1.56-4.64.25-6.89-2.59-4.48-10.26-4.44-13.7-4.56-.55,0-.23,0-40.17-13.57-40.33-13.68-12.15-4-38-12.77-23.45-7.92-29.9-10.22-39.58-8.42-6.9,1.28-11.86,4-21.44,9.19-11.3,6.14-17.81,9.69-20.94,16.6-3.26,7.21-1.13,14.31,2,24.34,4.1,13,13,25,30.64,48.68,0,0,3.34,4.47,13.53,14.55,3,3,6.25,6,7.15,5.36C874.44,1858.05,874.6,1857.61,873.7,1854.38Z" transform="matrix(1, 0, 0, 1, -4383.633301, -2059.259766)" style="fill: rgb(255, 255, 0); opacity: 0.5; stroke: rgb(255, 255, 0);"/>
  <path class="b" d="M840.17,1936c.73,1.15,7.64,11.71,19.06,14.63,5.22,1.34,7.19,0,7.83-.52.79-.65,2.38-2.41,2-8-1-12.38-10.27-21.62-11.65-23-5.09-4.92-17.5-14.72-22.49-11.18S834.21,1926.66,840.17,1936Z" transform="matrix(1, 0, 0, 1, -4383.633301, -2059.259766)" style="fill: rgb(255, 255, 255); opacity: 0.5; stroke: rgb(255, 255, 255);"/>
  <path class="g" d="M2594,1526.3c2.34,2.69,6.35,7.18,11.75,7.15a12.08,12.08,0,0,0,9.93-5.62c4.44-8.09-6.75-22.07-18.27-36.19-15.14-18.54-16.84-14.78-40.17-39.24-10.48-11-16.09-18-22-16.49s-10.76,9.69-9.7,16.49,7.77,9.35,18.89,18.24c9.76,7.8,15.86,14.92,21.45,21.45C2572.76,1500,2580.87,1511.14,2594,1526.3Z" transform="matrix(1, 0, 0, 1, -4383.633301, -2059.259766)" style="fill: rgb(0, 102, 0); opacity: 0.5; stroke: rgb(0, 102, 0);"/>
  <path class="g" d="M2443.4,1441.53" transform="matrix(1, 0, 0, 1, -4383.633301, -2059.259766)" style="fill: rgb(0, 102, 0); opacity: 0.5; stroke: rgb(0, 102, 0);"/>
  <path class="g" d="M2434.72,1668c-5.28-15.22-23.49-30.38-23.49-30.38-2.12-1.77-12.31-12.76-32.68-34.73-17-18.35-25.61-27.69-30.12-36.25-7.58-14.35-10.19-27.72-12.66-40.34a207.1,207.1,0,0,1-3.68-34.66,195.36,195.36,0,0,1,1.94-39.24c3.23-20.4,4.84-30.6,11.5-38.07,10.35-11.6,24.6-12.35,25.87-22.84.39-3.19-.42-7.31-2.29-7.92s-4,3.1-9.58,7.28c-2.82,2.1-5.41,3.31-10.59,5.75-3.34,1.56-4,1.67-15.83,6.38-6.29,2.5-8,3.24-10.47,4.85a32.25,32.25,0,0,0-7.41,6.5c-3.31,4-4.7,7.94-6.38,12.65-2.19,6.15-1.41,6.76-3.57,11.23-1.75,3.61-2.61,4-4.34,7.92a45.43,45.43,0,0,0-2.81,8.93,58.86,58.86,0,0,0-1,10.22c-.2,5.76.23,6.22.25,13.27,0,6.44-.33,6.73-.25,13.09a94.77,94.77,0,0,0,.51,10.66,133.46,133.46,0,0,0,2.81,14c1.72,7.52,1.81,7.09,2.29,10,1.16,7,.33,7.94,1.54,12.25a32.77,32.77,0,0,0,5.1,10.22c3.7,5.36,5.36,5.11,10,11.49a32.63,32.63,0,0,1,4.59,7.91c1.45,3.76.94,4.87,2.05,9.45s2.56,7.52,5.1,12.76a65.22,65.22,0,0,0,5.88,10.47c3.87,5.43,5.33,5.14,13.53,14.3a55.45,55.45,0,0,1,6.13,7.66c2.46,4,2.34,5.32,4.85,8.93a35.53,35.53,0,0,0,6.64,7.15c3.55,3,4.89,3.14,9.95,6.39,1.43.91,5.23,3.85,12.77,9.7,4.92,3.81,6.51,5.08,10,7.66s5.13,3.83,7.4,5.36a91,91,0,0,0,11.49,6.64c6.73,3.24,9,3.23,10.72,2.81a6.9,6.9,0,0,0,4.34-2.81C2436.19,1672.21,2435.12,1669.15,2434.72,1668Z" transform="matrix(1, 0, 0, 1, -4383.633301, -2059.259766)" style="fill: rgb(0, 102, 0); opacity: 0.5; stroke: rgb(0, 102, 0);"/>
  <path class="h" d="M2379.23,1452.4c8.56-10.72,25.82-10.07,45.28-9.34,8.69.33,25.64,1.66,49,9.34,16.16,5.31,44.17,14.83,70.47,39.24,11.72,10.87,21.17,19.65,25.95,34.66,2.44,7.69,2.34,19.08,2.14,41.87,0,3.16-.2,17.59-2.14,36.77-2.27,22.34-4.65,28.33-9.61,32.68-7.3,6.39-16.68,6.15-17.36,6.12-1.49,0-9.31-.51-15.32-6.12-7.61-7.11-4.82-15.45-9.19-32.68-3.47-13.66-5.7-22.44-12.77-28.09-5.79-4.63-11-4.1-45.61-3.23-19.55.49-27.14.55-36.43.17-19.62-.81-29.54-1.3-35.12-5.62-10-7.73-11.41-21.34-13.56-41.87-.71-6.78-.49-16.17,0-34.66C2375.86,1458.18,2377,1455.22,2379.23,1452.4Z" transform="matrix(1, 0, 0, 1, -4383.633301, -2059.259766)" style="fill: rgb(102, 51, 102); opacity: 0.5; stroke: rgb(102, 51, 102);"/>
  <path class="a" d="M3292.85,844.34c-4.76-8-8.64-14.56-6.38-21.19,2.51-7.4,11.65-12,19.4-12.26,7.28-.26,11,3.39,30.08,15,9.46,5.76,14.19,8.65,17.92,10.53,17.7,8.89,26.36,5.9,46,11.23,7.39,2,24.39,6.64,39.66,19,12.77,10.3,10.79,15.06,30.29,40.78,17,22.41,20,20.75,33.2,40.05,8.06,11.76,5.95,10.91,22.34,38.16,14.82,24.62,16.13,24.62,23,37.74,9.64,18.46,7.48,19.29,17.49,38.82,12.06,23.55,15.68,23.29,20.94,38.28,4.05,11.58,3.42,16.07,7.22,38.28,7,41.15,5.1,21,9.11,42.9,1.3,7.05,2.56,14.57,7.15,23.49,2.77,5.36,4,6,7.15,12.25,2.69,5.41,6.06,12.19,7.15,21.45.53,4.48,1.38,12.41-2,21.45-2.52,6.64-6.11,10.64-11.24,16.34-5.59,6.22-8.75,9.64-14.29,11.23a23.66,23.66,0,0,1-13.76-.48c-5.09-1.61-9.31-4.69-17.9-14.84-7.76-9.16-8.19-11.21-13.28-17.36-11.61-14-17-12.57-30.51-27.63a106.78,106.78,0,0,1-13.4-18.33c-5.88-10.45-5.09-14.9-10.22-27.57-5.74-14.2-7.89-12.12-14.3-26.56-4.87-11-7.11-20.07-11.23-36.76-2.84-11.52-2.77-13.48-5.82-24.51-3.34-12.1-6.51-20.89-7.46-23.49a279.14,279.14,0,0,0-11.23-26.56c-3.22-6.57-4.88-9.23-20.43-34.72-14.43-23.68-15.81-26-19.68-31.66-3.15-4.6-9.44-13.59-18.1-24.51-11.4-14.37-12-13.29-21.45-25.53-9.66-12.52-10.21-15.19-19.49-26.29a199.23,199.23,0,0,0-15.23-16.6c-10.74-10.39-13.49-10.52-24.39-21S3294.17,846.57,3292.85,844.34Z" transform="matrix(1, 0, 0, 1, -4383.633301, -2059.259766)" style="fill: rgb(109, 191, 191); opacity: 0.5; stroke: rgb(109, 191, 191);"/>
  <path class="a" d="M3611,947.45c-14.67-26.21-24.28-27.62-28.5-46.42-3-13.18,1-16-3.45-34.42-2.07-8.62-4.41-18-11.11-27.72-4.67-6.78-7.94-8.62-24.53-22.43-15.4-12.82-23.1-19.23-25.64-22.41-13.64-17.11-6.28-27-16.42-43.41-11.22-18.19-26.31-16-52.82-33.47-16.91-11.16-27-24.19-44.12-43.86-7.31-8.39-6.16-7.71-27.79-34.24-14.41-17.65-21.61-26.48-31.26-37.66-18-20.83-27.27-31.46-39.5-41.75-13.37-11.25-23.13-19.46-38.81-25-14.67-5.16-17.27-1.87-34.21-7.72-20.91-7.22-20.49-13.44-36.76-17.36-10.35-2.49-11-.1-40.09,0-32.12.1-31.62-2.82-40.09,0-20,6.66-19.26,21.81-39.82,29.15-18.29,6.52-23.39-3.87-35.75,2-26.24,12.44-10.38,62.59-40.34,81.7-6.39,4.08-17.11,5.95-38.55,9.7-14.87,2.6-26.53,3.35-38.56,4.09-20.33,1.24-30.5,1.86-35.74,0-19.15-6.84-28.17-27-35.75-43.92-4.68-10.47-9.34-21.22-8.17-35.74a58.8,58.8,0,0,1,8.17-25.54c4.56-7.34,9.3-10.91,35.75-27.57,20.14-12.69,30.32-19.08,35.74-21.45,18.33-8,20.27-4.44,38.56-12.25,23.91-10.22,23.4-17.51,38.55-19.92,16.69-2.65,19.17,5.89,40.34,4.6,20.29-1.24,21.67-9.31,35.75-7.61,16.28,2,16.62,13,39.82,22.93,14.64,6.24,27.77,7.5,40.09,8.68,20.9,2,22.53-1.6,40.09,1.07,15.28,2.33,14.88,5.18,36.76,10.16,23.29,5.31,24.48,2.25,37,6.89,19.69,7.28,18.66,15.52,36,22.47,22.08,8.86,28.25-2.71,49.66,4.86,24.83,8.78,38.62,32.17,43.13,39.83,11,18.71,5.47,23.21,17.51,41.87,3.28,5.08,12.38,14.54,30.59,33.46,20.45,21.25,25.43,24.9,27.79,34.23.78,3,1.93,9.3,7,15a30.53,30.53,0,0,0,12.26,8.18c19.63,7.69,39.32,15.41,50,23.48,12.08,9.1,16.45,21.44,22,37,9.33,26.35,3.05,39.52,14.81,61,4.7,8.62,9.89,9.5,16.47,20.85,6.85,11.81,6.27,17,11.11,27.72,8.31,18.38,16,16.33,27.24,34.42,8.36,13.45,4.14,14.61,16.3,46.42,7.14,18.65,10.7,28,16.31,38.15,8.9,16.16,19.56,30.22,14.69,37.74-1.5,2.31-7.15,8.15-7.15,8.15h0c17,14.25-36.28-27.2-48.26-45.89C3617,969.51,3623.46,969.71,3611,947.45Z" transform="matrix(1, 0, 0, 1, -4383.633301, -2059.259766)" style="fill: rgb(109, 191, 191); opacity: 0.5; stroke: rgb(109, 191, 191);"/>
  <path class="i" d="M2837.11,386.13h-7.66l-11.24-4.6L2808,379h-21.86l-13.78-2h-49.64l-16.34-6.13-14.29-2.55h-14.81l-60.26,2-14.52-2-15.61-5.11a67.92,67.92,0,0,0-13.27-4.6c-10.09-2.35-13.44-.67-25-3.06-8.46-1.74-7.95-2.9-14.3-3.58s-8.52.32-18.39.52a149.32,149.32,0,0,1-15.82-.52c-6.8-.59-14-1.22-22.47-4.08-6.92-2.32-6.33-3.28-12.77-5.11s-11.54-2.15-17.36-2.55a85,85,0,0,0-15.83,0c-5.87.61-6.45,1.39-13.79,2.55a133.16,133.16,0,0,1-17.36,1.54c-6.51.23-7.9-.11-20.42-.52-2.22-.07-10.33-.21-26.56-.51-14.68-.26-15.92-.26-19.4-.51-5.82-.4-10.51-1-19.41-2-10.7-1.29-11.75-1.64-17.36-2-3.42-.25-7.39-.34-15.32-.51-13.65-.3-14.09-.07-18.38-.51-3.08-.32-2.15-.36-15.32-2.56-11.93-2-15.29-2.37-16.85-2.55-2.74-.3-7.29-.8-13.28-1-6.6-.24-6.86.16-13.78,0-2.63-.06-3.29-.13-16.86-1-11.13-.73-12.15-.78-14.29-.51-4.26.53-4.3,1.23-13.28,3.57a109.67,109.67,0,0,1-14.3,3.07c-5.8.77-9.69,1.29-14.81.51-3.38-.52-3.19-1-13.27-3.58a66.5,66.5,0,0,0-9.19-2c-4.53-.42-8,.18-12.77,1-6.63,1.18-7.16,2.08-12.26,2.55-1.91.18-2.19.09-9.19,0-4.56-.05-9.43-.1-14.81,0-9.84.2-12.24.76-13.27,1a52.46,52.46,0,0,0-9.19,3.57c-6,2.71-7.07,3.82-11.75,5.62a49.28,49.28,0,0,1-8.68,2.55c-5.39,1-7.57.36-16.85.51a91.76,91.76,0,0,0-10.72.51,49.23,49.23,0,0,0-16.85,5.62" transform="matrix(1, 0, 0, 1, -4383.633301, -2059.259766)" style="fill: none; opacity: 0.5; stroke: rgb(255, 0, 0); stroke-width: 6px;"/>
  <path class="i" d="M3808,2420.17a22,22,0,0,0,4.59-9.19c1.09-4.95-.51-6.71.77-11.49,1.37-5.14,3.7-4.9,5.36-10,1.06-3.23.71-6.75,0-13.79-.49-4.84-1.17-8.54-2.3-14.55-1.31-7-1.41-6.36-2-10.21a127.45,127.45,0,0,1-1.53-17.36c-.23-9.94.87-9.59,0-14.81-1-5.84-2.43-6.83-3.07-13.28a59.08,59.08,0,0,1,0-10.21,63.92,63.92,0,0,1,1.54-10.72c1.52-6.41,3.06-7.67,4.59-12.77,1.28-4.26,1.27-6.9,1.53-15.32.58-17.86.46-.18,1-24,.49-21,.18-17.82.51-26.55.64-17.44,1.61-22.56,1-32.17-.1-1.54-.39-5.81-.51-11.75-.1-4.89,0-7.44,0-10.72,0-8.33-.46-14.64-1-22-.87-11.19-1.3-16.79-2-18.89-2-5.71-5.2-10.21-5.1-17.87,0-2.6.42-4.14,1.53-5.11,2.89-2.53,10-.56,12.76,3.57.71,1,1.15,2.91,2,6.64,1.16,4.89.87,5.84,2,7.66.23.35,2.81,4.29,6.13,4.09,3.56-.22,5.71-5.06,6.64-7.15,2.35-5.32,2-9.75,2-13.28.24-10.61,4.67-10.17,8.17-25.53,2.23-9.8.32-9.53,3.06-22.47,1.85-8.75,2.92-9.77,3.58-16.34.75-7.5-.36-9,.51-17.36.72-7,1.61-7,2.55-14.3.63-4.83.6-10.09.51-20.42-.08-9.65-.12-14.48-.51-20.43-.68-10.26-1.39-10.74-2-20.94s-1-15.44,0-20.93c1.32-7.31,3-7.9,5.1-17.87a124.13,124.13,0,0,0,2-14.81c.16-1.72.54-5.84,1-19.41.53-15.13.28-16.21,1-21.44.67-4.78,1.71-9.77,2.55-13.79,1.73-8.28,2.5-10.31,2.56-14.81a45,45,0,0,0-1.54-11.74c-1.93-7.3-4-7.74-6.12-14.81a52.55,52.55,0,0,1-2.05-14.81c-.14-6.13.7-6.39,1-15.83.38-11-.65-13.75-2-15.83a16.81,16.81,0,0,0-6.64-5.62c-2.16-1-4.91-2.38-7.66-1.53-4.11,1.27-4.45,6.24-6.63,6.13-1.9-.1-2-3.87-6.13-11.75-1.66-3.19-2.61-4.45-4.6-8.68-1.68-3.58-2.52-5.41-2.55-7.15,0-2.57,1-4,4.6-9.7,3.82-6.15,5.73-9.23,6.63-11.23,2.75-6.09,2.89-10.1,4.6-10.22,1.53-.1,1.75,3.12,5.11,5.11,3.14,1.87,6.67,1.27,8.17,1,4.54-.76,7.41-3.47,9.7-5.62a24.1,24.1,0,0,0,6.13-8.68c1.49-3.7,1.5-6.59,1.53-12.25a54.18,54.18,0,0,0-1.53-14.3c-1.4-5.49-2.36-5.2-4.09-11.74a79,79,0,0,1-2-11.24A91.65,91.65,0,0,1,3868,1607c0-6.27.53-7.3,0-11.24-.51-3.76-1.07-7.47-3.58-8.68-2-1-5.61-.51-5.61-.51-1.68.28-4.06.38-5.62-1-2.23-2-1.16-5.56-1-12.25.16-8.15-1.22-13.65-.51-13.79,1-.19,1.78,10.64,8.68,13.79a6.84,6.84,0,0,0,5.1.51c4.34-1.64,4.92-9.29,5.11-11.75a30,30,0,0,0-.51-7.66c-1-6.54-2.45-7.36-4.09-14.29-1.38-5.88-.78-7-2.55-12.26-1.34-4-2.06-6-4.08-7.66-2.8-2.23-4.87-1.11-9.71-3.06-1.76-.72-5.35-2.17-7.66-5.11-1.11-1.42-2.45-3.86-2-16.85.31-9.67,1.12-10.2.51-14.81a46.43,46.43,0,0,0-4.08-13.28c-3.61-8.24-5.72-8.49-7.15-14.29-.87-3.56-.25-4.15-.51-12.26a169,169,0,0,0-1.53-17.36c-.85-6.45-1.77-10.8-3.58-19.41a123.12,123.12,0,0,0-4.08-15.83,47.78,47.78,0,0,0-3.58-8.68c-3-5.35-4.94-5.88-6.64-10.21-1.36-3.49-.39-3.93-1.53-9.7a42.5,42.5,0,0,0-4.59-13.28c-3.65-6.34-6.05-5.45-8.68-11.23-.7-1.53-1.32-4.94-2.56-11.75-1.32-7.26-1.33-9.3,0-10.72a5.94,5.94,0,0,1,5.11-1.53c2.4.41,2.7,2.21,5.11,3.06,3.21,1.14,6.55-.69,7.14-1,4-2.19,5.21-6.63,6.13-10.21.67-2.59.9-4.81.51-15.83-.32-9.11-.56-10-.51-14.81.08-6.55.54-6.21.51-11.23a86.66,86.66,0,0,0-2-17.88,62.51,62.51,0,0,0-4.09-13.27c-2.4-5.44-4-6.88-5.61-7.66-2.62-1.31-6.67-1.63-8.68.51-1.88,2-1.2,5.31-.51,8.68a69.05,69.05,0,0,0,2.55,7.66,9.22,9.22,0,0,1,2,7.15,9,9,0,0,1-8.17,7.15c-3.82.23-6.57-2.5-7.66-3.58-3.78-3.75-2.91-6.91-5.61-13.79-2.51-6.36-6.06-10.78-9.71-15.31-4.54-5.65-5.82-5.63-8.68-10.22a43.86,43.86,0,0,1-5.1-12.25c-1.83-7.24-1.43-13.29-1-19.41.31-4.57.72-5.61,1-11.74.38-7.87-.1-10.25-.51-11.75a23.37,23.37,0,0,0-5.62-9.7" transform="matrix(1, 0, 0, 1, -4383.633301, -2059.259766)" style="fill: none; opacity: 0.5; stroke: rgb(255, 0, 0); stroke-width: 6px;"/>
  <path class="i" d="M1381.7,390.39a10.32,10.32,0,0,0-5.36-3.24c-2.76-.6-11.21,1.23-8.43.76a11,11,0,0,1-7,1.28c-3.37-.62-4.27-2.83-8.85-6.13a47.46,47.46,0,0,0-10.56-5.44c-4.32-1.78-5.43-1.7-10.55-3.41-3.37-1.12-3.66-1.41-14-5.78-11.51-4.89-12.15-4.95-16.68-7.15-4.69-2.28-8.44-4.37-10.89-5.79-4.41-2.55-5-3.18-16.68-10.89-8.89-5.88-9.58-6.22-11.92-8.17-3.53-3-3.68-3.65-9.19-8.52a95.48,95.48,0,0,0-9.53-7.82c-5.29-3.6-6.8-3.47-9.53-6.47-2.32-2.55-1.71-3.18-4.77-7.49a33.31,33.31,0,0,0-7.83-8.51c-2.5-1.79-2.85-1.09-11.91-4.43-.6-.22-.25-.09-9.54-3.74-7.53-3-8-3.14-9.19-3.75a36.39,36.39,0,0,1-9.19-6.13c-3.53-3.33-4.14-5.52-9.19-10.21-1.13-1.05-2.09-1.86-2.72-2.38" transform="matrix(1, 0, 0, 1, -4383.633301, -2059.259766)" style="fill: none; opacity: 0.5; stroke: rgb(255, 0, 0); stroke-width: 6px;"/>
  <path class="a" d="M1592.41,719.82c1.3-1.28,8.32-11.77,22.37-32.76,13.14-19.64,5.94-25.13,16-33.44,7.39-6.13,17.72-6.72,38.35-8.17,8.2-.58,9.71-.22,36.72,0,30.17.24,29.7-.19,35.87.51,23.43,2.65,23.88,8.21,38.9,7.66,16.71-.62,17.5-7.55,39.23-10.6,15-2.1,27.29-.59,35.87.51,24.43,3.15,25.42,9,38.9,7.66,20.61-2,25.51-16.38,36.94-12.4,14.31,5,18.1,31.49,18.48,34.14.87,6.09.25,9.25,0,10.39-2.31,10.33-11.18,16.18-18.48,20.84-14.09,9-27.63,11-36.94,12.39a133.46,133.46,0,0,1-38.9,0c-21.35-3.1-21.73-8.3-35.87-8.17-16.24.16-17.23,7-39.23,10.6a128.63,128.63,0,0,1-38.9,0c-17.74-2.42-18.19-5.92-35.87-8.17a152.1,152.1,0,0,0-36.72,0,157.77,157.77,0,0,0-38.35,8.17c-18,6.41-32.92,15.81-38.35,11.23a7.33,7.33,0,0,1-2.79-4.85C1589.49,722.61,1591.76,720.46,1592.41,719.82Z" transform="matrix(1, 0, 0, 1, -4383.633301, -2059.259766)" style="fill: rgb(109, 191, 191); opacity: 0.5; stroke: rgb(109, 191, 191);"/>
  <path class="b" d="M1997.62,690.38c-11.39,8.94-28,.59-29.13,0-3.73-1.94-10.52-5.48-12.49-12.76-2.49-9.17,3.9-19.66,12.49-23.75,14.17-6.74,28.28,6.82,29.13,7.66,2.39,2.37,7.73,7.67,7.4,15.32S1998.75,689.5,1997.62,690.38Z" transform="matrix(1, 0, 0, 1, -4383.633301, -2059.259766)" style="fill: rgb(255, 255, 255); opacity: 0.5; stroke: rgb(255, 255, 255);"/>
  <path class="f" d="M2983.63,2469.55c-9.57-21.81-19.89-20-24.23-39.8-2.47-11.27.64-13,0-40.47-.44-19.14-.66-28.71-3.83-36.6-8.43-21-25.49-24.56-23.5-33.36,2.89-12.84,41-13.27,42.91-13.28,13.68-.06,34.21-.15,44.24,13.28.14.19.3.41.48.68,6.91,10.7,5.38,21.3,5.4,32.68,0,24.41,8.36,27.47,3.24,38.64-1.47,3.21-4.32,7.67-7.68,16.39-2,5.28-3.28,9.55-3.55,10.51-1.84,6.42-1.74,8.13-2.94,12.29-2.07,7.18-4.1,8.09-7.13,15.08-3.42,7.92-6.73,15.6-4.05,22.51,3,7.72,12,10.65,18,12.58,3.37,1.1,14.49,4.72,25.91-.13,3.91-1.66,8.27-6.08,17-14.93,8.31-8.45,12.57-12.84,16.85-20.17a64.09,64.09,0,0,0,6.38-14.29c.51-1.66,2.21-7.54,2.81-20.95.77-16.95-1.46-18.43,1.09-22.28,5.74-8.66,21.42-7.68,27-7.33,8.44.52,16.17,1,20.39,6.27,8.07,10.07-7.84,24.23-3.86,44.29,3.65,18.44,19.21,17.19,28.75,38.05,5.17,11.32,1.57,13.8,0,60.5-1.24,36.93.63,46.68-7.69,60.56-6.66,11.12-15.26,17.19-21.59,21.57-4.14,2.86-47.75,32.06-87.49,12.8-26.3-12.74-36.93-39.92-43.77-57.41-4-10.35-5.7-18.46-8.85-33.93C2985.77,2493.64,2992,2488.58,2983.63,2469.55Z" transform="matrix(1, 0, 0, 1, -4383.633301, -2059.259766)" style="fill: rgb(255, 255, 0); opacity: 0.5; stroke: rgb(255, 255, 0);"/>
  <path class="f" d="M2620.67,2433.07c6.33-3.33,13.39,6.11,35.67,18,10.09,5.39,11.47,5,25,12.26a132.42,132.42,0,0,0,14.3,7.15,133.82,133.82,0,0,0,36.25,8.68c5,.4,9.78.27,19.41,0,8.21-.23,12.41-.36,16.85-1a129.89,129.89,0,0,0,15.32-3.58c8.91-2.39,13.41-3.63,15.84-5.43,4.34-3.24,3.52-5.17,9.59-11.79,3.18-3.47,6.39-7,10.82-9.33,9.24-4.91,19.28-2.44,23-1.53,13.34,3.27,21.07,12.66,24,16.85a46.66,46.66,0,0,1,7.38,18.15c8,34.73,85.42,45.47,85.3,65.81-.05,10.43-20.49,21-37.34,23.19-28.65,3.78-38.32-17.56-85-24.6-10.53-1.59-21-3.3-31.56-4.93-16.47-2.56-23.29-3.59-32.74-7.22-4-1.55-3.4-1.6-16.84-7.6-9.13-4.07-17.72-7.76-22.36-9.68-19-7.86-23.44-7.53-36.7-12.78-14.5-5.75-9.94-6.44-40.44-23-6.43-3.5-29.33-15.8-37.82-28.56-3.18-4.79-3.44-8.3-3.06-10.73C2615.94,2438.54,2617.66,2434.65,2620.67,2433.07Z" transform="matrix(1, 0, 0, 1, -4383.633301, -2059.259766)" style="fill: rgb(255, 255, 0); opacity: 0.5; stroke: rgb(255, 255, 0);"/>
  <path class="b" d="M3188.78,2739c10.17,11.23,29.61,16,39.76,10.1,5.54-3.23,10.63-11,4.22-80.55-5.24-56.77-11-77.44-26.46-94.62-4-4.44-14.89-16.56-23.51-13.86-10.92,3.42-12,28.66-12.75,45.76-1.48,34.31,6.59,32.81,6,67.76-.23,13.25-1.74,32.7,6.08,53.81A34,34,0,0,0,3188.78,2739Z" transform="matrix(1, 0, 0, 1, -4383.633301, -2059.259766)" style="fill: rgb(255, 255, 255); opacity: 0.5; stroke: rgb(255, 255, 255);"/>
  <path class="b" d="M2696.12,2567.23c13.08,13.75,24.54,25.79,36.71,23.09,1.41-.31,5.83-1.29,7.51-4.7,2.67-5.42-3.44-13.28-7.51-18.39-7.87-9.88-26.85-29.1-36.71-23.74-4.26,2.31-6.19,8.87-5.57,13.79C2691.13,2561.81,2693.87,2564.87,2696.12,2567.23Z" transform="matrix(1, 0, 0, 1, -4383.633301, -2059.259766)" style="fill: rgb(255, 255, 255); opacity: 0.5; stroke: rgb(255, 255, 255);"/>
  <path class="f" d="M2981.62,3476.11c-6.55-23.48-12.31-25.67-10.09-34.92,2.63-11,13.22-18.13,31-30.13,1.07-.72,8.82-4.89,18-11.23,0,0,4.19-2.88,9.53-7.49,7.08-6.11,8.07-8.3,8.51-9.53,1.49-4.14.86-8.76.64-10.4-.49-3.6-1.51-5.47-.64-8.52.19-.67,1.08-3.8,3.06-4.23s4.38,2.19,5.79,4.23a242.23,242.23,0,0,1,20.68,35.94c7.51,17.09,12.78,10.8,36,41.36a217.15,217.15,0,0,1,21.89,34.92c9.44,19,14.17,28.44,11.17,34.91-4.23,9.14-18.47,8.63-75.1,9.32-50.92.62-65.06,1.34-72.85-9.32C2983.9,3503.67,2988.33,3500.16,2981.62,3476.11Z" transform="matrix(1, 0, 0, 1, -4383.633301, -2059.259766)" style="fill: rgb(255, 255, 0); opacity: 0.5; stroke: rgb(255, 255, 0);"/>
  <path class="f" d="M3251.23,3016.91c-4.09-15.1-15.53-15.94-27.13-39.73-6.27-12.86-4.08-15-11.38-28.17-5.86-10.59-11.51-20.8-22.55-27.47-12.48-7.55-17.78-2.1-33.91-8.86-10.43-4.37-16.91-10.64-29.88-23.19-14-13.53-23-22.22-29.83-36-11.18-22.47-1.82-28.36-12-43.85-7.38-11.28-13.19-9.45-49.37-32.47-23.44-14.93-21-15.72-30.12-19.55-10.57-4.44-16.21-4.38-61.45-5.92-34.55-1.17-44-1.64-53.41,5.92-1.73,1.4-10.5,8.49-12,19.55-1.59,11.44,6.15,15.72,12,32.47,5.65,16.05,1.08,19.3,5.54,41.31,1.8,8.86,4.54,22.42,12.3,36.24,15.85,28.27,41.06,37,37.49,47.94-1,3.18-4.5,6.59-7.88,6.7-4.39.13-7.78-5.37-8.68-6.7-13-19.31-77.78-14.72-93.71-44.11-8.44-15.56.8-33.32-12.5-42.64-3.8-2.66-9.12-4.41-10.21-3.06-1.41,1.72,5.39,6.95,9.7,18.38a50.15,50.15,0,0,1,3.57,16.34c.24,6.22-1,8.69.51,14.3,1.3,4.95,2.66,4.62,3.58,9.19,1.09,5.4-.56,7,0,13.79a43.81,43.81,0,0,0,2,9.7c2.54,8.49,4.7,8.83,6.13,15.32a41,41,0,0,1,.51,12.76c-.52,6.15-1.7,7-2,12s.55,7.21,2,14.58a143.17,143.17,0,0,1,3.11,20.42c.78,13.39-2.42,15.17.46,22,1.56,3.68,2.55,3.27,8.17,12.77,3.16,5.33,4.74,8,5.42,10.52,1.73,6.4-.56,8.59.2,16.54.5,5.24,1.52,4.57,3.57,13.28,1.26,5.32,2.9,12.49,2.56,20.93-.3,7.22-1.68,6.51-2.56,15.32-.78,7.93-.21,14.11.52,22,.94,10.21,1.84,10.95,2,17.87.27,9.41.43,14.11-1.53,18.38-6.09,13.25-30.62,19.8-47.16,12.95-7.48-3.09-8.36-6.87-18.39-9.88-6.7-2-7.93-.81-20.78-3.32-9.51-1.86-10.61-2.86-16.82-3.32-8-.6-13.22-1-17.49,2.55a15.77,15.77,0,0,0-5,15.32,14.64,14.64,0,0,0,5,7.84c10.25,8.11,27.39,11,34.31,12.52,22.91,4.94,21.29,13.06,40.77,17.17,20.7,4.37,38.41-1.45,45.56-3.89,30.87-10.56,30.26-28.87,56.66-42.79,28.62-15.1,60.06-9.77,89.18-4.84,44.7,7.58,51.76,23.26,77.94,16.54,12.27-3.14,24.59-10.15,48.33-11.7,13.51-.88,14.36,1.07,22.1-.22,21.89-3.64,35.63-22.67,50.94-44.5,11.7-16.69,19.39-35.21,34.76-72.26C3252.13,3031.74,3253.39,3024.86,3251.23,3016.91Zm-273.75-116.24a7.64,7.64,0,0,1-6.47,2.38c-2.33-.36-3.34-1.93-6.8-5.45-5.19-5.26-5.16-4-7.82-7.19a40.41,40.41,0,0,1-6.48-11.53,54.51,54.51,0,0,1-3.07-9.87,69.62,69.62,0,0,1-1.14-10.21c-.39-6.23,0-8.05-1.24-11.58-.65-1.89-.82-1.53-2.38-5.11a44.64,44.64,0,0,1-3.41-9.53c-.51-2.68-1.47-7.72,1-12.25,1.73-3.14,4.32-4.58,7.83-6.47,4.64-2.5,13.81-7.44,19.75-3.33,3.61,2.5,4.55,7.33,4.76,8.44.36,1.84.11,2.47-.34,8.17-.62,8-.17,7.44-.68,10.55-1,5.9-2.22,5.89-2.72,10.89a23.77,23.77,0,0,0,.68,9.88c1.23,4,2.64,4.07,3.75,8.17a27.93,27.93,0,0,1,.68,8.51c-.16,6.17-1.41,7.1-.34,9.53,1.35,3.1,3.77,2.49,5.44,5.74C2980,2893.24,2980.22,2897.77,2977.48,2900.67Zm191.77,115.06a27,27,0,0,1-3.17,7.15c-2.7,4.27-4.26,4-7.49,8.17-2.34,3-3.49,5.67-5.45,10.21-1.87,4.36-1.56,4.76-3.74,9.88-2.26,5.27-2.49,4.59-3.81,8.17-2.05,5.54-1.53,7.27-3.74,9.59a13.41,13.41,0,0,1-5.73,3.26,13.64,13.64,0,0,1-7.15.76c-2.69-.53-3.15-1.71-6.47-3.4-3.57-1.82-4.22-1.06-8.85-2.72-3.82-1.38-7.25-2.61-10.21-5.79a18.9,18.9,0,0,1-4.43-8.51,23.81,23.81,0,0,1,0-10.21,41.52,41.52,0,0,1,3.41-10.56,59.29,59.29,0,0,1,10.21-15.32c4.53-4.83,6.49-5.16,8.85-9.53,1.85-3.42,1.3-4.43,3.41-7.83a26,26,0,0,1,8.17-8.17,27.51,27.51,0,0,1,10.21-4.08,17.21,17.21,0,0,1,16,3.74,28.54,28.54,0,0,1,6.17,6.79c2.52,3.61,4.16,6,4.72,9.55A19.91,19.91,0,0,1,3169.25,3015.73Z" transform="matrix(1, 0, 0, 1, -4383.633301, -2059.259766)" style="fill: rgb(255, 255, 0); opacity: 0.5; stroke: rgb(255, 255, 0);"/>
  <path class="f" d="M2282.6,3473c12.45,11.93,22.37,16.08,33,22.59,16.12,9.89,11.84,11.72,36.51,30.64,11.06,8.49,19.87,14,37.47,25,27.48,17.14,34.83,19.48,43,18.13.82-.14,15.62-2.8,19.54-13.21,4.85-12.92-10.21-29.26-19.54-36.71-13.67-10.92-19.78-6.57-43-18.12-12.37-6.16-20.75-12.44-37.47-25-17.75-13.29-22.16-18.69-36.51-25.92-19.32-9.73-28-8.31-33-6.12-1.38.59-9,4.1-10.26,10.72C2271.42,3460,2274.54,3465.25,2282.6,3473Z" transform="matrix(1, 0, 0, 1, -4383.633301, -2059.259766)" style="fill: rgb(255, 255, 0); opacity: 0.5; stroke: rgb(255, 255, 0);"/>
  <path class="a" d="M2470,3584.34a35.58,35.58,0,0,1-13.28-28.25c.24-8.72,4.14-21.46,13.28-25,3.4-1.32,8.08-.48,17.46,1.22,11.19,2,12,3.58,20.51,4.66,4.62.58,9.12.54,18.1.47,8.35-.06,13.81-.39,16.11-.47,8.4-.31,12.59,1.92,39.83,8.59,26.28,6.44,34.53,9.19,36.77,16.14a14.37,14.37,0,0,1,0,7.63c-3,15.21-21.08,26.93-37.87,30.6-6,1.31-16.91.13-38.73-2.21-9.57-1-8.08-1-35.93-4.84C2478.12,3589,2474.51,3587.94,2470,3584.34Z" transform="matrix(1, 0, 0, 1, -4383.633301, -2059.259766)" style="fill: rgb(109, 191, 191); opacity: 0.5; stroke: rgb(109, 191, 191);"/>
  <path class="f" d="M3114.12,2159c-15.18-21-4.59-30.24-23-68.17-8.75-18-11.81-17.33-22.3-39.83-5.64-12.1-12.38-26.56-17.28-46.64-4.06-16.67-2.84-20.71-7.91-36-4.59-13.87-7.1-15.11-13-30-6.45-16.17-6.44-22.14-13.17-47.32-4.48-16.78-8-29.88-13.64-44.68-8.24-21.55-16.66-35.21-32.26-60.47-15-24.3-24.19-35.55-37.1-44-6.84-4.49-14.3-7.95-23.32-7.7-3,.08-14.64.4-20.26,7.7-7.06,9.2,1.66,21.35,5.18,44,1.35,8.77.06,23-2.54,51.41-4.17,45.71-7,44.46-6,60.51a158.37,158.37,0,0,0,14.86,56.68c11.18,23.94,20.21,27.43,30.7,54.38,8.45,21.72,4.94,25.5,13.75,42.13,11.5,21.71,21,21.83,30.67,38.55,17.6,30.3-3.61,46.86,10.4,69.45,16.85,27.18,55,15.12,111.81,38.72a91,91,0,0,0,30.47,6.73c9.21.41,29.94-.09,31.66-6.73C3164,2189.48,3133.42,2185.69,3114.12,2159Zm-114.66-136.07c-2,4.21-5.91,3.82-7.15,7.49-.61,1.84.15,4,1.71,8.17,3.06,8.28,5.54,9.53,4.76,12.51-.86,3.29-4.14,2.78-6.13,7.24-.32.71-.62,1.6-1,8.51-.43,7.53-.21,8.74-1.36,9.87-2.14,2.1-6.61,1.55-9.53,0-3.52-1.87-4.81-5.19-6.81-10.55-1.91-5.15-4.53-12.17-2.72-20.09.67-3,1.55-4.22,1.36-7.15-.25-3.82-1.94-4.61-3.07-9.53s.25-5.52-1-8.51c-1.18-2.79-2.84-3.37-7.83-7.49s-7.38-6.1-9.53-9.19a30,30,0,0,1-4.76-12.26c-.8-5.24.61-5.53,0-11.23-.78-7.17-3.12-7.62-3.41-13.62-.27-5.64,1.78-5.75,2-12.51.22-5.37-.91-9.43-2.38-14.72a95.92,95.92,0,0,0-5.11-13.62c-3.19-7.34-3.74-7.11-5.44-11.91a48.36,48.36,0,0,1-3.07-13.62c0-.83.08-3.76.34-9.58.45-9.81.61-11.73,1-14.25.72-4.33,1.11-3.82,2-8.51,1.77-8.95.32-10.74,2-18.38.86-3.82,1.7-7.41,4.43-11.24,1.51-2.14,3.93-5.55,8.51-7.15a16.27,16.27,0,0,1,11.91.68c3.06,1.5,4.68,3.61,6.81,6.47,4,5.33,5.59,10.34,7.15,15.32a65,65,0,0,1,3.06,14.64c.59,6.82-.56,7.1-.17,16.17.3,6.87.45,10.31,1.88,14.13,1.55,4.17,3.09,5.36,4.42,10.55a26.9,26.9,0,0,1,1,8.17,30.74,30.74,0,0,1-2,9.19c-1.57,4.71-2.93,5.65-3.31,7.28a7.34,7.34,0,0,0-.09,1.23c.05,3.9,5.42,10.21,5.42,10.21,4,4.7,4.43,4.31,5.47,6.39,1.16,2.32.93,3.45,1.7,7.91a78.63,78.63,0,0,0,3.07,11.92c2.47,7,3.66,6.14,4.42,10.21.57,3,0,6.67-1,14-.91,6.22-1.3,6.4-1,8.42.62,4.48,2.81,5.16,3.74,10.3C3000.25,2017.22,3000.77,2020.09,2999.46,2022.91Z" transform="matrix(1, 0, 0, 1, -4383.633301, -2059.259766)" style="fill: rgb(255, 255, 0); opacity: 0.5; stroke: rgb(255, 255, 0);"/>
  <path class="f" d="M1219.15,2129.87c13.89,9.3,24.25,22.48,22.21,25.53-1,1.46-4.24-.14-19.91-2.55-9.56-1.47-10.58-1.22-16.85-2.55a102.56,102.56,0,0,1-16.34-4.6c-8.36-3.19-8-4.48-14.81-6.64-9.35-2.95-15.61-2.27-17.36-2-4,.53-7.85,1-10.73,4.09-3.53,3.75-3.39,8.93-3.31,11.74.18,6.31,2.92,10.88,5.35,14.81a51.89,51.89,0,0,0,10.22,11.74,89.86,89.86,0,0,0,19.4,13.28c9.86,5,14,4.91,14.81,8.17,1,4.39-5,11.16-11.74,13.28-9.61,3-18.55-4-38-18-33-23.59-25.3-16.23-44.69-31-34.78-26.59-25.95-24.62-42.89-35.24-14.58-9.13-27.15-14.38-29.62-26.55-.3-1.47-1.66-9,2.55-13.28,4.84-4.87,14.06-2.43,27.07.77,14.25,3.51,28.75,6,42.89,10,0,0,18.71,5.2,45.45,10.72C1189.12,2121.05,1200.48,2117.38,1219.15,2129.87Z" transform="matrix(1, 0, 0, 1, -4383.633301, -2059.259766)" style="fill: rgb(255, 255, 0); opacity: 0.5; stroke: rgb(255, 255, 0);"/>
  <path class="a" d="M2271.85,2353c2.38,2.77,7.64,8.17,43.38,20.59,19.44,6.75,19.69,5.78,35.45,11.51,21.18,7.71,21.78,9.84,39.41,15.82,12,4.08,23.71,8,39.41,10,16.86,2.13,16.67-.76,43.14,0,28.18.8,37.92,4.35,43.27-2.3,4.66-5.78,3.05-15.59,0-21.83-7-14.39-21.78-10.22-43.27-24.13-23.87-15.44-29.43-36-43.14-33.7-3.31.55-13.65,3.52-18.61,4.94s-7.83,2.33-11.91,1.7c-4.42-.68-5.26-2.46-10.89-4.77-5-2-5.47-1.09-15.32-3.4-5.21-1.22-8.92-2.4-16.34-4.77-6.48-2.06-9.79-3.12-13.28-4.76-5.15-2.42-4.91-3.08-10.21-5.79-2.07-1.05-4.19-2-17.71-6.81-11.31-4-11-3.76-13.27-4.76-6.36-2.87-6-3.74-15-8.51-9.76-5.21-10.35-4.29-15.13-7.83-3.87-2.88-5-4.6-9-6.47-2.14-1-4.72-1.57-9.87-2.73a118.58,118.58,0,0,0-12.57-2c-5.57-.61-6.32-.3-6.84,0-3.61,2.12-4,9.17-2.38,14.3,1.81,5.81,5.87,8.22,10.21,12.25s8.29,11.27,16.34,25.88C2270.79,2349.19,2267.33,2347.76,2271.85,2353Z" transform="matrix(1, 0, 0, 1, -4383.633301, -2059.259766)" style="fill: rgb(109, 191, 191); opacity: 0.5; stroke: rgb(109, 191, 191);"/>
  <path class="a" d="M1929.62,2010.89c2.42-7.31,10.38-13,18-13.27,3.18-.11,9.07.64,20.92,13.27,10.09,10.77,15.19,20.21,24.44,37.11,18.42,33.65,16,28.59,18.91,34.38,10.79,21.23,12.39,27.5,21,38.85,5.56,7.31,10.27,13.52,18.38,19.37,21.64,15.6,40.87,9.51,53.37,25.14,5.44,6.81,5.39,12.47,5.36,13.66-.21,6.58-4.36,11.25-5.36,12.39-12.69,14.26-47.53,4.12-53.37,2.42a122.26,122.26,0,0,1-48.63-28.47c-7.74-7.32-22.85-21.62-30.25-44.51-6-18.48-.65-23.13-8.44-41.91-2.53-6.11-3.19-5.84-19.4-32.68C1930.36,2023.21,1927.47,2017.4,1929.62,2010.89Z" transform="matrix(1, 0, 0, 1, -4383.633301, -2059.259766)" style="fill: rgb(109, 191, 191); opacity: 0.5; stroke: rgb(109, 191, 191);"/>
  <path class="a" d="M1667.23,2395c-.83-2.5-4.27-12.87,0-16.53,4.81-4.12,14.89,4.1,38.3,12.93,17.42,6.57,16.37,3.74,34.47,10.58,16.55,6.24,27,10.18,39.06,18.77,11,7.77,12.94,12,22.47,15,9.14,2.85,15.71,1.56,18.9,6.47,2.7,4.17,2.19,11.63-1.54,14.3-6.45,4.63-16.88-9.14-41.19-16.34-10.86-3.22-10-.83-37.7-5.32-17.88-2.9-26.82-4.34-34.47-7.28C1697.5,2424.5,1674,2415.5,1667.23,2395Z" transform="matrix(1, 0, 0, 1, -4383.633301, -2059.259766)" style="fill: rgb(109, 191, 191); opacity: 0.5; stroke: rgb(109, 191, 191);"/>
  <path class="a" d="M1219.15,2242c4.6-5.26,28.58,8.8,30.38,9.87,1.45.86.73.48,19.92,13.79,10.88,7.55,12.78,8.83,15.83,10.73,2.71,1.68,9.76,6,19.4,10.72,7.5,3.69,11.73,5.78,18,7.82,7.88,2.55,8.17,1.54,15.16,3.92,6.66,2.28,11.17,4.83,18.9,9.2,6.3,3.56,10.74,6.5,16.34,10.21,7,4.61,12.19,8.38,16.85,11.74,8.77,6.34,9.16,6.94,17.36,12.77,5.4,3.84,9.06,6.43,14.3,9.7,2.79,1.75,7.38,4.59,13.27,7.66,14.51,7.55,17.68,6.4,20.94,10.72,4.7,6.25,5.1,18,0,22-6.77,5.31-18.6-6.56-50.55-18.62-15.53-5.85-13.18-3.22-43.4-13.24-18.79-6.23-31.57-11.18-40.86-15-17.08-7-25.62-10.52-31.15-14.43-18.26-12.92-12.5-21.2-31.66-40.85-14.9-15.27-33.44-25.71-39.06-42.46C1218.55,2246.47,1217.77,2243.62,1219.15,2242Z" transform="matrix(1, 0, 0, 1, -4383.633301, -2059.259766)" style="fill: rgb(109, 191, 191); opacity: 0.5; stroke: rgb(109, 191, 191);"/>
  <path class="e" d="M1278.64,1723.91c-.8,1.63,2.56,4,8.51,11.58a131.51,131.51,0,0,1,8.85,12.94,112.27,112.27,0,0,1,5.79,10.34,85.84,85.84,0,0,1,4.42,10.42c2.77,8.08,1.46,9,3.75,15,1.78,4.69,4,7.87,7.49,12.94,5.42,7.83,6.82,7.56,8.51,11.91a26.18,26.18,0,0,1,1,14.64c-.67,3.37-1.45,7.31-4.81,10.17-2.39,2-4.92,2.54-7.79,3.11a27.49,27.49,0,0,1-14.29-1,29.48,29.48,0,0,1-10.22-6.46c-4.36-4-3.77-5.33-8.17-9.54-1.07-1-1.75-1.55-10.55-7.48-9.83-6.63-9.76-6.49-12.08-8.17-7.26-5.29-6.6-5.69-10-7.49-4.8-2.52-5.72-1.56-13.28-4.77a93.33,93.33,0,0,1-9.53-4.77c-5.37-3.07-5.32-3.73-9.19-5.78-5.74-3-6.52-1.92-12.25-4.77a38.53,38.53,0,0,1-11.24-7.83c-3.64-3.77-3.42-5.36-7.83-9.87-1.6-1.64-6.55-6.71-8.11-5.74-1.91,1.19,2.09,10.79,2.5,11.76,6.7,16.07,20.4,23.21,43.92,41.13,22,16.75,20.39,18.43,35.06,27.57,16.53,10.3,19.28,8.63,30.8,17.36,17.31,13.11,15.83,20.45,31.15,31.3,5.87,4.16,26.72,18.93,39.66,12.1,14.88-7.84,14.17-41.52,6.13-64-1.86-5.18-2.11-4.2-22.28-38.66-10.46-17.89-13.11-22.8-19.74-33-14.26-22-22.91-31.6-34.92-34.86C1285.87,1722.83,1279.61,1721.94,1278.64,1723.91Z" transform="matrix(1, 0, 0, 1, -4383.633301, -2059.259766)" style="fill: rgb(255, 237, 0); opacity: 0.5; stroke: rgb(255, 237, 0);"/>
  <path class="b" d="M1033.79,1728c6.92-5.21,17.92-.26,22.47,1.79,2,.88,14.57,6.81,19.65,20.93.78,2.15,5.4,15,0,19.66-3.4,3-9.41,1-21.44-2.89-11.52-3.73-17.28-5.6-20.68-9.87C1027.11,1749.22,1026.12,1733.77,1033.79,1728Z" transform="matrix(1, 0, 0, 1, -4383.633301, -2059.259766)" style="fill: rgb(255, 255, 255); opacity: 0.5; stroke: rgb(255, 255, 255);"/>
  <path class="a" d="M1508.92,1623.19c-4.37-12.35-6.27-29.6,0-33.06,2-1.11,7.13-2.06,42.4,30.3,19.06,17.49,28.58,26.23,41.09,40.68,21.66,25,19.63,29.24,37.29,46.83,5.2,5.17,4.13,3.57,37.53,31.29,26.79,22.22,33.65,28.38,38.3,39.83,5.32,13.09,7.15,31.6,0,35.91-6,3.61-16.85-4.21-38.3-20a414.65,414.65,0,0,1-37.53-31.29,481.6,481.6,0,0,1-37.29-38.23c-27.57-31.79-21.39-33.92-42.11-55.66C1528.54,1647,1516.05,1643.36,1508.92,1623.19Z" transform="matrix(1, 0, 0, 1, -4383.633301, -2059.259766)" style="fill: rgb(109, 191, 191); opacity: 0.5; stroke: rgb(109, 191, 191);"/>
  <path class="a" d="M1508.92,982.77c5.06-5.26,12.19-3.1,42.4,0,23.16,2.38,34.93,3.55,44.42,2.5,20.38-2.24,20.79-8,35.4-6.73,13.68,1.14,25.23,7.16,36.09,12.81,9.65,5,9,5.9,19.36,11.84,10.63,6.08,29.45,16.64,55.11,20.61a149.27,149.27,0,0,0,24.34,1.56c21.7.06,32.55.09,42.44-5.52,12.5-7.1,9.06-14.45,27.35-32.69,8.81-8.79,15.59-15.55,26.59-20,10.46-4.23,23.8-3.39,50-1.53,24,1.69,26.32,3.53,27.67,5.45,7.58,10.78-5.27,39-25.49,51.23-8.49,5.11-12.93,4.17-32.12,13.87-9.6,4.85-11.39,6.55-20.1,11.36-11.19,6.19-29.85,16.5-53.94,21.74-12.34,2.68-22.09,3.16-38.37,4a242.59,242.59,0,0,1-28.41,0c-12.15-.84-15.27-2.17-28.41-4-26.43-3.59-27.6-.06-46.06-3.47-9.27-1.71-18.21-4.85-36.09-11.14-25.67-9-25.51-10.92-38.73-14.27-19.93-5.06-21.54-1.08-41.09-5.84-17.17-4.19-34.69-8.45-42.4-23C1504.36,1003,1502.49,989.47,1508.92,982.77Z" transform="matrix(1, 0, 0, 1, -4383.633301, -2059.259766)" style="fill: rgb(109, 191, 191); opacity: 0.5; stroke: rgb(109, 191, 191);"/>
  <path class="f" d="M1011.7,1292.81c26,10.45,57.51-4,57.58-10.6,0-3.11-6.86-3.39-17.88-13.78-.45-.43-3.87-4.2-10.72-11.75-8.9-9.8-10.39-11.53-12.25-13.79-5.92-7.17-5.09-7.1-8.17-10.21-6.52-6.56-8.9-5.54-13.79-11.23-2.36-2.74-4-6-7.36-12.47-2.87-5.58-4.75-10.19-5.92-13.07-3.59-8.84-2.8-8.78-4.59-12.25-3.28-6.32-6.17-7.06-13.28-14.81a105.94,105.94,0,0,1-12.26-16.34c-3.5-5.62-7.27-11.69-9.7-20.42-.87-3.14-1.43-7.54-2.55-16.35a156,156,0,0,1-1.53-18.38c-.08-7.78.23-10.69.51-12.18,1-5.25,1.83-9.79,5.64-12.54,4-2.89,8.9-2.17,11.21-1.83a22.23,22.23,0,0,1,10.8,5.1,33.81,33.81,0,0,1,9.53,12.26c3.32,6.87,2.09,9.59,5.76,13.23,2.65,2.63,3.79,1.71,7.64,4.67,4.07,3.13,6.13,6.72,8.65,11.21,4.19,7.45,2.86,8.6,6.64,14.29a47,47,0,0,0,8.17,9.2c5.31,4.63,6.59,3.69,9.7,7.14,4.57,5.09,2.41,7.8,6.64,12.77,3.59,4.22,5.52,2.7,12.77,8.17,6,4.51,5.24,6,10.72,9.7,3.76,2.56,4.49,2.14,12.77,6.13,7.52,3.63,11.28,5.44,14.8,8.17,3.79,2.93,3.29,3.46,12.27,11.75a65.67,65.67,0,0,0,7.14,6.12c5.59,3.75,7.38,2.77,13.27,6.13a46.89,46.89,0,0,1,11.24,9.19c4.72,5.14,4.06,6.59,7.92,9.63a29.57,29.57,0,0,0,11.48,5.18c3.84,1,4.77.6,11.75,1.53,5.39.72,5,1,11.74,2a152.15,152.15,0,0,0,18.39,2c6.41.26,5.7-.29,10.72,0A86,86,0,0,1,1226,1250c2.91.87,7.73,2.82,17.36,6.72,1.85.75,6.18,2.37,14.83,5.62,3.69,1.38,5.93,2.21,9.17,2.55,4.74.5,5.9-.62,9.71-.51,6.12.18,7,3.21,15.32,6.14,5.66,2,5.36.62,15.83,3,7.79,1.81,7.51,2.47,14.8,4.09a115.5,115.5,0,0,0,16.34,2.55c5.88.47,7.53.11,12.77,1,3.23.56,3.41.84,9.19,2,1,.22,5.41,1.12,11.24,2a115.56,115.56,0,0,0,11.74,1.53c5.08.27,5.68-.26,11.23,0,3.17.15,4.12.38,9.71,1,5.26.61,10.73,1.24,16.34,1.53,5.17.27,8.81.17,14.81,0,4.84-.13,6-.29,18.38-1,14.67-.87,13.72-.7,17.1-1,9.34-.89,10.68-1.64,18.13-2,4.35-.24,7.5-.16,13.79,0,9.31.23,15.53.39,23.49,1.53,6.09.87,5.3,1.19,16.34,3.06,7.77,1.32,13.47,2.06,14.81,2.23,11.77,1.51,14.07,1.12,18.89,1.86,13.4,2,23,9.22,27.07,12.25,15,11.2,13.11,19.83,25.27,24,3.59,1.23,8.14,2,12.51,6.13,3.9,3.69,3.21,5.86,6.64,9.7,1.36,1.53,4,4,18.38,8.68,9.13,3,16.26,4.62,18.39,5.11,11,2.5,11.43,1.82,21.44,4.08,7.82,1.77,8.2,2.34,22.47,6.13,10,2.66,15,4,18.38,4.6,9.36,1.69,11.17.74,30.64,1.53,14.41.59,15,1.18,28.6,1.53,7.62.2,13.46.35,21.45,0,9.84-.43,17-1.37,26-2.55,6.5-.85,14.75-1.93,25.53-4.09,12.75-2.55,15.24-3.84,26.55-5.61,4.21-.66,8.43-1.12,16.85-2,20.08-2.19,20.92-1.64,27.07-3.06,4.08-.94,10-3.35,22-8.17,12.09-4.89,13.7-6,24.51-10.21,10.52-4.07,10.47-3.55,16.34-6.13a159.26,159.26,0,0,0,21.44-11.74c9.13-5.68,9.25-6.46,24-16.35,14.49-9.7,13.72-8.5,18.39-12.25,9-7.24,10.38-10.48,18.89-15.83a91.55,91.55,0,0,1,14.3-7.15c8.56-3.58,9.73-2.91,19.91-6.64,10.55-3.86,10.56-5,19.92-8.17,4.83-1.61,9-2.6,17.33-4.59,6.4-1.53,13-3.09,22-4.6,5.82-1,11.57-1.94,19.4-2.55,6.9-.54,8.79-.28,19.92-1,6.27-.42,9.41-.63,12.25-1,7.5-1,9.63-2.2,19.92-4.59,2.63-.61,9.66-2.21,18.38-3.58,9.17-1.44,13.75-2.16,19.4-2,6.18.13,5.93,1,18.9,2.56,11.67,1.43,11.91.76,18.38,2,8.75,1.73,8.45,3,16.85,4.59,7.05,1.36,7.22.47,19.41,2a147.22,147.22,0,0,1,15.31,2.55c6.15,1.41,7.42,2.21,14.81,4.08,3.6.92,5.39,1.26,14.3,3.07,21.72,4.4,19.77,4.12,23.49,4.77,12.43,2.19,12.3,1.47,22,3.4s9.41,2.59,19.4,4.59c8.88,1.78,9.07,1.25,22.09,3.58,6.85,1.23,11.44,2,17.74,3.57,10.59,2.57,10.39,3.34,15.83,4.09,6.26.87,7-.09,19.41,0,9.6.07,14.49.13,18.38,1.53,7.54,2.71,12.15,7.8,14.81,10.72,5.36,5.92,3.59,8.52,9.19,15.32,1.63,2,4.8,4.66,11.09,9.92,6.51,5.46,12,9.85,15.47,12.55,11.6,9.14,11.15,8.35,14.29,11.23,5.81,5.34,5.66,6.48,13.69,14.81,5.36,5.57,9.66,9.46,13.88,13.28,9.08,8.21,13.62,12.32,17.37,14.81,5.7,3.79,8.78,4.88,11.23,9.19,2.18,3.84,1.76,6.54,4.34,8.43,3.34,2.45,8.71,1.33,11.49,0,10.93-5.23,12.75-28.46,9.19-45.71-2.34-11.34-7-19.27-16.45-35.12-6.59-11.11-12.06-18.46-22.36-32.22-13.72-18.32-20.58-27.49-28.69-34.66-10.56-9.34-11.8-7.27-31.05-21.44-20.36-15-18-16.59-32.68-26.25-7.76-5.1-4.14-1.85-40.85-21.13-9.71-5.1-15-8-23.45-9.94a112.38,112.38,0,0,0-23.47-2.49c-7.91-.1-8.76.64-16.65.28-8.24-.37-8.77-1.23-18.28-1.88-6.84-.46-12.23-.4-18.61-.32-13.75.17-13.14,1-17.35.32-5.84-.91-8.4-2.68-20.71-8.68-11.13-5.42-16.7-8.13-18.7-8.68-13.59-3.71-18.25,3.4-35.8,3.83-14.53.35-13.6-4.47-34.22-6.61-14.16-1.47-25.51-.33-37.27.86-19.18,1.93-19.66,4.15-33.2,4.47-14.1.34-13.09-2.07-32.68-2.79-9.57-.35-7.74.3-38.15.6-9.94.1-15,.14-21.12,0-9.41-.22-12.93-.6-21.27-.6-9.14,0-13.71,0-18,.6-19.57,2.71-21.83,15.31-37.31,17.26-6.79.85-14.65-2.47-30.38-9.12-22.86-9.66-23.45-14.47-35-16.16-17.67-2.59-20.13,8.16-37.32,6.64-22.19-2-24.5-20.44-45.48-21.51-15.08-.76-15.65,8.69-38.76,11-18.5,1.88-20.32-4-33.55,0-14.49,4.33-16.14,12.45-31.78,15.58-4.33.86-10.28.54-22.16-.1-21.45-1.16-23.48-3.11-38.37-3.22-12.7-.1-12.71,1.3-25.77,1-13.63-.26-17.34-1.86-29.18-2.84-19.25-1.6-19.79,1.76-47.93,2-22.44.23-23.29-1.89-37.53-.25-16.27,1.87-17,4.85-34,7.4-8.8,1.32-25.23,3.79-44.42.33-21.86-3.94-22-11-42.4-13.13a93.32,93.32,0,0,0-37,3.61c-8.56,2.74-15.19,6.49-28.46,14-7.57,4.28-13.38,8-21.32,13.07-16.89,10.81-16.82,11.68-24.52,15.83-11.69,6.31-19,10.28-29.17,10.65-3.69.14-4.59-.32-25.15-5.54-22.74-5.78-24-5.82-29.28-7.84-4-1.55-7.83-3.26-24.41-12.68-19.67-11.18-22.22-13.25-33.94-19.82-15.19-8.51-16.43-8.13-36.13-18.51-19.91-10.5-29.86-15.75-36.89-20.81-16.64-12-25.22-24.69-39.58-46-19.78-29.3-19.91-39-39.58-61.35-18.9-21.52-28.76-23.94-35.23-23.8-8.29.19-11.7,4.59-25.68,4.83-7.92.14-8.29-1.25-21.55-1.89-4.53-.22-4.39,0-22.57,0H958.34c-22.08-1.23-26.55-14.2-41.39-14.25-9,0-17.83,7.79-35.59,23.44-22,19.35-32.93,29-36.27,43.39-4.33,18.64,4.21,35.2,7.17,40.94,15,29.2,38.52,26,53,55.84,1,2,3.68,12,9.05,31.81,9.56,35.32,10,42.38,17.18,51.81,8.85,11.58,13.55,7.9,32.73,22.17C994.33,1269.19,991.31,1284.61,1011.7,1292.81Z" transform="matrix(1, 0, 0, 1, -4383.633301, -2059.259766)" style="fill: rgb(255, 255, 0); opacity: 0.5; stroke: rgb(255, 255, 0);"/>
  <polyline class="j" points="595.69 1178.76 583.44 1166.5 573.1 1156.16 558.16 1147.35 545.9 1135.1 536.33 1125.52 525.99 1115.18 511.05 1100.24 487.69 1084.54 473.9 1070.76 459.73 1056.59 442.12 1038.97 421.05 1017.9 408.71 1007.1 402.93 1001.31 392.03 991.78 371.95 968.63 360.71 957.39 347.1 943.44 337.22 929.82 328.03 917.22 317.14 901.9 301.14 874.67 288.03 847.1 279.86 838.93 270.16 824.63 264.03 811.35 258.42 800.63 247.69 789.9 237.22 779.44 230.33 759.5 221.65 732.71 217.05 718.93 211.44 706.16 205.31 693.39" style="fill: none; opacity: 0.5; stroke: rgb(255, 0, 0); stroke-miterlimit: 10; stroke-width: 6px;" transform="matrix(1, 0, 0, 1, -4384.133301, -2059.759766)"/>
  <path class="a" d="M961.41,1415.19a53.07,53.07,0,0,0-9.92-4.81c-3.54-1.28-8.5-2.37-12.26-3.4-6.75-1.85-7.86-2.29-8.85-2.72-3.9-1.73-3.83-2.71-8.85-5.79s-5.72-2.52-11.91-6.13c-4.47-2.6-4.17-2.94-8.17-5.11-2.09-1.12-4.6-2.24-9.54-4.42-6-2.66-6.5-2.75-9.19-4.09a50.51,50.51,0,0,1-7.83-4.42c-3.38-2.49-5.2-5-8.85-9.87a81.12,81.12,0,0,1-7.49-11.92c-2.23-4.39-1.83-4.67-4.76-10.89a75.87,75.87,0,0,0-5.79-10.9,55.47,55.47,0,0,0-9.53-10.89c-3.34-2.88-3.66-2.38-8.17-6.13-3.95-3.28-3.87-3.8-8.17-7.49a92,92,0,0,0-9.19-7.15c-4.9-3.27-6.42-3.48-8.51-6.12-1.19-1.49-1.93-3.27-3.41-6.81-3-7.29-2.06-7.73-3.9-10.06-.83-1.07-3.34-2.92-8.35-6.62-2-1.47-3-2.2-3.75-3.75-1-2.29-.47-4.64,0-6.47,1.09-4.25,2.82-4.48,3.75-8.17.57-2.26-.13-2,0-7.49.13-6,1-7.14,0-9.87a10.92,10.92,0,0,0-3.41-4.76c-.49-.4-2.22-1.68-7.15-2.39a47.6,47.6,0,0,0-11.57,0c-4.66.41-7,.61-7.49.68-2.94.44-4.38.86-5.79,0-.79-.48-1.12-1.08-2.38-4.08-2.39-5.65-2.52-6.56-3.75-8.17a9.07,9.07,0,0,0-4.08-3.41c-1.29-.46-1.84-.22-5.79,0a35.87,35.87,0,0,1-7.49,0,27.53,27.53,0,0,1-5.1-1.36,33,33,0,0,1-6.81-2.72c-3.38-2-2.88-3.51-8.17-9.19a60.34,60.34,0,0,0-5.79-5.45c-4.06-3.42-5.89-4.19-6.47-4.42a27,27,0,0,0-6.13-1.37c-.75-.12-1.29-.19-6.46-.68-5.32-.5-5.86-.53-6.81-.2-1.62.56-1.58,1.19-4.43,2.93-1.87,1.14-2.36,1.16-4.76,2.38-4.2,2.13-4,2.72-7.49,4.42a20.9,20.9,0,0,1-6.81,2.39,22.57,22.57,0,0,1-6.81-.34,47.18,47.18,0,0,1-7.15-1.7,41.87,41.87,0,0,1-8.18-3.42c-2.23-1.26-2.36-1.65-7.48-5.44-6.21-4.58-5.92-3.92-7.49-5.44-2.16-2.09-3.71-4.46-6.81-9.19s-3.41-5.88-5.1-6.47c-2.55-.89-4.31.76-7.61-.25a10.12,10.12,0,0,1-4-2.48c-14.54-13.1-15.91-14.23-16.68-17-1.37-5,.86-9.45,4.65-16.56,11.73-22,17.59-33,19.78-34.93,19.8-17.24,59.66-13.71,78.38,4.51,7.21,7,7.86,12.89,20.83,24.75,4.84,4.43,6,4.72,22.57,17,10.49,7.71,17.72,13.25,29.11,22,14.75,11.29,22.12,16.93,25.3,19.94,11.51,10.89,11.47,14,23.84,24.78,7.75,6.76,9.91,7.42,16.73,14a143.88,143.88,0,0,1,16.29,19.07c10.2,13.57,11.19,12.19,38,42.29,22.28,25.05,17.69,21.63,26.67,30.8,14.94,15.27,27.52,24.64,49.7,41.17,13.71,10.21,25.51,19,42.53,29.58,29.24,18.15,34.1,16.86,48.92,29.74,9.84,8.55,24,21.19,29.7,41.62,5,18.13,1.83,36.7-2.06,37.36-2.46.41-4-6.5-15.15-20.15a61,61,0,0,0-10.39-10.49,54.63,54.63,0,0,0-12.25-7.15c-3.24-1.34-3.58-1.08-14.81-4.09-6.41-1.71-9.68-2.59-12.77-3.7a67.67,67.67,0,0,1-12.25-5.49c-4.23-2.52-8.84-7.33-17.87-16.85C967.34,1420,965.51,1417.8,961.41,1415.19Z" transform="matrix(1, 0, 0, 1, -4383.633301, -2059.259766)" style="fill: rgb(109, 191, 191); opacity: 0.5; stroke: rgb(109, 191, 191);"/>
  <path class="a" d="M1911.4,1889.36c-4.49,7.69-16.13,8.08-19,8.17-12.16.41-21.13-6.26-23.53-8.17-11-8.72-10.16-17.68-18.91-35.56-6.77-13.83-14.08-22.39-26.5-37-13.91-16.3-16.7-15.48-33.7-34.18-14.78-16.25-12.87-17.09-29-35.56-14.73-16.86-16.88-16.81-38.41-40-11.42-12.33-20.84-23.17-30.63-35.75-9.65-12.41-17.93-24.3-22.84-41-2.07-7-5.26-17.88-1.67-20.29,4.52-3,14.6,23.5,38.3,29.36,6,1.48,10.65,1.16,18.9,4.86,5,2.25,9.13,5.07,17.36,10.72,6.33,4.34,9.5,6.52,12.08,9,3.4,3.29,6.13,6.85,11.58,14a96.8,96.8,0,0,0,6.81,8.51c2.56,2.76,5,4.89,7.48,7.15,4.53,4,5.28,4.28,8.17,7.15a83.09,83.09,0,0,1,5.79,6.46c4.07,4.87,4.42,5.91,8.51,10.9,3,3.61,2.85,3.15,6.47,7.49s3.71,4.74,7.83,9.87c6,7.48,6.25,7.15,9.53,11.62.4.54,2.42,3.52,6.47,9.49l5.79,8.51c4.72,6.94,5,7.28,5.44,7.83,2,2.3,2.76,2.42,10.56,8.17,6.11,4.5,5.93,4.6,9.19,6.8,3,2,3.54,2.21,8.51,5.45,4.64,3,7,4.57,8.17,5.79,1.67,1.71,2.25,2.87,5.79,9.53,5.84,11,5.58,10.36,6.13,11.58,2.25,5,1.91,5.51,5.1,13.61.8,2,2.48,6.21,4.77,11.24,4.33,9.49,5,8.87,7.15,14.29a54.82,54.82,0,0,1,3.74,17.37C1913.13,1883.05,1913.26,1886.19,1911.4,1889.36Z" transform="matrix(1, 0, 0, 1, -4383.633301, -2059.259766)" style="fill: rgb(109, 191, 191); opacity: 0.5; stroke: rgb(109, 191, 191);"/>
  <path class="f" d="M1154,402.17c18.48,39.39,51.21,60.12,70.71,72.47,17,10.78,36.62,23.2,64.67,26.61,25.17,3.06,29.93-4.45,53.59,1.2,26.84,6.41,26.92,17.56,54.6,22.49,17.39,3.09,23.78-.17,42.9,4.85,9,2.36,16.44,6,31.4,13,31.35,14.71,30.84,18.08,43.66,20.94,10.86,2.43,21.54,1.62,42.9,0,27.4-2.08,26.91-5.22,33.94-3,22.4,7.12,19.21,36.43,42.65,44.85,1.76.63,1.1.22,34,0,18.08-.13,27.11-.19,36.72,0,23.18.44,22.63,1.45,35.87,1.16,17-.37,17.51-2,38.9-3.16,17-.91,30.8-.62,39.23-.43,22.28.51,23.37,1.8,35.87,1.17,13.57-.68,24.62-1.24,36.19-5.87,8.48-3.39,13.73-7.57,39.65-34.74,28.41-29.78,28.94-31.94,37-37,11.51-7.3,15.9-6.35,48.44-15.25,27.4-7.5,49.46-13.54,71.51-24.18a227.07,227.07,0,0,0,47.8-31.27c70.64-56.46,362.87-61.1,398.5,39.09,13,36.59-13.31,72.73,14.54,106.15,12.55,15.06,28.9,20.94,56.95,31,30.42,10.94,61,21.94,84.15,6.43,15.28-10.23,20.12-27.17,22.14-34.24,5.9-20.64,4.22-50.84-13.51-65s-37.1-1-46.19-12.89c-8.32-10.88,3.92-27.11,19.37-76.74,17.8-57.23,11-66,7.64-68.68-1.39-1.11-7.79-.74-20.43-.25-13.5.52-16.07,1.18-24.85,1a185.23,185.23,0,0,1-18.72-1.36c-9.38-1.09-16.33-2.5-20.77-3.41-8.89-1.83-13.34-2.74-18.38-4.76-7.48-3-6.92-4.32-12.59-6.13-6.19-2-9.2-1.19-20.43-1.7-8.33-.39-6.39-.81-18.72-1.71s-13.94-.45-25.88-1.36c-8.45-.64-12.67-1-17-1.7-11-1.88-12.73-3.8-26.55-6.47a102,102,0,0,0-15.32-2,95.4,95.4,0,0,0-15.32.68c-7.46.83-10.67,1.86-15.66,2.72-6,1-7.25.6-26.21.68-15.89.08-16.05.4-30.64.34-7.79,0-12.44-.05-19.06-.34-10.17-.44-15.26-.66-21.79-1.7-7.52-1.19-9.85-2.24-19.06-3.4-5.54-.7-9.78-1-10.9-1-9.19-.54-10.88.21-21.44,0-3.8-.08-9.45-.21-16.69-1-7.51-.85-7.41-1.4-15-2.39-6.41-.84-6.14-.41-24.17-1.7-6.14-.44-8.21-.64-14.3-1-7.17-.45-10.76-.68-12.26-.68-9.31,0-11.39,2.37-27.57,5.79-14.56,3.07-17.71,2.16-19.07,1.7-5.47-1.88-6.24-4.91-12.93-6.81-4.26-1.21-7.62-1-13.62-.68-4.27.24-6.07.68-16.34,2.38-8.81,1.46-13.21,2.19-15.32,2.38-10.54,1-11.35-.71-19.06.34-5.92.81-10.08,2.47-18.39,5.79-12,4.8-12.57,6.81-19.4,7.83-3.57.53-3.68,0-14.64.34-6.26.18-11.91.51-14,.68-11.14.92-15.19,5.33-35.4,14.3a248,248,0,0,1-25.19,9.87c-9.86,3.23-9.65,2.42-26.21,7.49-7.78,2.38-12.17,3.89-20.09,5.79-4.6,1.1-4.71,1-12.6,2.72-13.92,3.09-14.34,3.66-20.42,4.77-6.34,1.15-11.6,1.45-22.13,2-9.16.52-17.13.62-22.47.68-10.21.13-11.73-.09-17.36.34-3.55.28-3.74.42-16.34,2.05-13.59,1.74-16.17,1.93-18,2-6.31.36-8,0-15,0-13,0-13.74,1.28-27.23,1.7-1.51.05-.6,0-24.85-.34-9.81-.14-14.47-.2-21.11,0-8.39.25-12.58.37-16.34,1-11.83,2.05-12.05,5.42-21.79,6.81-7.91,1.13-8.06-1.05-22.47-1-10.13,0-9.66,1.1-18.72,1-12.49-.11-12.57-2.16-24.51-2-7.52.07-8,.89-18.72,1-6.9.08-8.81-.23-12.6.34-5,.75-11.22,1.88-16.34,6.47-3.46,3.1-3.8,5.46-7.49,6.81-3.31,1.2-4.7-.09-7.83,1.36-3.44,1.59-3.24,3.83-6.47,6.46-4,3.3-5.9,1-12.59,4.09-3.75,1.71-3.42,2.54-11.71,7.36-4.15,2.42-5.29,2.83-6.68,2.85-4.09.08-7.07-3.21-9.87-6.12-6.59-6.87,4.54,5.74-19.74-18.39-7.39-7.34-11.11-11.05-12.26-12.93-2.25-3.69-3.09-6.43-5.45-6.81-3.5-.57-4.88,5-11.23,6.81a15.3,15.3,0,0,1-10.55-1c-1.72-.92-3.56-3.35-7.15-8.17-2.88-3.85-4.14-5.89-7.15-9.4-3.27-3.81-4.27-4.33-4.77-4.55-3.84-1.74-7.45.32-10.89,1-6.26,1.27-10.87-2.2-19.4-6.81-9.93-5.37-3.63-.65-37.11-15.66-9.63-4.32-14.57-6.54-20.43-9.53-8.82-4.51-16-8.23-24.51-14.3-6.5-4.65-4.7-4.21-16.68-13.62-13.16-10.33-14.25-10-19.4-15.32-6.6-6.79-6.45-9-12.6-13.61a66.43,66.43,0,0,0-14.3-7.83c-7.19-3.13-7.79-2.38-15-5.45a70.05,70.05,0,0,1-16-8.85c-8-6.12-8.56-10-10.56-9.87C1145.65,278.41,1126.89,344.29,1154,402.17Z" transform="matrix(1, 0, 0, 1, -4383.633301, -2059.259766)" style="fill: rgb(255, 255, 0); opacity: 0.5; stroke: rgb(255, 255, 0);"/>
  <path class="f" d="M401.87,401.87c-1.8,15.24-3.48,1.35-4.22,22.34-.81,23.21-.71,34.71.65,42.51,3.61,20.8,14.19,28.21,30.53,52.81,22.31,33.61,13.71,40.42,30.44,60.25,10.86,12.88,13.27,10.21,38.81,34.31,21.21,20,20.1,22.38,34.21,34.62,21.55,18.71,41.84,28.56,56,35.31,29.75,14.19,44.63,21.29,63.3,20.73,29.23-.87,50.8-17.44,69-31.45,18.07-13.89,29.48-28.21,39.86-41.24,11-13.77,8.64-13.44,29.4-44,24.62-36.25,29.66-39.46,31.77-52.91,1-6.24-.37-18.12-3.07-41.87-1.68-14.85-2.71-23.69-5.61-35.75-5.1-21.17-7.64-17.75-10.54-33.88-2.26-12.52-2.3-23.36-9.38-26.88a11.5,11.5,0,0,0-6.13-1c-27.2,2-54.56.45-81.83,1.16-41.46,1.08-62.19,1.62-69.32-.64-1-.31-5.18-1.72-6.63,0-1.28,1.49.29,4.54,5.1,14.29,5.74,11.63,6.41,13.17,7.15,15.53,1.48,4.68,1.89,8.27,2.55,14.09,1.28,11.18-.09,12.24,1.54,18.89.86,3.52,2.45,6.95,5.61,13.79,4.14,8.93,4.88,8.91,7.66,15.32a116.1,116.1,0,0,1,6.13,18.38c1.63,6.39,2.69,10.52,3.06,16.34.45,7-.34,12.12-1.5,19.61-1.19,7.74-1.79,11.61-3.6,16.14a49.24,49.24,0,0,1-11.24,16.85c-5.33,5.18-10.32,7.58-16.85,10.72s-11.38,5.49-18.38,6.13c-4.17.38-7.88-.16-15.32-1.24-7.6-1.1-11.54-1.68-16.64-3.55-6.93-2.54-11.63-5.87-16-9-1.8-1.27-2-1.5-14.3-11.74-7.94-6.61-8.69-7.2-10.16-8.22-5.91-4.09-8.11-4.43-14.35-8.12a110.92,110.92,0,0,1-15.32-11.24c-4.88-4.31-5.78-6.1-14.81-16.85-12.5-14.89-12.7-13.76-18.89-21.95-7-9.23-5.62-9.2-13.28-19.29-6.36-8.37-8.11-9.47-14.8-18.5-5.19-7-7.78-10.49-10.73-15.83-1.08-2-1.45-2.8-10.11-23.59-2.13-5.12-4.92-10-6.74-15.22-2-5.67-2.68-9.4-6.13-11.23-1.12-.6-3.3-.91-7.66-1.54s-5.39-.4-6.12,0C402.46,396.6,402.06,400.25,401.87,401.87Z" transform="matrix(1, 0, 0, 1, -4383.633301, -2059.259766)" style="fill: rgb(255, 255, 0); opacity: 0.5; stroke: rgb(255, 255, 0);"/>
  <path class="b" d="M569.36,751.61c4.83-1.9,7.57-9.74,6.65-15.89-1.47-9.78-11.31-9.3-27.15-26.76-5-5.5-7.06-8.92-10.73-8.76-5.65.24-11.5,8.77-10.65,16.09.54,4.67,3.94,7.65,10.71,13.41C563.43,751.17,566.26,752.84,569.36,751.61Z" transform="matrix(1, 0, 0, 1, -4383.633301, -2059.259766)" style="fill: rgb(255, 255, 255); opacity: 0.5; stroke: rgb(255, 255, 255);"/>
  <path class="f" d="M1026.72,2819.4c-.19,3.37-8.15,2.23-18.38,11.58-3.7,3.38-2.68,3.55-12.6,14.64-5,5.56-7.53,8.41-10.72,11.23-5.47,4.85-7,5-10.38,8.85-3.2,3.66-4.74,6.87-7.15,11.92a70.1,70.1,0,0,0-6.47,18.72c-.95,5.26-1,9.33-1,16.68,0,5.45.25,5.67.25,12.69,0,7.66-.33,8.35-.25,14.55,0,2.46.1,3.7.68,13.34.63,10.59,1,15.89,1,17,.72,10.88,1.09,16.41,1.7,20.77.83,5.89,1.78,10.27,2.73,14.64a174.32,174.32,0,0,0,5.44,20.76,124,124,0,0,0,12.94,26.9A142.11,142.11,0,0,0,998.13,3071c5.86,6.65,6.39,6.32,12.25,12.93,10.07,11.36,9.09,13,15.32,18.73,10.24,9.45,17.32,9.2,17.36,13.27.06,5.83-14.32,13.21-27.83,11.84-5.44-.55-10.5-2.5-23.05-11.2s-17.47-13.7-29-23.1c-8.78-7.14-7.26-5.31-37.34-28.23-14.33-10.9-17.84-13.73-22-19.26-3.3-4.43-6.61-10.09-12.26-28.43-7-22.8-12.8-41.62-12.59-67.06a222.49,222.49,0,0,1,1.7-23.49c1.49-14.14,2.75-26.14,7.09-41.23a182.53,182.53,0,0,1,12.32-31.28c6.41-12.77,10.37-20.67,19-29a74.89,74.89,0,0,1,23.86-15.63,76.76,76.76,0,0,1,23.2-5.19C995.78,2802.26,1027.12,2812.68,1026.72,2819.4Z" transform="matrix(1, 0, 0, 1, -4383.633301, -2059.259766)" style="fill: rgb(255, 255, 0); opacity: 0.5; stroke: rgb(255, 255, 0);"/>
  <path class="h" d="M807.06,3046c4.72-7,2.54-16.12,0-24.51-9.73-32.21-20.88-40.76-28.34-67.85-1.25-4.57-.07-1.18-4.92-24.29-7.76-37-8.81-36.29-8.56-43.56.3-8.89,2.16-18.2-2.13-20.56a5.18,5.18,0,0,0-4.62,0c-3.41,1.71-4.74,7.65-3.49,21.55,2.29,25.48,9,30.28,7.36,43.83-1.58,13.17-8.24,11.38-11.21,24.66-5.24,23.42,15.42,29.16,20.32,66.22.74,5.61,1.67,16.12,9.3,24.51,2.29,2.52,6.85,7.38,13.44,7.32C802,3053.2,806.83,3046.3,807.06,3046Z" transform="matrix(1, 0, 0, 1, -4383.633301, -2059.259766)" style="fill: rgb(102, 51, 102); opacity: 0.5; stroke: rgb(102, 51, 102);"/>
  <path class="b" d="M3111.06,3288c-6.94-8.32-9.87-22.34-4.36-30.33,5.33-7.74,16.92-7.45,36.79-6.94,17.39.45,26.39.68,36.62,6.93,2,1.24,18.33,11.55,22.35,30.34,1.53,7.17.86,13.65.33,18.84-.7,6.72-1.35,13-5,20.05-5.21,10-13.19,15.17-17.67,18.06-5.82,3.75-11.5,7.41-19.26,6.89-1.53-.1-12.11-.47-15.38-6.89-2.52-5,1.69-8.77,2.11-18.06a35.5,35.5,0,0,0-4.87-19.44C3134.7,3294.63,3121,3300,3111.06,3288Z" transform="matrix(1, 0, 0, 1, -4383.633301, -2059.259766)" style="fill: rgb(255, 255, 255); opacity: 0.5; stroke: rgb(255, 255, 255);"/>
  <path class="i" d="M3062.47,3721.53a51.4,51.4,0,0,0-9.87-5.79,36.14,36.14,0,0,0-9.54-3.06c-4.57-.68-6.91.24-13.61,1.36-7,1.18-12.61,2.12-19.07,1.7-7-.44-6.54-1.93-15.66-3.06-7.1-.88-7.45,0-17.7-.68-9-.61-8.71-1.3-16.68-1.7-3.77-.19-3.91,0-17.7,0-8.91,0-8,0-14,0-7.76,0-14,.19-20.42.34-12,.27-11.2.37-14.64.34-7.53-.07-10.68-.52-19.41-1-13.83-.79-12.39,0-20.76-.68-7.89-.63-18-1.5-30-5.45-8.76-2.91-8-4-15.66-6.13-5.82-1.61-12-2.12-24.17-3.06-11.92-.93-17.89-1.39-23.49-1.36-10.5,0-13.29,1-19.74-.68-3.9-1-3.94-1.63-12.94-4.43a113.09,113.09,0,0,0-12.6-3.4c-1.19-.24-4.33-.73-10.55-1.71-5.66-.88-8.49-1.32-8.85-1.36-4.8-.47-6.11.07-16.34.68-7,.42-10.58.63-14,.34a53.74,53.74,0,0,1-12.59-2.38c-5.13-1.65-5-2.54-9.54-3.74-3.8-1-6.7-1.15-11.91-1.37-5.05-.21-7.57-.32-10.89.34a35.7,35.7,0,0,0-9.2,3.41c-8.63,4.18-8.57,6.44-14.63,8.51a35.71,35.71,0,0,1-11.58,1.7,37.41,37.41,0,0,1-9.87-1,44.74,44.74,0,0,1-8.85-3.4c-5.21-2.4-7.82-3.59-9.53-5.45-1.22-1.31-.92-1.45-5.11-7.83a45.74,45.74,0,0,0-3.06-4.43c-3.16-3-7.86-2.68-13.62-2.38-6.46.34-12.95.25-19.41.68-10.6.7-9.34-.05-33.7.34,0,0-3,.05-14-.34-4.65-.16-5.68-.25-7.14-.68-5.52-1.61-6.31-4.85-10.9-7.15-3.51-1.76-7.27-1.54-14.64-1-8.31.59-10.08,1.85-17,2.72-6,.76-5.8,0-21.78-.34-2.41,0-1.42,0-22.81,0-18.17,0-16.24,0-18,0-7.14.08-14.36-1-21.44,0-2.92.4-5.13.89-7.49-.34-4.73-2.47-4.58-9-7.15-9.19-2.2-.15-2.6,4.64-6.81,7.83-1.1.83-3.39,2.26-14.3,2.38-8.8.1-9.33-.8-19.06-1-9.24-.2-10.6.57-13.62-1-5.08-2.68-4.09-6.39-9.19-9.87-1.44-1-3-1.71-16.68-3.06-9.29-.93-14-1.38-17.7-1-7.75.75-8.18,3.43-15,3.75-1.19,0-5.84.2-14.64-2.72-8-2.64-12.59-5.56-18-8.51-10-5.45-18.05-8.43-29.28-12.6-15.77-5.87-16.92-4.61-25.53-9.19a103.63,103.63,0,0,1-19.4-13.62c-8.12-7-6.44-7.53-16.35-16.34-6.06-5.39-9.09-7.34-12.25-12.6a46.83,46.83,0,0,1-4.77-11.57,73.13,73.13,0,0,1-2.38-14c-.66-6.76,0-6.45-.68-10.89-.61-4.06-1.26-5-4.09-14.64-1.86-6.36-2.8-9.54-3.06-11.23-.74-4.82,0-5.17,0-16.34,0-7.09-.33-8,0-12.6a96.88,96.88,0,0,1,1.36-10.21c1.25-6.7,2.08-7.44,3.75-15,1.6-7.25,1-7.15,2.38-12.6.8-3.08,1.12-3.53,4.43-12.93,2.39-6.82,3.59-10.22,4.76-14,1.65-5.28,1.27-4.71,4.09-14.3,2-7,2.48-8.07,3.4-11.91,1.26-5.25,1.9-7.94,2-11.58.16-3.95-.38-4.65,0-8.85.41-4.49,1.14-4.92,1.08-7.88-.06-3.34-1-5-2.44-9.14-2-5.94-1.24-5.92-3.06-11.91s-2.52-6.3-3.52-10.17a43.1,43.1,0,0,1-1.25-13.32" transform="matrix(1, 0, 0, 1, -4383.633301, -2059.259766)" style="fill: none; opacity: 0.5; stroke: rgb(255, 0, 0); stroke-width: 6px;"/>
  <path class="i" d="M1351.49,3306.55c-3.44,1.81-8,4-13.5,6.26a80,80,0,0,1-13.73,4.64c-5,1.1-8.8,1.27-15.29,1.55-7,.3-7.35-.13-15.69.15-6.81.22-6.67.51-12.94.68-8,.21-8.2-.25-15,0-6.56.24-6.53.68-14.3,1-6.76.29-10.23.43-14.29-.34a51.6,51.6,0,0,1-10.56-3.4c-7.23-2.92-8-4.33-12.25-5.79-4-1.35-5.78-1-16.34-1s-16-.06-21.45-.68c-7.52-.87-6.46-1.64-19.06-3.75-6.89-1.15-6.22-.76-19.07-2.72-7.65-1.17-15-2.38-15-2.38-7.41-1.23-6.72-1.19-8.17-1.37-7.54-.9-9.56,0-18.38-.34a134.4,134.4,0,0,1-14.3-1.36c-7.1-1-7.29-1.49-14-2.38-4.24-.57-4.5-.41-15.32-1.36-6.33-.56-11-1-14.3-1.36-8.58-.87-13-1.32-17.7-2a101.07,101.07,0,0,1-14-2.72,94.11,94.11,0,0,1-14.64-5.79c-7-3.22-8.59-4.5-15.32-7.83-7.63-3.76-11.47-5.59-16.34-7.15-7.46-2.38-9.08-1.68-15.32-4.42a47.07,47.07,0,0,1-10.55-6.13c-5.59-4.36-4.93-6.05-9.87-9.53-4.41-3.1-5.28-2-11.58-5.79-4.79-2.88-4.49-3.65-9.53-6.81a56.13,56.13,0,0,0-12.6-6.12c-5.69-1.87-6.62-1-14.63-2.73a68.08,68.08,0,0,1-14.3-4.42c-5.68-2.58-5.59-3.78-16-10.22-7.5-4.64-7.52-4-11.92-7.15a153.21,153.21,0,0,1-11.91-9.87c-4.37-3.82-6.55-5.73-7.83-7.15-3-3.34-5.12-6.7-9.19-13.27s-3.59-6.43-5.45-8.85c-2.77-3.61-5.3-5.75-10.21-9.88-4.56-3.82-8.56-6.69-11.58-8.85-7.24-5.18-7.7-4.93-9.87-7.15-1.12-1.14-3-3.2-7.49-12.25a179.66,179.66,0,0,1-7.49-16.68c-3.27-8.41-2.69-8.61-5.79-16.34-2.84-7.1-5.57-12.55-7.14-15.66-2.95-5.85-3.49-6.26-7.15-13.28-3.9-7.45-5.84-11.17-7.49-15.32-1.49-3.73-3.06-9.8-6.13-21.79-2.11-8.23-3.18-12.41-3.75-15.31-1-5.29-.9-6.14-2.72-19.75-1.67-12.5-1.82-12.21-2.38-17.7-1-9.71-.41-9.82-1.36-17.36-1.2-9.51-2.13-9.48-2.73-17a116,116,0,0,1,0-16,71.92,71.92,0,0,1,1.37-12.6,64.34,64.34,0,0,1,3.74-11.57c1.62-3.8,2.79-5.63,5.79-10.9,3.69-6.49,6.35-11.16,8.85-16.34,3.58-7.41,2.64-7.15,7.15-17,2.18-4.77,4.22-9.24,7.49-15,3.44-6,4.48-6.88,7.15-12.25a59.58,59.58,0,0,0,4.76-11.92c1.59-5.95.25-6.39,1.7-11.91a40.84,40.84,0,0,1,6.13-12.94,46.21,46.21,0,0,1,6.81-7.49c3.26-2.89,4-2.69,7.49-5.79a63.63,63.63,0,0,0,7.15-7.49c3.32-4,3-4.34,5.79-7.49s3.09-2.78,7.48-7.14c4.7-4.67,4.88-5.59,8.17-8.17,2.72-2.13,4.44-3.45,7.15-4.09a46.38,46.38,0,0,1,7.49-.34,31.69,31.69,0,0,0,6.47-.34,24.74,24.74,0,0,0,4.43-1.36,22.45,22.45,0,0,0,5.44-3.07c2.77-2.15,2.56-3.24,5.11-5.44a24,24,0,0,1,5.79-3.41,103.45,103.45,0,0,1,10.21-4.08c6.2-2.31,9.32-3.46,10.21-3.75,5.81-1.84,6.2-1.45,8.17-2.72,3-1.93,3.32-3.61,6.82-5.45a24,24,0,0,1,5.09-1.78c2.56-.73,6.15-1.68,10.56-2.64" transform="matrix(1, 0, 0, 1, -4383.633301, -2059.259766)" style="fill: none; opacity: 0.5; stroke: rgb(255, 0, 0); stroke-width: 6px;"/>
  <path class="i" d="M999.47,2241.25c-3.53-3.77-6.24-7-8.07-9.25-4.52-5.59-6-8.17-10.08-11.36-.83-.65-2.72-1.84-6.51-4.23-7.34-4.62-7.83-4.53-10.34-6.5-4.34-3.38-3.4-4-7.79-7.53-4.83-3.84-6-3-9.83-6.51-3.11-2.79-2.46-3.39-6.76-8-2.64-2.85-2.91-2.65-8.43-7.92-3.23-3.07-5.33-5.08-7.92-7.91-2.8-3.07-2.75-3.37-7.65-9.19-3.7-4.39-5.55-6.58-7.66-8.68a95.75,95.75,0,0,0-9.2-7.92c-4.17-3.28-4.53-3.22-9.7-7.15-2.2-1.67-6-4.53-10.47-8.42-3.08-2.67-5.37-4.84-9.95-9.19-3.45-3.28-5.28-5-7.66-7.41-6.94-7-10.41-10.44-13.28-14.81-2.22-3.38-1.21-2.66-6.38-11.74-4.4-7.72-5.91-9.59-6.64-10.47-3.12-3.73-5.1-4.73-9.7-8.68-7.06-6.06-9.29-8.59-11.49-11.49a53.42,53.42,0,0,1-3.58-5.36" transform="matrix(1, 0, 0, 1, -4383.633301, -2059.259766)" style="fill: none; opacity: 0.5; stroke: rgb(255, 0, 0); stroke-width: 6px;"/>
  <path class="i" d="M676.77,1841.36c-1.29-2.67-3.28-6.82-5.79-11.91-3.24-6.58-3.84-7.64-5.11-10.56-2.18-5-3.91-9-5.1-14.29-1.07-4.74-.38-4.61-1.71-13.62-.41-2.78-1.08-7.32-2.38-12.94-1.67-7.23-2.28-7.25-3.4-12.59-1-4.82-1.24-8.55-1.71-16-.22-3.6-.54-8.94-.34-16a90,90,0,0,1,.68-10.9,65.5,65.5,0,0,1,1.37-6.81c.82-3.17,1.34-4.12,2-7.14a34.11,34.11,0,0,0,1-6.13c.17-3.06-.35-4-1.36-11.24a42.63,42.63,0,0,1-.68-6.46c.14-2.21.63-3.22,3.06-9.54,2.79-7.24,2.67-7.27,3.41-8.51,1.44-2.43,1.91-2.35,5.44-7.15,2.51-3.41,2.54-3.81,4.09-5.78a52.87,52.87,0,0,1,7.15-7.15c.87-.77,2.65-2.31,11.91-9.53,4.21-3.28,5.24-4.06,6.81-5.79,2.5-2.76,2.32-3.49,5.11-6.81,2.33-2.77,4.37-5.21,7.83-7.15a23.65,23.65,0,0,1,8.51-2.72c1.73-.26,2.44-.19,8.85,0,8.34.25,7.9.17,11.57.34a90.93,90.93,0,0,1,9.87.68c5.25,1.15,5.86,2.8,11.92,4.43a43.3,43.3,0,0,0,8.51,1.36,39.08,39.08,0,0,0,14.64-1.71c4.82-1.56,4.31-2.53,10.55-4.76a46.9,46.9,0,0,1,10.9-2.72,47.62,47.62,0,0,1,10.89,0,106.25,106.25,0,0,1,11.57,2c4.22.86,4.47,1,10.9,2.38,10.64,2.31,10.93,2.2,13.27,3.06,5.1,1.9,4.92,2.92,10.22,4.77a47.84,47.84,0,0,0,10.55,2.38c4.51.5,4.89-.13,12.94,0,6.42.11,6.26.51,10.21.34,5.5-.22,5.75-1,11.57-1.36a57.58,57.58,0,0,1,11.92.34c3.41.48,3.38.82,9.53,2,3.39.67,6.42,1.27,10.21,1.7,3,.34,3.55.23,14,.68,7.23.31,8,.41,9.19.68,3.85.88,4.35,1.81,9.87,3.74,2,.71,4.65,1.38,9.88,2.73,6.44,1.65,9.66,2.48,11.57,2.72,6.32.8,7-.42,12.26.68,4.24.89,7.28,1.53,9.53,4.09,2.74,3.12,1.43,5.8,4.76,9.19.45.45,1.28,1.22,5.45,3.4,4.45,2.33,7.86,3.72,9.53,4.43,8.9,3.76,7.64,4.52,15.66,7.83,6.09,2.5,7.91,2.51,10.9,5.1,1.9,1.66,2.56,2.87,5.44,5.11,2.39,1.85,3.39,2.15,6.47,4.09,4.21,2.64,4.15,3.22,8.85,6.46a78,78,0,0,0,9.53,5.79c2,1,1.88.82,10.56,4.43,7.08,2.94,8.35,3.55,9.87,4.42,3.94,2.25,3.61,2.75,7.15,4.77,2.79,1.59,5.87,2.67,11.91,4.76,7.23,2.51,7.49,2.26,10.9,3.75s3.3,1.82,9.19,4.76c4.34,2.18,7.91,3.75,10.21,4.77,5.17,2.28,6.44,2.63,10.89,4.77a37.45,37.45,0,0,1,7.49,4.42,33,33,0,0,1,3.75,3.41" transform="matrix(1, 0, 0, 1, -4383.633301, -2059.259766)" style="fill: none; opacity: 0.5; stroke: rgb(255, 0, 0); stroke-width: 6px;"/>
  <path class="i" d="M1205.11,1653.11c.1-6-1.31-8.13-2.73-8.85-1.91-1-3.57.64-7.15-.35a11.71,11.71,0,0,1-5.1-3.06c-.57-.55-1.42-1.49-4.09-6.81-2.38-4.75-2.32-5.26-3.4-6.13-1.44-1.15-2.15-.75-7.15-2a31.34,31.34,0,0,1-7.15-2.38,23.59,23.59,0,0,1-6.13-4.77c-3.14-3.37-2.32-4.42-4.76-6.46-2.75-2.3-4.19-1.32-8.17-3.75-1.5-.91-2.11-1.55-5.79-5.11-2.66-2.57-5.82-5.63-8.17-7.83-6.88-6.44-7.43-6.13-10.21-9.53a61.52,61.52,0,0,0-4.77-5.78,36.89,36.89,0,0,0-6.13-5.11c-4.48-3-5.83-2.39-7.83-4.77a14.61,14.61,0,0,1-2.72-6.12c-1.06-4-.09-4.76-1-7.83-.59-1.94-1-1.75-4.77-7.49-3.63-5.54-4.15-7.11-4.42-8.17-.67-2.57,0-2.67-.68-5.79-.56-2.68-1.25-6-3.75-8.51-2-2-2.93-1.16-7.83-4.09-2.61-1.55-2.29-1.75-5.45-3.74-4.38-2.77-4.92-2.34-7.83-4.43a35.35,35.35,0,0,1-6.12-5.78c-1.72-2-1.38-1.92-4.43-5.79-2.83-3.6-3.14-3.82-5.1-6.47-2.2-3-2.27-3.36-3.92-5.59a75.71,75.71,0,0,0-6.67-7.69c-4.72-5-7.08-7.48-9.4-9.19a47.93,47.93,0,0,0-11-5.87,45,45,0,0,0-11.45-3.53c-6.81-1-9.59.52-15.43-1.71a31.36,31.36,0,0,1-4.78-2.39,51.59,51.59,0,0,1-9.68-7.15" transform="matrix(1, 0, 0, 1, -4383.633301, -2059.259766)" style="fill: none; opacity: 0.5; stroke: rgb(255, 0, 0); stroke-width: 6px;"/>
  <rect class="k" x="191.23" y="2070.15" width="80.7" height="80.7" style="fill: none; opacity: 0.5; stroke: rgb(0, 0, 0);" transform="matrix(1, 0, 0, 1, -4384.133301, -2059.759766)"/>
  <rect class="f" x="191.23" y="2191.21" width="80.7" height="80.7" style="fill: rgb(255, 255, 0); opacity: 0.5; stroke: rgb(255, 255, 0);" transform="matrix(1, 0, 0, 1, -4384.133301, -2059.759766)"/>
  <rect class="a" x="191.23" y="2312.26" width="80.7" height="80.7" style="fill: rgb(109, 191, 191); opacity: 0.5; stroke: rgb(109, 191, 191);" transform="matrix(1, 0, 0, 1, -4384.133301, -2059.759766)"/>
  <rect class="b" x="191.23" y="2433.32" width="80.7" height="80.7" style="fill: rgb(255, 255, 255); opacity: 0.5; stroke: rgb(255, 255, 255);" transform="matrix(1, 0, 0, 1, -4384.133301, -2059.759766)"/>
  <rect class="h" x="191.23" y="2554.38" width="80.7" height="80.7" style="fill: rgb(102, 51, 102); opacity: 0.5; stroke: rgb(102, 51, 102);" transform="matrix(1, 0, 0, 1, -4384.133301, -2059.759766)"/>
  <rect class="g" x="191.23" y="2675.43" width="80.7" height="80.7" style="fill: rgb(0, 102, 0); opacity: 0.5; stroke: rgb(0, 102, 0);" transform="matrix(1, 0, 0, 1, -4384.133301, -2059.759766)"/>
  <path class="h" d="M1949.43,2177c-5.08-7.45-11.4-5.8-24.83-15a107,107,0,0,1-11.44-9.41c-12.68-11.27-14.06-15.51-22.06-19.15-2.79-1.27-12-5.48-16.55-1.57-4,3.44-3,12.07.21,17.91,4.42,8.07,10.94,6.84,23.71,17.5,3.09,2.58,1.42,1.57,11.45,11.45,16,15.74,19.38,17.45,22.85,18.38,5.61,1.5,15.21,2,18.89-3.45C1954.84,2189,1952.51,2181.57,1949.43,2177Z" transform="matrix(1, 0, 0, 1, -4383.633301, -2059.259766)" style="fill: rgb(102, 51, 102); opacity: 0.5; stroke: rgb(102, 51, 102);"/>
  <path class="b" d="M2104.13,2358.39c5.29,5,13.33,5.75,19.15,3.36,11.26-4.61,14.86-21.32,9.94-32.44-.58-1.32-5-10.93-13.19-11.81-9.61-1-18.06,10.62-20.24,20.24C2099.18,2340.42,2096.69,2351.42,2104.13,2358.39Z" transform="matrix(1, 0, 0, 1, -4383.633301, -2059.259766)" style="fill: rgb(255, 255, 255); opacity: 0.5; stroke: rgb(255, 255, 255);"/>
  <rect class="m" width="1" height="1" style="fill: none; opacity: 0.5;" transform="matrix(1, 0, 0, 1, -4384.133301, -2059.759766)"/>
  <rect class="m" x="4095" y="4095" width="1" height="1" style="fill: none; opacity: 0.5;" transform="matrix(1, 0, 0, 1, -4384.133301, -2059.759766)"/>
  <path class="a" d="M2707.64,1158.85" transform="matrix(1, 0, 0, 1, -4383.633301, -2059.259766)" style="fill: rgb(109, 191, 191); opacity: 0.5; stroke: rgb(109, 191, 191);"/>
  <rect class="m" x="2047.5" y="2047.5" width="1" height="1" style="fill: none; opacity: 0.5;" transform="matrix(1, 0, 0, 1, -4384.133301, -2059.759766)"/>
  <path class="b" d="M1687.15,3065.46c15.24-1.56,15.84-.45,20.42-2.41,7.89-3.38,6.69-6.92,15.48-11,7.44-3.43,9.3-1.35,17-5.46,8.32-4.47,10.34-9.2,10.91-10.76.36-1,2.1-5.71,0-7.86-1.78-1.85-5-.4-10.91.38-7,.93-7.28-.48-17-.23a76.81,76.81,0,0,0-17.52,2c-7.57,1.89-12.73,4.71-18.38,7.86-10.87,6.06-17.77,10-20.43,17.81-.64,1.9-2.31,6.78,0,9.62S1673.4,3066.86,1687.15,3065.46Z" transform="matrix(1, 0, 0, 1, -4383.633301, -2059.259766)" style="fill: rgb(255, 255, 255); opacity: 0.5; stroke: rgb(255, 255, 255);"/>
  <path class="i" d="M3585.19,725.87c-1.73-9.48-5.68-14.78-8.42-17.61-1.43-1.47-5.29-4-13-9.2-6.11-4.07-9.23-6.14-12.25-7.66-4.71-2.37-6.61-2.69-11.49-5.36-2.35-1.28-2.92-1.94-8.43-5.36-4.83-3-5.88-3.51-7.14-3.91a18.48,18.48,0,0,0-9.54-.34" transform="matrix(1, 0, 0, 1, -4383.633301, -2059.259766)" style="fill: none; opacity: 0.5; stroke: rgb(255, 0, 0); stroke-width: 6px;"/>
  <circle class="n" cx="395.05" cy="409.52" r="6.47" style="fill: rgb(145, 26, 29); stroke: rgb(0, 0, 0); stroke-miterlimit: 10;" transform="matrix(1, 0, 0, 1, -4384.133301, -2059.759766)"/>
  <circle class="n" cx="395.05" cy="409.52" r="0.84" style="fill: rgb(145, 26, 29); stroke: rgb(0, 0, 0); stroke-miterlimit: 10;" transform="matrix(1, 0, 0, 1, -4384.133301, -2059.759766)"/>
  <circle class="n" cx="395.05" cy="409.52" r="6.47" style="fill: rgb(145, 26, 29); stroke: rgb(0, 0, 0); stroke-miterlimit: 10;" transform="matrix(1, 0, 0, 1, -4384.133301, -2059.759766)"/>
  <circle class="n" cx="395.05" cy="409.52" r="0.84" style="fill: rgb(145, 26, 29); stroke: rgb(0, 0, 0); stroke-miterlimit: 10;" transform="matrix(1, 0, 0, 1, -4384.133301, -2059.759766)"/>
  <circle class="n" cx="222.45" cy="678.45" r="6.47" style="fill: rgb(145, 26, 29); stroke: rgb(0, 0, 0); stroke-miterlimit: 10;" transform="matrix(1, 0, 0, 1, -4384.133301, -2059.759766)"/>
  <circle class="n" cx="222.45" cy="678.45" r="0.84" style="fill: rgb(145, 26, 29); stroke: rgb(0, 0, 0); stroke-miterlimit: 10;" transform="matrix(1, 0, 0, 1, -4384.133301, -2059.759766)"/>
  <circle class="n" cx="222.45" cy="678.45" r="6.47" style="fill: rgb(145, 26, 29); stroke: rgb(0, 0, 0); stroke-miterlimit: 10;" transform="matrix(1, 0, 0, 1, -4384.133301, -2059.759766)"/>
  <circle class="n" cx="222.45" cy="678.45" r="0.84" style="fill: rgb(145, 26, 29); stroke: rgb(0, 0, 0); stroke-miterlimit: 10;" transform="matrix(1, 0, 0, 1, -4384.133301, -2059.759766)"/>
  <circle class="n" cx="254.8" cy="628.42" r="6.47" style="fill: rgb(145, 26, 29); stroke: rgb(0, 0, 0); stroke-miterlimit: 10;" transform="matrix(1, 0, 0, 1, -4384.133301, -2059.759766)"/>
  <circle class="n" cx="254.8" cy="628.42" r="0.84" style="fill: rgb(145, 26, 29); stroke: rgb(0, 0, 0); stroke-miterlimit: 10;" transform="matrix(1, 0, 0, 1, -4384.133301, -2059.759766)"/>
  <circle class="n" cx="254.8" cy="628.42" r="6.47" style="fill: rgb(145, 26, 29); stroke: rgb(0, 0, 0); stroke-miterlimit: 10;" transform="matrix(1, 0, 0, 1, -4384.133301, -2059.759766)"/>
  <circle class="n" cx="254.8" cy="628.42" r="0.84" style="fill: rgb(145, 26, 29); stroke: rgb(0, 0, 0); stroke-miterlimit: 10;" transform="matrix(1, 0, 0, 1, -4384.133301, -2059.759766)"/>
  <circle class="n" cx="287.15" cy="574.79" r="6.47" style="fill: rgb(145, 26, 29); stroke: rgb(0, 0, 0); stroke-miterlimit: 10;" transform="matrix(1, 0, 0, 1, -4384.133301, -2059.759766)"/>
  <circle class="n" cx="287.15" cy="574.79" r="0.84" style="fill: rgb(145, 26, 29); stroke: rgb(0, 0, 0); stroke-miterlimit: 10;" transform="matrix(1, 0, 0, 1, -4384.133301, -2059.759766)"/>
  <circle class="n" cx="287.15" cy="574.79" r="6.47" style="fill: rgb(145, 26, 29); stroke: rgb(0, 0, 0); stroke-miterlimit: 10;" transform="matrix(1, 0, 0, 1, -4384.133301, -2059.759766)"/>
  <circle class="n" cx="287.15" cy="574.79" r="0.84" style="fill: rgb(145, 26, 29); stroke: rgb(0, 0, 0); stroke-miterlimit: 10;" transform="matrix(1, 0, 0, 1, -4384.133301, -2059.759766)"/>
  <circle class="n" cx="318.81" cy="526.63" r="6.47" style="fill: rgb(145, 26, 29); stroke: rgb(0, 0, 0); stroke-miterlimit: 10;" transform="matrix(1, 0, 0, 1, -4384.133301, -2059.759766)"/>
  <circle class="n" cx="318.81" cy="526.63" r="0.84" style="fill: rgb(145, 26, 29); stroke: rgb(0, 0, 0); stroke-miterlimit: 10;" transform="matrix(1, 0, 0, 1, -4384.133301, -2059.759766)"/>
  <circle class="n" cx="318.81" cy="526.63" r="6.47" style="fill: rgb(145, 26, 29); stroke: rgb(0, 0, 0); stroke-miterlimit: 10;" transform="matrix(1, 0, 0, 1, -4384.133301, -2059.759766)"/>
  <circle class="n" cx="318.81" cy="526.63" r="0.84" style="fill: rgb(145, 26, 29); stroke: rgb(0, 0, 0); stroke-miterlimit: 10;" transform="matrix(1, 0, 0, 1, -4384.133301, -2059.759766)"/>
  <circle class="n" cx="358.12" cy="467.22" r="6.47" style="fill: rgb(145, 26, 29); stroke: rgb(0, 0, 0); stroke-miterlimit: 10;" transform="matrix(1, 0, 0, 1, -4384.133301, -2059.759766)"/>
  <circle class="n" cx="358.12" cy="467.22" r="0.84" style="fill: rgb(145, 26, 29); stroke: rgb(0, 0, 0); stroke-miterlimit: 10;" transform="matrix(1, 0, 0, 1, -4384.133301, -2059.759766)"/>
  <circle class="n" cx="358.12" cy="467.22" r="6.47" style="fill: rgb(145, 26, 29); stroke: rgb(0, 0, 0); stroke-miterlimit: 10;" transform="matrix(1, 0, 0, 1, -4384.133301, -2059.759766)"/>
  <circle class="n" cx="358.12" cy="467.22" r="0.84" style="fill: rgb(145, 26, 29); stroke: rgb(0, 0, 0); stroke-miterlimit: 10;" transform="matrix(1, 0, 0, 1, -4384.133301, -2059.759766)"/>
  <circle class="n" cx="829.78" cy="321.18" r="6.47" style="fill: rgb(145, 26, 29); stroke: rgb(0, 0, 0); stroke-miterlimit: 10;" transform="matrix(1, 0, 0, 1, -4384.133301, -2059.759766)"/>
  <circle class="n" cx="829.78" cy="321.18" r="0.84" style="fill: rgb(145, 26, 29); stroke: rgb(0, 0, 0); stroke-miterlimit: 10;" transform="matrix(1, 0, 0, 1, -4384.133301, -2059.759766)"/>
  <circle class="n" cx="829.78" cy="321.18" r="6.47" style="fill: rgb(145, 26, 29); stroke: rgb(0, 0, 0); stroke-miterlimit: 10;" transform="matrix(1, 0, 0, 1, -4384.133301, -2059.759766)"/>
  <circle class="n" cx="829.78" cy="321.18" r="0.84" style="fill: rgb(145, 26, 29); stroke: rgb(0, 0, 0); stroke-miterlimit: 10;" transform="matrix(1, 0, 0, 1, -4384.133301, -2059.759766)"/>
  <circle class="n" cx="887.48" cy="313.86" r="6.47" style="fill: rgb(145, 26, 29); stroke: rgb(0, 0, 0); stroke-miterlimit: 10;" transform="matrix(1, 0, 0, 1, -4384.133301, -2059.759766)"/>
  <circle class="n" cx="887.48" cy="313.86" r="0.84" style="fill: rgb(145, 26, 29); stroke: rgb(0, 0, 0); stroke-miterlimit: 10;" transform="matrix(1, 0, 0, 1, -4384.133301, -2059.759766)"/>
  <circle class="n" cx="887.48" cy="313.86" r="6.47" style="fill: rgb(145, 26, 29); stroke: rgb(0, 0, 0); stroke-miterlimit: 10;" transform="matrix(1, 0, 0, 1, -4384.133301, -2059.759766)"/>
  <circle class="n" cx="887.48" cy="313.86" r="0.84" style="fill: rgb(145, 26, 29); stroke: rgb(0, 0, 0); stroke-miterlimit: 10;" transform="matrix(1, 0, 0, 1, -4384.133301, -2059.759766)"/>
  <circle class="n" cx="958.97" cy="305.55" r="6.47" style="fill: rgb(145, 26, 29); stroke: rgb(0, 0, 0); stroke-miterlimit: 10;" transform="matrix(1, 0, 0, 1, -4384.133301, -2059.759766)"/>
  <circle class="n" cx="958.97" cy="305.55" r="0.84" style="fill: rgb(145, 26, 29); stroke: rgb(0, 0, 0); stroke-miterlimit: 10;" transform="matrix(1, 0, 0, 1, -4384.133301, -2059.759766)"/>
  <circle class="n" cx="958.97" cy="305.55" r="6.47" style="fill: rgb(145, 26, 29); stroke: rgb(0, 0, 0); stroke-miterlimit: 10;" transform="matrix(1, 0, 0, 1, -4384.133301, -2059.759766)"/>
  <circle class="n" cx="958.97" cy="305.55" r="0.84" style="fill: rgb(145, 26, 29); stroke: rgb(0, 0, 0); stroke-miterlimit: 10;" transform="matrix(1, 0, 0, 1, -4384.133301, -2059.759766)"/>
  <circle class="n" cx="1030.44" cy="298.23" r="6.47" style="fill: rgb(145, 26, 29); stroke: rgb(0, 0, 0); stroke-miterlimit: 10;" transform="matrix(1, 0, 0, 1, -4384.133301, -2059.759766)"/>
  <circle class="n" cx="1030.44" cy="298.23" r="0.84" style="fill: rgb(145, 26, 29); stroke: rgb(0, 0, 0); stroke-miterlimit: 10;" transform="matrix(1, 0, 0, 1, -4384.133301, -2059.759766)"/>
  <circle class="n" cx="1030.44" cy="298.23" r="6.47" style="fill: rgb(145, 26, 29); stroke: rgb(0, 0, 0); stroke-miterlimit: 10;" transform="matrix(1, 0, 0, 1, -4384.133301, -2059.759766)"/>
  <circle class="n" cx="1030.44" cy="298.23" r="0.84" style="fill: rgb(145, 26, 29); stroke: rgb(0, 0, 0); stroke-miterlimit: 10;" transform="matrix(1, 0, 0, 1, -4384.133301, -2059.759766)"/>
  <circle class="n" cx="1097.35" cy="290.76" r="6.47" style="fill: rgb(145, 26, 29); stroke: rgb(0, 0, 0); stroke-miterlimit: 10;" transform="matrix(1, 0, 0, 1, -4384.133301, -2059.759766)"/>
  <circle class="n" cx="1097.35" cy="290.76" r="0.84" style="fill: rgb(145, 26, 29); stroke: rgb(0, 0, 0); stroke-miterlimit: 10;" transform="matrix(1, 0, 0, 1, -4384.133301, -2059.759766)"/>
  <circle class="n" cx="1097.35" cy="290.76" r="6.47" style="fill: rgb(145, 26, 29); stroke: rgb(0, 0, 0); stroke-miterlimit: 10;" transform="matrix(1, 0, 0, 1, -4384.133301, -2059.759766)"/>
  <circle class="n" cx="1097.35" cy="290.76" r="0.84" style="fill: rgb(145, 26, 29); stroke: rgb(0, 0, 0); stroke-miterlimit: 10;" transform="matrix(1, 0, 0, 1, -4384.133301, -2059.759766)"/>
  <circle class="n" cx="3862.12" cy="3333.95" r="6.47" style="fill: rgb(145, 26, 29); stroke: rgb(0, 0, 0); stroke-miterlimit: 10;" transform="matrix(1, 0, 0, 1, -4384.133301, -2059.759766)"/>
  <circle class="n" cx="3862.12" cy="3333.95" r="0.84" style="fill: rgb(145, 26, 29); stroke: rgb(0, 0, 0); stroke-miterlimit: 10;" transform="matrix(1, 0, 0, 1, -4384.133301, -2059.759766)"/>
  <circle class="n" cx="3862.12" cy="3333.95" r="6.47" style="fill: rgb(145, 26, 29); stroke: rgb(0, 0, 0); stroke-miterlimit: 10;" transform="matrix(1, 0, 0, 1, -4384.133301, -2059.759766)"/>
  <circle class="n" cx="3862.12" cy="3333.95" r="0.84" style="fill: rgb(145, 26, 29); stroke: rgb(0, 0, 0); stroke-miterlimit: 10;" transform="matrix(1, 0, 0, 1, -4384.133301, -2059.759766)"/>
  <circle class="n" cx="3803.22" cy="3362.54" r="6.47" style="fill: rgb(145, 26, 29); stroke: rgb(0, 0, 0); stroke-miterlimit: 10;" transform="matrix(1, 0, 0, 1, -4384.133301, -2059.759766)"/>
  <circle class="n" cx="3803.22" cy="3362.54" r="0.84" style="fill: rgb(145, 26, 29); stroke: rgb(0, 0, 0); stroke-miterlimit: 10;" transform="matrix(1, 0, 0, 1, -4384.133301, -2059.759766)"/>
  <circle class="n" cx="3803.22" cy="3362.54" r="6.47" style="fill: rgb(145, 26, 29); stroke: rgb(0, 0, 0); stroke-miterlimit: 10;" transform="matrix(1, 0, 0, 1, -4384.133301, -2059.759766)"/>
  <circle class="n" cx="3803.22" cy="3362.54" r="0.84" style="fill: rgb(145, 26, 29); stroke: rgb(0, 0, 0); stroke-miterlimit: 10;" transform="matrix(1, 0, 0, 1, -4384.133301, -2059.759766)"/>
  <circle class="n" cx="3742.12" cy="3392.67" r="6.47" style="fill: rgb(145, 26, 29); stroke: rgb(0, 0, 0); stroke-miterlimit: 10;" transform="matrix(1, 0, 0, 1, -4384.133301, -2059.759766)"/>
  <circle class="n" cx="3742.12" cy="3392.67" r="0.84" style="fill: rgb(145, 26, 29); stroke: rgb(0, 0, 0); stroke-miterlimit: 10;" transform="matrix(1, 0, 0, 1, -4384.133301, -2059.759766)"/>
  <circle class="n" cx="3742.12" cy="3392.67" r="6.47" style="fill: rgb(145, 26, 29); stroke: rgb(0, 0, 0); stroke-miterlimit: 10;" transform="matrix(1, 0, 0, 1, -4384.133301, -2059.759766)"/>
  <circle class="n" cx="3742.12" cy="3392.67" r="0.84" style="fill: rgb(145, 26, 29); stroke: rgb(0, 0, 0); stroke-miterlimit: 10;" transform="matrix(1, 0, 0, 1, -4384.133301, -2059.759766)"/>
  <circle class="n" cx="3675.54" cy="3423.94" r="6.47" style="fill: rgb(145, 26, 29); stroke: rgb(0, 0, 0); stroke-miterlimit: 10;" transform="matrix(1, 0, 0, 1, -4384.133301, -2059.759766)"/>
  <circle class="n" cx="3675.54" cy="3423.94" r="0.84" style="fill: rgb(145, 26, 29); stroke: rgb(0, 0, 0); stroke-miterlimit: 10;" transform="matrix(1, 0, 0, 1, -4384.133301, -2059.759766)"/>
  <circle class="n" cx="3675.54" cy="3423.94" r="6.47" style="fill: rgb(145, 26, 29); stroke: rgb(0, 0, 0); stroke-miterlimit: 10;" transform="matrix(1, 0, 0, 1, -4384.133301, -2059.759766)"/>
  <circle class="n" cx="3675.54" cy="3423.94" r="0.84" style="fill: rgb(145, 26, 29); stroke: rgb(0, 0, 0); stroke-miterlimit: 10;" transform="matrix(1, 0, 0, 1, -4384.133301, -2059.759766)"/>
  <circle class="n" cx="3619.9" cy="3451.83" r="6.47" style="fill: rgb(145, 26, 29); stroke: rgb(0, 0, 0); stroke-miterlimit: 10;" transform="matrix(1, 0, 0, 1, -4384.133301, -2059.759766)"/>
  <circle class="n" cx="3619.9" cy="3451.83" r="0.84" style="fill: rgb(145, 26, 29); stroke: rgb(0, 0, 0); stroke-miterlimit: 10;" transform="matrix(1, 0, 0, 1, -4384.133301, -2059.759766)"/>
  <circle class="n" cx="3619.9" cy="3451.83" r="6.47" style="fill: rgb(145, 26, 29); stroke: rgb(0, 0, 0); stroke-miterlimit: 10;" transform="matrix(1, 0, 0, 1, -4384.133301, -2059.759766)"/>
  <circle class="n" cx="3619.9" cy="3451.83" r="0.84" style="fill: rgb(145, 26, 29); stroke: rgb(0, 0, 0); stroke-miterlimit: 10;" transform="matrix(1, 0, 0, 1, -4384.133301, -2059.759766)"/>
  <circle class="n" cx="3569.35" cy="3476.59" r="6.47" style="fill: rgb(145, 26, 29); stroke: rgb(0, 0, 0); stroke-miterlimit: 10;" transform="matrix(1, 0, 0, 1, -4384.133301, -2059.759766)"/>
  <circle class="n" cx="3569.35" cy="3476.59" r="0.84" style="fill: rgb(145, 26, 29); stroke: rgb(0, 0, 0); stroke-miterlimit: 10;" transform="matrix(1, 0, 0, 1, -4384.133301, -2059.759766)"/>
  <circle class="n" cx="3569.35" cy="3476.59" r="6.47" style="fill: rgb(145, 26, 29); stroke: rgb(0, 0, 0); stroke-miterlimit: 10;" transform="matrix(1, 0, 0, 1, -4384.133301, -2059.759766)"/>
  <circle class="n" cx="3569.35" cy="3476.59" r="0.84" style="fill: rgb(145, 26, 29); stroke: rgb(0, 0, 0); stroke-miterlimit: 10;" transform="matrix(1, 0, 0, 1, -4384.133301, -2059.759766)"/>
  <circle class="n" cx="3511.14" cy="3505.01" r="6.47" style="fill: rgb(145, 26, 29); stroke: rgb(0, 0, 0); stroke-miterlimit: 10;" transform="matrix(1, 0, 0, 1, -4384.133301, -2059.759766)"/>
  <circle class="n" cx="3511.14" cy="3505.01" r="0.84" style="fill: rgb(145, 26, 29); stroke: rgb(0, 0, 0); stroke-miterlimit: 10;" transform="matrix(1, 0, 0, 1, -4384.133301, -2059.759766)"/>
  <circle class="n" cx="3511.14" cy="3505.01" r="6.47" style="fill: rgb(145, 26, 29); stroke: rgb(0, 0, 0); stroke-miterlimit: 10;" transform="matrix(1, 0, 0, 1, -4384.133301, -2059.759766)"/>
  <circle class="n" cx="3511.14" cy="3505.01" r="0.84" style="fill: rgb(145, 26, 29); stroke: rgb(0, 0, 0); stroke-miterlimit: 10;" transform="matrix(1, 0, 0, 1, -4384.133301, -2059.759766)"/>
  <circle class="n" cx="3449.35" cy="3534.63" r="6.47" style="fill: rgb(145, 26, 29); stroke: rgb(0, 0, 0); stroke-miterlimit: 10;" transform="matrix(1, 0, 0, 1, -4384.133301, -2059.759766)"/>
  <circle class="n" cx="3449.35" cy="3534.63" r="0.84" style="fill: rgb(145, 26, 29); stroke: rgb(0, 0, 0); stroke-miterlimit: 10;" transform="matrix(1, 0, 0, 1, -4384.133301, -2059.759766)"/>
  <circle class="n" cx="3449.35" cy="3534.63" r="6.47" style="fill: rgb(145, 26, 29); stroke: rgb(0, 0, 0); stroke-miterlimit: 10;" transform="matrix(1, 0, 0, 1, -4384.133301, -2059.759766)"/>
  <circle class="n" cx="3449.35" cy="3534.63" r="0.84" style="fill: rgb(145, 26, 29); stroke: rgb(0, 0, 0); stroke-miterlimit: 10;" transform="matrix(1, 0, 0, 1, -4384.133301, -2059.759766)"/>
  <circle class="n" cx="3382.12" cy="3566.8" r="6.47" style="fill: rgb(145, 26, 29); stroke: rgb(0, 0, 0); stroke-miterlimit: 10;" transform="matrix(1, 0, 0, 1, -4384.133301, -2059.759766)"/>
  <circle class="n" cx="3382.12" cy="3566.8" r="0.84" style="fill: rgb(145, 26, 29); stroke: rgb(0, 0, 0); stroke-miterlimit: 10;" transform="matrix(1, 0, 0, 1, -4384.133301, -2059.759766)"/>
  <circle class="n" cx="3382.12" cy="3566.8" r="6.47" style="fill: rgb(145, 26, 29); stroke: rgb(0, 0, 0); stroke-miterlimit: 10;" transform="matrix(1, 0, 0, 1, -4384.133301, -2059.759766)"/>
  <circle class="n" cx="3382.12" cy="3566.8" r="0.84" style="fill: rgb(145, 26, 29); stroke: rgb(0, 0, 0); stroke-miterlimit: 10;" transform="matrix(1, 0, 0, 1, -4384.133301, -2059.759766)"/>
  <circle class="n" cx="3328.15" cy="3592.42" r="6.47" style="fill: rgb(145, 26, 29); stroke: rgb(0, 0, 0); stroke-miterlimit: 10;" transform="matrix(1, 0, 0, 1, -4384.133301, -2059.759766)"/>
  <circle class="n" cx="3328.15" cy="3592.42" r="0.84" style="fill: rgb(145, 26, 29); stroke: rgb(0, 0, 0); stroke-miterlimit: 10;" transform="matrix(1, 0, 0, 1, -4384.133301, -2059.759766)"/>
  <circle class="n" cx="3328.15" cy="3592.42" r="6.47" style="fill: rgb(145, 26, 29); stroke: rgb(0, 0, 0); stroke-miterlimit: 10;" transform="matrix(1, 0, 0, 1, -4384.133301, -2059.759766)"/>
  <circle class="n" cx="3328.15" cy="3592.42" r="0.84" style="fill: rgb(145, 26, 29); stroke: rgb(0, 0, 0); stroke-miterlimit: 10;" transform="matrix(1, 0, 0, 1, -4384.133301, -2059.759766)"/>
  <circle class="n" cx="3277.27" cy="3617.68" r="6.47" style="fill: rgb(145, 26, 29); stroke: rgb(0, 0, 0); stroke-miterlimit: 10;" transform="matrix(1, 0, 0, 1, -4384.133301, -2059.759766)"/>
  <circle class="n" cx="3277.27" cy="3617.68" r="0.84" style="fill: rgb(145, 26, 29); stroke: rgb(0, 0, 0); stroke-miterlimit: 10;" transform="matrix(1, 0, 0, 1, -4384.133301, -2059.759766)"/>
  <circle class="n" cx="3277.27" cy="3617.68" r="6.47" style="fill: rgb(145, 26, 29); stroke: rgb(0, 0, 0); stroke-miterlimit: 10;" transform="matrix(1, 0, 0, 1, -4384.133301, -2059.759766)"/>
  <circle class="n" cx="3277.27" cy="3617.68" r="0.84" style="fill: rgb(145, 26, 29); stroke: rgb(0, 0, 0); stroke-miterlimit: 10;" transform="matrix(1, 0, 0, 1, -4384.133301, -2059.759766)"/>
  <circle class="n" cx="3218.54" cy="3647.15" r="6.47" style="fill: rgb(145, 26, 29); stroke: rgb(0, 0, 0); stroke-miterlimit: 10;" transform="matrix(1, 0, 0, 1, -4384.133301, -2059.759766)"/>
  <circle class="n" cx="3218.54" cy="3647.15" r="0.84" style="fill: rgb(145, 26, 29); stroke: rgb(0, 0, 0); stroke-miterlimit: 10;" transform="matrix(1, 0, 0, 1, -4384.133301, -2059.759766)"/>
  <circle class="n" cx="3218.54" cy="3647.15" r="6.47" style="fill: rgb(145, 26, 29); stroke: rgb(0, 0, 0); stroke-miterlimit: 10;" transform="matrix(1, 0, 0, 1, -4384.133301, -2059.759766)"/>
  <circle class="n" cx="3218.54" cy="3647.15" r="0.84" style="fill: rgb(145, 26, 29); stroke: rgb(0, 0, 0); stroke-miterlimit: 10;" transform="matrix(1, 0, 0, 1, -4384.133301, -2059.759766)"/>
  <circle class="n" cx="3156.24" cy="3676.59" r="6.47" style="fill: rgb(145, 26, 29); stroke: rgb(0, 0, 0); stroke-miterlimit: 10;" transform="matrix(1, 0, 0, 1, -4384.133301, -2059.759766)"/>
  <circle class="n" cx="3156.24" cy="3676.59" r="0.84" style="fill: rgb(145, 26, 29); stroke: rgb(0, 0, 0); stroke-miterlimit: 10;" transform="matrix(1, 0, 0, 1, -4384.133301, -2059.759766)"/>
  <circle class="n" cx="3156.24" cy="3676.59" r="6.47" style="fill: rgb(145, 26, 29); stroke: rgb(0, 0, 0); stroke-miterlimit: 10;" transform="matrix(1, 0, 0, 1, -4384.133301, -2059.759766)"/>
  <circle class="n" cx="3156.24" cy="3676.59" r="0.84" style="fill: rgb(145, 26, 29); stroke: rgb(0, 0, 0); stroke-miterlimit: 10;" transform="matrix(1, 0, 0, 1, -4384.133301, -2059.759766)"/>
  <circle class="n" cx="3089.86" cy="3708.42" r="6.47" style="fill: rgb(145, 26, 29); stroke: rgb(0, 0, 0); stroke-miterlimit: 10;" transform="matrix(1, 0, 0, 1, -4384.133301, -2059.759766)"/>
  <circle class="n" cx="3089.86" cy="3708.42" r="0.84" style="fill: rgb(145, 26, 29); stroke: rgb(0, 0, 0); stroke-miterlimit: 10;" transform="matrix(1, 0, 0, 1, -4384.133301, -2059.759766)"/>
  <circle class="n" cx="3089.86" cy="3708.42" r="6.47" style="fill: rgb(145, 26, 29); stroke: rgb(0, 0, 0); stroke-miterlimit: 10;" transform="matrix(1, 0, 0, 1, -4384.133301, -2059.759766)"/>
  <circle class="n" cx="3089.86" cy="3708.42" r="0.84" style="fill: rgb(145, 26, 29); stroke: rgb(0, 0, 0); stroke-miterlimit: 10;" transform="matrix(1, 0, 0, 1, -4384.133301, -2059.759766)"/>
  <text style="font-family: Arial, sans-serif; font-size: 75px; font-weight: 700; white-space: pre;" x="-4051.268" y="198.416">Sand</text>
  <text style="font-family: Arial, sans-serif; font-size: 75px; font-weight: 700; white-space: pre;" x="-4051.967" y="73.717">Clay</text>
  <text style="font-family: Arial, sans-serif; font-size: 75px; font-weight: 700; white-space: pre;" x="-4050.79" y="566.255">Sludge </text>
  <text style="font-family: Arial, sans-serif; font-size: 75px; font-weight: 700; white-space: pre;" x="-4053.776" y="688.668">Grass</text>
  <text style="font-family: Arial, sans-serif; font-size: 75px; font-weight: 700; white-space: pre;" x="-4051.996" y="447.585">Shell rock</text>
  <text style="font-family: Arial, sans-serif; font-size: 75px; font-weight: 700; white-space: pre;" x="-4055.089" y="321.508">Sand-pebble</text>
</svg>