<?xml version="1.0" encoding="utf-8"?>
<svg viewBox="-6085.454 -4967.65 4096 4096" xmlns="http://www.w3.org/2000/svg">
  <path class="a" d="M1934,3674.42c-11.61-19.7,5.48-35.46,20-99.19,13.31-58.37,4-67.4,19-85,28.75-33.84,81.46-22.28,87-46.34,3.23-14-14-21.11-14.38-46.34-.24-15.79,6.3-27.23,14.38-41.36,17.16-30,31.17-30.66,54-64.6,14.39-21.34,10.23-23.14,20-32.42,28.52-27.22,80-26.86,85.23-14.55,1,2.27-.4,3.18-4.59,14.55-7.2,19.5-4.92,21.55-11.24,37.53-4.79,12.15-6.68,12.41-10.72,24.51a186.71,186.71,0,0,0-5.11,19.41c-2.47,10.88-4.3,18.94-5.1,29.61a143.5,143.5,0,0,0-.25,17.33,41.34,41.34,0,0,1-6.39,12.29c-4,5.25-5.94,5.06-11.51,11.23a71.84,71.84,0,0,0-10.45,15.32,80.55,80.55,0,0,0-4.18,9.79c-2.69,7.52-2.5,10.68-7.05,16.77-4.82,6.44-7.46,6.44-11.24,13.27-1.72,3.12-2.05,4.7-5.1,16.34-5.43,20.68-5.7,20.65-7.15,27.58-2,9.27-1.49,9.46-3.06,15.32a112.71,112.71,0,0,1-7.15,19.4c-5,10.36-10.49,17.25-16.34,24.51-10.29,12.75-12.16,11.72-17.37,20.43-3.41,5.7-7.55,12.62-9.19,22.47-1.15,6.92-.29,10.59-3.06,17.36a38.21,38.21,0,0,1-7.15,11.23c-7.24,7.82-13.07,6.92-23.49,13.28-6.85,4.18-10.75,8.48-17.88,16.34-12.9,14.21-11.89,19.23-17.86,23.49C1982,3704.36,1946.46,3695.57,1934,3674.42Z" transform="matrix(1, 0, 0, 1, -6084.953613, -4967.149902)" style="fill: rgb(0, 102, 0); opacity: 0.5; stroke: rgb(0, 102, 0);"/>
  <path class="a" d="M1768.33,3674.42c4.34-44.68-5.58-62.39-6.33-99.19-.66-32.44,6.26-57.27,14-85,13.44-48.21,27.84-63.91,21.11-93.95-3.93-17.52-10.56-19.9-13.11-40.09-2-15.63.13-28.92,8.94-59.49,18.25-63.36,26.45-66.25,22.06-80.68-1.64-5.41-5.07-12.49-60-49-32.43-21.57-48.65-32.36-60-36.52-12.77-4.68-62.37-22.86-97.47,0-10.58,6.9-8.06,9.85-31.4,36.52-23,26.24-28.63,27.07-49,49-34.51,37.13-51.76,55.7-52.11,80.68-.24,17.25,7.44,22,11,59.49a317.35,317.35,0,0,1,1.28,32.94c-.31,60.36-9.64,77.42-7.28,101.1,3.31,33.18,27,53.86,72.38,93.45,58,50.64,70.12,34.24,142.62,90.76,32.26,25.16,54.81,47.86,70,40.21C1757.87,3713.19,1765.05,3708.36,1768.33,3674.42Z" transform="matrix(1, 0, 0, 1, -6084.953613, -4967.149902)" style="fill: rgb(0, 102, 0); opacity: 0.5; stroke: rgb(0, 102, 0);"/>
  <path class="b" d="M2033,3397.53c-7.89-8.39-26.61-7.68-39,0-16.45,10.2-18.32,30.58-19.77,46.34-.83,9.05-1.63,17.69,3.22,21.07,5.53,3.86,11.28-4.14,33.7-9.2,5.62-1.26,15.36-3,27.57-8.42,5.15-2.27,7.3-3.67,8.43-6.13,2.5-5.45-2.6-10.5-7.66-23.74C2034.24,3403.71,2036.84,3401.61,2033,3397.53Z" transform="matrix(1, 0, 0, 1, -6084.953613, -4967.149902)" style="fill: rgb(255, 255, 255); opacity: 0.5; stroke: rgb(255, 255, 255);"/>
  <path class="c" d="M1973,3356.17c12.13-9.89,8.79-15.48,29.77-59.49,19.6-41.11,28.62-49,37.85-80.68,8.71-29.86,6.52-42.81,5-49-4.34-17.71-12.78-19.69-15.62-36.52-4.12-24.43,11.94-30.39,8-50-4.35-21.7-25.17-20.45-42.5-51.58-7-12.58-16.55-29.75-11.16-45.7,7.49-22.15,34.8-15.41,63.66-45.71,14.76-15.5,22.77-33.18,29-47,7.23-16,6.51-19.65,17.62-47,9-22.07,10.2-21.52,16.85-39.08a311.89,311.89,0,0,0,14.4-47.47c3.17-14.8,5.5-25.7,5.51-40.58,0-24.44-6.22-26.42-4.08-42.18,3.59-26.43,23-34.32,18.68-44.22-5.31-12.14-40.91-15-64.64,0-20.92,13.2-31.57,39.59-33.36,44.22-6.24,16.07-5.28,26.11-14.64,32.19s-21.08,3.14-29.62,1c-28.2-7-43.6-29.65-46-33.22-11.54-17.51-4.66-21.86-15.2-44.23-8.53-18.11-21-29.91-46.08-53.51-19.92-18.79-30.59-25.12-42.38-28.87-7.68-2.44-22.43-7.13-30.13,0-7.22,6.69-4.43,20.26-2,31.15,3.62,16.55,9.3,24.15,24.51,51.22,13.84,24.65,11.69,22.88,25.8,47.57,7,12.32,13.65,23.88,23.22,38.85,10,15.69,11.64,16.88,27.56,40.58,16.84,25.07,25.33,37.8,28.82,47.48,6,16.44,7.18,31.13,8.42,46,1.74,20.64-.77,21.21,1.07,40.08,2.36,24.14,6.63,24.86,8.64,47,2.26,24.89-3,25.75,0,45.71,4.18,28,15,29.26,13.32,45.7-2.45,24.78-27.37,26.34-30.32,51.58-1.7,14.59,6.43,15.65,13,50a222.9,222.9,0,0,1,4,36.52c.12,5.47.61,29-5,49-9.58,34.14-30.59,35.15-60,80.68-16.18,25.05-29.39,45.5-22,59.49C1893.64,3376.33,1944.91,3379.08,1973,3356.17Z" transform="matrix(1, 0, 0, 1, -6084.953613, -4967.149902)" style="fill: rgb(102, 51, 102); opacity: 0.5; stroke: rgb(102, 51, 102);"/>
  <path class="a" d="M2199,2804.42c6.33-23.53,9.5-35.29,16-51.06,10.44-25.3,14.32-25.77,15-37,1.19-20.62-11.6-24.78-10-42.18,1.58-16.87,14-17.15,30-44.22,7.73-13.09,11.82-26.57,20-53.52,7.46-24.58,11.19-36.87,10-45.7-2.38-17.67-11.95-23-28-52.09-10.93-19.76-8.57-22.22-17.45-37.8-12.39-21.75-25.25-34.39-31.15-41-45.26-50.84-42.61-154.88-17.87-166.31,1.41-.65,8-2.21,21.22-5.33,9.41-2.22,15.06-3.55,22.7-4.88,12-2.09,11.94-1.26,21.44-3.06,13.39-2.55,13-4.12,25.22-6.45,15.75-3,18.42-.75,24.83-4.79,6.86-4.33,6-8.3,13.27-14.3s13.71-6.6,22.47-9.19c4.27-1.26,15.5-7.32,37.79-19.4,34.44-18.67,34.6-18.77,37.79-20.43,12.87-6.69,21.85-10.93,39.83-19.4,17.65-8.33,23-10.49,30.63-12.26,8.62-2,10.61-1.28,21.45-4.08,12.83-3.32,14.4-5.44,22.47-6.13,5.68-.48,14.77-1.25,22.47,4.08,1.47,1,6.76,5,11.23,18.39,4.27,12.83,4.15,23.35,4.09,32.68-.11,14.64.36,29.28,0,43.91-1.12,44.82-.12,38.79-1,52.09-1.56,23.1-4.52,40.78-7.14,56.17-3.77,22.13-7.82,39.37-10.22,49-6.54,26.35-9.81,39.52-17.36,56.17-2.76,6.1-2.6,5-21.45,37.79-14.1,24.57-21.16,36.86-28.59,50-12.32,21.84-15.32,27.6-22.72,37.54a256.14,256.14,0,0,1-21.2,24.76c-13.87,14.5-18.68,16.72-29.23,26.94-9.41,9.13-19.68,24-40.21,53.74-12.92,18.71-19.49,28.26-24.51,37.79-4.29,8.11-4,8.65-17.37,39.83-13.46,31.38-15.28,34.38-18.38,44.93-7.12,24.27-2.1,24.18-7.4,34.72-11.54,22.95-38.38,29.5-77.62,39.07-14.42,3.52-21.13,3.83-25,0C2191.56,2840.1,2191,2834.09,2199,2804.42Z" transform="matrix(1, 0, 0, 1, -6084.953613, -4967.149902)" style="fill: rgb(0, 102, 0); opacity: 0.5; stroke: rgb(0, 102, 0);"/>
  <path class="b" d="M1853.36,2757.44c3.66-10.34-2.62-16.72-11.7-41.08-9.53-25.56-6.92-30.09-15.66-42.21-3.85-5.35-16.38-22.73-28.5-19.8-8.79,2.13-14.91,14.37-14.75,24.85.22,14.35,12,15.39,22.4,37.16,7.91,16.62,4.74,23.85,15.85,41.08,8.65,13.41,14,14.28,16.28,14.3C1844.28,2771.82,1850.86,2764.51,1853.36,2757.44Z" transform="matrix(1, 0, 0, 1, -6084.953613, -4967.149902)" style="fill: rgb(255, 255, 255); opacity: 0.5; stroke: rgb(255, 255, 255);"/>
  <path class="b" d="M2045.46,2505c12.94-6.25,25.48-18.89,23.14-26.39-1.88-6-12.74-7.18-23.14-8.66-46.22-6.57-26.86-10.77-92.57-20-48.55-6.79-55.52-4-60,.81-9,9.72-9,29.17,0,39.19,9.84,11,24.23,3.71,56.68,5C2002.07,2497,2018.31,2518.12,2045.46,2505Z" transform="matrix(1, 0, 0, 1, -6084.953613, -4967.149902)" style="fill: rgb(255, 255, 255); opacity: 0.5; stroke: rgb(255, 255, 255);"/>
  <path class="b" d="M1413.44,2372.05c5.86-7.68,13.69-15.76,20.64-14.22,12.38,2.74,5.6,32.33,24.78,51.58,15.34,15.4,27.7,4.52,59.78,23.78,23.72,14.25,30.3,28.21,32.41,33.46,1.41,3.51,8.89,22.1.27,31.39-6.9,7.44-20.36,4.88-28.37,3.35-18.72-3.57-29-12.28-50.49-27.36-39.34-27.56-40.85-23.48-48-33.18C1418.74,2433.18,1406.18,2412.41,1413.44,2372.05Z" transform="matrix(1, 0, 0, 1, -6084.953613, -4967.149902)" style="fill: rgb(255, 255, 255); opacity: 0.5; stroke: rgb(255, 255, 255);"/>
  <path class="b" d="M1585.19,1944.26c-.43-.2-6.33-2.73-10.38,0-6.66,4.47-3.07,19.59-.51,34,0,0,5.92,33.24,5.7,66.56-.15,22.95-4.53,41.42-8.24,57-7,29.5-14.53,42.67-7.83,60,1.14,3,6.36,16.5,17,18.61,11.32,2.24,23-9.59,28.56-18.61,7.37-12,6-22.29,3.53-60-3-44.17-1.63-37.27-3.53-57-3.5-36.34-3.88-17.08-10.69-66.56C1596.78,1963.48,1595,1948.63,1585.19,1944.26Z" transform="matrix(1, 0, 0, 1, -6084.953613, -4967.149902)" style="fill: rgb(255, 255, 255); opacity: 0.5; stroke: rgb(255, 255, 255);"/>
  <path class="b" d="M1553,1556.23c-3.33-4.4.44-13,8.13-30.08,7.86-17.43,11.94-26.23,19.72-30.39,8.59-4.6,21.55-5.72,25.95,0,3.5,4.53-1.15,14.62-10.58,34.6-9.75,20.65-13.79,23.93-17.26,25.87C1570.45,1561,1557.44,1562,1553,1556.23Z" transform="matrix(1, 0, 0, 1, -6084.953613, -4967.149902)" style="fill: rgb(255, 255, 255); opacity: 0.5; stroke: rgb(255, 255, 255);"/>
  <path class="b" d="M1450.55,1356.09c5.47,4.09-11.39,54-50.9,79.21-17.76,11.33-23.63,7.21-44.42,22.06-22.26,15.92-21,24.61-41.87,37.92s-25.86,7.07-48,20.29c-20.32,12.15-32.28,27.06-43.19,40.66-16.36,20.41-11.64,21.35-34.1,55.67-24.24,37-34.14,42.69-37.86,64.46-1.69,9.89-.79,15.47-4.34,31.21a212,212,0,0,1-12.25,36.77c-9.7,22.58-13.35,21.94-21.45,41.87-5.21,12.82-9.39,23.12-11.23,37.79-2.07,16.46.68,23.5-5.11,35.47-1.46,3-8.5,17.57-18.13,17.39-6.69-.13-11.14-7.31-17.38-17.39-7.28-11.74-17.18-27.73-12.49-43.64,2.16-7.31,5.27-7.41,12.3-17.39,16.73-23.76,19.08-51.57,20-62.28,1.37-16.29-1.19-19.81,2.43-32.67a88.85,88.85,0,0,1,13.28-27.13c11.66-16.26,18.88-15.1,27.57-29,5.42-8.7,2.36-8.73,10.22-30.75,5.33-15,10.24-28.39,20.42-41.76,4-5.28,6.08-6.9,18.35-18.58,36.47-34.74,32.44-34,42.93-41.68,20.39-15,24-9.44,48-26.55,17.1-12.21,15-14.9,31.66-26.55,12.29-8.62,16-8.93,49-25.54,27.87-14,41.93-21.1,48-26.55,13.28-11.92,15.3-19.74,34.72-36.76C1438.54,1362.24,1447.86,1354.07,1450.55,1356.09Z" transform="matrix(1, 0, 0, 1, -6084.953613, -4967.149902)" style="fill: rgb(255, 255, 255); opacity: 0.5; stroke: rgb(255, 255, 255);"/>
  <path class="c" d="M1585.79,2415.91c18.19-6.36,40.78-22.73,41-41a19.54,19.54,0,0,0-.17-3.27c-.9-5.62-5.31-11.69-19.08-32.54,0,0-6.77-10.24-30.69-47.53-18-28.09-26.31-42.58-28.36-48-6.79-18-8.49-33.62-10.49-51.86s-3-27.64-1-40.85c1-6.85,4.1-17.5,10.21-38.81,5-17.42,6.6-21.74,6.13-29.62-.3-5.05-1.21-20.19-11.23-27.57-8.31-6.12-18.37-3.59-37.79,0-26,4.8-46.92,7.46-53.11,8.17-34.62,4-61.63-1-77.61-4.09-23.1-4.44-34.65-6.66-42.9-14.08-13-11.7-10-22.84-22.47-66.6-9.53-33.4-12.59-31.48-18.64-57.69-5.69-24.65-2.91-26-9.18-61-5.45-30.39-7.92-31.41-13-61-5.24-30.4-7.86-45.6-5.36-62.29,3.85-25.76,15.86-43.66,23.75-55.15,16.73-24.37,38.39-37.88,81.7-64.88,27.67-17.26,38.57-21,51.06-19.88,15.9,1.46,26.82,10.19,39,19.91,10.76,8.6,33.16,27,42.7,60.22,2.62,9.1,9,32.48.21,59.8-2.33,7.22-11.65,33.13-36.94,50-32,21.36-57.78,7.15-82.72,32.68-3.08,3.16-14.51,14.86-11.24,23.49,4.26,11.23,30.78,10.4,36.77,10.22,33.64-1.06,75.11-18.52,100.07-54.74,5.6-8.14,1.19-3.89,25.55-61.67,18.89-44.83,22.38-49.37,20.42-59.8-4.9-26.07-31.68-24.08-50.89-60.22-2.88-5.41-15.85-29.82-13.45-60.36,1.59-20.15,8.85-30,9.18-59.75.21-18.41-2.45-25-5.09-29.51-7.22-12.17-22.44-22-37.79-21.44-18.81.63-21.19,16.17-46,20.42-14.25,2.45-16.87-2.11-28.6,1-17.68,4.73-26.41,19-35,29.5-31.86,39-59.08,22.14-91.57,59.75-18.85,21.81-7.46,24.91-32.76,60.33-22.56,31.58-35.37,34.38-45.71,60.24-8.18,20.44-1.58,22.23-10,55.2-1.78,7-4,14.27-26,66.88-18.68,44.5-19.92,46-25.27,61a498.45,498.45,0,0,0-17.58,61c-2.9,13.48-6.88,32.43-8.22,57.7-1.62,30.66-2.37,49.6,9.2,66.6,5.51,8.09,6.66,5.23,21.45,21.24,19.23,20.82,17.85,26.25,30.64,37.79a101,101,0,0,0,42.89,22.47c18.57,4.37,25-.33,47,4.08a131.85,131.85,0,0,1,32.68,11.24,121.36,121.36,0,0,0,28.6,8.17c23.68,3.68,30-2.7,44.93,2,17.3,5.5,27.3,20,36.77,33.7,9.57,13.88,12.54,23.78,19.4,40.85a570.45,570.45,0,0,0,29.62,62.3,242.41,242.41,0,0,0,13.28,53.11c9,24.12,14.83,39.63,30,52.5,15.48,13.11,32,16.1,57.49,20.73C1555.31,2419.32,1569,2421.79,1585.79,2415.91Z" transform="matrix(1, 0, 0, 1, -6084.953613, -4967.149902)" style="fill: rgb(102, 51, 102); opacity: 0.5; stroke: rgb(102, 51, 102);"/>
  <path class="a" d="M2045.45,2284c10.78-11.66,9.66-35.07,0-45.37-3.73-4-6.61-3.72-22.3-9.18-7.07-2.46-23.62-8.22-36.77-15.32-13.47-7.28-12.53-10.12-33.49-25.54-16.77-12.33-18.37-11.24-36-23.48a368.82,368.82,0,0,1-43.92-35.75,334.31,334.31,0,0,1-37.11-42.21c-27.86-45.26-40.06-62.72-45.27-68.43a44.34,44.34,0,0,1-7-9.8c-2.61-5-3.18-8.49-5-15.05,0,0-2.56-9.48-6.46-19.74-3.43-9-5.83-12.19-9.54-19.75-6.72-13.71-9.6-25.2-12.25-35.74a231.82,231.82,0,0,1-6-36.26c-1.3-13.31-1.22-23.91-1.08-45.1.19-26.79,1.32-45.67,1.59-50,1.29-20.84,1.93-31.27,4.09-42.21,3.73-19,9.32-33,13.61-43.57,4.56-11.25,9.87-21.45,20.43-41.88,2.74-5.31,3.38-6.43,16.34-30.63,19.79-37,19.64-36.8,21.45-39.83,10.62-17.84,20.11-30.48,30.4-44.15,4.43-5.87,14.4-18.9,28.32-35,14.5-16.78,21.76-25.16,32.09-34.29,8.91-7.87,22.82-19.9,43-29.54,7.91-3.78,26.49-8.36,63.32-17.36,23.94-5.85,27.89-6.52,46-11.24,15.85-4.14,19.73-5.43,34.72-9.19,20.49-5.13,30.73-7.7,40.85-9.19,14.34-2.12,25.66-2.46,46-3.06,12-.36,18.19-.22,31.66-1,10.32-.61,18.8-1.43,24.51-2l23.06,2c1.81-5.83,3.85-15.82,0-26-6.23-16.57-24-23.17-38.52-28.59-6.14-2.29-13.32-4.43-53.06-9.46-35.83-4.53-34.58-3.38-46.16-5.86-24.63-5.29-27.14-9.86-47.91-12.63a164.88,164.88,0,0,0-39.64-.38c-10.61,1.05-30.46,3.18-51.75,13-18.66,8.61-30.44,19.45-40.44,28.81-44.17,41.31-60,59-80.3,77.82-25.14,23.34-21.45,15.34-82,64-58,46.61-49.7,44.58-73,60.21-52.35,35.1-78.45,34.91-86,60.2-7.71,25.81,11.35,53.23,16.2,60.2,26.38,37.93,61.76,30.83,71.7,59.8,7.37,21.5-5.3,45.28-16.54,66.38-16.78,31.51-30,30.37-39.32,56.94-8.73,24.89,1.56,29.58-6.64,61s-19.84,31.8-24.4,57.7c-5.23,29.75,5.56,55.28,10.9,67.92,14.19,33.56,27.36,30.52,42.33,65.72,11.16,26.22,5.6,32.06,18.56,57.79,10.85,21.56,23.83,35.5,33,45.22a229.37,229.37,0,0,0,61.59,46.46c40.85,20.8,77.74,23.38,99.55,24.68,25.53,1.53,21.44-2.1,55.66-1.4C2010.84,2285.86,2032.49,2298,2045.45,2284Z" transform="matrix(1, 0, 0, 1, -6084.953613, -4967.149902)" style="fill: rgb(0, 102, 0); opacity: 0.5; stroke: rgb(0, 102, 0);"/>
  <path class="b" d="M1897.77,973.35c3-.18,17.59-.83,22.23,7.08,5.54,9.43-5.57,26.82-18.26,34.85-10.46,6.62-14.86,2.36-22.59,9.06-10.78,9.34-5.12,20.12-16.19,30.34-5.87,5.41-8.41,3.26-22.11,10.51-4.69,2.48-15.08,8-23.49,16.34-17.29,17.19-18.83,39.15-23.64,38.41-2.55-.38-3.54-6.76-3.74-8.21-1.13-8.14-1.7-36,64.89-100.44C1864.61,1001.85,1879.07,988.45,1897.77,973.35Z" transform="matrix(1, 0, 0, 1, -6084.953613, -4967.149902)" style="fill: rgb(255, 255, 255); opacity: 0.5; stroke: rgb(255, 255, 255);"/>
  <path class="c" d="M1648.12,1496c5.44-22.55,2.49-41.93-.44-61.13-1.76-11.53-6.08-37.89-24.87-61.29-6-7.46-5.29-4.46-31.66-28.6-32.52-29.76-37.6-38-36.77-47,1.09-11.71,11.72-18.91,13.28-19.94,16.28-10.68,40.16-2.51,54.13,7.69,9.69,7.07,10.31,12,35.74,57.19,15.61,27.75,20.48,35,30.64,39.83,17.82,8.54,36.46,2.49,37.79,2,8.68-2.95,14.42-7.92,25.89-17.84,9.07-7.85,13.61-11.77,16-16.88,5-10.81.32-18.32-1-36.77-1-14,.64-24.1,3.06-38.81,3.87-23.49,5.8-35.24,14.3-47,14.32-19.78,36.74-25.23,46.06-27.5,10.11-2.46,45.38-11,61.43,8.55,10.32,12.61,7.32,30.32,6.59,34.65-2.93,17.31-13.3,25.9-28.25,44.06-15.73,19.12-24.9,34.71-36.33,54.15-23.49,39.93-15.67,44.36-35.29,72.06-15.68,22.12-34.45,38.75-46.17,49.13-22.56,20-26.62,18.56-38.51,33.38-11.18,13.93-15.55,25.1-30.64,35.86a82,82,0,0,1-22.46,11.24c-4.52-3.73-10.31-9.71-13.28-18.38C1643.33,1513.12,1646.51,1502.71,1648.12,1496Z" transform="matrix(1, 0, 0, 1, -6084.953613, -4967.149902)" style="fill: rgb(102, 51, 102); opacity: 0.5; stroke: rgb(102, 51, 102);"/>
  <path class="b" d="M2078.76,1229.36c2.54,3.42,8.81,9.35,48.57,8.68,32.62-.54,32-4.59,46.15-2.47,31.25,4.7,43.08,25.85,53.06,19.91,8.68-5.16,9.39-27-.17-39.82-9.79-13.19-28.14-14-53-15.15-23-1-22.59,3.07-46.23,2.15-29.42-1.14-41.25-8-48.46-.37C2072.59,1208.66,2073.09,1221.74,2078.76,1229.36Z" transform="matrix(1, 0, 0, 1, -6084.953613, -4967.149902)" style="fill: rgb(255, 255, 255); opacity: 0.5; stroke: rgb(255, 255, 255);"/>
  <path class="c" d="M2043.58,1158.12a246.27,246.27,0,0,1-20.38-28.55,254.25,254.25,0,0,1-35.48-107.27c-1.84-18.82-2.77-28.23,0-39.83,8.48-35.57,38.91-57.24,51.75-66.39,11.68-8.31,21.84-13.17,39.14-21.44,28.9-13.82,31.52-10.89,47.42-20.43,29.61-17.75,27.07-31.82,46.24-35.74,15.71-3.22,21.35,5.44,52.95,10,23.44,3.38,30.33-4.44,38.52,1.76,16,12.09,12.36,50.92,0,55.66-9.29,3.57-16.16-15-38.53-19.91-25.62-5.66-48.86,11.53-52.95,14.55-23.91,17.69-35.54,48.4-31.67,75.83,3.16,22.47,15.85,36.56,32.59,55.15,23.32,25.9,46.77,35.8,53,38.3,13.79,5.48,25.09,10,38.53,6.89,22.37-5.15,29.37-26.46,37-23.74,9.59,3.39,5.87,39.33.23,64.34-5.84,25.93-14.35,63.71-37.24,69.44-11.19,2.8-13-5.26-38.53-11.23-32.61-7.64-40.49,3-66.24-6.47-19.27-7.08-17.42-14-34-17-14.12-2.6-21.82,1.24-47.42,4.09A334.75,334.75,0,0,1,2043.58,1158.12Z" transform="matrix(1, 0, 0, 1, -6084.953613, -4967.149902)" style="fill: rgb(102, 51, 102); opacity: 0.5; stroke: rgb(102, 51, 102);"/>
  <path class="a" d="M1233.13,2436.14c8-1.73,33.63-7.24,42.38-26.34,14.54-31.75-27.86-78.49-43-95.13-57.45-63.33-98.35-55.6-149.48-101.23-55.62-49.64-71.54-116.19-84.08-168.62-32.93-137.63,25.14-195.77-20-246.35-57.4-64.32-206.59-32.3-216,0-1.24,4.26-.94,11.62-5.2,25.56-4.47,14.61-9,20.36-15.32,33.7-7.88,16.7-4.33,15.28-16.34,49-8.71,24.45-11.75,28.5-14.3,42.9a156.86,156.86,0,0,0-2,30.64c.34,13.68,2.19,23.89,14.38,68.51,11.49,42.06,13.83,47.61,17.28,54,4.38,8.2,11.83,17.83,26.55,36.76,23.44,30.16,35.16,45.24,35.74,46,23.79,29.43,55.71,67.08,69.45,81.7,46.37,49.31,75,37.55,190,100.09C1148.76,2413.9,1182,2447.14,1233.13,2436.14Z" transform="matrix(1, 0, 0, 1, -6084.953613, -4967.149902)" style="fill: rgb(0, 102, 0); opacity: 0.5; stroke: rgb(0, 102, 0);"/>
  <path class="c" d="M2399.31,906.9c10.8,5.67,20.58-12.25,44.6-11.24,22.38.94,32.74,17.29,41,11.82,7.19-4.75,6.57-21.84,0-33.19-7.81-13.5-23-17.1-41-21.36-21.4-5.06-34.92-8.26-44.8-.17C2383.22,865.78,2386.46,900.14,2399.31,906.9Z" transform="matrix(1, 0, 0, 1, -6084.953613, -4967.149902)" style="fill: rgb(102, 51, 102); opacity: 0.5; stroke: rgb(102, 51, 102);"/>
  <path class="b" d="M2528.1,849.2c9.59-3.59,13.44-29.4,3.13-47.5-12.59-22.1-40.76-23-46.31-23-5.92,0-29.79-.07-41,17.85-7.73,12.35-8.36,31.5,0,37.3,9.53,6.62,21.54-10.5,42.9-7.66C2510.25,829.34,2518.09,852.94,2528.1,849.2Z" transform="matrix(1, 0, 0, 1, -6084.953613, -4967.149902)" style="fill: rgb(255, 255, 255); opacity: 0.5; stroke: rgb(255, 255, 255);"/>
  <path class="b" d="M2355.13,1237.79c-10.35-11.64-9.93-34.6-.14-41.36,9-6.19,23.54,1.78,47.16,14.7,16.53,9,13.63,10,41.76,28.7,23.85,15.84,36.27,22,41,37.09.57,1.82,3.58,11.41,0,14-4.91,3.63-16.71-12.1-41-25.09-16.74-8.95-32.41-12.9-44.06-15.83C2371.11,1242.81,2362.83,1246.44,2355.13,1237.79Z" transform="matrix(1, 0, 0, 1, -6084.953613, -4967.149902)" style="fill: rgb(255, 255, 255); opacity: 0.5; stroke: rgb(255, 255, 255);"/>
  <path class="d" d="M2920.34,710.14c3.39-3.63,11.29-3.28,16.27,0,6.5,4.32,5.1,11.79,8.75,30.63,4.51,23.31,10.14,29.89,5.7,34.88s-15.25,4.94-21.06,0c-6.88-5.89-1.45-14.52-5.06-36C2922,722.07,2916.1,714.66,2920.34,710.14Z" transform="matrix(1, 0, 0, 1, -6084.953613, -4967.149902)" style="fill: rgb(255, 255, 255); stroke: rgb(255, 255, 255);"/>
  <path class="a" d="M2885.62,1458.89c-29.28,11.11-67.95,30.13-65.54,39.32.38,1.48,1.91,3,34.39,8.17,20.41,3.24,24.49,3.38,41.36,6.13,19.06,3.11,20.13,4,33.19,5.62a248.85,248.85,0,0,0,32.17,2.55c10,.07,23.45.09,39.83-3.57,10.51-2.35,12.38-4,30.64-9.71,20.86-6.5,21.91-4.58,31.15-8.68,9.78-4.33,8-5.61,28.08-17.87,13.43-8.18,16.06-8.72,27.58-16.34,9-5.93,13.45-8.9,18.89-13.79,9-8.09,8.83-10.69,22.47-25,11.52-12.11,15.25-14,16.85-14.81,6.78-3.26,10.41-2.52,18.89-6.63a61.41,61.41,0,0,0,13.79-9.2c12.79-11.08,10.52-18.47,22.47-29.61,7-6.5,8.07-4.29,16.85-11.75,9.63-8.17,14.46-16,19.41-23.49,3.58-5.38-3.37,5.39,29.61-38.81,17.06-22.86,25.6-34.29,32.17-43.91,12.53-18.33,20.91-32.28,23-35.75,8.64-14.44,14.84-26.1,19.41-34.72s7.49-14.47,13.27-26c9.66-19.33,11.56-24,12.77-27.07,4.12-10.57,6.56-16.84,7.66-26,1.25-10.47.05-18.9-1-26.55-.89-6.29-1.39-6.81-4.6-21.45-3.5-16-5.26-24-6.13-31.66-.38-3.33-.19-2.58-1.53-27.57-1-18.12-1-16.66-1-18.9a263.21,263.21,0,0,1,2-37.78c1.33-10.73,1.8-9.41,4.6-27.58,1.79-11.62,3.18-20.65,4.08-31.15a239.86,239.86,0,0,0,.51-40.34c-1.35-17.33-3.52-16.5-8.17-48-1.57-10.66-3-20.87-4.08-34.72-.83-11.13-.48-12.7-1.53-31.15-1-17.49-1.46-18.47-2.05-30.64-.7-14.57-1.15-24-.51-36.25.58-10.82,1.44-25.6,6.39-43.41,4.79-17.23,7.78-17.08,12.51-34.72a146.57,146.57,0,0,0,5.61-37.28,132.69,132.69,0,0,0-8.68-48.51A165.72,165.72,0,0,0,3385,450.89a175.39,175.39,0,0,0-16.85-23c-7.89-9.33-11.84-14-18.38-18.38-5.12-3.42-7.27-3.69-26.05-10.72-11.43-4.28-17.65-6.61-25-9.7-19.29-8.11-19.19-10-31.66-14.3-7.36-2.54-5.33-1.16-28.59-7.15-18.17-4.68-20-5.67-30.13-7.66a218.85,218.85,0,0,0-24.51-3.57c-9.94-.86-10.14-.16-19.92-1a188.08,188.08,0,0,1-26-4.08,144.09,144.09,0,0,1-20.42-6.13,119.32,119.32,0,0,1-18.39-8.68c-6.63-3.89-7-5-12.76-8.17-8-4.34-14.28-7.78-17.49-6.5-9.6,3.83-12.73,58.22,15.19,94.16,20,25.8,59,35.88,136,55,61.53,15.27,91.69,18.13,96,35.81,3.92,16.09-18.76,23.2-29,61.9-7.32,27.67-3.39,53-2,61.42,4.94,30,14.26,30.77,14,51.21-.22,17.58-7.16,20.19-24,61.33-11.11,27.15-16.67,40.72-18.66,58.27-3.2,28.19,5.62,30.34,2.66,58.22-3.49,32.92-16.23,34.16-17,61.66-.8,28.51,12.76,32.53,13,61.9.25,30.81-14.43,54.33-19,61.45-19.7,30.69-36.74,24.78-69,60.65-11.56,12.86-28.33,31.5-37,60.24-5.47,18.13-1.93,21.12-8,59.93-4.53,29.23-6.8,43.85-13.27,60.06-12.22,30.6-22.48,28.65-37.77,61.45-16.67,35.76-7.86,45.35-22.74,61.84-9.09,10.07-30.44,15.53-72.77,26C2914.8,1449.46,2903.61,1452.07,2885.62,1458.89Z" transform="matrix(1, 0, 0, 1, -6084.953613, -4967.149902)" style="fill: rgb(0, 102, 0); opacity: 0.5; stroke: rgb(0, 102, 0);"/>
  <path class="c" d="M2587.79,1190c21.44,10.08,48.71-4,90.34-25.43,39.07-20.14,47.72-33.33,73.7-33.51,5.61,0,32.39-.22,50.47,18.39,4.7,4.83,7.14,9.21,10,14.39,8.77,15.77,9.33,27.09,15.32,60.16,3.41,18.88,5.15,28.37,6.9,31.15,9,14.26,20.24,12.13,49,29.4,24.36,14.62,24.52,21.09,36.77,22.68,5.09.67,16.57,1,49-22.28,28.89-20.77,47.2-33.93,62.05-60,8.46-14.84,19.3-33.88,17.63-60-.22-3.36-3.52-45.38-34.4-65.21-25.13-16.14-43.56-1.55-69.78-20.76-5.27-3.86-22.38-16.4-24.52-35.59-2.7-24.34,20.3-44.5,39.34-61.18,8.77-7.69,22.34-19.37,43.39-27.32,25.84-9.75,34.12-3,72-9.19,33.18-5.41,53.24-8.69,68.94-24.57,12.22-12.36,16.31-28.78,24.49-61.61s12.26-49.19,8.45-58.16c-17.48-41.26-112.42-17.42-131-59.94-8.45-19.37,8.79-29.93-1.54-61.32-8.94-27.15-25-28.84-29.13-52.91-3.55-20.65,3.44-47.38,21.64-58.09,10.83-6.37,23-4.18,47.32.21,22.89,4.12,49.7,9.29,73.53,30.18,11,9.64,18.51,16.23,20.68,27.26,4.9,24.84-23.59,40.11-17.9,54.21,6.92,17.14,60.61,23.21,75.35.35,10.26-15.92-2-40.17-9.2-54.33-11.5-22.71-20.65-23.59-47.49-56.6-25.74-31.66-23.09-38-38.29-47.49-18.78-11.78-37.77-11.56-66.9-11.23-28.34.32-52.85.6-78.64,16.34A117,117,0,0,0,2956,568.73c-6,10.42-18.49,31.93-15.5,58.11,2.68,23.52,14.75,23.8,22.47,52.88s-3.11,33.62,4.07,61.33c8.87,34.27,28,37.41,27.56,59.46-.1,4.72-1.28,18.3-44.42,58-6.82,6.27-29.64,27-78.89,61.36-50.12,35-42.94,25.07-68.81,45.37-26.58,20.87-34.45,31.58-51.19,31.54-17.23,0-26-11.43-49-9.2-10.66,1-17.74,4.36-24,7-47.18,19.59-67.09,6-90.34,21.47-35.28,23.43-32.36,83.15-31.72,96.17C2557.05,1128.46,2559.41,1176.66,2587.79,1190Z" transform="matrix(1, 0, 0, 1, -6084.953613, -4967.149902)" style="fill: rgb(102, 51, 102); opacity: 0.5; stroke: rgb(102, 51, 102);"/>
  <rect class="e" x="2236.63" y="3429.23" width="82.45" height="82.45" style="fill: none; opacity: 0.5; stroke: rgb(0, 0, 0);" transform="matrix(1, 0, 0, 1, -6085.453613, -4967.649902)"/>
  <rect class="b" x="2236.63" y="3552.9" width="82.45" height="82.45" style="fill: rgb(255, 255, 255); opacity: 0.5; stroke: rgb(255, 255, 255);" transform="matrix(1, 0, 0, 1, -6085.453613, -4967.649902)"/>
  <rect class="c" x="2236.63" y="3676.57" width="82.45" height="82.45" style="fill: rgb(102, 51, 102); opacity: 0.5; stroke: rgb(102, 51, 102);" transform="matrix(1, 0, 0, 1, -6085.453613, -4967.649902)"/>
  <rect class="a" x="2236.63" y="3800.24" width="82.45" height="82.45" style="fill: rgb(0, 102, 0); opacity: 0.5; stroke: rgb(0, 102, 0);" transform="matrix(1, 0, 0, 1, -6085.453613, -4967.649902)"/>
  <rect class="g" width="1" height="1" style="fill: none;" transform="matrix(1, 0, 0, 1, -6085.453613, -4967.649902)"/>
  <rect class="g" x="4095" y="4095" width="1" height="1" style="fill: none;" transform="matrix(1, 0, 0, 1, -6085.453613, -4967.649902)"/>
  <text style="font-family: Arial, sans-serif; font-size: 75px; font-weight: 700; white-space: pre;" x="-3699.653" y="-1473.053">Clay</text>
  <text style="font-family: Arial, sans-serif; font-size: 75px; font-weight: 700; white-space: pre;" x="-3710.458" y="-1222.982">Sludge </text>
  <text style="font-family: Arial, sans-serif; font-size: 75px; font-weight: 700; white-space: pre;" x="-3707.556" y="-1103.553">Grass</text>
  <text style="font-family: Arial, sans-serif; font-size: 75px; font-weight: 700; white-space: pre;" x="-3703.036" y="-1348.581">Shell</text>
</svg>