<?xml version="1.0" encoding="utf-8"?>
<svg viewBox="-4961.325 -4155.047 4095 4095" xmlns="http://www.w3.org/2000/svg">
  <path class="a" d="M325.49,757.49c3.23,10.48,5.82,15.21,8,21,1.69,4.48,2.84,12.38,6,28,2.77,13.66,3.22,15.76,4,19,2.21,9.1,3.25,11.32,6,21,5.62,19.77,4.19,20.62,9,36,3.24,10.35,4.18,10.92,7,21,1.69,6,2.82,11.45,5,22,1.64,7.91,2.57,12.86,6,31,2.58,13.59,3.87,20.39,4,21,2.53,11.29,5,19.23,10,35,3,9.39,4.88,15.47,8,24,3.24,8.84,3.76,9.33,9,23,2.59,6.74,5.05,13.36,9,24,5.48,14.74,6,16.32,8,20,4,7.27,5.66,7.81,10,16,1.48,2.8,1.52,3.18,7,16,6.22,14.54,7.54,17.27,9,20,5.56,10.4,5.93,12.67,8,13,4.63.75,9.76-7.29,12-12,4.79-10,3.54-19.94,2-31-1.49-10.72-3.62-13.06-6-24-2.25-10.39-1.38-14.41-3-29-1.05-9.58-2.33-11.91-6-28-7.45-32.67-4.44-32.79-10-52-5.37-18.59-7.41-15.81-14-38-4.65-15.69-3.91-18-10-39-3.77-13-6-20.57-10-31-2.76-7.15-5.59-13.56-10-26-1.7-4.79-3.26-9.44-4-11.56-3.7-11-3.87-12.17-7-21.44-3.06-9-4.59-13.47-6.09-16.82-.41-.92-1.71-3.77-3.13-7.75,0,0-1-2.67-1.79-5.44-2.28-7.67-4.84-20.75-6-25-4-14.89-19.61-27.52-34-29-5.78-.59-14.5.42-17,5C323.2,748.87,323.67,751.56,325.49,757.49Z" transform="matrix(1, 0, 0, 1, -4961.825195, -4155.546875)" style="fill: rgb(109, 191, 191); opacity: 0.5; stroke: rgb(109, 191, 191);"/>
  <path class="b" d="M441.5,867.5a8.2,8.2,0,0,1,2-9,7.83,7.83,0,0,1,8-1c2.64,1.14,3.1,3.25,7,12,3.64,8.14,4.61,9.38,5,13,.34,3.14.85,7.83-2,10-2.67,2-7.22,1-10-1s-3.27-4.85-6-13C443.91,873.76,442.47,870,441.5,867.5Z" transform="matrix(1, 0, 0, 1, -4961.825195, -4155.546875)" style="fill: rgb(255, 255, 255); opacity: 0.5; stroke: rgb(255, 255, 255);"/>
  <path class="b" d="M538.5,1028.5c-2.52-1.37-6.63-2.08-9,0-3,2.68-1.44,8.41-1,10,1.18,4.24,3,4.41,7,11,3.55,5.86,3.42,7.87,6,9a8.16,8.16,0,0,0,9-2c2.49-2.9,1.49-7,1-9-.9-3.68-2.42-4.06-7-11C541,1031.11,540.82,1029.76,538.5,1028.5Z" transform="matrix(1, 0, 0, 1, -4961.825195, -4155.546875)" style="fill: rgb(255, 255, 255); opacity: 0.5; stroke: rgb(255, 255, 255);"/>
  <path class="a" d="M723.5,1102.5c37.2,27.68,53,36,53,36,42.51,22.38,54.45,23.68,61,24a73.28,73.28,0,0,0,30-4c11.53-4.24,16.85-9.85,36-28,26-24.69,39.08-37,45-41,14.82-9.94,23-12,32-24,3.23-4.27,7.81-11.45,12-26,7.54-26.16,13.44-65.56,4-69-4.06-1.48-6.83,5.17-27,21-12.23,9.6-13,8.52-28,20-7.48,5.71-7.2,5.9-28,23-14.62,12-21.54,17.51-26,21-14.24,11.16-21.5,16.81-28,20a104.62,104.62,0,0,1-29,9c-7.32,1.3-14.88,1.54-30,2-14.27.44-21.4.66-29,0-9.39-.81-16.6-2.28-30-5-9.35-1.9-14-2.85-17-4-7.08-2.73-10.61-5.59-13-4-3.1,2.06-1.33,9.66-1,11C713,1094.51,721,1100.65,723.5,1102.5Z" transform="matrix(1, 0, 0, 1, -4961.825195, -4155.546875)" style="fill: rgb(109, 191, 191); opacity: 0.5; stroke: rgb(109, 191, 191);"/>
  <path class="a" d="M837.5,1322.5c12,8.59,32.5-.76,66-16,14.65-6.67,15.28-8,33-16,2.17-1,11.88-5.33,24-12,5.2-2.86,7.85-4.33,10-6,10.47-8.12,8.53-13.76,17-20,3.83-2.82,3.46-1.1,20-8,7.83-3.27,11.75-4.9,15-7,8.51-5.49,12.19-11.93,16-17,9.08-12.07,13.72-9.45,31-24,11.67-9.84,20.78-21.56,39-45a160.2,160.2,0,0,0,12-17c6.6-11,7.76-16.33,13-26,5.58-10.3,12.46-18.36,17-24,7.61-9.46,12.53-14.13,14-23,.5-3,1.48-8.92-2-12-4.6-4.07-14,.5-15,1-9.26,4.62-11.49,13-17,22-7.65,12.56-11.8,10.39-28,27-17.17,17.61-13.45,21-31,40-9.29,10-6.89,5.36-31,28-14.87,14-21,20.66-35,32-7.45,6-13.34,10.34-17,13-14.52,10.56-25.91,17.49-40,26-29.33,17.71-44,26.57-45,27-30.34,12.86-50.17,9.52-66,26-8,8.36-8.15,14.65-8,17A19.76,19.76,0,0,0,837.5,1322.5Z" transform="matrix(1, 0, 0, 1, -4961.825195, -4155.546875)" style="fill: rgb(109, 191, 191); opacity: 0.5; stroke: rgb(109, 191, 191);"/>
  <path class="a" d="M1086.5,944.5c.68-3.65,2.64-10.4,15-23a138.83,138.83,0,0,1,23-19c23.65-15.22,27.11-10.29,45-22,18.22-11.93,24-23.19,43-28,5.65-1.43,11-1.92,14,1,4.63,4.53,1.09,14.83,0,18-4.48,13-14.3,22.37-29,32-29.41,19.27-35.49,11.54-51,26-15.33,14.28-13.82,25.94-30,33-1.24.54-19,8-27,0C1084.14,957.11,1085.94,947.51,1086.5,944.5Z" transform="matrix(1, 0, 0, 1, -4961.825195, -4155.546875)" style="fill: rgb(109, 191, 191); opacity: 0.5; stroke: rgb(109, 191, 191);"/>
  <path class="c" d="M1735.5,499.5c10.16-.18,14.66,3.7,20,0,5.75-4,6-12.27,6-13,.09-6.43-3.48-10.87-6-14-1.78-2.21-8.4-10.17-20-12-17.42-2.74-29.2,11-30,12-2,2.43-7.27,8.8-7,18,0,1.62.37,12.48,7,16C1713,510.49,1718.87,499.79,1735.5,499.5Z" transform="matrix(1, 0, 0, 1, -4961.825195, -4155.546875)" style="fill: rgb(0, 0, 255); opacity: 0.5; stroke: rgb(0, 0, 255);"/>
  <path class="c" d="M2011.5,909.5c16.72-4.29,38.64-9.92,41-25,2-12.94-11.74-24-13-25-17-13.34-44.57-9.11-48,0-2.53,6.71,9.75,11.49,10,26,.21,12.28-8.4,19.81-5,24C1997.82,911.13,2000.93,912.22,2011.5,909.5Z" transform="matrix(1, 0, 0, 1, -4961.825195, -4155.546875)" style="fill: rgb(0, 0, 255); opacity: 0.5; stroke: rgb(0, 0, 255);"/>
  <path class="c" d="M2077.5,1274.5c6.79-1.59,14.15-6.55,17-14,.79-2.06,1.76-5.68-3-24-3.46-13.31-5.19-20-8-25-6.83-12.21-11.45-10.13-18-23-3.57-7-4.17-11.5-9-14-5.11-2.64-10.84-.94-14,0-2.44.72-13.24,4.31-17,14-2.23,5.76-.52,11.58,3,23,3.46,11.22,5.49,12.61,10,25,6.14,16.86,3.75,18,8,24C2052.26,1268.61,2064.52,1277.55,2077.5,1274.5Z" transform="matrix(1, 0, 0, 1, -4961.825195, -4155.546875)" style="fill: rgb(0, 0, 255); opacity: 0.5; stroke: rgb(0, 0, 255);"/>
  <path class="c" d="M3460.5,1967.5c5.45-5.17-.27-15.09,1-26,1.13-9.7,6.94-13,15-24a134.3,134.3,0,0,0,20-47c6.1-28.72-6.7-32.33,0-50,10.85-28.59,48-28.81,49-50,.6-12.93-12.76-23.27-15-25-10.87-8.41-22.67-8.19-33-8-9.8.18-21.83.4-27,8-4.12,6.06-.54,11.9,0,22,1.18,22.2-14.4,27.13-21,53-5.72,22.41,5.22,21.63,0,50-3.95,21.44-11.4,28.43-9,47,1,7.88,2.33,6.39,6,24,3.44,16.48,4.22,27,9,28C3457.88,1970,3460.12,1967.86,3460.5,1967.5Z" transform="matrix(1, 0, 0, 1, -4961.825195, -4155.546875)" style="fill: rgb(0, 0, 255); opacity: 0.5; stroke: rgb(0, 0, 255);"/>
  <path class="a" d="M3431.5,2235.5c6.45,3.84,8.68,9.2,15,23,20,43.67,20.56,40,23,50,3.49,14.22.22,12.89,3,47,2.17,26.56,3.25,39.84,8,49,9.34,18,19,15.35,30,37,2.59,5.09.74,2.65,11,32,7.58,21.68,10,27.11,7,31-6.06,7.82-27.13.32-28,0-19-7-24.55-20.32-36-31-35.64-33.27-89.35-3.85-108-33-1.24-1.93-.12-.69-6-36-5.66-34-7-37.11-9-54-.72-6.13-1.49-18.5-3-43-2.61-42.26-2.34-45,0-49,6.64-11.38,24.1-15.25,59-23C3416.64,2231.25,3424.62,2231.4,3431.5,2235.5Z" transform="matrix(1, 0, 0, 1, -4961.825195, -4155.546875)" style="fill: rgb(109, 191, 191); opacity: 0.5; stroke: rgb(109, 191, 191);"/>
  <path class="a" d="M3427.5,1601.5c4.56-2.64,6.34-9.89,5-25-1.78-20.08-7-31-13-50-6.85-21.77-3.72-19.34-12-47-8.87-29.64-14.34-38.68-18-44a100.84,100.84,0,0,0-23-24c-12.67-9.24-23.7-12.32-44-18-20.14-5.63-31.86-8.91-48-8-13.37.75-12.49,3.41-36,7-23.08,3.53-24.51.59-41,4-18.37,3.8-20.92,8.18-39,13a155.7,155.7,0,0,1-45,5c-26-12.16-39.49-9.69-47-5-9.1,5.68-10.15,15.16-24,23-3.63,2.06-7.21,3.5-23,7-29.9,6.63-31.53,4.68-46,9-8.56,2.56-21.66,6.47-36,16-11.33,7.53-12.32,11.19-23,16-12.39,5.58-17.53,3.59-24,10-8.78,8.71-8.07,21.08-8,22,.2,2.67,1,13.1,8,17,3.25,1.8,7.22,1.87,24-4,10.51-3.68,15.77-5.49,23-9,23.65-11.48,23.72-16.33,36-21,19.09-7.25,23.08,2.9,46-2,20.68-4.42,19.11-13,47-24,19.52-7.68,20.36-3.48,49-13,23.84-7.92,23.53-10.92,39-14,16.42-3.27,30.53-2.64,45-2,17.51.78,19,2.47,35,3,23.12.76,27.22-2.55,40-2,33.27,1.43,58.09,26.12,66,34,10.51,10.46,3.29,7.09,36,55,23.46,34.37,26.41,35,29,46,2,8.4,3.34,21.11,12,25C3417.81,1601.64,3423.22,1604,3427.5,1601.5Z" transform="matrix(1, 0, 0, 1, -4961.825195, -4155.546875)" style="fill: rgb(109, 191, 191); opacity: 0.5; stroke: rgb(109, 191, 191);"/>
  <path class="a" d="M2973.5,1321.5c39.05-10.44,36-7.65,48-12,21.37-7.76,19.21-12.33,47-25,11-5,23-9,47-17,22.13-7.36,33.45-11.08,46-13a196.88,196.88,0,0,1,38-2c17.18.77,16.56,3,35,4a337.57,337.57,0,0,0,40,0c13.54-1.07,22.67-2.92,26,2,2.24,3.31.68,8,0,10-1.47,4.4-5.58,12-26,21a143.3,143.3,0,0,1-40,11c-9.07,1.11-9.48.38-35,1-21.77.53-32.66.8-41,2-9.17,1.32-11.1,2.41-43,12-26.66,8-40,12-49,14-25,5.5-25,2.55-47,8a370.36,370.36,0,0,0-46,15c-17.49,7.14-22.59,11-36,13-8.14,1.21-12.17.67-23,3-9.65,2.08-16.6,3.57-24,8-10.63,6.36-9.1,10.94-21,20-7.48,5.69-16.15,12.29-27,11-.82-.1-14.58-2-19-13a20,20,0,0,1,0-14c3.71-9.81,14.52-13.68,21-16,10.73-3.85,12.82-1,25-5,7.21-2.39,6.59-3.43,19-9,2.63-1.18,6.52-2.87,26-10,13.38-4.9,20.07-7.35,25-9C2947.36,1328.87,2956.4,1326.07,2973.5,1321.5Z" transform="matrix(1, 0, 0, 1, -4961.825195, -4155.546875)" style="fill: rgb(109, 191, 191); opacity: 0.5; stroke: rgb(109, 191, 191);"/>
  <path class="b" d="M2869.5,1426.5c1.69-4.32,10-4.87,12-5a23.4,23.4,0,0,1,11,2,20.43,20.43,0,0,1,7.05,8.78,18.62,18.62,0,0,1,.95,12.22c-1.32,4.63-5.33,11.08-10,11-2.65,0-3.82-2.17-11-12C2870.66,1431.4,2868.45,1429.17,2869.5,1426.5Z" transform="matrix(1, 0, 0, 1, -4961.825195, -4155.546875)" style="fill: rgb(255, 255, 255); opacity: 0.5; stroke: rgb(255, 255, 255);"/>
  <path class="a" d="M1969.5,967.5c2.73-7,.32-11.32,0-20-.24-6.42.65-15.6,6-27a175.18,175.18,0,0,0,3-25c.8-19.14-5-28-9-49-5.17-27.43.91-26.26-4-45-3.08-11.75-7-18.2-28-51-19.52-30.53-29.31-45.84-31-48-17-21.64-31.22-39.79-56-51-6.88-3.11-16.92-6.07-37-12-28.23-8.33-29-6.77-39-11-28.41-12-23.1-25.16-46-33-6.65-2.28-24.77-2.52-61-3-11.53-.15-17.18-.06-20,0-27.35.58-40.89-3.08-44,3-1.21,2.36-.33,5,0,6,1.08,3.27,5.19,9.92,44,15,9.26,1.21,12.47,1.28,19,2,28.34,3.11,50.19,10.78,62,15,21.41,7.65,16.75,8.8,46,20,9.09,3.48,20.23,7.46,39,15,10.44,4.2,15.73,6.33,19,8,14.87,7.62,23.76,16.65,35,28,43,43.46,42.34,42.12,45,46,6.78,9.91,18.12,26.83,23,51,1.81,9-.19,4.46,2,45,1.37,25.4,2.56,34.5,1,51a206.88,206.88,0,0,1-3,23c-2.63,13.33-5,17.1-5,27,0,11.13,2.94,17.79,4,20,2.09,4.33,5.18,10.76,12,13a16.79,16.79,0,0,0,10,0C1965.16,977.93,1968.76,969.41,1969.5,967.5Z" transform="matrix(1, 0, 0, 1, -4961.825195, -4155.546875)" style="fill: rgb(109, 191, 191); opacity: 0.5; stroke: rgb(109, 191, 191);"/>
  <path class="b" d="M1775.5,541.5a8.87,8.87,0,0,1,0-10c1-1.28,2.74-2.79,13-4,5.5-.65,8.28-1,10,0,3.68,2,5,6.7,5,10s-1.35,8.19-5,10c-3.06,1.52-4-1-15-3C1779.61,543.77,1777.19,543.61,1775.5,541.5Z" transform="matrix(1, 0, 0, 1, -4961.825195, -4155.546875)" style="fill: rgb(255, 255, 255); opacity: 0.5; stroke: rgb(255, 255, 255);"/>
  <path class="b" d="M1950.5,625.5c4.61,3.72,2.87,7.41,7,30,2.36,12.9,4.34,19.45,1,22-2.13,1.62-5.46.9-8,0a67.66,67.66,0,0,1-16-10c-2.45-2.07-5-4.72-10-10-7.44-7.82-6.55-7.49-11-12-9-9.14-13.69-11.53-13-15,.46-2.31,3-3.56,6-5,6.62-3.16,13.19-3.55,23-3C1941.89,623.2,1948.08,623.55,1950.5,625.5Z" transform="matrix(1, 0, 0, 1, -4961.825195, -4155.546875)" style="fill: rgb(255, 255, 255); opacity: 0.5; stroke: rgb(255, 255, 255);"/>
  <path class="d" d="M1642.5,1857.5c6.56-1,10.51-1.51,16-1a48.28,48.28,0,0,1,13,3,39.64,39.64,0,0,1,12,7c4.7,4.09,4.13,5.84,10,13a92.74,92.74,0,0,0,12,12c7.41,6.16,8.54,5,14,10,5.24,4.79,4.55,6.17,12,15,7.65,9.06,8.51,7.78,13,14,2.6,3.6,1.81,3.35,10,19,1.59,3,3.72,7,8,15,3.66,6.82,5.49,10.24,7,13,3.61,6.58,4.1,7.3,6,11,2.8,5.45,2.83,6,5,10,3.51,6.42,4,6,6,10,3.11,6.28,1.86,7.36,5,15,2.9,7,4,6.09,6,12a66.23,66.23,0,0,1,3,15c.7,6.49,0,6.78,1,10,1.35,4.37,3.1,5.39,6,11,2.09,4,1.9,4.92,4,10,3.52,8.53,5.37,9.27,9,17s2,7.5,6,17c3.08,7.37,3.93,7.23,9,18,1.12,2.37.65,1.48,7,16,5.72,13.09,5.33,12.05,7,16,4.09,9.66,4,10.22,6,14,2.3,4.45,3,5,8,13,3.36,5.41,5.59,9.3,10,17,1.63,2.84,1.7,3,9,16s8.1,14.38,10,17c2.5,3.44,2.21,2.54,10,12s7.42,9.57,10,12c2.29,2.15,5.86,4.77,13,10,6.09,4.46,6.3,4.39,8,6,4.84,4.57,4.68,6.59,9,10,3.21,2.54,3.47,1.56,9,5,6.07,3.77,5.57,4.84,11,8,3.19,1.86,3.3,1.46,10,5a60.07,60.07,0,0,1,7,4c4.61,3.4,4.39,5.14,8,7,2.07,1.07,2.46.65,8,2a100.88,100.88,0,0,1,10,3c3.9,1.44,8,2.94,12,6,6.75,5.12,5.68,8.74,12,12,2.31,1.19,4.58,1.8,9,3,4.19,1.13,5.18,1.05,9,2,6.16,1.53,7.05,2.6,12,4,2.64.75,3.94.89,14,2l18,2c13.31,1.53,13.54,1.87,18,2,3,.09,4.56,0,17-1,14.1-1.12,21.2-1.69,24-2a211.26,211.26,0,0,0,21-3c11.49-2.36,11.72-3.68,21-5,7.92-1.13,9.54-.42,17-2,5.82-1.23,5.72-1.84,14-4,9.59-2.5,10.8-1.95,18-4s6.59-2.76,16-6a188.58,188.58,0,0,1,22-6,132.14,132.14,0,0,1,19-3c7.86-.59,9.8.08,18-1,4.57-.6,9.74-1.57,12-2,8.55-1.61,7.57-1.8,10-2,7.61-.62,8.94,2,18,2,2.46,0,1.48-.19,11-1,4.88-.42,8.28-.63,14-1,9.43-.6,14.15-.9,19-1,7-.14,6.5.16,13,0,8.88-.22,9.5-.76,18-1s8,.29,16,0c7.31-.27,8.6-.74,16-1,5.86-.21,7.17,0,14,0s13.22-.34,26-1c11.65-.6,13-.82,20-1,6.2-.16,10.43-.26,16,0,6.72.32,8.31.83,19,2,8.11.89,15.12,1.65,24,2,7,.27,12.19.17,20,0,6.31-.13,13.08-.29,22-1,7.25-.58,11.75-.94,18-2,8.83-1.5,9.69-2.46,19-4,7.05-1.17,6.27-.57,16-2,9.15-1.34,10.71-2,19-3a87.28,87.28,0,0,1,13-1c5.84.11,7.13.9,13,1a72.78,72.78,0,0,0,13-1c10.06-1.52,10.78-3.37,18-4,5.07-.44,4.47.49,15,1,4.52.22,5.13.07,20,0,8.48,0,12.72-.06,16,0,5.86.11,12.55.24,21,1,9.74.87,8.73,1.4,17,2,9.46.69,11.33,0,20,1,6,.67,5.45,1,13,2,12.47,1.63,13.25.57,21,2,9.16,1.69,8.48,3.25,18,5,9.14,1.68,9.45.2,18,2,7.55,1.59,7.37,2.77,17,5,8.32,1.93,8.82,1.14,14,3,4.41,1.58,5,2.49,13,6a88.1,88.1,0,0,0,10,4c8.36,2.48,10.35.41,18,2,5.16,1.07,3.69,1.9,18,8,7.84,3.34,11.76,5,16,6,5.94,1.38,7.95.93,13,3a38.63,38.63,0,0,1,10,6c4.08,3.39,4.3,5,8,9,5.16,5.53,10.46,8.48,15,11,8.36,4.65,9.05,2.92,15,7,2.4,1.65,5.6,4.77,12,11,3.74,3.65,7.3,7.27,9,9,5.68,5.78,6.34,6.66,9,9,1.15,1,2.07,1.77,9,7,7.77,5.86,7.72,5.75,12,9,8.61,6.54,8.71,6.94,12,9,2.91,1.83,2.56,1.34,11,6,7.82,4.31,8,4.66,11,6a48.6,48.6,0,0,0,12,4c5.82,1,7.24,0,12,1,3.53.75,6.06,2.22,11,5,6.68,3.75,7,4.79,14,9,4.37,2.62,7.95,4.44,13,7,7.67,3.89,8,3.66,12,6,7.36,4.31,6.67,5.36,11,7,5.83,2.2,7.18.34,13,3,3.91,1.79,4.45,3.15,8,4,4.1,1,5.2-.4,9,0,3,.32,4.1,1.39,14,8,5.75,3.84,8.68,5.79,11,7a80.55,80.55,0,0,0,12,5c6,2,9.65,2.59,11,3,16.51,5,19.41,84,3,88-1.93.47-7-1.69-17-6-6.23-2.67-11.34-5.15-15-7-6.09-2-10.78-3.22-14-4a24,24,0,0,1-6-2c-3.36-1.72-3.65-3-7-5a27,27,0,0,0-8-3c-4.1-1-5.35-.51-9-1-3.15-.43-6.81-2-14-5-7.7-3.26-8.11-3.89-12-5-4.85-1.38-5-.62-10-2-5.65-1.54-6.17-2.68-13-5-2.16-.73-1.75-.5-11-3-7.81-2.11-11.77-3.19-14-4-6.14-2.23-5.73-2.89-12-5-3.84-1.29-8.86-2.68-10-3-5.68-1.57-5.64-1.35-7-2-4.38-2.09-4.75-4.38-9-7-2.7-1.67-4.44-1.9-8-3a80.18,80.18,0,0,1-16-7l-13-5-12-6c-2.22-.75-5.68-1.87-10-3-5.83-1.53-7.86-1.68-11-3a30,30,0,0,1-10-7,41.52,41.52,0,0,1-9-5c-4.16-3.06-5.36-5.19-9-7a19.84,19.84,0,0,0-9-2,13.71,13.71,0,0,1-5,0,15,15,0,0,1-5-2c-3.13-1.85-4-3.37-6-5s-4.73-2.47-10-4c-1.76-.51-5.35-1.51-13-3-9-1.75-10.07-1.56-13-3-1.06-.52-2.05-1.1-8-6-8.54-7-8.78-7.71-12-10-3.91-2.78-3.86-2-13-7-11-6-10.65-6.94-16-9-6.92-2.66-7.19-1-15-4a91.34,91.34,0,0,1-14-7c-6.23-3.72-6.36-4.65-10-6-4.08-1.51-5.35-.87-13-2a109.8,109.8,0,0,1-14-3c-6.51-1.89-7.46-2.94-15-5-4.41-1.21-4.35-.92-8-2a106.65,106.65,0,0,1-13-5c-10.64-4.6-11.1-5.63-15-6-2.46-.23-4.16,0-7-1-2.35-.82-2.61-1.48-7-4a56.15,56.15,0,0,0-8-4c-3.63-1.43-3.67-.9-6-2-3.81-1.8-4.66-3.66-8-6a26.33,26.33,0,0,0-9-4,97.11,97.11,0,0,0-10-2c-4.7-.69-5-.37-8-1-4.42-.92-4.81-1.78-12-4-3.23-1-3.05-.79-7-2-5-1.53-5.42-1.9-9-3a95.16,95.16,0,0,0-13-3c-1.9-.3-4.27-.53-9-1-7.21-.71-7.31-.57-11-1-7.78-.91-7.58-1.59-13-2-5-.38-5,.22-12,0-3.36-.11-4.2-.27-13-1-7.62-.63-11.43-.95-13-1-5-.16-5.59.22-18,1-8.36.53-8.63.39-18,1-5.9.39-8.93.59-13,1-3.84.39-8.93.92-15,2-3.24.58-6.15,1.2-17,4-16.2,4.18-14.32,4-19,5-12.57,2.78-12.64,1.31-24,4-10.09,2.39-10.53,3.67-19,5-6.66,1-8.25.55-15,2-2.68.58-3.14.81-14,4-7.74,2.28-11.67,3.43-14,4a131.34,131.34,0,0,1-17,3c-2.92,1.29-7,3-12,5s-7.55,3-11,4c-6.73,2-8,1.49-14,3-5.42,1.36-5.83,2.17-18,7-6,2.38-10.45,4-16,6-13.56,4.91-13.11,4.25-20,7-11.38,4.55-11.42,5.87-19,8a114.7,114.7,0,0,1-16,3c-8.26,1.15-10,.81-16,2-4.85.95-5.36,1.49-14,4-2.86.83-12.52,3.59-24,6-.37.08-.11,0-16,3l-16,3-16,3c-3.14.4-8,1.05-14,2-10.36,1.65-11.78,2.26-18,3-5.71.68-10.14.78-19,1-9,.22-15.77.06-18,0-5.78-.16-11-.3-18-1-4.89-.49-6.36-.83-15-2-6.87-.93-12.44-1.59-16-2l-15-4q-10.32-3.54-21-7-9.6-3.11-19-6c-7.3-2.75-13.11-5.26-17-7-7.33-3.29-8.3-4.08-17-8-7.54-3.4-8.42-3.53-16-7-7.33-3.36-11.06-5.08-14-7-3.15-2.05-6.48-5.06-13-11-8.3-7.55-8.21-8-13-12-3.47-2.92-6.65-5.28-13-10-6.91-5.13-8.12-5.77-12-9s-3.86-3.6-9-8c-6.06-5.19-7.41-5.8-11-9a82,82,0,0,1-11-12c-5.78-8-10.22-14.14-13-18-4.14-5.75-6-8.38-9-12a149.91,149.91,0,0,0-11-12c-2.69-2.58-6.94-6.71-12-12-6-6.22-7.17-7.88-13-14-7.19-7.54-7.31-7.06-15-15-9.22-9.53-8.59-9.75-15-16-9.36-9.13-10.12-8.09-15-14-5.34-6.47-5.15-8.59-11-15-3.68-4-5.35-4.95-11-10-6-5.37-9.9-9.52-16-16-4.77-5.08-9.85-11.05-20-23-7.07-8.32-8-9.57-9-11-6-8.57-6-11.79-11-20-4.48-7.43-4.36-4.68-15-19-8.54-11.5-7-11.1-14-20-2.71-3.45-4.41-5.38-6-9-2.67-6.06-1.12-7.95-4-13-2.12-3.72-3.23-3.17-7-9-1.52-2.35-2.64-4.46-4-7-2.31-4.33-2.75-5.65-4-8-1.94-3.65-3.41-5.23-8-11-6.44-8.09-5.23-7.1-10-13-3.56-4.39-3.89-4.53-13-15-7.33-8.43-7.73-9-13-15-6-6.72-9-10.14-12-13-5.56-5.29-7.27-6-11-10a57.54,57.54,0,0,1-9-13,32,32,0,0,1-7-7c-1.37-1.88-3.67-5.49-6-15a92.82,92.82,0,0,1-3-24,69.29,69.29,0,0,1,2-18,55.29,55.29,0,0,1,6-15,44.59,44.59,0,0,1,12-14c5-3.71,9.67-5.14,19-8A122.41,122.41,0,0,1,1642.5,1857.5Z" transform="matrix(1, 0, 0, 1, -4961.825195, -4155.546875)" style="fill: rgb(102, 51, 102); opacity: 0.5; stroke: rgb(102, 51, 102);"/>
  <rect class="e" x="2607.5" y="3325.5" width="80.7" height="80.7" style="fill: none; opacity: 0.5; stroke: rgb(0, 0, 0);" transform="matrix(1, 0, 0, 1, -4961.325195, -4155.046875)"/>
  <rect class="c" x="2607.5" y="3446.56" width="80.7" height="80.7" style="fill: rgb(0, 0, 255); opacity: 0.5; stroke: rgb(0, 0, 255);" transform="matrix(1, 0, 0, 1, -4961.325195, -4155.046875)"/>
  <rect class="a" x="2607.5" y="3567.61" width="80.7" height="80.7" style="fill: rgb(109, 191, 191); opacity: 0.5; stroke: rgb(109, 191, 191);" transform="matrix(1, 0, 0, 1, -4961.325195, -4155.046875)"/>
  <rect class="b" x="2607.5" y="3688.67" width="80.7" height="80.7" style="fill: rgb(255, 255, 255); opacity: 0.5; stroke: rgb(255, 255, 255);" transform="matrix(1, 0, 0, 1, -4961.325195, -4155.046875)"/>
  <rect class="d" x="2607.5" y="3809.73" width="80.7" height="80.7" style="fill: rgb(102, 51, 102); opacity: 0.5; stroke: rgb(102, 51, 102);" transform="matrix(1, 0, 0, 1, -4961.325195, -4155.046875)"/>
  <rect class="g" width="1" height="1" style="fill: none; opacity: 0.5;" transform="matrix(1, 0, 0, 1, -4961.325195, -4155.046875)"/>
  <rect class="g" x="4094" y="4094" width="1" height="1" style="fill: none; opacity: 0.5;" transform="matrix(1, 0, 0, 1, -4961.325195, -4155.046875)"/>
  <line class="h" x1="1207.5" y1="1010.5" x2="1192.5" y2="999.5" style="fill: none; stroke: rgb(0, 0, 0); stroke-miterlimit: 10; stroke-width: 8px;" transform="matrix(1, 0, 0, 1, -4961.325195, -4155.046875)"/>
  <path class="h" d="M1612,627q1,12,2,24l19-1" transform="matrix(1, 0, 0, 1, -4961.825195, -4155.546875)" style="fill: none; stroke: rgb(0, 0, 0); stroke-miterlimit: 10; stroke-width: 8px;"/>
  <line class="i" x1="1728.5" y1="650.5" x2="1725.5" y2="666.5" style="fill: none; stroke: rgb(0, 0, 0); stroke-width: 8px;" transform="matrix(1, 0, 0, 1, -4961.325195, -4155.046875)"/>
  <line class="i" x1="2590.5" y1="1583.5" x2="2590.5" y2="1606.5" style="fill: none; stroke: rgb(0, 0, 0); stroke-width: 8px;" transform="matrix(1, 0, 0, 1, -4961.325195, -4155.046875)"/>
  <line class="j" x1="3617.5" y1="2802.5" x2="3663.5" y2="2743.5" style="fill: none; stroke: rgb(0, 0, 0); stroke-width: 30px;" transform="matrix(1, 0, 0, 1, -4961.325195, -4155.046875)"/>
  <circle class="k" cx="264.56" cy="481.01" r="7" style="fill: rgb(236, 230, 12); stroke: rgb(0, 0, 0); stroke-miterlimit: 10;" transform="matrix(1, 0, 0, 1, -4961.325195, -4155.046875)"/>
  <circle class="l" cx="264.56" cy="481.01" r="0.39" style="fill: rgb(145, 26, 29); stroke: rgb(0, 0, 0); stroke-miterlimit: 10;" transform="matrix(1, 0, 0, 1, -4961.325195, -4155.046875)"/>
  <circle class="k" cx="239.46" cy="512.9" r="7" style="fill: rgb(236, 230, 12); stroke: rgb(0, 0, 0); stroke-miterlimit: 10;" transform="matrix(1, 0, 0, 1, -4961.325195, -4155.046875)"/>
  <circle class="l" cx="239.46" cy="512.9" r="0.39" style="fill: rgb(145, 26, 29); stroke: rgb(0, 0, 0); stroke-miterlimit: 10;" transform="matrix(1, 0, 0, 1, -4961.325195, -4155.046875)"/>
  <circle class="k" cx="213.46" cy="547.9" r="7" style="fill: rgb(236, 230, 12); stroke: rgb(0, 0, 0); stroke-miterlimit: 10;" transform="matrix(1, 0, 0, 1, -4961.325195, -4155.046875)"/>
  <circle class="l" cx="213.46" cy="547.9" r="0.39" style="fill: rgb(145, 26, 29); stroke: rgb(0, 0, 0); stroke-miterlimit: 10;" transform="matrix(1, 0, 0, 1, -4961.325195, -4155.046875)"/>
  <text style="font-family: Arial, sans-serif; font-size: 75px; font-weight: 700; white-space: pre;" x="-2210.87" y="-768.22">Clay</text>
  <text style="font-family: Arial, sans-serif; font-size: 75px; font-weight: 700; white-space: pre;" x="-2226.094" y="-278.884">Sludge </text>
  <text style="font-family: Arial, sans-serif; font-size: 75px; font-weight: 700; white-space: pre;" x="-2216.015" y="-640.374">Pebble</text>
  <text style="font-family: Arial, sans-serif; font-size: 75px; font-weight: 700; white-space: pre;" x="-2224.816" y="-393.169">Shell</text>
  <text style="font-family: Arial, sans-serif; font-size: 75px; font-weight: 700; white-space: pre;" x="-2222.913" y="-518.596">Sand-pebble</text>
</svg>