<?xml version="1.0" encoding="utf-8"?>
<svg viewBox="-2350.606 -1786.229 4096 4096" xmlns="http://www.w3.org/2000/svg">
  <path class="a" d="M657.7,2606.3" transform="matrix(1, 0, 0, 1, -2350.106445, -1785.729248)" style="fill: none; opacity: 0.5; stroke: rgb(0, 0, 255); stroke-miterlimit: 10; stroke-width: 5px;"/>
  <path class="b" d="M975,2847.32c7.74-19.83,11.91-30.71,14-46.85,3.77-29.1-4.67-33.11,1-51.7,8.07-26.46,27.32-25.41,34-51.71,1.65-6.48.31-5.89-1.7-44.8-.79-15.25-1.44-31.86-1.3-49.79.32-41.52,4.53-47,8-49.79,9.82-7.89,25.29-3.4,37,0,7.33,2.13,51.48,15.91,58.43,49.79,2.15,10.5-2.31,23.6-11.24,49.79a410.63,410.63,0,0,1-20.41,49c-16.76,33.64-22.53,33.9-23.5,47.48-1.77,24.62,16.88,28.46,13.72,51.7-2.77,20.34-18.29,26.4-15.77,46.85,1,7.69,3.42,9,4.77,20.61.82,7.08,2.19,18.78-2,29.69-5.4,14.23-18,21.44-25.66,25.66-33.89,18.74-89.92,18.48-99.36-2.75C939.78,2908.76,953.79,2901.62,975,2847.32Z" transform="matrix(1, 0, 0, 1, -2350.106445, -1785.729248)" style="fill: rgb(0, 0, 255); opacity: 0.5; stroke: rgb(0, 0, 255); stroke-miterlimit: 10;"/>
  <path class="c" d="M1094,2453.11c23.24-15.08,31.69-39.71,33.49-44.94,4.73-13.77,1.76-16.35,4.51-49,3.61-42.84,10-53.55,2-61.79-9.25-9.53-29.77-7.55-43,0-19.19,10.95-24.66,34.51-31,61.79-6.85,29.47-1.56,33.49-9,49-15,31.34-46.12,35-44,44.94C1009.55,2465.27,1059.33,2475.59,1094,2453.11Z" transform="matrix(1, 0, 0, 1, -2350.106445, -1785.729248)" style="fill: rgb(0, 102, 0); opacity: 0.5; stroke: rgb(0, 102, 0); stroke-miterlimit: 10;"/>
  <path class="b" d="M1213,2200.34c2.93-4.53,13.74-21.47,29.11-20.68,15.81.82,24.43,19.79,24.82,20.68,9.4,21.48-6.24,43.66-9.5,48-2.27,3-20.53,26.7-43.66,22.45-10-1.85-22.3-9.2-23.75-18.9-1.12-7.51,5.27-9.95,13.79-28.59C1210.18,2209.41,1208,2208.06,1213,2200.34Z" transform="matrix(1, 0, 0, 1, -2350.106445, -1785.729248)" style="fill: rgb(0, 0, 255); opacity: 0.5; stroke: rgb(0, 0, 255); stroke-miterlimit: 10;"/>
  <path class="b" d="M1325,2093.62c13-14,14.34-33.09,19.61-46.63,14-36,59.74-41.87,56.84-51.42-2-6.61-25.58-9.42-43.66,0-8.9,4.63-9.4,8.54-33.79,49-12.59,20.89-22.78,37-18.25,49,.56,1.47,2.31,6.1,6.08,7.15C1316.91,2102.17,1322.59,2096.21,1325,2093.62Z" transform="matrix(1, 0, 0, 1, -2350.106445, -1785.729248)" style="fill: rgb(0, 0, 255); opacity: 0.5; stroke: rgb(0, 0, 255); stroke-miterlimit: 10;"/>
  <path class="b" d="M1709.87,1930c3.1-7.41,10.08-10.33,19.92-15.07,10.49-5.05,20.27-11.55,30.89-16.34,32.27-14.54,28.6-43.91,63.58-67.4,3.75-2.52,33.43-21.85,71-16.85,11.37,1.51,31.86,4.24,45.34,20.93,17.24,21.36,16.26,57.25,0,70.77-9.59,8-17.29,2.19-45.06,5.32-28.92,3.26-27,10.24-71,20.68-37.59,8.92-40.08,4.07-63.57,11.74-7.91,2.59-15.57,3.43-30.9,5.11-10.32,1.13-15.55,1.13-18.82-2.32C1707.29,1942.39,1707.78,1935,1709.87,1930Z" transform="matrix(1, 0, 0, 1, -2350.106445, -1785.729248)" style="fill: rgb(0, 0, 255); opacity: 0.5; stroke: rgb(0, 0, 255); stroke-miterlimit: 10;"/>
  <path class="b" d="M2355.83,1435.65c11.44-12.22,4.4-18.51,21.17-47.5,16.13-27.89,26.05-27.92,31.68-47.5,7-24.27-6.39-30.64.77-51.81,6.87-20.32,20.42-18.09,44.42-48.24,8.08-10.15,20.87-26.52,28.34-50.31,7.94-25.27.61-29.45,9.19-50.3,11.14-27,29.5-34.63,25.48-45.72-3.57-9.86-21.16-12.38-30-12.43-11.07-.06-20.22,3.72-34.55,12.45-18.73,11.43-36.7,22.38-56.68,45.69-18.19,21.22-12.8,23.23-33.7,50.31-16.91,21.91-20.45,20.6-46,50.3-21.18,24.66-17.44,24-38.3,48.25-25.19,29.26-32.44,32.23-43.66,51.8-8.81,15.37-16.72,29.16-15.32,47.51,2.09,27.16,23.07,44.42,26.81,47.5C2278.25,1462.55,2332.8,1460.25,2355.83,1435.65Z" transform="matrix(1, 0, 0, 1, -2350.106445, -1785.729248)" style="fill: rgb(0, 0, 255); opacity: 0.5; stroke: rgb(0, 0, 255); stroke-miterlimit: 10;"/>
  <path class="d" d="M2742,952.72c3.66-4.71,2.54-13.81-2.17-17.74-3.16-2.64-5.58-1-23.23.76-12.2,1.21-16.41,1-21.58,4.6-2,1.4-6.13,4.33-6.76,9.19s2.48,10.29,6.76,12.51c5.89,3.05,10-2,24.64-4.85C2733.34,954.51,2738.55,957.17,2742,952.72Z" transform="matrix(1, 0, 0, 1, -2350.106445, -1785.729248)" style="fill: rgb(255, 255, 255); opacity: 0.5; stroke: rgb(255, 255, 255); stroke-miterlimit: 10;"/>
  <path class="d" d="M2268,1627.77c.45-9.42.87-18.21,7.4-21.81,6.16-3.4,15.86-1.16,18.39,3.83,1.75,3.47-1.34,5.55-3.83,18-1.52,7.6-.89,9.43-3.07,11.88-3.74,4.22-11.79,5.78-16.08,2.3C2267.45,1639.24,2267.68,1634.48,2268,1627.77Z" transform="matrix(1, 0, 0, 1, -2350.106445, -1785.729248)" style="fill: rgb(255, 255, 255); opacity: 0.5; stroke: rgb(255, 255, 255); stroke-miterlimit: 10;"/>
  <path class="d" d="M1938,1786.39c-4.54,0-11-2.24-12.59-6.56-2.33-6.38,6.62-15.47,15.2-18.83,2.37-.93,11.94-4.68,17,.45,4.57,4.66,2.87,14.07-1.53,18.38-1.91,1.87-4.59,2.78-10,4.6C1942.17,1785.74,1940.23,1786.39,1938,1786.39Z" transform="matrix(1, 0, 0, 1, -2350.106445, -1785.729248)" style="fill: rgb(255, 255, 255); opacity: 0.5; stroke: rgb(255, 255, 255); stroke-miterlimit: 10;"/>
  <path class="e" d="M1985.86,1798.47c2.61,6.63,23.52,57.79,66.91,65.87,19.79,3.69,27-4.81,99.05-37.28,50.91-22.92,57.87-23.43,84.77-38.8,36.12-20.64,74.1-42.35,71-61.79-3.56-22.24-57.53-20.53-63.83-49.35-4.48-20.55,18.7-40.78,11.24-49.34-4.24-4.87-15-3.11-22,0-19.13,8.59-16.23,31-33.19,49.34-6.06,6.54-11.37,9-48,20.75-57.08,18.32-85.62,27.47-99,28.09-39.94,1.82-54.15-11-66.91.51C1965.39,1744.89,1984.08,1793.94,1985.86,1798.47Z" transform="matrix(1, 0, 0, 1, -2350.106445, -1785.729248)" style="fill: rgb(255, 102, 0); opacity: 0.5; stroke: rgb(255, 102, 0); stroke-miterlimit: 10;"/>
  <path class="f" d="M1833.75,1435.89c19.7-22.1,71-27,93.45,0,15.44,18.57,10.58,44.17,10,47.25-2.5,12.24-7.68,17.41-32.93,47.24-35.29,41.7-37.33,46-48.26,51.07-4.81,2.24-37.72,17-58.21,0-15.09-12.49-16-36-12.26-51.07,5.11-20.41,17.64-20.47,31.41-47.24C1830.51,1456.69,1822.5,1448.51,1833.75,1435.89Z" transform="matrix(1, 0, 0, 1, -2350.106445, -1785.729248)" style="fill: rgb(102, 51, 102); opacity: 0.5; stroke: rgb(102, 51, 102); stroke-miterlimit: 10;"/>
  <path class="c" d="M1769.87,1581.45c-37-33.32-111.46-28.2-124.08,0-6,13.38,1.65,32.6,7.66,42.5a54.34,54.34,0,0,0,20.68,20.31c2.47,1.32,7.64,3.82,32.93,6.12,26.16,2.39,38.39,1.33,43.66.77,17.27-1.85,22.71-5.11,25.28-6.89,1.38-1,11.9-8.46,14.55-20.31C1795,1604.06,1774.3,1585.43,1769.87,1581.45Z" transform="matrix(1, 0, 0, 1, -2350.106445, -1785.729248)" style="fill: rgb(0, 102, 0); opacity: 0.5; stroke: rgb(0, 102, 0); stroke-miterlimit: 10;"/>
  <path class="c" d="M1966,1483.15c-2.35-18.4-1.61-38.9-3.58-47.5-5.83-25.5-51.74-18.15-64.85-47.62-8.57-19.28,2.53-41.62,8.68-54,2.34-4.7,17.65-34.49,48-45.2,8.85-3.12,12.24-2.24,30.13-8.16,10.28-3.4,17.63-6.49,30.13-11.74,15.88-6.68,24-10.11,30.13-14.3,5.3-3.6,13.69-9.3,20.93-19.41,11.94-16.65,13.59-35.28,14.81-49,.88-9.86-.21-9.78,1-17.87,1.56-10.23,4.63-18.19,10.73-33.7,3.68-9.39,5.59-14.19,8.68-19.41,5.19-8.78,9.8-16.56,17.87-18.89,8.75-2.52,17.25,2.63,19.66,4.09,26.32,16,15.28,57.11,34.47,65.36,14.66,6.3,27.76-14.87,46.34-10.22,20.88,5.24,37.16,33,31.78,48.52a24.19,24.19,0,0,1-5.61,8.68c-4.64,4.32-8.89,4.18-21.45,7.14-10.4,2.46-8.59,2.81-20.43,5.62-9.77,2.32-10,1.84-19.4,4.09-10.63,2.53-10.77,3.22-20.94,5.61-8.26,2-15.6,3.24-20.42,4.09-14,2.46-15.9,2.14-20.43,4.32-3.89,1.87-4.64,3.15-13.78,11.51-7.66,7-15.69,13.59-23.49,20.42-15.29,13.38-14.72,12.81-15.19,13.27-18.06,17.62-23.16,41.34-24.42,47.21-4,18.74,0,26.59-3.8,52a135,135,0,0,1-5.1,21.84c-2.5,7.7-4,11.14-5.11,13.28a75.56,75.56,0,0,1-8.68,12.5c-5.1,6.33-6.12,6.43-10.21,11.5s-7.59,9.39-10.22,15.83c-3.25,8-2.28,12.15-7.15,20.17-1.57,2.59-2.38,3.92-4.08,5.36-6.4,5.41-17.69,5.7-22.47.51A10.62,10.62,0,0,1,1966,1483.15Z" transform="matrix(1, 0, 0, 1, -2350.106445, -1785.729248)" style="fill: rgb(0, 102, 0); opacity: 0.5; stroke: rgb(0, 102, 0); stroke-miterlimit: 10;"/>
  <path class="b" d="M2695,926.55c15.32.66,17.26-3.25,44.8-8.42,24.33-4.57,40.92-7.68,60.5-4.6,15.4,2.43,25.93,7.75,47,18.38,38.54,19.47,45,31.6,58.2,28.09,16-4.26,25.85-27.34,25.55-45.7-.4-25.17-19.84-41.24-25.55-46-16.34-13.51-24.16-8.36-58.19-23.74-31.41-14.2-30.67-21.26-47-23-16.16-1.71-30.94,5.24-60.5,19.15-17.11,8.05-14.78,8.49-44.8,23.74-26.8,13.62-40.19,20.42-44.8,21.45,0,0-13.82,3.07-39.85,16.34-1,.48-3.05,1.63-3.4,3.57a4.83,4.83,0,0,0,.95,3.33c3.38,5,32.48,6.14,44,7.23C2676.17,918.72,2674.73,925.68,2695,926.55Z" transform="matrix(1, 0, 0, 1, -2350.106445, -1785.729248)" style="fill: rgb(0, 0, 255); opacity: 0.5; stroke: rgb(0, 0, 255); stroke-miterlimit: 10;"/>
  <path class="f" d="M2952,795.32c15.74,10.84,23.95,16.49,36.77,17.62,14.93,1.31,14.41-5.45,32.68-5.62,19.3-.19,30.11,7.25,34.93,1.54,2.72-3.22,2.27-9.1,0-12.52-2.08-3.15-4.61-2.55-12.22-6.13a68.11,68.11,0,0,1-15.32-10c-3.29-2.78-5.16-4.37-7.25-7.17-4.67-6.25-4.73-11-7.3-11.22s-3.22,4-8.17,7.15c-3.15,2-6.05,2.33-10.73,2.81-7.41.75-9.47-.45-20.93-1-4-.2-.83.09-15.32,0-7.46,0-9.66-.13-12,1.53-3.51,2.49-5.18,7.39-4.6,11.49C2943.27,788.84,2947.27,792.06,2952,795.32Z" transform="matrix(1, 0, 0, 1, -2350.106445, -1785.729248)" style="fill: rgb(102, 51, 102); opacity: 0.5; stroke: rgb(102, 51, 102); stroke-miterlimit: 10;"/>
  <path class="e" d="M3216,880.58c-26-15.06-37.39-4-92.63-23-17.11-5.86-19.69-8.18-32.19-10.73-12.71-2.59-42.07-8.58-69.58,5.37-12.92,6.55-19.68,14.58-33.18,30.63-13,15.42-29.36,34.9-36.39,65.11-2.82,12.12-7.08,31.54,0,54.38,2.23,7.19,12.21,39.39,36.38,46.73,10.16,3.08,15-.59,33.19,3.83,2.84.69,10,2.55,24.39,9a300.83,300.83,0,0,1,57.44,33.87c12.36,9.38,19.84,15.06,28.34,25.26,15.06,18.07,9.81,23.29,20.69,35,18.83,20.26,39,10.33,59.94,31.85,9.8,10,5.26,12.07,16.63,27.38,23.89,32.16,48.92,30,52,48,2.52,14.7-13.9,17.77-26.2,51.07-8.23,22.28-2.26,24.63-10.46,45-12.1,30-27.07,29.77-29.86,50.51-2.5,18.66,9.33,21,12.24,50.57,2.47,25-5.66,26.32-3.06,49,3.12,27.18,15.2,28.93,19.34,57.19,1.16,7.89,4.12,29.93-5.55,52.09-3.8,8.69-9.89,18.2-45.19,46-42.11,33.11-51,33.36-65.88,51.06-8.5,10.08-14.76,26.72-28.34,59.17-11.32,27-11,30.93-19.91,49.34-16.89,34.83-29.93,45.41-26.58,49.34,5.55,6.54,49.89-12.95,80.19-49.35,9.22-11.06,16.36-23.82,30.64-49.33,20.2-36.07,17.9-39.32,31.41-59.18,13.75-20.22,16.51-17.42,42.89-51.06,16.26-20.73,24.52-31.4,30.64-46,3.95-9.39,11.59-28.11,10.72-52.08-1.18-32.64-16.81-37.8-12-57.19,5.83-23.7,30.35-20.93,41-49,5.21-13.73-.76-14.12,2.45-53.06,2.29-27.84,5.39-28.24,5.56-48,.23-28.26-6.07-29.93-3-48,3.31-19.56,11.1-19.93,19.61-45.51,2.33-7,4.41-21.59,8.49-50.5,6.18-43.92,6.46-51.08,6.12-59.23-1-24.9-6.44-24.79-6.64-41.37-.54-46.48,41.8-64.92,33.31-88.75-6-16.76-27.51-9.29-60.81-34.75-11.62-8.88-12.12-12.18-46.76-54.42C3236.52,901.7,3222.13,884.15,3216,880.58Z" transform="matrix(1, 0, 0, 1, -2350.106445, -1785.729248)" style="fill: rgb(255, 102, 0); opacity: 0.5; stroke: rgb(255, 102, 0); stroke-miterlimit: 10;"/>
  <path class="f" d="M3281.87,920.09c-10.27-19.21-17.6-32.93-11.8-45.89,4.12-9.21,14.56-17.31,23.29-15.82,7.27,1.25,8.38,8.28,22.27,27.64,13.22,18.43,15,16,21.17,27.29,9.6,17.69,4.28,22.07,14,34.44A182.71,182.71,0,0,0,3370,967.91c6.46,5.89,10.06,8.34,9.95,12.26-.16,5.93-8.69,11.56-16.22,12.9-6.37,1.13-15-.27-35.61-18C3313.76,962.74,3296.59,947.65,3281.87,920.09Z" transform="matrix(1, 0, 0, 1, -2350.106445, -1785.729248)" style="fill: rgb(102, 51, 102); opacity: 0.5; stroke: rgb(102, 51, 102); stroke-miterlimit: 10;"/>
  <path class="e" d="M3132,1618.72c6.67,7.6-8.4,32.29-18.66,46-23.51,31.34-38.27,26.8-52.08,51.06-5.86,10.28-8.5,26.58-13.79,59.17-5.81,35.82-3,38.39-7.66,49.34-7.61,18.07-22.65,28.94-65.11,49.35-49.87,24-65.25,26.34-116.42,49.34-57.89,26-72.16,38.24-79.66,45.32-16.5,15.54-16.12,21.1-42.9,49-23.59,24.59-25.14,21.59-52.85,49-31.79,31.47-47.53,53-55.15,49-3.69-1.94-4-9.14-3.83-12.26.43-6.36,4.15-10.39,11.49-19.15,13.29-15.83-15.35,17,14.35-17.61,20.9-24.35,21.31-24.56,24.72-29.11,10.56-14.08,8.37-14.39,14.35-19.91,9.34-8.63,15.46-8.59,23.18-18.39,4.45-5.65,3.72-7.31,8.43-13.78,5.07-7,9.32-9.51,18.38-16.85,20.73-16.81,17.41-18,26.81-23,10.07-5.36,13.3-3.68,24.51-10.73a72.2,72.2,0,0,0,14.55-11.61c8.79-9.2,7-12.52,13.79-19,8.34-8,12.57-4.42,24.51-13,3.75-2.7,8.12-7.56,16.85-17.29,14.7-16.38,13-16.45,19.15-21.77,7.55-6.51,8.89-5.35,23.74-16.85,8.23-6.37,11.25-9.39,12.55-10.73,6-6.18,6.9-8.86,12-13.78,5.65-5.48,9.59-7,15.32-10.73,5.54-3.57,7.85-6,23-21.44,29.83-30.43,30.43-30.74,33.7-35.24,8.23-11.27,7.42-13.3,16.09-23.74,6.67-8,9.35-9.48,20.17-21.19,12.33-13.35,10.32-13.07,18.13-20.94,13.9-14,16.65-11.27,30-25.15,9.81-10.2,14.71-15.3,19-21.57,3.61-5.26,5.61-9.14,10.6-11.75C3119.17,1615.63,3128.52,1614.73,3132,1618.72Z" transform="matrix(1, 0, 0, 1, -2350.106445, -1785.729248)" style="fill: rgb(255, 102, 0); opacity: 0.5; stroke: rgb(255, 102, 0); stroke-miterlimit: 10;"/>
  <path class="d" d="M3010.73,1873.61c1.51-2.72,5.66-10.22,3.82-11.82-2-1.75-9.42,4.93-19.91,11.82-23.55,15.47-38.86,16.44-38.3,20.35.6,4.18,18.94,8.28,33.7,1.53C3001.51,1890.24,3007.1,1880.15,3010.73,1873.61Z" transform="matrix(1, 0, 0, 1, -2350.106445, -1785.729248)" style="fill: rgb(255, 255, 255); opacity: 0.5; stroke: rgb(255, 255, 255); stroke-miterlimit: 10;"/>
  <path class="e" d="M2699.74,2591c13.72-8.18,5.52-43.13,4.26-48.53-4.65-19.84-10.22-20.09-15.74-41.46-5.14-19.84-.74-21.19-5.37-41.47-5.63-24.69-12.74-25.29-18.83-49.56-3.45-13.76-7.65-30.51-3.06-49.54,6.69-27.75,27.91-43.16,23.13-49-2.26-2.77-8.67-1.35-12.13,0-17.67,6.92-20.88,36.47-22.25,49-.6,5.53-1.56,17.61,3.07,49.55,3,21,5,22.43,9.39,49.55,3.89,24.16,2.52,24.32,5.67,38.3,5.95,26.41,10.7,25.23,13.48,43.36,4.21,27.42-4.59,43.7,4.6,49.79C2690,2593.68,2695.92,2593.27,2699.74,2591Z" transform="matrix(1, 0, 0, 1, -2350.106445, -1785.729248)" style="fill: rgb(255, 102, 0); opacity: 0.5; stroke: rgb(255, 102, 0); stroke-miterlimit: 10;"/>
  <path class="e" d="M2629.28,2360.42c-1.35-2.72-9.61-19.4-24.51-19.91-12.23-.41-22.78,10.27-26.05,19.92a36.87,36.87,0,0,0-1.53,12.25c0,6.15,1.26,8.44,3.07,17.62,2,10.42,3.07,15.64,2.29,19.67-1.68,8.75-6.62,9.3-6.89,17.09-.24,6.91,3.43,12.71,4.6,14.56,4.25,6.72,8,6.6,9.19,11.49,1,4.13-1.2,6.13-3.52,13.78-.89,2.92-3.73,12.31-2.61,19.15,1.35,8.25,8,9.86,18.38,19.92,17.44,16.86,14.59,27.59,30.3,36.51,3,1.7,14.37,8.15,19.49,4.08,5.61-4.46-1.32-17.55-6.89-46.72-3.07-16.06-1.09-12.75-5.37-41.36-5.66-37.93-7.84-35.09-8.42-50.56C2629.82,2381.52,2636.23,2374.47,2629.28,2360.42Z" transform="matrix(1, 0, 0, 1, -2350.106445, -1785.729248)" style="fill: rgb(255, 102, 0); opacity: 0.5; stroke: rgb(255, 102, 0); stroke-miterlimit: 10;"/>
  <rect class="g" width="1" height="1" style="fill: none; opacity: 0.5;" transform="matrix(1, 0, 0, 1, -2350.606445, -1786.229248)"/>
  <rect class="g" x="4095" y="4095" width="1" height="1" style="fill: none; opacity: 0.5;" transform="matrix(1, 0, 0, 1, -2350.606445, -1786.229248)"/>
  <path class="h" d="M1617.7,1570.72a65.31,65.31,0,0,1-6.89-22.72c-1.71-15.49,2.7-27.43,5.1-33.7a88.18,88.18,0,0,1,12-21.19c4.16-5.72,8.39-10.11,16.86-18.9,8.24-8.56,8.81-8.51,16.08-16.08,6.62-6.9,6.72-7.54,18.38-20.43,9.74-10.76,14.72-16.24,19.92-20.93a122.85,122.85,0,0,1,18.38-14.3c5.17-3.23,6-3.14,14.56-8.17a186.2,186.2,0,0,0,16.85-10.73c5.28-3.86,4.68-4,16.85-14,6.3-5.19,9.53-7.84,13.53-10.72,1.53-1.11,2.89-2,14.3-9.45,11.16-7.24,11.49-7.4,14.55-9.45,4.29-2.87,6.89-4.73,16.6-11.74,21.94-15.85,21.4-15.52,23.74-17.11,8.93-6.06,16.49-10.66,22.47-14.29,13.3-8.09,12.28-6.82,18.38-11,7.21-4.92,9.75-7.45,15.83-9.7,1.56-.58,3.73-1.28,13.53-2.81,11.14-1.75,13.74-1.69,21.19-2.81,7.76-1.17,6.59-1.48,23.24-4.85,16.06-3.25,16.59-2.85,21.45-4.6,7.05-2.54,6.7-3.67,18.63-9.19,9.19-4.25,9.77-3.75,18.64-7.92,9.45-4.43,14.18-6.64,18.9-10.72a52.61,52.61,0,0,0,12.25-15.83c5.17-9.73,6.32-18.45,7.15-25.27,1.28-10.46-.46-10.56.51-22a126.85,126.85,0,0,1,5.87-28.09,126.1,126.1,0,0,1,26-48,161.8,161.8,0,0,1,13.78-14.3c9.21-8.49,16.91-13.73,26.81-20.42,10.55-7.13,15.83-10.69,23.24-14,8.66-3.93,8.59-2.54,21.7-7.92,11.48-4.71,13.46-6.57,23-9.7,5.32-1.75,4.12-1,15.83-4.34,10.06-2.89,17.84-5.44,21.44-6.64,12-4,10.83-4.12,16.09-5.62s9.42-2.23,25.53-4.08c11.59-1.33,15.46-1.63,28.85-3.07,12.43-1.32,18.79-2,26.3-3.06,13.13-1.84,21.06-3.44,23-3.83a198.94,198.94,0,0,0,19.91-4.85c9.13-2.77,13.69-4.16,19.15-7.4,3.7-2.2,3.42-2.62,14.81-12S2427.12,961,2428.6,960c7.22-4.65,10.83-7,15.57-7.66,3.6-.52,6.52-.12,12.51-1.53a29.59,29.59,0,0,0,7.15-2.3c5-2.56,6.36-6.08,10.47-11.23a66.92,66.92,0,0,1,13.53-12.51c5.34-4,5.71-3.19,15.06-9.2A138.17,138.17,0,0,0,2518,904.85c2.31-1.92,5.54-4.94,12-11,7.64-7.14,7.51-7.21,8.93-8.17,5-3.3,8.07-3.43,17.37-6.38a147.81,147.81,0,0,0,15.83-5.87c10.2-4.6,10.15-6.7,20.93-12,6.48-3.19,5.74-2.06,18.64-7.66,9.63-4.19,10-4.8,17.11-7.66,2.77-1.12,7.84-2.89,17.87-6.39,12.47-4.34,14-4.8,18.64-6.63,2.38-1,7.34-3,13.53-5.88,3.27-1.53,8.42-4,14.55-7.4,10.73-6,9.79-6.92,16.6-10.21,6.47-3.13,6.79-2.07,18.38-6.64,3.67-1.45,8.77-3.48,15.06-6.64,9-4.5,9-5.61,15.58-8.43a87.47,87.47,0,0,1,15.57-4.85,115.3,115.3,0,0,1,15.83-2c7.69-.65,8.32-.29,17.36-1a126.83,126.83,0,0,0,13.54-1.53,130.53,130.53,0,0,0,13.27-3.32c10.59-3.07,10.63-3.73,18.39-5.87s7.78-1.51,17.61-4.09a125.77,125.77,0,0,0,15.83-4.85c9.22-3.64,8.63-5.06,14.81-6.89,4.1-1.22,9.34-1.43,19.66-1.79,2.91-.1,7.63-.24,15.32-.26,10.68,0,12.12.22,24,.26,15.06.05,13.26-.33,16.85,0,9.06.82,11.93,2.46,16.34.51,4.63-2,3.82-4.9,9.45-8.17,1.45-.84,7.25-4.21,14-2.81,4.82,1,7.87,3.93,11.24,7.15s3.22,4.31,8.42,10.72c4.18,5.16,6.41,7.91,10.21,10.73,3.42,2.53,6.39,3.84,11,5.87,4.05,1.79,4.16,1.48,12.26,4.6,6.85,2.63,7.3,3,10.72,4.08a73.76,73.76,0,0,0,10.47,2.3c5.75.9,10.61,1.66,16.34,1,3.72-.41,7.33-1.72,14.55-4.34,9.49-3.44,11.25-5,16.85-5.62a27.53,27.53,0,0,1,10.47.51c4.83,1.26,8.38,3.75,12.51,6.64s3.73,3.27,6.39,4.85a32.06,32.06,0,0,0,13.78,4.09c7,.72,7.49-.8,17.87-1,2.89-.07,1.94.07,14.81.51,10.83.36,11,.25,14.81.51,8.31.55,12.46.83,16.6,2,3.57,1,7.91,3.5,16.59,8.43,7.18,4.06,10.77,6.1,14.56,8.93,4.43,3.32,4.21,3.8,11,9.19a137.3,137.3,0,0,0,11.74,8.68c2.3,1.5,5.54,3.39,12,7.15,7.43,4.33,7.68,4.36,8.68,5.36,3,3,2.54,4.56,7.15,12.26a67.88,67.88,0,0,0,5.11,7.66c3.52,4.49,5.29,5.29,9.44,9.7a89.94,89.94,0,0,1,8.43,10.72,88.08,88.08,0,0,1,8.68,14.05,56.61,56.61,0,0,1,4.85,13.27c.94,4.37.62,5.79,2,10,1.29,3.79,2.06,4.08,3.58,8.43,2,5.63,1.07,6.22,2.55,8.93s2.93,3.3,9.45,7.92c6.11,4.33,9.17,6.5,10.47,7.91,4.08,4.46,2.81,6.06,7.66,13,3.8,5.47,4.87,4.91,8.68,10.47a42.22,42.22,0,0,1,6.38,12.51c1.92,6.67,0,8,1.79,16.6a40.52,40.52,0,0,0,4.08,12c2.46,4.49,3.9,4.67,10.47,12.25,5.31,6.13,8,9.31,10.47,14.3A49.55,49.55,0,0,1,3446,1058c1.66,8.29-.06,9.36,1.53,16.09.95,4,1.55,3.6,6.39,14.55,4.26,9.66,3.52,9.33,6.38,15.06,1.44,2.89,1.72,3.16,7.4,13.79,3.39,6.33,3.72,7,4.09,8.43,1.25,4.67,0,6.08,0,14.3a51.16,51.16,0,0,0,1.28,13.53c1.54,6.07,3.06,6,4.34,11.49a38.8,38.8,0,0,1,.25,14.55c-.93,7.11-2.38,7-3.83,14.81-1.4,7.56,0,7.73-1.53,16.59a134.33,134.33,0,0,1-3.32,14c-.69,2.53-1.7,6.2-3.32,11a115,115,0,0,1-5.36,13.78c-3.55,7.41-4.7,7.15-6.13,12-1,3.42-.56,4-2,10.73-1.09,5-1.63,7.45-2.55,9.44-2.27,4.91-4.78,5.06-10.47,11-2.27,2.36-1.46,1.91-11,14.81-6.4,8.67-6.64,8.71-7.66,10.72-2.15,4.27-3,8.52-4.6,16.85-2,10.65-1.26,11.2-3.06,16.6a55.39,55.39,0,0,1-6.38,13.28c-2.51,3.8-3.51,4.24-7.41,10a66.4,66.4,0,0,0-5.36,8.69c-2.83,5.73-2.07,7-4.85,11.48a22.22,22.22,0,0,1-5.87,6.9c-3.49,2.58-5,1.78-7.15,3.83-1.87,1.77-2.14,3.68-3.32,11.74-1.81,12.4-2,13.44-2.55,15.32-.81,2.73-.81,1.84-4.34,10.73-3.37,8.46-3.12,8.65-4.6,11.48a56.24,56.24,0,0,1-7.4,10.73c-4.61,5.28-5.75,4.65-9.19,8.93a40.78,40.78,0,0,0-6.9,13.28c-1.75,5.19-2.16,9.27-2.81,15.58-.44,4.37-.6,8.49-.76,12.76,0,1.05-.2,5.29-.51,10.72s-.47,6.59-1,8.17c-.9,2.58-2.17,4.36-4.34,7.41-2.79,3.9-3.42,3.85-4.6,6.13s-1.5,4.39-2,8.42c-.74,5.47-.14,6.54-1,11.75a50.42,50.42,0,0,1-1.28,5.61,46.46,46.46,0,0,1-4.85,11c-3,4.85-3.85,4.3-5.87,8.17-1.86,3.55-1.27,4.35-3.07,9.7-.8,2.38-1,2.57-6.64,14.3-3.3,6.91-3.48,7.38-4.59,9.45-1.79,3.31-3.31,5.75-5.62,9.45-4.89,7.82-4.79,7-6.38,10a55.66,55.66,0,0,0-5.11,13.54,93.41,93.41,0,0,0-1.53,12c-.23,2.42-.57,6.09-.77,11-.34,8.56.24,8.74-.51,11.49-1.12,4.14-3.27,6.83-6.38,10.73a68.17,68.17,0,0,1-9.19,9.19c-4.78,4.18-5.5,4.12-8.68,7.15a56.72,56.72,0,0,0-8.43,10.21c-1,1.57-3.43,6.68-8.17,16.85-2,4.32-3,6.54-3.57,9.19-.94,4.62.07,5.56-.51,10.47-.37,3.1-1.06,8.8-4.85,13.53-2.25,2.8-5.14,4.72-9.2,7.41-3.68,2.44-5,2.79-6.38,4.85-1.87,2.83-1,4.69-2,8.68-1,3.73-2.79,6-6.13,10.21-1.41,1.78-3.94,4.75-10.72,10.47-2.33,2-3.8,3.1-14.3,11-10.83,8.12-12.1,9-13.79,10.21-5.2,3.62-5.7,3.72-10.47,7.15-5.36,3.87-8.12,5.87-11.49,9.19a81.23,81.23,0,0,0-7.14,8.17c-4.17,5.35-3.67,5.85-6.39,8.68a26.18,26.18,0,0,1-10.47,7.15c-3.74,1.29-4.64.46-7.91,1.53-4,1.32-6.56,3.87-10.47,8.43-8.42,9.82-9.1,12.6-15.57,19.91-2.85,3.23-5.31,5.56-10.22,10.22-5.93,5.63-9.38,8.91-14.55,12.76a122.75,122.75,0,0,1-15.32,9.71c-6.44,3.43-7.81,3.41-12.76,6.63s-4.54,3.81-10.47,7.92c-7.09,4.91-8.32,4.51-11.49,7.66-1.91,1.89-2.28,2.84-6.89,11-6.56,11.57-6.1,10.15-9.71,16.85-5.23,9.7-4.52,9.53-7.15,13.53a62.06,62.06,0,0,1-12,13.79c-6.25,5.24-7.52,3.86-17.87,10.46-4.27,2.73-3.16,2.4-17.36,12.77-6.77,4.94-10.21,7.45-13,9.19-8.07,5-8.92,4.2-16.09,8.68a105.49,105.49,0,0,0-15.83,12.26,116,116,0,0,0-9.44,9.7,121.93,121.93,0,0,0-9.19,12.26c-4.61,7-4.29,7.91-7.66,12a49.19,49.19,0,0,1-8.94,8.42c-5,3.61-7.78,4.13-13.53,6.9-4.63,2.22-9,5.31-17.87,11.48-8.63,6-12.95,9.06-17.37,13.28-3.74,3.58-3.63,4.08-12,12.51-6.2,6.25-9,8.71-13.27,9.7-2.5.58-3.8.27-5.62,1.54-3.07,2.14-2.23,5-4.6,10.46-1.13,2.6-4.22,9.69-10.72,13-2.51,1.28-4.5,1.48-5.62,3.57-1.28,2.39.34,4-.51,6.89-1.09,3.75-4.4,3.33-6.89,7.15s0,5.8-2,12.26a22.91,22.91,0,0,1-6.64,10.47c-2.8,2.39-3.84,1.86-8.68,5.36a29.93,29.93,0,0,0-6.38,5.61c-1.55,1.93-3.33,4.86-4.6,10.47-.92,4.06-1.17,7.8-.51,19.15.61,10.57.92,15.85,1.53,21.7s1.06,8.62.26,12.77c-.9,4.63-2.24,5.4-3.07,10.47-.64,4-.4,7,0,11.74.54,6.27,1.22,7.44,1.79,12.26,1.48,12.53-2.08,13.51.25,20.93.44,1.39,2.42,5.36,6.39,13.28,2.15,4.3,3.59,7,2.55,9.7-1.13,2.94-4.15,3.06-4.34,5.36-.22,2.72,3.94,3.26,5.62,7.41,1.6,4-1.37,5.5-.51,11.23.69,4.64,2.77,4.54,4.08,10.22.56,2.43,1.47,6.36,0,10.46-1.67,4.68-4.64,4.6-5.36,8.17-.75,3.73,2.11,5.57,5.11,12,2.07,4.46,2.74,8.17,4.08,15.58,1.75,9.67.5,10.55,2.3,17.1,2.36,8.62,4.54,7.18,5.87,13.79,1.9,9.43-2.29,13.52,1,22.47,1,2.68,1.3,2.13,3.07,6.38,2.13,5.15,2,6.83,4.34,14.56a60.65,60.65,0,0,0,5.1,13c2.15,3.86,3.38,4.86,4.09,5.36,3.39,2.4,6,1.08,10,2.81,2,.85,2.67,1.76,7.4,7.15,1.79,2,7.38,8.41,10.72,12a85.67,85.67,0,0,0,10,9.7c7.53,6,9.93,4.78,17.11,10.21,5.27,4,3.77,4.47,12.25,12.51,8.1,7.67,9.49,7.26,14.81,13.28a64.68,64.68,0,0,1,8.94,12.76c1.89,3.63,3.69,7.08,4.59,11.75,2.13,10.92-3,16.07.26,19.91,1.75,2,6.46,2,15.83,1.79,9.56-.2,11.26-1.19,17.62-.51,4.73.51,8.49.91,12.51,3.32s4.64,4.54,9.95,10.47c4.08,4.54,4,3.62,10.22,10,10.39,10.54,9.8,12.2,16.59,17.61,4.92,3.92,6,3.68,10.22,7.66s5,6.07,8.93,8.17c4.18,2.25,5.13.88,8.68,3.07,2.81,1.73,2.72,2.9,8.17,9.44,3.42,4.11,6.26,7,7.15,7.92,3.67,3.71,4.21,3.73,7.92,7.4s3.75,4.29,8.17,8.94c1.18,1.24,1.56,1.61,9.7,9.44,8.34,8,8.79,8.48,10.21,9.45,5.2,3.56,6.43,2.65,10.72,6.13,3.3,2.66,5.25,5.35,7.66,8.68a74.72,74.72,0,0,1,6.13,10.21c1.69,3.23,3.19,6.71,6.13,13.53,3.17,7.37,3,7.35,4.6,10.73,2.34,5,4.36,8.76,6.12,12,1.44,2.64,3.69,6.66,6.64,11.49,1.79,2.92,2.13,3.36,6.9,10.72,7.42,11.48,8.43,13.27,9.19,16.34.2.84.09.56,1,10.21,1,10.44,1.07,10.12,1.27,13,.53,7.34,0,7.46.26,17.61a117.24,117.24,0,0,0,1.28,16.85c1,6.15,1.49,9.22,3.32,13,2.76,5.77,6.57,9.14,11,13a73.13,73.13,0,0,0,14.3,9.7,88.43,88.43,0,0,0,14.56,6.38c5.5,1.79,9.74,2.51,17.61,3.83,8.44,1.42,7.64.82,12.26,1.79,5.45,1.14,10.52,3.07,20.42,6.89,1.91.74,7.54,2.92,15.07,6.13,3.84,1.64,8,3.42,13.27,5.87,14.46,6.76,15.22,8.44,21.71,10,5.11,1.2,4.49.12,14,1.79a88.79,88.79,0,0,1,15.06,3.57c7,2.41,6.62,3.5,13.28,5.62a65.94,65.94,0,0,0,13.79,2.81c4.89.44,5-.12,11.74.25a64.74,64.74,0,0,1,12.77,1.53,53,53,0,0,1,12.51,4.85c5.17,2.84,5.57,4.25,10.21,6.13a36.09,36.09,0,0,0,9.19,2.3c3.56.5,5,.29,14.81,0,7-.21,10.5-.31,13.79-.26,7.7.13,7.74.64,11.23.26,5.42-.6,6.78-2,12.77-3.32,4.12-.91,7.08-1,13-1.28,10.22-.41,11.4.64,22.47.52,9.63-.11,9.18-.91,15.57-.52,7.74.48,9.2,1.71,14.55,1,2-.25,5.6-1.45,12.77-3.83,9.09-3,9-3.25,11.74-3.83,3.87-.84,7.23-1,13.79-1.28,9-.38,8.65.15,13.53-.26,4.2-.34,8.56-1.34,17.11-3.31,8.21-1.91,12.32-2.86,16.09-4.09,8.34-2.73,9.11-4.07,17.1-6.38a120.58,120.58,0,0,1,12.51-2.81c1.6-.3,7.55-1.38,16.6-2.3,7.93-.8,8.66-.51,13.53-1,9.16-1,16.15-3.11,30.13-7.4,3.63-1.12,9-2.79,16.08-5.37,5.43-2,7.35-2.86,17.36-6.63,9.68-3.65,11.5-4.19,13-4.6a114.9,114.9,0,0,1,14.29-2.81c8.56-1.25,8.37-.52,12.26-1.53,1.7-.44,4.12-1.2,14.81-7.15,4.48-2.5,5.85-3.36,13.78-7.91,10.25-5.89,11.73-6.6,14.05-7.41,3.24-1.12,6.41-1.68,12.76-2.81,9.73-1.72,9.29-.94,13.28-2,7.87-2.17,8.18-4.81,16.6-7.66,5.46-1.85,6.46-1.12,14-2.81,7.29-1.62,9.91-3.09,18.64-6.13,17.4-6.06,17.12-3.76,30.63-8.93,11-4.19,12.19-6.1,20.18-7.66,7-1.37,9.26-.51,15.57-2.55,5.9-1.92,8.69-4.21,15.57-8.43a205.37,205.37,0,0,1,19.92-10.72" transform="matrix(1, 0, 0, 1, -2350.106445, -1785.729248)" style="fill: none; opacity: 0.5; stroke: rgb(255, 0, 0); stroke-miterlimit: 10; stroke-width: 5px;"/>
  <path class="h" d="M950.81,2493.62a82,82,0,0,1-8.17,17.36c-3.85,6.14-6,7.66-10.21,15a137.3,137.3,0,0,0-6.47,13.27c-3.93,8.72-6.25,15.11-6.81,16.68a97.9,97.9,0,0,0-4.09,12.94c-.89,4.12-1,6.51-1.7,16.68-.73,10.93-1.1,16.4-1.36,19.41-.62,7-1.51,15-2,19.74-1,8.49-1.27,10.45-1,14.3.37,6,1.47,6.7,1.36,11.91-.1,4.65-1,5-2,12.94-.78,5.86-.29,5.7-1,11.23a97.62,97.62,0,0,1-3.06,14.64,136.14,136.14,0,0,1-5.11,13.28c-2.87,6.9-3.75,8.61-7.83,18-3.17,7.36-4.76,11-6.12,14.64-1.77,4.67-3,8.56-5.45,16.34-3.19,10.11-4.78,15.16-5.79,19.74-.92,4.23-.47,3.17-2.72,17-1.33,8.19-2.53,14.94-3.41,19.74-1.38,7.58-2.48,13.11-2.72,14.3-1.37,6.86-1.34,6.27-3.06,14.64-2.51,12.22-2.51,13.18-3.75,16.34a47.31,47.31,0,0,1-6.47,11.57c-3.16,4.07-4.26,4-10.21,10.21a97.08,97.08,0,0,0-8.17,9.54,80.88,80.88,0,0,0-8.17,13.61,78.14,78.14,0,0,0-5.1,15c-1.35,5.44-1.06,6.23-2.73,16.68-1.44,9-2.81,15.64-4.08,21.79-1.78,8.59-2.67,12.88-3.75,16-1.87,5.42-3.16,7.2-4.08,12.26-1.07,5.81.1,6.39-1,10.89-.86,3.4-2.84,6.46-6.81,12.59a143.49,143.49,0,0,1-8.85,12.26c-1.2,1.47-3.54,4.06-8.17,9.19-7.88,8.71-8.78,9.53-10.22,10.55-2.36,1.69-2.85,1.56-11.23,5.45-5.28,2.45-9,4.32-14,6.81-7.83,3.93-11.74,5.9-15.32,8.17-3.36,2.14-3,2.2-11.57,8.17-5.67,4-8.5,5.94-10.56,7.15-4.52,2.67-5.47,2.62-16.34,7.49-8.66,3.88-13,5.87-16,8.17s-2.79,2.87-9.87,9.87c-5.54,5.49-8.31,8.23-10.55,9.87-5.8,4.26-8.59,3.81-21.45,8.51-6.65,2.44-4.15,1.92-18.72,7.83-10.5,4.26-15.88,6.44-22.47,8.51-6.41,2-6.6,1.72-15.32,4.43-6.17,1.92-8,2.68-16.34,5.45-9.2,3.06-9.08,2.84-18,5.78-11.63,3.82-17.45,5.73-24.17,8.52-5.19,2.14-4.36,2.06-18,8.51-8.39,3.94-16.26,7.65-26.22,11.91-6.69,2.86-5.58,2.24-19.06,7.83-7.08,2.94-13.53,5.62-21.79,9.19-11.79,5.11-12.87,5.81-21.1,9.19-7.67,3.15-11.61,4.76-17,6.47-8.43,2.67-8.94,2-18.38,4.77a168.76,168.76,0,0,0-20.76,7.49c-1.61.71-1.65.76-14.3,7.15-9.54,4.8-14.34,7.23-16.34,8.17-9.61,4.5-17.48,7.55-19.07,8.17-10.48,4-10.84,3.43-16.34,6.12-7.62,3.74-8,5.42-14.64,8.51-6.89,3.2-9.2,2.65-17,5.11-3.1,1-4.93,1.76-23.15,11.23-14,7.28-21,11-24.17,12.94-9.79,6.2-8.82,7-18.72,12.94-2,1.22-3.69,2.15-19.06,10.55L162,3318.47" transform="matrix(1, 0, 0, 1, -2350.106445, -1785.729248)" style="fill: none; opacity: 0.5; stroke: rgb(255, 0, 0); stroke-miterlimit: 10; stroke-width: 5px;"/>
  <path class="h" d="M1136.43,2843.74a196.6,196.6,0,0,0-2.3,21.45c-.46,8.76,0,11.49-.85,19.58a117.81,117.81,0,0,1-3.07,17.7c-3,11.73-5.28,12.28-6.12,19.74-.44,3.8.05,4.56,2,19.07,1.74,12.71,2.61,19.07,2.72,24.17.18,8.44.31,14.81-2,22.81-1.51,5.14-3.5,9.08-6.13,19.06-.72,2.74-1.2,4.56-1.7,7.15-1.72,8.85-.75,11.47-1.7,19.4a86.32,86.32,0,0,1-4.43,18.39c-1.92,5.62-2.43,5.46-5.11,12.59-2.73,7.29-3,9.73-5.78,18.38-1.56,4.93-3.42,10-7.15,20.09-2.94,7.95-3.42,9-8.51,22.47s-7.66,20.23-8.85,24.17c-2,6.44-3.24,12.12-5.79,23.49-2.38,10.61-3.57,15.92-4.77,23.49-1.29,8.21-2.45,15.77-2.38,25.87,0,6,.1,10.28,1.36,16,1.43,6.47,3.6,11.13,6.81,18,3.85,8.29,4.29,7.46,7.83,15.32,3.21,7.12,5.58,13.86,6.81,17.36,2.57,7.35,2.2,7.36,3.74,10.9,2.38,5.46,3.77,6.59,8.17,14.29s6.66,11.63,7.15,14.3c1.56,8.46-2.42,13.18,1,17.36,2.19,2.65,4.3,1.38,6.81,4.09,3.25,3.5,1.79,7.83,2,16.68a86.24,86.24,0,0,0,3.06,19.74c2.38,9.3,4,9.62,4.77,16.34.55,5.23-.39,5.78-.35,14.64a143.75,143.75,0,0,0,1,15.66c.87,8.33,1.58,10.57,3.06,20.43.87,5.81,2.07,13.81,2.72,22.81.53,7.18.16,7.56.34,24.85.16,14.84.55,26.31.68,30,.53,14.55.82,14,1,23.49.28,13.31-.09,23.48-.34,30-.46,11.81-.7,18-1.71,26.55-1.49,12.72-2.59,13-4.76,28.6-1.83,13.06-1.14,13.44-3.07,26.89-1.74,12.2-2.3,11.85-4.08,24.17a289.27,289.27,0,0,0-3.07,29.28c-.54,11.46.23,12.3-.68,21.11-.35,3.43-.65,5.12-3.74,21.44-1.49,7.85-3.58,18.92-4.77,25.2-2.41,12.79-3.62,19.26-4.08,22.46-1.85,12.89-1,13.39-2.73,25.88-.67,4.76-.45,2.21-4.76,25.53-2.45,13.22-2.72,15.13-4.09,19.4-2.44,7.63-3.92,8.87-5.44,15.66-.94,4.18-1.21,8.29-1.71,16.34-.27,4.43-.56,10.46-.68,17.7" transform="matrix(1, 0, 0, 1, -2350.106445, -1785.729248)" style="fill: none; opacity: 0.5; stroke: rgb(255, 0, 0); stroke-miterlimit: 10; stroke-width: 5px;"/>
  <path class="h" d="M2631.57,2731.91a17.23,17.23,0,0,1,4.86,4.09c2.38,2.95,2.93,5.79,3.83,8.68a61.69,61.69,0,0,0,5.87,12.26c3.16,5.25,6.6,8.2,12.51,13.27a112.65,112.65,0,0,0,15.32,11,122.44,122.44,0,0,0,19.4,10.21c12.1,4.85,14.66,2.77,35.49,7.92,7.13,1.76,12,3.3,21.7,6.38,15.72,5,19.62,7,23,9.19a69.58,69.58,0,0,1,13.53,11.75c5.7,6.19,5,7.37,11,14,3.35,3.72,6.83,6.82,13.79,13,6.64,5.92,8,6.7,10.47,10s3.91,6.16,6.64,11.74c4,8.18,3.44,8.87,5.87,13.28,3.31,6,7,9.68,11.74,14.3a87.37,87.37,0,0,0,15.58,12.25c4.8,2.92,8.64,4.56,15.32,7.41,11.84,5.06,13.2,4.37,17.61,7.66,2.05,1.53.89,1,10.73,11.49,5.84,6.21,8.77,9.32,10.47,10.72,4.11,3.39,6.24,4.3,8.68,7.92a40.35,40.35,0,0,1,3.57,7.14c1.78,4.24,2,5.91,2.81,7.92s2.39,4.7,11.74,11.74c2.76,2.08,5.58,4.08,15.32,10.47,11.37,7.45,11.19,7.13,13,8.68,5.43,4.6,6.46,7,12,10.47,4.52,2.82,4.91,1.9,8.43,4.34,5,3.49,5.77,6.45,11,12.77a67.06,67.06,0,0,0,12,11.74c7.37,5.45,9.05,3.74,15.83,9.19,5.67,4.56,5,6.14,10.47,9.71,1.59,1,5.06,2.64,12,5.87,5.77,2.68,6.76,3,9.7,4.59,1,.54,3.07,1.67,8.93,5.37,5.07,3.19,8.39,5.28,12.52,8.17,8.23,5.75,7.61,6.2,13,9.7a75.31,75.31,0,0,0,14.81,7.66,78.89,78.89,0,0,0,19.14,4.34c10.39,1.35,10.6,0,19.15,1.53,4.39.79,4,1.1,16.85,4.34,7.17,1.81,10.75,2.72,14.05,3.32,2.65.48,5,.81,18.12,2,10.56,1,15.84,1.48,17.62,1.53,11.85.34,12.65-1.23,19.92,0a58.78,58.78,0,0,1,15.06,4.85c5.63,2.78,7.4,4.9,13.28,6.9a44.24,44.24,0,0,0,9.95,2c10.53,1.19,17.69.55,27.83.26s6.85.21,22.73,0c8.42-.12,16.85.27,25.27,0a39.92,39.92,0,0,1,9.45.51c5.78,1.07,7.63,2.87,12.51,4.34a37.35,37.35,0,0,0,15.58,1c10.38-1.23,10.62-5.53,18.89-5.87,7.13-.3,6.88,2.91,17.62,3.57a75.68,75.68,0,0,0,14.8-.77,54.46,54.46,0,0,0,10.47-2c5.86-1.85,6.25-3.29,10.47-4.59,5.54-1.71,6.9.15,16.6,0,6.43-.1,6.05-.92,16.59-1.79,10.76-.89,10,.06,15.83-.77,4.47-.63,10.19-2.56,21.45-6.38,10.59-3.6,11.24-4.09,16.08-5.36a104.35,104.35,0,0,1,15.83-3.07c11-1.2,11.54.7,18.9-.76s7.4-3.47,17.87-6.89a104.89,104.89,0,0,1,18.13-4.09c12.11-1.84,13.43-.31,23.74-1.53,4.14-.49,13.11-3.06,30.9-8.17,12.8-3.68,19.25-5.55,21.7-6.9a157.06,157.06,0,0,1,18.13-8.93,27.26,27.26,0,0,1,5.61-1.79c4.29-.81,7.21-.15,14.3.77,5.46.7,8.18,1.05,9.19,1,6.65-.22,9.81-3.51,17.11-7.41,7.77-4.14,7-1.9,20.93-7.66,10.72-4.41,10.58-5.49,20.17-9.19,2.78-1.07,8.19-2.77,18.9-6.12,12.68-4,14-4.06,19.15-6.13,7.58-3.05,7.25-3.79,14.3-6.39,8.34-3.07,9.31-2.23,16.08-5.1,7.31-3.1,7-4.45,13.28-6.64,2.44-.86,2.81-.77,14.29-3.06,8.43-1.69,12.68-2.55,14.81-3.32,3.44-1.25,4.26-1.95,12.26-5.36,3.11-1.33,5.69-2.38,7.4-3.07" transform="matrix(1, 0, 0, 1, -2350.106445, -1785.729248)" style="fill: none; opacity: 0.5; stroke: rgb(255, 0, 0); stroke-miterlimit: 10; stroke-width: 5px;"/>
  <path class="h" d="M2196.51,1347.83a145.4,145.4,0,0,1-5.19,15.57c-3.44,8.62-5.17,10.51-7.83,18.39a82.27,82.27,0,0,0-3.75,14.64c-1.22,7.93-.17,9.51-1.7,16.34-.77,3.42-2,6.48-4.42,12.59-2.93,7.33-4.65,11.66-7.83,17s-3.74,4.85-8.17,11.92a117.63,117.63,0,0,0-7.49,13.61,107.85,107.85,0,0,0-5.79,15.32c-2.36,8.27-1.36,9-3.4,15.66-1.81,5.88-4,9.72-7.83,16.68a148.19,148.19,0,0,1-11.58,17.71c-6.21,8.14-6.55,6.82-12.59,14.63-7.25,9.38-6.52,11-14.3,20.77-4,5-5,5.66-9.19,11.23-2,2.71-3,4.18-8.85,12.94-9.3,13.91-9.78,14.59-10.9,16a135.94,135.94,0,0,1-11.91,12.94c-6.83,6.74-7.91,6.84-12.94,12.25-4.66,5-7.39,8-9.87,12.6-4.58,8.56-2,11.1-5.79,17-4.16,6.47-8.42,5.24-18,12.6-7.56,5.77-5.66,7.08-15.66,16.68a117.54,117.54,0,0,1-22.13,17c-2.89,1.7-1.46.67-15.66,8.17-10.52,5.55-13.85,7.46-15.66,8.51a142.42,142.42,0,0,0-14.64,9.19c-5.06,3.75-5.47,4.75-11.23,8.85-5.1,3.63-7.64,5.44-11.23,6.81-5.23,2-6.55.92-13.28,2.72-4.53,1.22-7.52,2.66-12.6,5.11a122.73,122.73,0,0,0-16.34,9.53" transform="matrix(1, 0, 0, 1, -2350.106445, -1785.729248)" style="fill: none; opacity: 0.5; stroke: rgb(255, 0, 0); stroke-miterlimit: 10; stroke-width: 5px;"/>
  <rect class="i" x="207.31" y="685.46" width="82.45" height="82.45" style="fill: none; opacity: 0.5; stroke: rgb(0, 0, 0);" transform="matrix(1, 0, 0, 1, -2350.606445, -1786.229248)"/>
  <rect class="j" x="207.31" y="809.13" width="82.45" height="82.45" style="fill: rgb(255, 102, 0); opacity: 0.5; stroke: rgb(255, 102, 0);" transform="matrix(1, 0, 0, 1, -2350.606445, -1786.229248)"/>
  <rect class="k" x="207.31" y="932.8" width="82.45" height="82.45" style="fill: rgb(102, 51, 102); opacity: 0.5; stroke: rgb(102, 51, 102);" transform="matrix(1, 0, 0, 1, -2350.606445, -1786.229248)"/>
  <rect class="m" x="205.47" y="1056.47" width="82.45" height="82.45" style="fill: rgb(0, 102, 0); opacity: 0.5; stroke: rgb(0, 102, 0);" transform="matrix(1, 0, 0, 1, -2350.606445, -1786.229248)"/>
  <rect class="n" x="205.47" y="1180.14" width="82.45" height="82.45" style="fill: rgb(0, 0, 255); opacity: 0.5; stroke: rgb(0, 0, 255);" transform="matrix(1, 0, 0, 1, -2350.606445, -1786.229248)"/>
  <rect class="o" x="205.47" y="1303.81" width="82.45" height="82.45" style="fill: rgb(255, 255, 255); opacity: 0.5; stroke: rgb(255, 255, 255);" transform="matrix(1, 0, 0, 1, -2350.606445, -1786.229248)"/>
  <text style="font-family: Arial, sans-serif; font-size: 75px; font-weight: 700; white-space: pre;" x="-2016.447" y="-1033.287">Sand</text>
  <text style="font-family: Arial, sans-serif; font-size: 75px; font-weight: 700; white-space: pre;" x="-2020.131" y="-901.286">Clay</text>
  <text style="font-family: Arial, sans-serif; font-size: 75px; font-weight: 700; white-space: pre;" x="-2022.227" y="-781.859">Sludge </text>
  <text style="font-family: Arial, sans-serif; font-size: 75px; font-weight: 700; white-space: pre;" x="-2022.227" y="-662.431">Grass</text>
  <text style="font-family: Arial, sans-serif; font-size: 75px; font-weight: 700; white-space: pre;" x="-2024.322" y="-536.718">Pebble</text>
  <text style="font-family: Arial, sans-serif; font-size: 75px; font-weight: 700; white-space: pre;" x="-2026.417" y="-411.006">Shell</text>
</svg>