<?xml version="1.0" encoding="utf-8"?>
<svg viewBox="-8221.924 306.876 4096 4096" xmlns="http://www.w3.org/2000/svg">
  <rect class="a" x="207.96" y="627.35" width="80.7" height="80.7" style="fill: none; opacity: 0.5; stroke: rgb(0, 0, 0);" transform="matrix(1, 0, 0, 1, -8221.923828, 306.876129)"/>
  <rect class="b" x="207.96" y="745.73" width="80.7" height="80.7" style="fill: rgb(109, 191, 191); opacity: 0.5; stroke: rgb(109, 191, 191);" transform="matrix(1, 0, 0, 1, -8221.923828, 306.876129)"/>
  <rect class="c" x="207.96" y="864" width="80.7" height="80.7" style="fill: rgb(102, 51, 102); opacity: 0.5; stroke: rgb(102, 51, 102);" transform="matrix(1, 0, 0, 1, -8221.923828, 306.876129)"/>
  <path class="c" d="M1949,2307.06c6.41-8.76,14.61-12.2,25.83-17.36,24.57-11.3,18.79-10.27,30.42-14.81,16.73-6.52,30.58-11.93,49-11.23,15.31.58,24.68,5,27.83,6.64,6.72,3.45,19.07,9.79,19.4,19.4.39,11.42-16.47,19.53-19.4,20.94-10.09,4.85-16.73,3.7-26.19,5-24.09,3.29-24.6,16.64-50.66,25.36-18,6-46.09,9.1-56.25-4-2.53-3.27-6.26-10.52-5-18.71C1944.26,2316.54,1945.1,2312.45,1949,2307.06Z" transform="matrix(1, 0, 0, 1, -8221.423828, 307.376129)" style="fill: rgb(102, 51, 102); opacity: 0.5; stroke: rgb(102, 51, 102);"/>
  <path class="c" d="M3670.47,1706.81c2.39-9.65,9.76-21.1,21.45-24.34,1.33-.37,5.92-1.52,13.78,0a57.64,57.64,0,0,1,36.26,24.32c12.21,18.78.72,28.76,9.19,53.89,4.06,12,7.61,12.48,35.74,47.55,34.42,42.91,36.31,51.23,34.22,58.18-4.78,15.87-29.56,22.23-32.68,23-4.83,1.18-14,3.32-24.51,0-4.15-1.31-15-5.52-26.05-23-16.74-26.41-4.83-36.92-17.87-60.29-13.44-24.1-30.72-21.2-40.85-47.48-4-10.28-6.4-23.92-7.15-28.1C3669.93,1719,3668.92,1713,3670.47,1706.81Z" transform="matrix(1, 0, 0, 1, -8221.423828, 307.376129)" style="fill: rgb(102, 51, 102); opacity: 0.5; stroke: rgb(102, 51, 102);"/>
  <path class="c" d="M2814.41,1373.11c5.22-4.61,12.14-4.32,23.48-3.85a83.76,83.76,0,0,1,24,3.85c29.22,9.38,32.54,28.65,58.94,38.81,16.84,6.48,16.37-1,51.07,5.61,29,5.54,27.81,10.48,47.49,12.26,29.9,2.7,38-8.22,55.71,0,17,7.91,23.86,24.73,25.23,28.08,1.76,4.34,10.19,25.07-.06,38.3-5.5,7.11-13.81,8.7-25.23,10.72-16.52,2.93-33.68,2.17-55.71-3.06s-21.42-8.4-47.38-15.83c-31-8.87-31.27-4.19-51.07-11.23-31-11-27.32-21.46-58.92-33.19-25.44-9.45-38.65-6.71-47.47-19.92-7.08-10.61-6.63-24.46-6.48-29.11C2808.26,1386.61,2808.53,1378.29,2814.41,1373.11Z" transform="matrix(1, 0, 0, 1, -8221.423828, 307.376129)" style="fill: rgb(102, 51, 102); opacity: 0.5; stroke: rgb(102, 51, 102);"/>
  <path class="e" d="M1131.94,2192.79c25.58.83,64.49-20.53,64.49-20.53,31.11-17.09,46.75-25.81,51.06-35,6.78-14.47-1.37-18.49,3.06-42.38,2.67-14.38,6.42-17.26,28.09-60.56,17.16-34.3,13.91-30.71,18.35-37.21,14.91-21.82,27.42-27.07,41.9-51.58,3.13-5.29,5.1-9.37,10.15-16.87,5.93-8.81,9.93-13.17,16.06-23.65a85.12,85.12,0,0,0,4.47-8.11c3.74-7.84,5.32-15,15.51-39.7,0,0,4.47-10.87,13.82-48,.48-1.91,1.35-5.6-.52-8.68-4.65-7.66-22.61-5.45-33.28-2.51-21.79,6-25.92,18.65-45.72,30.76-16.62,10.17-25.51,8.49-54.93,15.3-31.42,7.28-25.85,10.26-78.72,27.4-73.6,23.86-115.71,28.24-125.9,26.33h0c-2.6-1-6.25-1-6.89.25-1,2.13,6.62,6.22,5.61,9.19-.92,2.72-8.18,1.79-8.68,4.09-.46,2.11,5.43,4,5.11,6.64s-6.9,2.54-7.66,5.61c-.84,3.41,6.48,6.6,5.62,9.71-.81,2.92-7.72,1.69-9.2,5.1-1.65,3.84,5.67,8.69,4,12.36-1.51,3.3-8.51,1.79-9.6,5-.89,2.61,3.32,4.71,2.55,7.66-.93,3.63-7.54,2.78-9.19,6.74-1.81,4.34,4.48,9.4,2.55,12.16-1.6,2.3-6.64-.25-8.68,2-2.61,2.93,2,11.11,3.07,12.77,14,22.28,20.93,33.43,24.57,37.21,28.21,29.37,42.32,44.06,45.89,60.56,2.53,11.69-.67,14.26,3.07,42.38a205,205,0,0,0,6.69,28.87c4.64,15.48,8.25,21.61,14.24,24.51A22,22,0,0,0,1131.94,2192.79Z" transform="matrix(1, 0, 0, 1, -8221.423828, 307.376129)" style="fill: rgb(102, 204, 204); opacity: 0.5; stroke: rgb(102, 204, 204);"/>
  <path class="e" d="M1549.09,2420.94c-4-5.88-11-5.12-26.5-9.2-12.31-3.23-13.32-5.14-24.64-8.74-5.71-1.82-27.29-8.69-50.54-7-7.56.54-10,1.61-48.26,15-44.51,15.56-42,14.37-48,16.83-33,13.49-33,18.3-56.68,26-7.41,2.42-3.64.72-51.62,10.73-34.29,7.14-40.22,8.85-51.43,6.89-9.71-1.7-18.76-6-36.87-14.55-13.23-6.27-16.72-9.06-33.27-16.69-17.1-7.87-15.8-6-24.14-10.44-21.35-11.36-23.49-20.17-38.08-24.83-12.1-3.86-22.68-1.66-30.63,0-34.75,7.25-79.12,43.18-78.24,85.7.53,26.25,18.08,43.87,47.39,73.28,19.95,20,39,39.19,71.85,49.08,10.12,3.06,48.42,14.61,85.13-1.38,14.42-6.28,15.34-11,36.25-19.92,20.32-8.62,26.17-7,52-15.31,28.69-9.26,26-12.74,51.61-20.69,28-8.67,30.37-4.27,56.69-13,17-5.66,15.19-7.22,48-20.68,24.42-10,36.63-15,48.26-17.61,28.92-6.45,34.93-.07,48-9,14.53-9.86,9-19,27.17-33.17,12.53-9.78,21.65-10.49,26.42-21.44C1549.54,2439.63,1554.23,2428.47,1549.09,2420.94Z" transform="matrix(1, 0, 0, 1, -8221.423828, 307.376129)" style="fill: rgb(102, 204, 204); opacity: 0.5; stroke: rgb(102, 204, 204);"/>
  <path class="e" d="M2793.51,1948.34c2.79-15.39,14.41-25.2,21.75-31.4,15.62-13.22,30.83-26.93,46.72-39.83,40.67-33,39.06-41.08,58.73-47.49,19-6.22,36.95-4,50.91-2.3,18.88,2.32,19.92,6,50.1,13,28.09,6.55,28.61,3.71,53.6,10,28.76,7.19,28.82,11.14,49.7,14.55,24.4,4,26.16-1.1,47.35,3.07,22.08,4.33,38.13,13.38,50.83,20.68,30.46,17.49,28,25.84,48.35,32.93,25.81,9,30-4.36,56.34,5.37,23.43,8.65,27.87,22.12,49.53,23,11.22.44,19-2.81,23.89,2.31s2.75,14.21-.09,25.27c-10.3,40.17-15.44,60.25-23.89,65.09-8.85,5.07-12.13.23-47.24-2.32-36.41-2.65-37.86,2.19-58.66-2.26-26.23-5.62-26.85-13.94-47-15.32-25.29-1.74-45.17,9.92-52.23,14-25.08,14.71-44.79,41.06-47.4,53.31-.08.38-1.1,5.25-2.76,5.32-2.52.11-3.37-11-7.49-11.58-3.73-.54-6.44,8.09-9.87,7.49-3.89-.67-3.25-12.29-7.49-13.27s-8,9.08-12.25,8.17-3.94-12-7.83-12.6-6.87,9.44-10.56,8.85c-4-.64-3.52-13.08-7.83-14s-8.45,10.45-12.25,9.53c-4-1-2.49-14-6.47-15s-9.21,11.63-13.28,10.55c-3.64-1-2.27-11.87-6.12-12.93s-8.26,9.18-12.26,8.17c-4.32-1.1-3-14-7.15-15-3.86-.91-7.89,9.72-11.91,8.85-4.29-.93-3.37-13.79-7.49-14.64s-8.18,11.3-12.6,10.55c-4.65-.79-4.31-15-8.85-15.66-4.18-.64-7.74,10.91-11.91,10.22s-4.08-12.82-7.83-13.28-6.76,11.88-11.24,11.57c-4.15-.28-5.24-11.13-9.19-11.23-3.73-.09-5.27,9.52-9.19,9.53-4.24,0-5.93-11.23-10.21-11.23-3.87,0-5.24,9.14-9.2,9.19-4.44.06-6.51-11.44-10.55-11.23s-5,10.76-8.85,10.89c-4.07.14-5.81-11.75-10.35-11.92-4.06-.14-4.32,9.32-10.42,12.26-9.17,4.43-26.53-8.37-36.25-22.47-1.64-2.37-4.89-10.54-11.41-26.89-7-17.62-9.42-25.23-10.31-35.06C2792.94,1957.81,2792.56,1953.59,2793.51,1948.34Z" transform="matrix(1, 0, 0, 1, -8221.423828, 307.376129)" style="fill: rgb(102, 204, 204); opacity: 0.5; stroke: rgb(102, 204, 204);"/>
  <path class="e" d="M3587.06,1994.55c6.29-2,11.81,7.85,21.91,5.5,3.92-.91,6.56-3.21,10.83-6.92,5.63-4.89,8.41-9.34,11.76-14.16,11.78-17,14.39-15,15.93-20.32,4.22-14.67-17.67-21.63-23-46.15-4.31-19.94,8.26-24.15,4.6-46.07-4.23-25.3-23.63-35.74-18.83-44,4.25-7.34,22.64-4.6,32.1-2,33.63,9.33,49,43.48,50,46,9.1,21.11,2.5,25.36,9.7,46s17.42,24.89,64.49,69.57c48,45.54,41.51,45.14,56.66,55.77,14.52,10.19,24.06,26.26,37.92,37.32.32.26,3.39,2.69,2.8,4.18-1.1,2.78-14.27-2.06-17.36,2.55-2.81,4.2,5.33,12.27,2.55,15.83s-11.91-2.16-15.32,1.53c-3.66,4,4.18,13.45.51,17.88s-14.19-1.83-17.87,2.55,4.77,14.35,1,18.89-15.74-2.14-19.4,2.56c-3.38,4.32,4,12.9.51,16.85s-12.42-1.8-15.83,2.1c-3.25,3.71,2.8,11.27,0,14.75-3.61,4.47-18.57-1.94-20.94-3.07-35.72-16.92-46.91-2.71-91.74-24.15-20.43-9.78-34.18-20.42-44.6-28.58-19.37-15.18-30.42-23.84-38.47-40.2-7.77-15.81-8.33-29.86-8.85-43.06C3577.93,2028.86,3576.7,1997.81,3587.06,1994.55Z" transform="matrix(1, 0, 0, 1, -8221.423828, 307.376129)" style="fill: rgb(102, 204, 204); opacity: 0.5; stroke: rgb(102, 204, 204);"/>
  <path class="e" d="M3172.83,1460.43c17,2.7,30.67-2.5,50.38-10,8.68-3.29,14.22-6.32,17.37-12.26,4.8-9,1-19.14.06-21.44-1.18-2.89-4.86-10.47-17.35-17.11-14.85-7.9-25.77-5.75-50.39-7.15a315.71,315.71,0,0,1-47.21-6.13c-16.47-3.54-17.06-5.52-50.55-16.34-26.57-8.57-39.85-12.86-57.78-16.34-24.34-4.72-25.43-2-45.4-6.64a220.24,220.24,0,0,1-51.08-18.89c-35.1-18.41-33.48-30.78-58.94-37.79-14.77-4.06-15.53,0-47.49-4.59-21.52-3.12-32.29-4.68-42.76-9.19-23.35-10.06-22-22.18-52.37-47.49-20.51-17.09-35.39-29.49-57.27-32.17-20.48-2.51-24.77,6.21-50.54,3.57-14.53-1.49-24.84-5.59-45.46-13.79-25.29-10-26.58-13.75-52.08-24.51-29.22-12.33-29.94-8.5-52.12-18.89-26.66-12.49-25.19-17.82-51.53-30.13-13.38-6.24-31.8-14.68-56.68-17.87-23.22-3-25.23,2-47-2-27.13-5.11-36.2-15.24-44.22-9.7-9.26,6.38-9.41,28.31-.11,42.38,7.53,11.38,16.88,11,44.22,24,24.71,11.71,21,13.84,47,26.55a352.31,352.31,0,0,0,56.68,22c13.64,3.91,13,2.75,51.57,11.23,28.68,6.3,43.2,9.52,52.13,12.77,18,6.54,30.57,13.93,52.08,26.55,30.09,17.66,29.77,21,45.44,27.06,19.63,7.66,22.09,3.25,50.53,10.73,24,6.3,42.49,14.77,59.15,22.39,31.27,14.29,33.64,19.33,50.55,22,11.34,1.82,12.22-.14,42.77-.23,25.67-.07,38.51-.11,47.47,1.77,24.84,5.19,24.5,15,59.1,29.23,16.68,6.89,14.76,3.79,51.07,16,25.33,8.52,24.87,9.56,47.53,17.06,31,10.28,32.67,8.59,55.74,16.94,13.51,4.89,30.22,10.94,50.28,21.87C3156.51,1450.71,3156.18,1457.77,3172.83,1460.43Z" transform="matrix(1, 0, 0, 1, -8221.423828, 307.376129)" style="fill: rgb(102, 204, 204); opacity: 0.5; stroke: rgb(102, 204, 204);"/>
  <rect class="f" width="1" height="1" style="fill: none; opacity: 0.5;" transform="matrix(1, 0, 0, 1, -8221.923828, 306.876129)"/>
  <rect class="f" x="4095" y="4095" width="1" height="1" style="fill: none; opacity: 0.5;" transform="matrix(1, 0, 0, 1, -8221.923828, 306.876129)"/>
  <text style="font-family: Arial, sans-serif; font-size: 75px; font-weight: 700; white-space: pre;" x="-7882.552" y="1124.286">Sand-pebble</text>
  <text style="font-family: Arial, sans-serif; font-size: 75px; font-weight: 700; white-space: pre;" x="-7877.439" y="1001.164">Rocky</text>
  <text style="font-family: Arial, sans-serif; font-size: 75px; font-weight: 700; white-space: pre;" x="-7885.4" y="1240.821">Sludge </text>
</svg>