<?xml version="1.0" encoding="utf-8"?>
<svg viewBox="-1797.048 -1750.375 4096 4096" xmlns="http://www.w3.org/2000/svg">
  <path class="a" d="M2671,2645.45c-.56,2.91.3,5.23,2,9.87a33.21,33.21,0,0,0,6.81,11.91c2,2.12,4,4.35,7.49,5.78a17.93,17.93,0,0,0,13.62,0c9.16-4.06,10.22-17.27,9.63-23.81-1-11-8.28-17.86-10.66-20.09s-4.66-4.32-8.51-5.2c-5.7-1.29-12.92.7-15.31,5.2-1.35,2.53.1,3.45-1.37,8.17C2673.33,2641.77,2671.64,2642.1,2671,2645.45Z" transform="matrix(1, 0, 0, 1, -1796.54834, -1749.875244)" style="opacity: 0.5; stroke: rgb(0, 0, 0);"/>
  <path class="a" d="M2820,1615.66c-4.48-.73-7.5-5-9.19-7.4-3.16-4.49-2.15-6.42-5.36-13.79s-5-7.32-6.58-12.26c-1.1-3.42-1.93-8.67,0-16.08.15-3.39,1-12.63,8.11-19.92,2.4-2.46,7.22-7.41,13.79-7s10.71,5.69,13,8.57c3,3.76,4.33,7.92,6.89,16.09,2.42,7.73,3.64,11.6,3.83,15.08a38.72,38.72,0,0,1-6.13,22.45C2836.33,1604.62,2828.51,1617,2820,1615.66Z" transform="matrix(1, 0, 0, 1, -1796.54834, -1749.875244)" style="opacity: 0.5; stroke: rgb(0, 0, 0);"/>
  <path class="a" d="M3073,2611.66c-20.36-9.21-23.64-38-24.76-47.9-1.63-14.28,1.62-15.28,4.2-45.94,2.67-31.66-.69-31.82,2.54-51.39,4.25-25.75,10.16-26,13-49.24,2.56-21-.15-38.08-2-49.24-5-30-11.7-29.44-12.38-48.62-.94-26.51,11.86-29.22,12.38-58.24.42-23.44-7.88-23.86-8-50.32-.08-18.74,4-33.36,9.4-52.56,7.31-26,10.87-25.9,14.6-44.93,2.39-12.23,2.6-24.21,3-48.17.49-28.85-1-29.79,0-48.17,1.41-25.2,2.12-37.8,8-51.47,10.06-23.39,21.34-20.63,33-44.87,10.74-22.35,10.26-43.62,10-54.77-.34-14.66-.72-31.24-10-48.17-14.07-25.67-32.43-22.66-39.45-44.06-3.78-11.54-.7-23.74,5.45-48.15,7.23-28.7,14.47-28.7,16-46.45,1.93-22.42-8.46-25.71-8.21-51.29.12-12.68.34-35.3,16.12-48.8,18.79-16.06,50.24-8,66.39,1,9.07,5.07,16.69,12.37,23,18.39,7.42,7.11,13,12.53,17.61,21.44,4.06,7.82,5.35,14.36,6.9,22.22a114.81,114.81,0,0,1,1.91,31c-.82,10-2.2,9.42-4.21,24.13-.83,6-1.33,13.56-2.3,28.34-.85,13-1.28,19.55-1.53,26-.67,17.5-1,26.26,0,34.47.68,5.53,3,14.25,7.55,31.7,4.84,18.43,5.25,18.28,7,26.51a215.08,215.08,0,0,1,4.6,31.4c.42,6.18.05,5,.76,26,.52,15.26.8,18.47,2.3,23,1.59,4.76,4.65,9.36,10.73,18.38,9.2,13.66,11.27,14.43,15.32,22.21a88.46,88.46,0,0,1,7.27,20.3c2,7.63,2.74,15.53,4.21,31,1.14,11.89,1.7,17.84,1.92,25.66a221.91,221.91,0,0,1-.77,28.34c-1.62,17.31-2.43,26-7.27,34.09-1.54,2.58-8.39,14.06-21.45,19.14-1.42.56-9.14,1.91-24.51,4.6-11.34,2-14.06,2.46-17.23,5-5.7,4.52-7.34,11.23-8.81,17.23-2.07,8.47-1.5,15.16-.77,23,.79,8.36,2.32,14.62,5.36,26.81,2.65,10.61,4,15.91,6.13,22.21,5.79,16.91,9,17.08,14.17,31.79,3.67,10.36,5,18.42,7.28,32.55,1.88,11.58,3.06,18.83,3.06,29.11a128.64,128.64,0,0,1-3.45,30.26c-2.52,10.25-4.42,11.83-10.72,28.34-6.48,17-5.53,18.1-11.87,35.61-1.66,4.59-7,19.14-15.32,36.77-10.44,22.17-12.36,21.22-20.68,39.83-4.46,10-8.08,19.92-15.32,39.83-5.77,15.86-7.38,21.29-12.26,30.64a161.94,161.94,0,0,1-15.32,23.74c-12.71,16.5-20.14,26.13-33.44,30.64C3098.26,2613,3085.38,2617.25,3073,2611.66Z" transform="matrix(1, 0, 0, 1, -1796.54834, -1749.875244)" style="opacity: 0.5; stroke: rgb(0, 0, 0);"/>
  <rect class="b" x="201.44" y="615.27" width="80.04" height="80.04" style="fill: none; opacity: 0.5; stroke: rgb(0, 0, 0);" transform="matrix(1, 0, 0, 1, -1797.04834, -1750.375244)"/>
  <rect class="c" x="201.44" y="735.33" width="80.04" height="80.04" style="fill: rgb(109, 191, 191); opacity: 0.5; stroke: rgb(109, 191, 191);" transform="matrix(1, 0, 0, 1, -1797.04834, -1750.375244)"/>
  <rect class="d" x="201.44" y="855.39" width="80.04" height="80.04" style="fill: rgb(102, 51, 102); opacity: 0.5; stroke: rgb(102, 51, 102);" transform="matrix(1, 0, 0, 1, -1797.04834, -1750.375244)"/>
  <rect class="a" x="201.44" y="975.45" width="80.04" height="80.04" style="opacity: 0.5; stroke: rgb(0, 0, 0);" transform="matrix(1, 0, 0, 1, -1797.04834, -1750.375244)"/>
  <path class="d" d="M2222,1968c-1.94,16.21-.53,32.68-2,48.94a302.63,302.63,0,0,0-1,48.17c1.52,24.14,5.35,28.68,6.58,49.66,1.37,23.52-3.95,24.12-3.28,47.78.77,27.31,6.93,28,5.7,48.22-1.4,23.08-9.49,23.59-13,50.32-3,22.92,2.7,24.42,0,50.31-1.6,15.35-3.8,16.7-11,47.73-10.33,44.51-6.13,43.16-12,55.74-9.39,20.12-17.25,17.39-45,50.49a305.53,305.53,0,0,0-35.5,50.85c-8.31,15.11-6.43,15.06-22,47.74-16.29,34.29-18.21,34-22.46,47.63-4,12.73-5.55,26-8.69,52.42-3.69,31.16-2.2,33.78-5.52,47.16-.39,1.58-6.41,25.1-20.86,46.5-18.2,27-34.65,28.17-71.15,54.91-34,24.91-57.89,51.83-83.74,81-17,19.2-27.37,29.74-48,50.81,0,0-34.95,35.68-39.83,31.66-1.84-1.51,2-8.29-1-10.72s-9,1.74-10.22,0c-1.39-1.94,5.52-7.85,4.09-10.22-1.63-2.68-12.24,2.09-13.79-.51-1.45-2.42,6.62-8.58,5.11-11.23s-11.09,1.31-12.77-1.53c-1.51-2.56,5-7.83,3.58-10.22-1.63-2.63-11.29,1.16-11.75,0s9-4.35,17.87-11.74c6.31-5.26,9.8-10.53,15.32-18.89,7.28-11,6.49-12.85,12.26-21.45a105.94,105.94,0,0,1,19.4-21.45c7.63-6.69,9.13-6.36,29.11-19.4,16.13-10.53,18.07-12.65,33.7-22.47,9.66-6.07,14.49-9.1,18.89-11.23,14.41-7,27.76-10,35.75-11.75,13.12-2.89,16.66-2.29,26-6.13a58.69,58.69,0,0,0,16.6-9.44c5-4.17,6.08-6.73,15.57-20.17,10.58-15,10.23-13.24,14.3-19.92,5.27-8.65,9.29-15.37,11.23-25,.81-4,.11-2.82,1.54-14.81,1.24-10.43,2.61-18.41,3.06-20.93,1.68-9.55,3.57-18.39,3.57-18.39,1.85-8.63,2.78-11.84,2.56-17.36a31.12,31.12,0,0,0-2-11.23c-2.6-6.44-5.9-7.26-8.17-12.77-1.44-3.52-1.73-7.18-1-13.28,2.1-17.79,10.67-38.44,11.24-39.79,15.3-36.4,21.71-43.15,28.59-47.79,2-1.32,5.18-4.37,10.22-5.35,4.06-.79,5.95.27,9.7,0,1.8-.13,5.3-.66,13.78-6.64,9.58-6.75,16.84-11.86,21.45-21.45,2.58-5.35,1-5.25,4.09-12.76,3.81-9.37,8-13.82,12.76-20.94,6.06-9,9.18-16.35,13.28-26,5.49-13,7.91-23.17,10.72-35.24,3.74-16,5.34-28,7.15-41.87,1.61-12.3,4.06-31.31,5.11-56.17,1.06-25-.55-26.43,0-58.21.25-14.71,1-28.36,2.55-55.66.91-16.2,2.45-41.43,5-73,1.92-24.24,2.88-36.35,4.24-47.49,3.8-31.15,6.8-39,9.7-61.79,1.17-9.1,4.57-17.9,5.11-27.06a10.81,10.81,0,0,1,1.53-5.62c4.75-7.28,20.89-8.17,26.05-1.53C2222.68,1962.44,2222.17,1966.58,2222,1968Z" transform="matrix(1, 0, 0, 1, -1796.54834, -1749.875244)" style="fill: rgb(102, 51, 102); opacity: 0.5; stroke: rgb(102, 51, 102);"/>
  <path class="f" d="M3070,1431.61c-5.66,10-32.88,8.28-51,0-44.06-20.18-49.46-86.68-50.15-96.79,0,0-24.52-76.55-63.8-145.6-31.46-55.3-66.05-91.81-88.64-115.36-14.36-15-24.49-23.83-117.88-97.52-103-81.27-117.06-91.17-144.84-119.49-38.86-39.61-31.54-40.83-72-80.68-6.48-6.39-40.49-39.68-35.74-46,2.17-2.86,10.82,2,16.34-3.06,5.21-4.78,1.85-13.1,6.13-15.32,5-2.59,12,7.49,17.36,5.11,5.85-2.6,2.08-16.52,8.17-19.41,5.38-2.56,11.86,6.68,17.36,4.09,6.08-2.87,2.8-16.37,8.17-18.39,5.14-1.93,11.68,9.13,16.34,7.15,4.88-2.07,1-15.62,6.13-18.38,4.87-2.62,14.42,6.34,16.34,8.17,22.87,21.81,34.3,32.72,60.25,64.34,2.14,2.6,17.08,16.71,47,44.94,45.87,43.3,69,65.09,81.13,72s25.06,12.69,41.43,27.1c11.4,10,19.31,19.73,26.55,28.6A352.07,352.07,0,0,1,2843.23,958c15,24.8,12.92,27.68,26.56,49a310.79,310.79,0,0,0,27.06,36.25c14.54,16.61,21.11,20.2,35.24,38.3a250.51,250.51,0,0,1,16.34,23.49c2.88,4.78,10.89,18.42,19.4,40.85,8.32,21.93,7.08,25.78,15.32,50,4.82,14.19,5.27,13,16.34,40.86,8.84,22.28,17.14,43.19,25.53,69.44,9.3,29.09,7.16,28.6,14.3,47,9.16,23.6,19.4,46,19.4,46C3069.19,1422,3072.62,1426.92,3070,1431.61Z" transform="matrix(1, 0, 0, 1, -1796.54834, -1749.875244)" style="fill: rgb(102, 204, 204); opacity: 0.5; stroke: rgb(109, 191, 191);"/>
  <path class="g" d="M2233.17,1220.07c6.9,45.47,21.46,52,33.83,114.74,5.11,25.9,5.17,37.71,3,49.4-4,21.41-12.35,25.76-16,49.41-2.14,13.87-1.09,24.32,1,45.23,2.81,28.12,6.7,32.42,7,49.53.5,28.37-12.6,30.54-10,50.53,3,22.91,18.66,23.2,25,50,3.28,13.88,1.52,25.94-2,50-2.76,18.9-4.74,19.27-10,46.45-3.31,17.09-2.39,16.25-8,50.81-5.78,35.59-6.5,34.91-7,44.55-1.09,21,2.44,22.46,3,51.74a415.12,415.12,0,0,1-2,47.73c-2.47,26.91-4.77,27-6,47.72-1.61,27,2.28,27.7,0,48.94-2.67,24.86-8.13,25.12-10,48.17-1.69,20.76,2.67,21.4,2.07,48.17-.62,27.7-5.31,27.85-4.07,47.17,1.65,25.64,10,26.6,11,50.32.66,15.47-2.88,15.11-8,50.32-4.41,30.32-1.83,31-6,50.31-4.91,22.8-8.58,22.35-15,47.73-7.56,29.89-3,32.47-10,55.74-6.67,22.06-16.32,38-24,50.49-18.68,30.41-26.3,29.36-35,50.89-8.61,21.31-2,24.53-11,47.7-2.49,6.43-5.09,11.58-30,47.71-26.61,38.6-29.87,41.75-32.83,52.85-3.38,12.7-.38,13.28-3.06,46.65-2.08,25.85-3.12,38.77-6.11,46.5-13.72,35.48-55.07,31.19-66,54.91-15.41,33.47,35.44,110.19,105.12,135.16,116.52,41.77,248.15-74.67,246.76-115.87-.06-1.87-.55-8.32-.88-19.29-.34-11.49-.56-30.2.88-54.91,1.54-26.19,2.81-23,4.18-46.5,1.3-22.35,2.15-36.85,0-55.84-2.54-22.45-5.93-21.71-8.06-43.66-1.18-12.13-.67-25,.35-50.82.82-20.91,1.23-31.36,2.65-44.6,2.36-21.95,3.95-36.83,9.86-55,7.79-24,12.8-22,21.14-46.41,4.31-12.64,3-13.17,11.51-55.74,6.08-30.26,6.71-29.79,9.83-47.73,2.77-15.92,4.25-27.68,7.1-50.31,4.63-36.82,3.62-36.4,6.26-50.32,3.22-17,4.55-16.71,12.85-50.32,5-20.34,7.77-31.44,10.52-47.17,3.71-21.26,5.19-38.15,6-48.17,2.45-28.74.51-29.12,3-48.17,1.9-14.54,3-14.2,10.17-48.94,6.23-30.25,5.39-30.53,9.5-47.72a443.32,443.32,0,0,1,13.83-47.73c8-22.52,10.6-23.39,21.44-51.74,5.89-15.38,10.58-27.65,15-44.55,5.11-19.44,3.61-21.13,10-50.81,2-9.21,5.57-25.84,11.42-46.45,9.88-34.84,13.13-35,14.48-50,1.29-14.36-1-26.25-5.7-50-6.35-32.38-10.35-32.57-11.33-50.53-1.35-24.66,6.1-26,4.3-49.53-1.51-19.86-6.91-20.38-12.2-49.45-3.69-20.28-5.61-30.83-3.9-45.19,3.08-25.82,14.32-33.86,11.8-56.12-1.17-10.28-4.62-17.84-7.73-24.11-35.13-70.91-105.39-137.68-119.59-221.69-4.53-26.81-.57-38.93-10.67-69.18-6.11-18.29-17-36.71-38.81-73.54-17.87-30.17-27.06-45.56-39.83-60.25-18.75-21.56-20.76-16.72-38.81-38.81-7.79-9.54-17.66-21.57-22.47-19.4-4.48,2-.73,14.72-6.13,17.36-5.87,2.87-14.84-10-20.6-7.15-5.58,2.73-.69,16.51-7,20.42-6.52,4.07-17.43-7.28-22.64-3.34-5,3.76,2.21,16.26-2.89,20.8-5.89,5.23-19.9-7.47-25.53-3.16-5,3.81.11,18.16,14.29,55.15,12.27,32,14.45,37.34,19.41,51.07,5.3,14.67,11.17,30.9,15.32,52.08,1.46,7.46,2.73,15.66,5.18,50,2.61,36.78,3.82,64.9,4,69.45C2233.65,1219.32,2231.72,1210.52,2233.17,1220.07Z" transform="matrix(1, 0, 0, 1, -1796.54834, -1749.875244)" style="fill: rgb(102, 204, 204); opacity: 0.5; stroke: rgb(102, 204, 204);"/>
  <rect class="h" width="1" height="1" style="fill: none;" transform="matrix(1, 0, 0, 1, -1797.04834, -1750.375244)"/>
  <rect class="h" x="4095" y="4095" width="1" height="1" style="fill: none;" transform="matrix(1, 0, 0, 1, -1797.04834, -1750.375244)"/>
  <text style="font-family: Arial, sans-serif; font-size: 75px; font-weight: 700; white-space: pre;" x="-1471.729" y="-948.262">Sand-pebble</text>
  <text style="font-family: Arial, sans-serif; font-size: 75px; font-weight: 700; white-space: pre;" x="-1467.012" y="-824.895">Sludge </text>
  <text style="font-family: Arial, sans-serif; font-size: 75px; font-weight: 700; white-space: pre;" x="-1462.809" y="-1073.109">Pebble</text>
  <text style="font-family: Arial, sans-serif; font-size: 75px; font-weight: 700; white-space: pre;" x="-1469.102" y="-708.068">Rocky</text>
</svg>