<?xml version="1.0" encoding="utf-8"?>
<svg viewBox="-6522.259 -909.327 4096 4096" xmlns="http://www.w3.org/2000/svg">
  <path class="a" d="M3515.23,1013.11l14.3-9.71,11.75-6.12,14.29-3.58a19.11,19.11,0,0,0,8.17,0c2.64-.59,4-1.51,9.2-4.59,6.15-3.63,9.27-5.45,11.23-6.13,2.13-.74,5-1.18,10.72-2,8.16-1.24,8-.74,10.22-1.54,4.27-1.52,4.41-3.18,11.23-7.66a73.3,73.3,0,0,1,10.21-5.61c4-1.8,7.92-3.53,13.28-4.09a39.61,39.61,0,0,1,10.21.51c3.44.59,3.95,1.11,5.62,1,4.79-.24,8.18-4.92,10.21-7.66,4.83-6.51,10.38-12.46,15.32-18.89,5.85-7.59,10.88-13,16.34-18.89,9.53-10.25,10.52-10,15.32-16.34,4.51-5.95,4.73-7.61,10.72-15.32,4.55-5.85,5.13-5.8,9.2-11.24,5-6.7,4.65-7.47,9.7-14.29,4.83-6.54,5.53-6.33,9.7-12.26s3.79-6.55,7.66-12.25c4.83-7.14,6.16-7.26,12.26-15.32,5.21-6.91,4.25-6.83,10.72-15.83,5.24-7.3,8.05-11.21,12.76-15.83,4.08-4,4.28-3.33,12.26-10.22,2.55-2.19,7.76-6.71,13.79-12.76,8.93-9,8.24-9.87,13.78-14.3,2.78-2.22,6.45-4.54,13.79-9.19,6-3.79,7.15-4.28,11.24-7.15,4.56-3.2,5-3.93,9.19-6.64a50.92,50.92,0,0,1,10.21-5.62c4.66-1.78,5.26-1,9.19-2.55,5-2,5.17-3.8,10.72-7.15a50.67,50.67,0,0,1,14.3-5.61c4.5-1.2,8.06-2.11,12.77-1.54a25.84,25.84,0,0,1,6.13,1.54" transform="matrix(1, 0, 0, 1, -6521.758789, -908.826904)" style="fill: none; stroke: rgb(255, 0, 0); stroke-miterlimit: 10; stroke-width: 5px;"/>
  <path class="b" d="M2576.68,1976.17c9.08-2.22,15.8-1.35,20.43,0,4.22,1.24,5.17,2.42,13.27,6.13a129.64,129.64,0,0,0,18.39,7.15c7.58,2.14,13.22,2.45,24.51,3.06a234,234,0,0,0,23.49,0c10.64-.41,16.42-.63,24.51-2,6-1.06,12.2-2.57,18.38-4.09,10.29-2.53,9.4-2.7,12.25-3.06,11.58-1.46,13.79,3,22.47,1,5.94-1.36,5.22-3.51,15.32-7.15,6-2.17,9.2-3.31,13.28-3.06,3.18.19,6.65,1.21,17.36,9.19,11.78,8.78,12.36,11.1,19.4,15.32,5.76,3.44,11.46,6.85,18.39,7.15,18.47.78,37.72-20.92,34.72-33.7-.38-1.62-.71-1.35-8.17-12.26-5.93-8.66-5.31-8.23-10.21-15.32-8.09-11.7-8.69-11.3-11.24-16.34,0,0-.88-1.74-6.12-14.3,9.83-22.35,10.21-26.55,10.21-26.55.84-9.42-2.37-13.33,1-18.38,2.59-3.86,7-5.42,10.21-6.13a41.56,41.56,0,0,0,6.64-7.92c2.38-3.67,2.73-5.5,6.13-13,2.82-6.24,4.23-9.36,6.13-12.25,2.57-3.93,5-6.43,9.19-10.73,6.2-6.34,6.64-5.64,11.49-10.72,1.77-1.86,1-1.22,11.49-13.79a75.53,75.53,0,0,1,7.66-8.42c2.41-2.21,3.27-2.64,7.66-6.13a111.27,111.27,0,0,0,9.95-8.43c3.52-3.55,5.47-6.54,9.2-12.25a74,74,0,0,0,6.89-12.26c1.54-3.6,2.66-7.14,3.06-8.42,2-6.46,1.53-7.18,3.07-10,2.31-4.18,4-3.56,6.12-7.66a23.38,23.38,0,0,0,2.3-10,22.36,22.36,0,0,0-.76-9.19,70.43,70.43,0,0,0-3.83-7.66l-7.66-14.55-10.73-9.19a42.43,42.43,0,0,1-10-10s-1.54-2.19-6.9-12.25a83.65,83.65,0,0,0-11.49-13c-1.55-1.4-6.89-6.12-6.89-6.12l-13-3.83c-6.17,2.7-10.35,2.36-13,1.53-1.78-.55-2.2-1.09-8.43-3.83a59.41,59.41,0,0,0-6.46-2.63c-2.69-.79-4.32-.82-10.39-1.2-6.3-.39-9.44-.59-10.72-.77-6.57-.92-6.53-2-11.49-2.3-5.41-.33-6,.9-10,0-1.91-.43-2-.77-8.43-3.82-5-2.36-7.46-3.54-9.19-3.83-2.62-.45-2.83.14-9.95.76-6.52.57-6.79.12-11.49.77-4.07.56-4,.91-8.43,1.53a67.22,67.22,0,0,1-10,.77,96.44,96.44,0,0,1-10.72-.77c-8.5,1.74-13.66.24-16.85-1.53-2.38-1.33-4.27-3.15-8.43-4.34a31.68,31.68,0,0,0-8.17-1c-6.63-.23-7.18,1-10.21,0-3.48-1.11-3.21-2.82-7.66-4.6a25.67,25.67,0,0,0-7.15-1.53,46.43,46.43,0,0,0-10.72,0c-6.11.71-7.18,2-9.7,1-3-1.22-2.32-3.42-5.62-5.11-1.16-.59-1.83-.62-9.7-1a49.76,49.76,0,0,1-6.64-.51c-4.12-1.2-4.4-3.42-8.17-5.11-4-1.78-4.8.22-10.73-1-4.85-1-4.84-2.46-11.74-4.59-4.16-1.29-3.94-.69-8.68-2-6.8-1.94-6.85-3.05-12.77-4.59-3.08-.8-2.82-.44-10.21-2-6.19-1.35-7.09-1.76-7.66-2-4.74-2.38-4.28-4.94-8.17-6.12-2.72-.83-3.26.32-8.17-.51a28.89,28.89,0,0,1-5.62-1.54c-3.46-1.34-4.13-2.45-7.15-4.08-2.87-1.56-5.66-2.23-11.23-3.58-5-1.2-5.54-.91-8.68-2a26.19,26.19,0,0,1-7.15-3.57c-2.4-1.76-2.89-2.87-6.13-6.13a71.39,71.39,0,0,0-5.61-5.11c-4.9,1-6.82,0-7.66-1-.45-.54-.78-1.35-.51-8.68.14-3.93.28-4.95-.51-6.13-1.27-1.88-3.09-1.46-4.6-3.06-1.13-1.2-2-3.48-1-8.17,0-1.29.08-3.45,0-6.13-.2-6.71-.89-8.68.51-11.23.48-.87,1.68-1.94,4.08-4.09,3.92-3.49,4.39-3.12,6.13-5.1a19.64,19.64,0,0,0,4.09-7.66c.85-3.28,0-4,1-5.62,1.45-2.34,4-2.09,8.68-3.57,1.92-.61,5.53-2.62,12.76-6.64a57.93,57.93,0,0,0,8.18-5.11,47,47,0,0,0,4.59-4.08,19.57,19.57,0,0,0,7.15-1c2.59-.89,3.2-1.74,6.13-3.06,4-1.79,4.81-1.1,8.68-2.55,2.1-.79,4.29-2.23,8.68-5.11,5-3.29,7.56-5,8.68-6.64,2.64-3.91.94-6,3.06-9.7,1-1.74,2.93-4.05,12.77-7.66a112.9,112.9,0,0,1,18.89-5.11,22.25,22.25,0,0,0,7.66,0c6.77-1.2,9.54-5.08,15.32-7.66a29.12,29.12,0,0,1,15.32-2c3-.46,6.58-1,10.72-1.53,5.7-.75,7.4-.86,11.75-1.53a84,84,0,0,0,10.72-2c5.7-1.67,6.71-3.22,12.26-5.62,4.66-2,9.06-2.88,17.87-4.6,7.43-1.44,13.18-2.12,16.85-2.55,14.21-1.65,20.94-2,20.94-2,5.25-.31,7.43-.28,10.72-1.53,2.85-1.09,3.49-2,9.7-5.11,3.51-1.76,5.3-2.65,7.15-3.06a18.79,18.79,0,0,1,9.7.51c2.76,1.7,5.84,3.58,9.2,5.61,3.59,2.17,4.62,2.76,6.12,3.07,1.77.35,5.71.61,11.24-3.58a114.23,114.23,0,0,1,9.7-7.66c3.74-2.64,5-3.2,6.13-3.57,3.15-1.07,5.75-.88,10.21-.51,3.6.29,4.83.73,10.21,1.53,3.48.52,6.33.83,8.17,1a16.46,16.46,0,0,0,7.15-1c3.67-1.44,4.88-3.58,8.17-5.62a21.71,21.71,0,0,1,10.21-3.06,85.72,85.72,0,0,1,10.22,2c5.28,1.4,6.81,2.35,14.3,4.6a76.52,76.52,0,0,0,9.7,2.55c3.37.53,6.89.68,14.3,0,6.91-.63,12.3-1.54,17.87-2.55,12.29-2.23,12.24-2.55,20.93-4.09,12.46-2.2,12.49-1.52,23-3.57,9.77-1.91,10.3-2.61,17.36-3.58,7.83-1.07,8.1-.35,17.37-1.53a91.61,91.61,0,0,0,17.87-3.57,64.62,64.62,0,0,0,11.23-4.6c3.73-2,4.39-2.84,13.28-8.68,7-4.63,8.28-5.17,9.7-5.62,2.24-.7,2.57-.43,11.75-1,7.71-.49,7.33-.68,13.78-1,6.09-.33,6.12-.15,7.66-.51,1.87-.44,4.12-1.25,11.24-6.13,8.21-5.63,7.85-6.36,10.72-7.15s6.29-.89,10.72-1c3.66-.11,4.53.1,6.13-.51,3.48-1.32,4.94-4.42,6.64-7.15,2.54-4.07,2.23-1.9,12.77-13.27,5.5-6,8.25-8.92,11.23-12.77a80.85,80.85,0,0,1,8.68-10.21,26.94,26.94,0,0,1,6.64-5.11c1-.53,3.57-1.74,9.19-2.55,4.4-.64,5.87-.34,14.3-.51,5.46-.12,8.19-.17,11.74-.51a124.36,124.36,0,0,0,12.77-2c8.08-1.56,9.95-2.39,11.23-3.06a24.55,24.55,0,0,0,6.64-5.11,37.75,37.75,0,0,1,11.24-.51c4.55.5,6.62,1.61,12.25,2a45.92,45.92,0,0,0,7.66,0c6.18-.61,9.17-2.73,18.89-7.15,7-3.17,5.44-2.09,13.28-5.62,7.33-3.3,11.82-5.33,17.36-8.68,7.3-4.42,6.13-4.92,11.24-7.66,5.27-2.84,7-2.55,20.42-6.64,8.81-2.68,13.21-4,17.87-6.13,8.33-3.77,8.17-5.21,14.81-7.66s12.41-3,17.87-3.57c7.79-.77,8.2.09,16.86-.51a95.42,95.42,0,0,0,19.91-3.07c7.93-2.19,13.56-5.1,19.4-8.17,8.77-4.59,10.32-6.61,18.9-11.23a136.49,136.49,0,0,1,16.85-7.66c7.36-3.58,13.31-6.6,17.36-8.68,12-6.14,12-6.49,17.87-9.19,7.15-3.28,9.73-4,16.85-7.66,3.8-2,6.87-3.76,9.2-5.11,6.42-3.73,9.55-5.88,13.27-8.17,5.87-3.61,7.87-4.29,18.39-9.7,17.43-9,16.43-9.42,28.59-15.32,8-3.87,15-6.86,20.43-9.19,7.08-3,13.27-5.51,17.36-7.15,15.49-6.2,16.32-6.11,21.45-8.68a93.86,93.86,0,0,0,17.87-11.23c4.47-3.63,9.17-9.11,18.38-19.92,7.35-8.62,11-12.92,14.3-17.36,5.27-7.13,8.46-12.43,14.81-23,1.28-2.13,6.84-11.41,14.3-25,7.61-13.92,7.82-15.22,12.76-23.49s8.08-13.51,13.28-19.92c3.95-4.86,9.15-9.77,19.4-19.4,14-13.11,14.62-12.91,19.41-18.38,2.73-3.13,6.58-8.39,14.29-18.9,9-12.29,9.38-13.29,12.77-16.85,5.49-5.76,10.74-9.65,16.34-13.78,4.51-3.34,5.94-4.06,14.81-10.22,5.28-3.66,9.53-6.71,12.25-8.68" transform="matrix(1, 0, 0, 1, -6521.758789, -908.826904)" style="fill: none; stroke: rgb(255, 0, 0); stroke-width: 5px;"/>
  <path class="b" d="M2843,2879.74c3.79.64,9.06,1.62,15.32,3.07,7.61,1.77,11.51,2.69,16.08,4.59a57.7,57.7,0,0,1,14.56,8.43c4.53,3.65,4.78,5.07,9.19,9.19,6,5.61,9.77,6.94,16.85,11.49,6.12,3.94,10.71,8,19.91,16.09,2.92,2.57,5.57,5,22.22,21.44,11.38,11.25,17.1,16.91,18.38,18.39,8.6,10,8.23,12.08,20.68,28.34,6.67,8.71,10,13.07,15.32,18.38,7,7,8.1,6.46,19.91,16.85,9.65,8.48,14.58,12.86,19.92,19.91,5.89,7.79,4.37,8.34,10,15.32,7,8.78,9.65,8.2,19.15,18.39,5.92,6.35,4.46,6.11,13.78,16.85,6.5,7.49,7.63,8.08,13.79,15.32,2.21,2.59,2.74,3.31,12.26,15.32,12.45,15.71,13.95,17.53,17.61,19.91,2.38,1.54,6.18,3.33,13.79,6.89,8.24,3.87,10.69,4.56,13.79,7.66,4.45,4.47,2.84,6.49,6.89,10,4.92,4.23,8.3,2.09,15.32,6.13,2.62,1.51,5.06,4.07,10,9.19s8.49,8.89,12.25,14.55c3.07,4.61,4.85,8.69,8.43,16.86,4.39,10,4.3,11.52,8.42,20.68,3.71,8.21,5.56,12.32,8.43,16.08,3.06,4,4.55,4.62,16.85,14.55,2.91,2.35,10.32,8.35,18.38,15.32,7.46,6.45,7.24,6.62,13,11.49,5.11,4.3,10.54,8.88,17.62,13.79a192.25,192.25,0,0,0,22.21,13c2.45,1.28,11.3,5.89,24.51,11.49,12.11,5.14,13.33,4.94,23.75,9.19,21.93,9,21.73,11.94,39.06,18.39,14.89,5.53,15.59,3.53,28.34,9.19,1.69.74,9.57,5.1,25.28,13.78,13.06,7.22,16.91,9.4,22.21,13.79.11.09,3.9,3.63,11.49,10.72,5.88,5.5,8.86,8.31,10.73,11.49s4.59,9.2,4.59,9.2a34.79,34.79,0,0,0,10,3.83c5.6,1.19,8.64.32,16.08,0,4.61-.2,9.71.12,19.92.76,8.21.52,12.32.78,17.62,1.53,2.34.34,7.07,1.07,21.44,4.6,11.95,2.93,11.24,3,20.68,5.36,1.86.45,13.25,3.23,26.81,6.89,7.18,1.95,12,3.32,14.56,7.66,1.84,3.08,1.53,5.84,3.83,6.9,3,1.37,5.65-2.28,10.72-3.07s8.92,2,13.79,4.6c1.79,1,9.11,3.46,23.74,8.42,11.69,4,11.7,2.69,34.47,8.43,4,1,16.8,4.27,32.93,9.19,4.23,1.29,2.65.85,23.75,7.66,22.9,7.39,25.64,8.19,32.17,10.72,6.82,2.65,11.69,4.83,21.45,9.2,11,4.9,15.32,7.17,26.8,12.25,6.7,3,10.36,3.52,16.09,6.9a70.05,70.05,0,0,1,12.26,9.19,69.19,69.19,0,0,1,7.65,8.42c2.28,3,2.92,4.31,6.13,9.19,1.58,2.4,3.9,5.84,6.9,10" transform="matrix(1, 0, 0, 1, -6521.758789, -908.826904)" style="fill: none; stroke: rgb(255, 0, 0); stroke-width: 5px;"/>
  <path class="b" d="M732,1596.77a48.2,48.2,0,0,0-2.3-14.56c-1.76-5.41-3.4-7-5.36-13.78-1.42-5-.77-4.88-2.3-10-1.45-4.84-2.18-5.37-4.59-12.26a75,75,0,0,1-3.07-10c-1.19-5.6-.47-6.56-1.53-12.51a82.19,82.19,0,0,0-3.06-11.24,110.52,110.52,0,0,0-5.11-13.79,117.71,117.71,0,0,0-7.15-12.76c-2.46-4-2.56-4-8.17-12.77-3.69-5.8-5.56-8.74-6.64-10.72-3.07-5.64-3-6.66-5.61-10.72-2.33-3.57-2.85-3.46-6.13-8.18-2.75-3.93-4.33-6.21-5.62-9.19-.85-2-1.35-3.73-2.55-13.78-1.4-11.63-1.09-12.24-2-15.83-.56-2.1-.82-2.5-5.11-12.26-6.2-14.1-6.14-14.4-8.17-18.38-2.67-5.24-2.88-5-6.64-12.26-1.47-2.86-1.67-3.35-5.62-11.23-4.58-9.17-5.39-10.65-7.15-12.77-2.48-3-2.9-2.48-6.63-6.64-3.53-3.92-3.79-5.07-7.15-9.19-4.65-5.68-5.67-5.32-9.7-10.21-2.24-2.7-4-5.71-7.66-11.74a162.76,162.76,0,0,1-8.69-15.83c-3.53-7.54-2.64-7.45-5.1-11.75s-3.4-4.46-10.72-13.79c-5.15-6.54-4.95-6.8-8.69-11.23-3-3.61-3.16-3.43-8.17-9.19-2.7-3.11-4.52-5.31-8.17-9.7s-5.4-6.52-6.12-7.66c-3-4.81-2.43-6.27-5.11-11.75-1.88-3.85-4.32-7-9.19-13.27-5.21-6.72-5.48-6.12-8.17-10.22-3.37-5.13-3-6.2-6.64-11.23-1.92-2.68-1.48-1.63-6.64-8.17-3.14-4-4-5.23-6.13-7.15-1.46-1.31-2.26-1.79-4.08-3.58a32.56,32.56,0,0,1-4.09-4.59c-2.15-3.06-1.62-3.91-4.08-8.17a27.52,27.52,0,0,0-3.58-5.11c-1.66-1.84-2.48-2.15-5.61-4.59-.63-.49-.48-.39-8.17-7.15-3.37-3-4.15-3.64-5.11-5.11-1.56-2.39-1-2.8-2.55-5.1a26.27,26.27,0,0,0-5.62-5.62c-2.3-5.46-5-7.41-7.15-8.17s-3.31-.27-6.13-1.53a20,20,0,0,1-5.61-4.09,66.92,66.92,0,0,1-5.11-5.62,43.21,43.21,0,0,0-9.19-7.66c-4.47-2.68-4.7-1.38-9.19-4.08-3.41-2-3.4-2.88-9.19-7.15-3.27-2.41-3.14-2-6.64-4.6-4.79-3.48-5.1-4.2-9.7-7.66-3.18-2.38-5.57-3.93-9.71-6.63a93.22,93.22,0,0,0-9.19-5.62c-4.11-2-4.82-1.81-7.66-3.57s-3-2.48-7.15-6.13c-5.22-4.58-5.59-4-10.21-8.17-4.19-3.77-4-4.33-7.15-6.64a33.09,33.09,0,0,0-8.17-4.6c-2.92-1.1-3.35-.73-8.17-2-2.5-.68-4.73-1.47-9.19-3.06-5.81-2.08-8.71-3.11-10.72-4.09-4.22-2-4.1-2.65-9.71-5.62-.74-.39-4.1-2.15-8.68-4.08-3.15-1.33-5.89-2.27-11.23-4.09-5-1.7-8.21-2.79-12.77-4.08a95.58,95.58,0,0,0-10.21-2.55c-5.53-1-6.68-.51-11.23-1.54-5.19-1.16-5.23-2.12-9.2-3.06-4.71-1.12-5.83,0-16.85.51-7.68.39-11.51.59-15.32,0-4.64-.72-6.56-1.73-11.23-1.53a34.39,34.39,0,0,0-8.68,1.53c-3.9,1.28-4.92,2.5-8.68,3.58a26.8,26.8,0,0,1-7.15,1" transform="matrix(1, 0, 0, 1, -6521.758789, -908.826904)" style="fill: none; stroke: rgb(255, 0, 0); stroke-width: 5px;"/>
  <path class="b" d="M315.57,1835.49c-.68-13-1.17-24.21-1.53-33.19-.75-19-.85-27.2-1.78-43.92-1.26-22.59-2.29-29.43-2.81-32.68a162.6,162.6,0,0,0-6.81-29c-4.31-12.5-6.09-11.82-18.73-39.83-1.43-3.18-4.6-10.26-8.17-19.74-3.31-8.83-5-13.24-5.61-16.85s-.82-7,1.53-28.6c1.59-14.63,2-15.88,1.53-19.92-.84-7.68-3.31-13.18-6.64-20.42-5-10.86-7.16-11.18-13.27-23.49-2.83-5.7-4.74-10.41-8.17-18.89-5.65-14-5.73-16.11-9.2-20.43-3.59-4.48-7.33-6.9-14.8-11.74-6.38-4.14-6.69-3.45-16.34-9.2-3.07-1.82-1.46-1-15.83-10.21-8.16-5.25-9.4-6-11.24-8.17-2.78-3.29-4.07-6.46-6.64-12.76s-2.59-8.34-5.1-12.77a40.81,40.81,0,0,0-5.62-7.66" transform="matrix(1, 0, 0, 1, -6521.758789, -908.826904)" style="fill: none; stroke: rgb(255, 0, 0); stroke-width: 5px;"/>
  <path class="b" d="M2758.72,3597.45a95.91,95.91,0,0,0,13,18.38c3.27,3.61,7.34,7.55,21.45,18.38,9.28,7.13,11,8.07,20.68,15.32,4.94,3.69,17,12.75,31.41,24.51,14.69,12,14.27,12.59,21.44,17.62a192.33,192.33,0,0,0,28.34,16.08c12.6,5.89,14.45,5.26,32.94,13,10.56,4.43,18.2,8.09,25.28,11.49,10.89,5.22,23.29,11.17,38.29,19.91,9.42,5.49,8.07,5.21,28.34,17.62,13.38,8.18,20.07,12.28,24.52,14.55,13.73,7,25.06,10.72,36.76,14.55,11.27,3.69,19.71,5.85,29.87,8.43,4.15,1,13.1,3.28,41.37,9.19,30.12,6.3,28.66,5.59,40.59,8.43,3.46.82,2.82.7,38.3,9.95,18.11,4.73,22.85,6,30.64,7.66,8.69,1.91,17.36,3.79,29.1,5.36a247.33,247.33,0,0,0,26.05,2.3c9.43.31,16.24,0,29.87-.76,15.55-.82,18.31-1.5,29.11-1.54a157.5,157.5,0,0,1,19.91.77c13,1.51,16.85,4.24,30.64,7.66,7.4,1.84,17.19,3,36.76,5.36,13.89,1.67,21.83,2.61,32.94,3.07,12.44.51,18.66,1,25.28,0,6.82-1,10.24-2.36,17.61-2.3a66.93,66.93,0,0,1,16.09,2.3c10.64,2.61,17.62,5.87,25.28,9.19,14.74,6.38,23.13,10,33.7,13,13.84,3.94,13.51,1.71,33.7,6.89,9,2.31,11.53,3.38,23,6.13,8.6,2.06,14.32,3.42,22.21,4.6,10.18,1.51,15.26,2.27,22.21,2.29,8.26,0,11.83-.91,16.86,1.54,4.32,2.1,6.76,5.27,9.19,8.42a46.09,46.09,0,0,1,8.42,18.38" transform="matrix(1, 0, 0, 1, -6521.758789, -908.826904)" style="fill: none; stroke: rgb(255, 0, 0); stroke-width: 5px;"/>
  <path class="b" d="M1278.13,1387.91a82.37,82.37,0,0,1-10.22-6.63,90.65,90.65,0,0,1-10.72-9.71c-4.5-4.63-4.61-5.44-10.21-11.74-2.67-3-6.73-7.55-12.26-12.77-4.53-4.27-8-7.11-13.78-11.74-5.26-4.25-8.53-6.88-13.28-10.21-8.6-6-9.65-5.64-14.3-9.71-3.36-2.94-3-3.32-10.21-11.23-6.26-6.88-6.44-6.5-13.15-13.79-7-7.57-6.68-7.87-12.38-13.78s-9.78-9.53-11.75-11.24c-3.86-3.35-5.89-4.79-8.17-6.64-8.35-6.77-10.67-11.39-17.87-19.4-5.15-5.73-10.42-10.12-20.94-18.89-12.65-10.56-12.49-9-22-17.37-9.94-8.77-11.11-11.35-18.39-15.83-1.37-.84-2.55-1.5-17.36-8.17-16.17-7.27-15.84-7-20.42-9.19-9.79-4.73-17-8.86-22-11.74-9.2-5.32-13.79-8-17.87-11.24-5.76-4.6-9.29-8.68-16.34-16.85-6.7-7.75-10.05-11.62-12.26-16.34-2.92-6.23-3.61-11.45-4.6-18.89-.83-6.27-.5-8-1-23-.34-10.13-.51-15.2-1-20.94a159.41,159.41,0,0,0-3.57-24.51c-.77-3.24-1-3.61-7.15-22.47-5.75-17.58-5.67-17.59-6.64-19.91-4.54-10.82-6.31-10.55-12.25-23.49-4.8-10.43-4-11.33-8.18-18.89s-5.5-7.58-10.21-15.83a114.31,114.31,0,0,1-8.68-18.9,107.3,107.3,0,0,1-5.11-22.46c-.85-7.34-.1-7.62-1-17.88a126.62,126.62,0,0,0-2.55-18.38c-2.07-8.79-4.57-12.17-9.7-23.49-5.81-12.82-4.37-12.37-10.21-26-7.26-17-9.08-16.71-16.86-34.21-4.51-10.17-2.79-7.76-11.74-29.62-6.5-15.87-7.9-18.34-10.21-26-2.61-8.67-3.82-15.48-5.62-25.54-2.3-12.87-2.08-15.74-4.6-27.57a138.4,138.4,0,0,0-4.59-17.87c-2-5.95-4.62-11.19-9.7-21.45-3.21-6.47-6.39-12.88-11.24-21.45-3.47-6.13-7.7-13.21-12.76-20.93" transform="matrix(1, 0, 0, 1, -6521.758789, -908.826904)" style="fill: none; stroke: rgb(255, 0, 0); stroke-width: 5px;"/>
  <path class="b" d="M1666,915.57a163.33,163.33,0,0,0-5.62-16.85c-4.1-10.39-6.26-12.72-13.28-28.08-3.93-8.6-4.52-10.65-8.17-17.87-5.86-11.62-8.5-14.62-10.21-16.34-4.31-4.36-6.57-4.5-14.3-9.71a135.43,135.43,0,0,1-16.85-13.78c-6.52-6.37-10.64-12.42-18.89-24.51A207.93,207.93,0,0,1,1565.87,768c-3.36-6.25-5.47-11.15-9.7-20.94-5.14-11.9-7.71-17.85-9.19-23.49-1.41-5.35-1.15-6.28-3.58-24-2.78-20.32-3-18.2-3.57-25a202.69,202.69,0,0,1,0-31.66c.39-6,1.11-11.93,2.55-23.49,2.92-23.45,3.66-24.88,5.11-38.29,1-8.8,1.49-17.27,2.55-34.22.34-5.42,0-.39,1.53-34.21a137.11,137.11,0,0,0,0-17.36c-.33-4.88-.9-8.77-2-16.34-1.71-11.41-2.3-12.75-3.06-18.89a148.2,148.2,0,0,1-1-20.43c0-14.34,1.53-17,2.55-33.19.37-5.9.07-3.9.51-32.17.33-21.34.47-20.36.51-30.13.09-22.94-.7-21.83,0-29.62,1.09-12.09,2.78-12.25,6.64-34.21.48-2.76.06-.48,4.08-27.06,1.76-11.61,2.72-17.86,4.09-27.58,1.63-11.62,2.45-17.43,2.55-19.91.33-7.74-.26-12.42,1.53-20.43a45.42,45.42,0,0,1,3.07-9.7,40.78,40.78,0,0,1,13.28-15.83" transform="matrix(1, 0, 0, 1, -6521.758789, -908.826904)" style="fill: none; stroke: rgb(255, 0, 0); stroke-width: 5px;"/>
  <path class="b" d="M645.45,199.15a62.07,62.07,0,0,0,0-18.68,58.77,58.77,0,0,0-8.17-22.17" transform="matrix(1, 0, 0, 1, -6521.758789, -908.826904)" style="fill: none; stroke: rgb(255, 0, 0); stroke-width: 5px;"/>
  <path class="c" d="M495.06,2170.47c7.18,9.63,13.7,7.41,39.9,19,20.56,9.06,35.44,18.76,49.12,27.67,8.94,5.82,17.38,12.07,34.26,24.56,11.2,8.29,26.75,20,33.7,25.53,30.93,24.67,36.91,43.37,63.74,73.07,21.47,23.76,40.35,36.9,73.19,59.77,13,9.06,38.54,23.31,89.59,51.81,16.84,9.4,40.35,22.3,68.31,26.95,0,0,18.52,3.07,43.44-4.73,4.91-1.54,8-3.78,10-6.66a15.51,15.51,0,0,0,2.4-5.77,57.37,57.37,0,0,0-4.81-33.91c-10.66-21.84-37.29-37.06-50.43-44.82a1000.47,1000.47,0,0,1-84.24-57.17c-10.55-8-29.91-25.81-68.62-61.48-47.25-43.53-37-36.35-71.62-68-9.94-9.09-18.66-16.88-29.62-29.61-18.07-21-15.73-24.65-26.09-32.73-5.31-4.15-11.56-7.59-59.07-17.72-33.28-7.09-39.37-7.36-44.5-14.36-8.25-11.3,0-21-9.23-39.36-1.44-2.89-11.17-22.28-25.31-22.76-4.13-.14-8.19,1.34-29.29,22.8-24.38,24.79-25.64,29.61-26.11,32.6-1.7,10.75,4.52,12.66,11.52,36.55C492.53,2156.2,487.92,2160.89,495.06,2170.47Z" transform="matrix(1, 0, 0, 1, -6521.758789, -908.826904)" style="fill: rgb(102, 204, 204); opacity: 0.5; stroke: rgb(102, 204, 204);"/>
  <path class="d" d="M2903.16,1677.63c10.72,16.29,4.09,37.82-5.29,68.24-3.73,12.12-8.94,24.24-18.89,35.37-5.66,6.33-15.32,15.11-27.9,16.4-2.31.23-7.13.67-8.87-1.9-2.2-3.27,2.25-9,4.81-14.5,4.77-10.36,1.54-17.27,0-35.37-2.84-33,5.66-36.48-.8-45.68-9.18-13.07-25.94-5.54-38.66-21.16-7-8.56-10.95-21.88-6.11-27.56,4.18-4.91,13.77-2.7,31.64,2C2876.81,1665.05,2898.77,1671,2903.16,1677.63Z" transform="matrix(1, 0, 0, 1, -6521.758789, -908.826904)" style="fill: rgb(102, 189, 180); opacity: 0.5; stroke: rgb(102, 204, 204);"/>
  <path class="c" d="M2516.75,3001.34c16.38,4.33,41.52,32.56,58,48.29,21.77,20.8,24.88,16.43,40.13,34.4,5.46,6.43,6.07,8.18,27,39.26,12.32,18.32,18.47,27.48,25.47,37.29,13,18.32,23.54,31.55,32.19,42.41,23.21,29.15,34.81,43.72,47,55.19,9.25,8.69,23.56,19.1,52.17,39.92,31.23,22.71,35.5,24.31,51,37.39,19,16.07,20.71,20.6,38.31,35.94,10,8.71,17.07,13.84,53.4,38.7,59.14,40.45,72,48.35,71.41,61.19-.69,14.79-18.79,25.94-21.45,27.57-2.44,1.5-16.55,9.9-32.17,7.15-26.39-4.64-23.57-35.2-55.83-57.87-26.36-18.52-38.71-5.49-65.46-26.65-16.35-12.94-12.78-18.65-37-43.65-13.76-14.2-16.28-13.76-44-37.9-6.9-6-21.23-19.37-49.6-45.84-41.7-38.92-31.12-29.45-51-47.85-20.78-19.24-27.22-24.85-38.18-36.42-16.92-17.87-26-26.49-30.14-35.22-10-20.87-2-29.65-9.85-53.79-4.87-14.95-13-25-29.35-45.18-8.37-10.34-38.08-45.63-42.41-63.86-.46-1.93-1.71-7.2.95-9.77S2514.9,3000.86,2516.75,3001.34Z" transform="matrix(1, 0, 0, 1, -6521.758789, -908.826904)" style="fill: rgb(102, 204, 204); opacity: 0.5; stroke: rgb(102, 204, 204);"/>
  <path class="c" d="M2270.51,2550c23.11,4.06,37.94,13.31,45.58,19,8.47,6.31,13.24,12.09,16,19,.67,1.68,6.15,15.84,0,22-3.41,3.41-8.72,2.69-16,2-30.64-2.89-26.57,1.49-45.58-2-12.36-2.27-11-3.56-34.6-9.5-2.51-.64-15.07-3.79-28.95-6.5a477.1,477.1,0,0,0-62-7.79c-32.63-2-33.55,1.36-64.81,0-28.7-1.25-27.15-4-63.61-7.21a705,705,0,0,0-89.18-2c-22.15.9-33.23,1.35-49.27,4-16.24,2.68-23.42,5.26-43.92,7.84-29.56,3.73-36.93,1.16-39.83,0-14.67-5.84-14.58-15.14-27.57-17.84-14.38-3-19.29,7.42-32.94,5-18.11-3.21-27.91-24.82-30.25-30-1.1-2.42-13.85-31.58,0-51,6.05-8.49,10.34-5.51,30.25-19,12.21-8.27,11.35-9.9,32.94-27,10.73-8.5,18-14.25,27.57-20.46,14.08-9.12,25.31-14.13,39.83-20.54,36.28-16,38.51-11.91,63.79-24.93,13.82-7.12,18.77-11.24,32-15.23,3.64-1.09,33.78-9.93,40,0,2.33,3.72-1.18,6.09-1,15.23s4.44,16.52,13,31.23a155.7,155.7,0,0,0,13,19.66,160.66,160.66,0,0,0,21.58,22c14.8,12,29.19,15.31,63.61,25,55.62,15.66,45.21,14.71,64.81,19,38.16,8.35,47.65,5.37,62,17,12.34,10,14.17,19.47,28.95,27C2248.76,2550.54,2261.78,2550.75,2270.51,2550Z" transform="matrix(1, 0, 0, 1, -6521.758789, -908.826904)" style="fill: rgb(102, 204, 204); opacity: 0.5; stroke: rgb(102, 204, 204);"/>
  <path class="c" d="M2336.6,2888.17c-10.11-10.94-17.14-10.35-48.94-24.17-30.36-13.2-29.32-16.07-48-22-24.68-7.82-26.36-2.78-44.94-10-20.84-8.1-20.11-15-49.34-31.43-8.38-4.72-20.43-10-44.52-20.57-34.84-15.28-32.65-12.94-49.11-21-23.16-11.34-27.27-15.87-46.54-23-8.71-3.22-18.57-6.81-32-9-19.17-3.13-23.44.23-45.8-1-28.31-1.55-27.56-7.26-49.27-7-19.93.24-20.16,5-46.22,7-23.86,1.79-24.4-2.18-44.69,0-12.1,1.3-12.75,2.8-48.73,12-25.6,6.55-23.44,5.32-45.21,11-32.32,8.44-33.73,10.27-49.54,13-17.42,3-29.57,5.11-45.22,3-19.62-2.64-20.54-8.64-49.28-17-26.45-7.7-27.11-3-46.07-10-22.63-8.31-21.79-15-48.55-27-18.75-8.42-19.49-5.29-46.77-16-17.41-6.84-17.19-8.14-44.44-20-23.94-10.41-35.9-15.62-48.75-19-26.7-7-26.49-1-47.26-8-23.77-8-33.53-19.05-46.3-14.25-8,3-12,10.3-14.21,14.21-18.15,32.73,12.35,79.73,14.56,83,16.09,24.16,37.49,36.51,47.49,42.28,10.39,6,9.15,3.65,45.72,19.72,31.55,13.87,33.94,16.26,48.75,21,16.6,5.31,30.12,7.59,44.44,10,24.94,4.2,25.64,2.16,46.77,6,28.7,5.21,28.88,9.24,48.55,11,22.16,2,26.48-2.73,46.11-1.09,27,2.26,28.31,15,49.24,15.09,21.52.09,23-11.69,45.22-12,17.38-.24,18.5,6.92,49.54,14,16.35,3.73,29,6.63,45.21,5,20.46-2.07,21.15-8.84,48.73-15,23.66-5.29,24.57-.61,44.69-6,27.11-7.27,27.29-16.25,46.22-18,12.64-1.17,24.85,3.22,49.27,12,21.16,7.61,24.47,11.37,45.8,18a318.58,318.58,0,0,0,32,8c4.53.9,16.39,3.15,46.54,6,28.35,2.68,28.92,1.74,49.11,4,20.92,2.34,31.38,3.52,44.52,7,19.12,5.07,32.6,11.73,49.34,20,15.07,7.44,15.12,8.56,44.94,25,29.38,16.19,39.25,20.58,48,24,23.33,9.08,35.21,13.5,46,8,12.3-6.3,17.36-21.9,17.61-33.13C2351.64,2904.42,2340.57,2892.46,2336.6,2888.17Z" transform="matrix(1, 0, 0, 1, -6521.758789, -908.826904)" style="fill: rgb(102, 204, 204); opacity: 0.5; stroke: rgb(102, 204, 204);"/>
  <rect class="e" width="1" height="1" style="fill: none;" transform="matrix(1, 0, 0, 1, -6522.258789, -909.326904)"/>
  <rect class="e" x="4095" y="4095" width="1" height="1" style="fill: none;" transform="matrix(1, 0, 0, 1, -6522.258789, -909.326904)"/>
  <rect class="f" x="203.74" y="3618.95" width="40" height="40" style="fill: none; stroke: rgb(0, 0, 0);" transform="matrix(1, 0, 0, 1, -6522.258789, -909.326904)"/>
  <rect class="g" x="203.75" y="3678.95" width="40" height="40" style="fill: rgb(109, 191, 191); stroke: rgb(109, 191, 191);" transform="matrix(1, 0, 0, 1, -6522.258789, -909.326904)"/>
  <circle class="i" cx="635.76" cy="1646.31" r="12.5" style="fill: rgb(145, 26, 29); stroke: rgb(0, 0, 0); stroke-miterlimit: 10;" transform="matrix(1, 0, 0, 1, -6522.258789, -909.326904)"/>
  <circle class="j" cx="635.76" cy="1646.31" r="1.75" style="fill: rgb(236, 28, 36);" transform="matrix(1, 0, 0, 1, -6522.258789, -909.326904)"/>
  <circle class="k" cx="635.76" cy="1646.31" r="3.8" style="fill: none; stroke: rgb(0, 0, 0); stroke-miterlimit: 10;" transform="matrix(1, 0, 0, 1, -6522.258789, -909.326904)"/>
  <circle class="i" cx="563.01" cy="1689.69" r="12.5" style="fill: rgb(145, 26, 29); stroke: rgb(0, 0, 0); stroke-miterlimit: 10;" transform="matrix(1, 0, 0, 1, -6522.258789, -909.326904)"/>
  <circle class="j" cx="563.01" cy="1689.69" r="1.75" style="fill: rgb(236, 28, 36);" transform="matrix(1, 0, 0, 1, -6522.258789, -909.326904)"/>
  <circle class="k" cx="563.01" cy="1689.69" r="3.8" style="fill: none; stroke: rgb(0, 0, 0); stroke-miterlimit: 10;" transform="matrix(1, 0, 0, 1, -6522.258789, -909.326904)"/>
  <circle class="i" cx="476.71" cy="1741.78" r="12.5" style="fill: rgb(145, 26, 29); stroke: rgb(0, 0, 0); stroke-miterlimit: 10;" transform="matrix(1, 0, 0, 1, -6522.258789, -909.326904)"/>
  <circle class="j" cx="476.71" cy="1741.78" r="1.75" style="fill: rgb(236, 28, 36);" transform="matrix(1, 0, 0, 1, -6522.258789, -909.326904)"/>
  <circle class="k" cx="476.71" cy="1741.78" r="3.8" style="fill: none; stroke: rgb(0, 0, 0); stroke-miterlimit: 10;" transform="matrix(1, 0, 0, 1, -6522.258789, -909.326904)"/>
  <circle class="i" cx="405.95" cy="1785.91" r="12.5" style="fill: rgb(145, 26, 29); stroke: rgb(0, 0, 0); stroke-miterlimit: 10;" transform="matrix(1, 0, 0, 1, -6522.258789, -909.326904)"/>
  <circle class="j" cx="405.95" cy="1785.91" r="1.75" style="fill: rgb(236, 28, 36);" transform="matrix(1, 0, 0, 1, -6522.258789, -909.326904)"/>
  <circle class="k" cx="405.95" cy="1785.91" r="3.8" style="fill: none; stroke: rgb(0, 0, 0); stroke-miterlimit: 10;" transform="matrix(1, 0, 0, 1, -6522.258789, -909.326904)"/>
  <circle class="i" cx="3092.91" cy="3301.78" r="12.5" style="fill: rgb(145, 26, 29); stroke: rgb(0, 0, 0); stroke-miterlimit: 10;" transform="matrix(1, 0, 0, 1, -6522.258789, -909.326904)"/>
  <circle class="j" cx="3092.91" cy="3301.78" r="1.75" style="fill: rgb(236, 28, 36);" transform="matrix(1, 0, 0, 1, -6522.258789, -909.326904)"/>
  <circle class="k" cx="3092.91" cy="3301.78" r="3.8" style="fill: none; stroke: rgb(0, 0, 0); stroke-miterlimit: 10;" transform="matrix(1, 0, 0, 1, -6522.258789, -909.326904)"/>
  <circle class="i" cx="3023.69" cy="3372.24" r="12.5" style="fill: rgb(145, 26, 29); stroke: rgb(0, 0, 0); stroke-miterlimit: 10;" transform="matrix(1, 0, 0, 1, -6522.258789, -909.326904)"/>
  <circle class="j" cx="3023.69" cy="3372.24" r="1.75" style="fill: rgb(236, 28, 36);" transform="matrix(1, 0, 0, 1, -6522.258789, -909.326904)"/>
  <circle class="k" cx="3023.69" cy="3372.24" r="3.8" style="fill: none; stroke: rgb(0, 0, 0); stroke-miterlimit: 10;" transform="matrix(1, 0, 0, 1, -6522.258789, -909.326904)"/>
  <circle class="i" cx="2931.86" cy="3467.22" r="12.5" style="fill: rgb(145, 26, 29); stroke: rgb(0, 0, 0); stroke-miterlimit: 10;" transform="matrix(1, 0, 0, 1, -6522.258789, -909.326904)"/>
  <circle class="j" cx="2931.86" cy="3467.22" r="1.75" style="fill: rgb(236, 28, 36);" transform="matrix(1, 0, 0, 1, -6522.258789, -909.326904)"/>
  <circle class="k" cx="2931.86" cy="3467.22" r="3.8" style="fill: none; stroke: rgb(0, 0, 0); stroke-miterlimit: 10;" transform="matrix(1, 0, 0, 1, -6522.258789, -909.326904)"/>
  <circle class="i" cx="2853.95" cy="3550.16" r="12.5" style="fill: rgb(145, 26, 29); stroke: rgb(0, 0, 0); stroke-miterlimit: 10;" transform="matrix(1, 0, 0, 1, -6522.258789, -909.326904)"/>
  <circle class="j" cx="2853.95" cy="3550.16" r="1.75" style="fill: rgb(236, 28, 36);" transform="matrix(1, 0, 0, 1, -6522.258789, -909.326904)"/>
  <circle class="k" cx="2853.95" cy="3550.16" r="3.8" style="fill: none; stroke: rgb(0, 0, 0); stroke-miterlimit: 10;" transform="matrix(1, 0, 0, 1, -6522.258789, -909.326904)"/>
  <text style="font-family: Arial, sans-serif; font-size: 50.5px; font-weight: 700; white-space: pre;" x="-6246.782" y="2746.057">Rocky</text>
  <text style="font-family: Arial, sans-serif; font-size: 47.2px; font-weight: 700; white-space: pre;" x="-6248.903" y="2806.063">Sand-pebble</text>
</svg>