<svg viewBox="-1894.583 -1951.068 4096 4096"
  xmlns="http://www.w3.org/2000/svg">
  <path class="a" d="M1141.28,1312.85c5.83,4.66,25.69-5.73,40.71-22.38,8.11-9,6.31-10.37,17.24-26a226.78,226.78,0,0,1,33.45-38.15c16.9-15.24,25.35-22.86,35.23-23.25,11.22-.43,15.25,6.49,45.45,26.56,15.7,10.43,35.12,23.32,38.3,19.91,2.6-2.78-6.22-15.77-9.74-21a119.3,119.3,0,0,0-9.66-12.22c-6.5-7.43-7.81-7.65-14.3-14.81a179.33,179.33,0,0,1-13.6-17,152,152,0,0,1-9.89-15.64c-5.77-10.54-4.23-10.87-8.17-16.34-3.31-4.59-4.4-4.36-13.28-14.81-4.42-5.19-5.83-7.22-6.13-10.21-.38-3.85,1.41-6,0-9.19-1-2.26-2.8-3.4-5.61-5.11-6.1-3.7-9.12-2.57-12.77-5.62-2.37-2-2.66-3.76-4.6-7.66-3.09-6.22-4.88-6.76-13.41-17.73-7.15-9.2-5.46-8.27-11.61-16-6.46-8.09-9.69-12.14-14.8-15.83-4.35-3.13-6.33-3.51-12.26-8.17-4-3.14-4.6-4.15-6.64-4.59-4.57-1-7.84,2.7-15.32,7.66-5.85,3.87-3.84,1.61-19.4,10.21-10.35,5.72-10.72,6.43-16.85,9.7a163.91,163.91,0,0,1-23.49,10.21c-1.48,2.18-3.25,5.56-2.56,9.2.74,3.83,3.58,4.65,8.59,10.3,4.42,5,6.85,9.59,9.29,14.21,2.53,4.79,3.83,7.32,4.59,11.23a32.71,32.71,0,0,1,0,11.75c-1.14,6.46-3.21,7.28-4.34,12.65s-.1,9.75,1.28,15.43c2,8.36,3.86,8.1,7.66,19.4a98.41,98.41,0,0,1,4.08,16.34,102.23,102.23,0,0,1,1,11.24c.16,3,.32,7.74,0,16.34-.24,6.86-.48,7.56-1,16.85-.51,8.72-.35,9-1,22.47-.52,10.68-.79,16-1,17.36-1.3,7.56-3.15,11.38-2,17.87a35.28,35.28,0,0,0,2.55,8.17C1138.18,1308.36,1139.66,1311.56,1141.28,1312.85Z" transform="matrix(1, 0, 0, 1, -1894.083008, -1950.568359)" style="fill: rgb(0, 102, 0); opacity: 0.5; stroke: rgb(0, 102, 0);"/>
  <path class="a" d="M1414.47,1967.49c-5.34-17.78-33.66-28.54-50.47-33.73-21.16-6.55-39-8.27-73.75-11.46-48.7-4.47-73.15-6.67-77.84-5.21-38.24,11.87-37.21,44.23-77.32,55.22-6.84,1.87-33.36,8.19-58.29-5.34-38.86-21.09-40.62-72.35-40.71-77.61-.91-48.11,35.21-79.18,42.8-85.71,3.83-3.3,5.29-4.12,23.32-15.66,53-34,79.55-50.93,89.11-59.18,20-17.24,44.67-38.52,54.64-74.7a120.13,120.13,0,0,0,1.54-57.46c-5.43-23.46-17-38.72-30.65-56.56-9.1-12-19.44-25.3-37.15-37.59-22.46-15.59-49.09-24.12-52.47-19.1-1,1.49.92,2.86,3.07,12.26a108.29,108.29,0,0,1,2.3,16.08c.67,8.28-.1,8.5.76,13.79,1.16,7.12,2.62,7.21,3.83,13.79a54.18,54.18,0,0,1,0,18.38c-1.16,7.68-2.8,8.72-3.83,15.32a48.52,48.52,0,0,0,.77,18.38c5.65,8.28,6.08,14.33,5.36,18.39-1.09,6.13-4.71,7.12-6.89,15.32-1.39,5.18-1.17,9.38-.77,16.85.35,6.67,1.13,7.92,1.53,16.08.29,5.83.43,8.74,0,11.49-1.66,10.65-8.7,18.66-9.19,18.38s2.46-7.07,3.06-6.89.72,10.38-5.36,16.09c-2.33,2.19-3.58,1.86-9.19,6.12-3.19,2.43-4.78,3.64-6.13,5.37-3.08,4-2.58,6.86-4.59,13-.58,1.77-2.52,7.69-6.13,12.25-3.79,4.79-6.66,4.57-16.09,10-8.18,4.68-6.74,5.25-19.91,13.79-4.91,3.18-9.23,6-15.32,9.19-8.46,4.48-9.47,4-16.08,7.66a105.42,105.42,0,0,0-18.39,12.79c-8.45,7.33-8.44,9.8-16.08,16.31-6.34,5.41-11.84,8.4-17.62,11.49a142.89,142.89,0,0,1-38.3,13.79c-11.79,4.25-21.81,7.48-29.3,9.77-16.08,4.92-24.15,7.39-35.8,9.38-16.89,2.88-16,.43-23,3.06-12.06,4.54-18.86,13.36-32.17,30.64-5.59,7.25-9.57,12.5-13,20.68-3.68,8.72-2.37,10.37-6.13,18.39-5.5,11.72-9.72,11.21-13.79,21.44-1.24,3.13-4.43,11.42-3.06,21.45,1.28,9.42,5.23,10.5,6.89,21.45.76,5,1.68,11.08-.77,17.61-3,8.18-7.71,7.27-13.78,17.62-1.41,2.4-3.24,7.22-6.9,16.85-4.07,10.73-3.25,9.84-5.36,14.55-3.57,8-5.59,9.82-6.89,16.09-.76,3.65-1.41,7,0,10.72,1.25,3.29,3,3.76,4.59,7.66a21.08,21.08,0,0,1,1.54,9.19c-.2,4-1.93,7.3-5.37,13.79-4.37,8.26-5.67,8.53-6.12,12.26-.48,3.88.71,5.5-.77,8.42-1.78,3.53-4.69,3.56-5.36,6.13-.9,3.47,3.36,7.39,5.36,9.19,6.2,5.58,10.33,5.39,19.92,10,9.28,4.43,8.26,6,18.38,10.72,1.91.9,3,1.32,16.08,6.13,12.74,4.67,19.15,7,21.45,7.66,8.33,2.34,14.94,4.14,23.75,3.83,3.68-.13,7.3-.85,14.55-2.3,5.93-1.18,11.94-2.57,25.28-6.13,19.44-5.19,19.46-5.65,25-6.4a187.36,187.36,0,0,1,20.19-1.26c5.1-.13,10.21-.08,15.32,0a22,22,0,0,0,7.66-.76c1.76-.55,7.1-2.22,8.42-6.13,1.42-4.19-3.27-6.57-2.3-10.72,1.29-5.5,11-7.64,14.56-8.43,6.87-1.51,12.43-.81,18.38,0,12.67,1.73,13.23,4.51,20.68,3.81,4.61-.43,3.32-1.39,16.09-4.57,7.09-1.77,8.92-1.83,11.48-3.83,3.35-2.61,4.73-6,6.9-11.49,3.66-9.28,1.84-11.09,4.59-13.79,3.88-3.82,10.51-3.19,19.75-2.31,5.33.51,4.46,1,14,2.31,8.1,1.11,12.4,1.24,16.85.77,4.63-.5,6.94-.74,9.19-2.3,2.89-2,3.93-4.74,6.89-13,2.9-8.12,4.35-12.17,4.6-13,4.93-16.82,2.9-20.22,7.48-27,2.89-4.32,3.47-2.62,10.14-9.72,6.47-6.9,7.13-9.79,14.55-19.92a176,176,0,0,1,16.08-19.14c7.19-7.35,10.91-11.08,16.85-13.79a44.9,44.9,0,0,1,19.15-3.83c8.81.16,9.75,2.82,17.62,2.3,8.1-.54,8.34-3.43,16.09-3.83,6.25-.33,11,1.31,18.38,3.83,8,2.74,7.68,3.84,16.08,6.89,6,2.17,7,1.94,19.15,5.36,11.88,3.36,10.46,3.47,15.32,4.6,7.94,1.84,14.6,2,27.58,2.29s19.66.42,22.91-.74c10.42-3.75,9.07-9.57,21.51-14.57,5.49-2.21,8.48-2.17,17.62-6.13,7.53-3.26,9.47-5,10.72-6.9C1417.55,1977.76,1415.23,1970,1414.47,1967.49Z" transform="matrix(1, 0, 0, 1, -1894.083008, -1950.568359)" style="fill: rgb(0, 102, 0); opacity: 0.5; stroke: rgb(0, 102, 0);"/>
  <path class="b" d="M1731.3,1689.19c19.52-15.29,21.34-23.07,21-28.08-1-13.34-18.73-21.37-21-22.37-12.72-5.77-24.72-4.24-37.18-2.33-54.53,8.35-62.64,15.49-79,11.93-18.77-4.09-28.71-18-42.13-34-31.53-37.42-73.1-72.61-156.25-143-16.69-14.12-38.25-31.7-41.37-58.56-1.62-14,2.75-21.75,0-37.18-2.93-16.48-12.61-27.2-30.64-48.22-22.65-26.41-34-39.62-45.19-37.79-13.4,2.18-25.18,21-24.51,37.34.78,19.32,18.47,22.35,24.51,48.18,3.91,16.71-2.75,18.59,0,37.18,3.71,25,16.83,28.48,27.58,55,10.59,26.12,8.89,49.94,7.64,67.39a184.22,184.22,0,0,1-15.29,61.51c-5,11.28-12,23.85-39.83,57.21-31.12,37.35-47.89,57.46-75.59,81.21-15.28,13.1-10.42,7.18-73.34,55.48-28,21.45-40.22,31.29-52.46,49.18-8.12,11.86-20.64,30.64-22.28,57-1.53,24.56,6.25,58.47,20.76,61,15,2.63,19.84-31,58.75-59,26.53-19.07,54.17-24.92,72.59-28.83,44.31-9.39,49.35,2.85,81.45-7.49,35.93-11.57,33.63-28.19,74.43-43.07,21.13-7.7,23.6-3.92,68.61-13,27.74-5.62,46.79-11.11,77.45-19.94,48.89-14.08,73.33-21.12,105.11-35.45,32.87-14.82,27.29-16.44,59.74-30.38C1690.67,1713.31,1709.8,1706,1731.3,1689.19Z" transform="matrix(1, 0, 0, 1, -1894.083008, -1950.568359)" style="fill: rgb(102, 51, 102); opacity: 0.5; stroke: rgb(102, 51, 102);"/>
  <path class="c" d="M1774.63,1708.6c15.32-15.81,27.4-14,47.81-25.28,18.17-10.07,28.51-22.56,44.71-42.13,16.57-20,16.82-26.61,36.44-48.13,13.13-14.4,21.75-21,32.75-25.07,8.07-3,22.28-8.22,34-.59,9.35,6.12,13,17.82,12.51,27.07-.67,13.49-10,22-12.51,24.25-12,10.86-21.33,6.24-36.53,14-6.47,3.32-10.71,7.21-31.39,36-27.25,38-23.61,36.39-32.14,45.57-18,19.4-36.3,28.58-51.35,36.13-21.94,11-38.29,19.22-49,11.86-11-7.53-9.29-26.74-9.19-27.69C1761,1731.83,1762.37,1721.23,1774.63,1708.6Z" transform="matrix(1, 0, 0, 1, -1894.083008, -1950.568359)" style="fill: rgb(255, 255, 255); opacity: 0.5; stroke: rgb(255, 255, 255);"/>
  <path class="a" d="M1507.91,1398.13c-2.18-6.17-8.92-25.49-5.1-27.58,1-.55,2.54.25,7.89,4.07,8.53,6.09,12.89,10,16.79,13a94,94,0,0,0,20.77,12.09c3.93,1.64,8.07,2.78,16.34,5.11a220.45,220.45,0,0,0,23.49,5.61c10.11,1.76,10.28.88,18.37,2.62,6.73,1.45,6.83,2.1,18.9,5.55,10.32,3,11.09,2.72,20.94,5.62,7.89,2.33,11.84,3.48,15.83,5.11,7.34,3,12.32,6.07,22,12.08,10.86,6.78,10,7.09,17.46,11.31,9.83,5.53,11,4.79,15.73,8.78a164.79,164.79,0,0,1,12.25,11.74,26.79,26.79,0,0,0,6.12,5,27.25,27.25,0,0,0,5.64,2.48c11,3.68,13.36,2.1,16.33,4.92s1,4.56,4.59,9.53a20.22,20.22,0,0,0,9,7.15c3.68,1.34,6.52.81,12.43,0,8.14-1.12,13.29-1.84,17.53-2,10.79-.54,20.27,2,26.38,3.57,5.57,1.47,7.92,2.56,13.28,3.06,3.79.36,9,.79,14.3-1.19,4-1.49,5.93-3.53,11.23-8.51,10.75-10.09,16.12-15.14,19.71-16.74,7.53-3.34,16.51-4,19.61-4.19a42.48,42.48,0,0,1,4.3-.09c4.17.25,6.58,1.48,17.15,1.62,1.21,0,5.91-.16,15.32-.51,7.7-.29,11.23-.46,15.83-2,3.31-1.14,6.33-2.22,8.17-5.1,2.23-3.5.14-5.59,2-8.68,2.07-3.37,5.47-2.41,14.81-6.13,1.4-.56,4.51-2.07,10.72-5.11,8.72-4.25,9.14-4.68,11.24-5.1,4.58-.92,8.18,0,13.78,1.53,5,1.33,5.68,2.26,15.32,6.13,6.93,2.78,10.46,4.17,14,4.59s8.56,1,13.62-1.53c5.26-2.66,4.42-5.83,9.19-8.68,6.06-3.62,13.19-2.33,20.42-1,9,1.62,9.37,3.85,17.37,4.59a44.52,44.52,0,0,0,15.32-1.19c6.22-1.68,5.76-3.17,15-6.81,4.74-1.86,8.55-2.83,16.17-4.76,9.31-2.36,10.22-2,10.73-1.53,4.1,3.83-6.79,21.62-8.26,24-6.13,10-17.29,28.26-39.45,39.61-18.43,9.44-37.05,8.92-74.31,7.89-19.18-.53-17.64-1.83-45.54-3.11-15.36-.71-35-1.57-60.19-.51-18.26.77-35.44,1.49-57.89,5.57-15.74,2.86-28,6.46-52.49,13.68-12.81,3.77-31,9.16-54.42,17.47-55.16,19.59-54.17,27.88-80,32.69-8.94,1.67-43.1,7.58-78.31-8.13-34.12-15.23-50.8-42.53-71-75.56C1535.16,1475.12,1526.08,1449.46,1507.91,1398.13Z" transform="matrix(1, 0, 0, 1, -1894.083008, -1950.568359)" style="fill: rgb(0, 102, 0); opacity: 0.5; stroke: rgb(0, 102, 0);"/>
  <rect class="d" width="1" height="1" transform="matrix(1, 0, 0, 1, -1894.583008, -1951.068359)" style="fill: none;"/>
  <rect class="d" x="4095" y="4095" width="1" height="1" transform="matrix(1, 0, 0, 1, -1894.583008, -1951.068359)" style="fill: none;"/>
  <rect class="e" x="3399.96" y="3458.7" width="82.42" height="82.42" transform="matrix(1, 0, 0, 1, -1894.583008, -1951.068359)" style="fill: none; opacity: 0.5; stroke: rgb(0, 0, 0);"/>
  <rect class="c" x="3400.13" y="3582.33" width="82.42" height="82.42" transform="matrix(1, 0, 0, 1, -1894.583008, -1951.068359)" style="fill: rgb(255, 255, 255); opacity: 0.5; stroke: rgb(255, 255, 255);"/>
  <rect class="b" x="3400.13" y="3705.95" width="82.42" height="82.42" transform="matrix(1, 0, 0, 1, -1894.583008, -1951.068359)" style="fill: rgb(102, 51, 102); opacity: 0.5; stroke: rgb(102, 51, 102);"/>
  <rect class="a" x="3400.13" y="3829.58" width="82.42" height="82.42" transform="matrix(1, 0, 0, 1, -1894.583008, -1951.068359)" style="fill: rgb(0, 102, 0); opacity: 0.5; stroke: rgb(0, 102, 0);"/>
  <path class="c" d="M2851.91,1633c22.66-29,34.27-43.79,47.75-41.28,9.9,1.84,18.23,12.56,19.15,22.64,1.13,12.46-9.28,21.54-22.35,32.94-20.89,18.22-39.31,20.43-44.55,20.86-6.19.5-13.64,1.11-16.28-2.93C2834.33,1663.26,2832.61,1657.69,2851.91,1633Z" transform="matrix(1, 0, 0, 1, -1894.083008, -1950.568359)" style="fill: rgb(255, 255, 255); opacity: 0.5; stroke: rgb(255, 255, 255);"/>
  <path class="c" d="M2567.24,1558.47a12.67,12.67,0,0,0,0-8.68c-2-6.24-9-13.88-48.14-20.94-30.95-5.59-29.83-1.4-46.71-6.13-28.07-7.85-34.21-20.27-48.31-16.34-11.86,3.32-21.07,15.9-22.29,28.34-2,20.65,18.59,34.17,22.29,36.6,14.86,9.74,30.62,9,48.31,8,21-1.06,18.8-5.44,48.12-9.41C2546.58,1566.43,2563.3,1567.87,2567.24,1558.47Z" transform="matrix(1, 0, 0, 1, -1894.083008, -1950.568359)" style="fill: rgb(255, 255, 255); opacity: 0.5; stroke: rgb(255, 255, 255);"/>
  <path class="a" d="M2801,1451.74c10.19,2.72,10.81,2.1,19.73,4.6,10.42,2.92,9.66,3.8,16.85,5.62,6.89,1.74,12.77,2,24.51,2.55s20.95.2,25,0c11.4-.55,17.1-.83,22-2,8.3-2.07,16.2-7,31.66-16.85,13.3-8.46,12.34-8.79,20.42-13.28,12-6.67,14.59-6.17,20.43-11.23,8.41-7.31,5.46-10.42,14.29-18.9,4-3.82,10.32-7.48,23-14.81,7.22-4.17,10.86-6.26,12.77-6.63,9.14-1.79,13.76,3,25,1,4.51-.81,7.14-1.29,9.19-3.58,4.8-5.35-.71-12.67,3.58-19.4,1.93-3,6.39-4.58,15.32-7.66a74.31,74.31,0,0,1,20.42-4.6c5.9-.41,10.6-.73,16.34,1,4.51,1.38,5.22,2.68,14.81,8.17,7.56,4.33,11.34,6.5,14.81,7.66,6.81,2.3,8.64.79,22.47,1.54,13.51.73,12.61,2.21,24.51,2.55,9.92.28,11.31-.74,20.93,0a118.07,118.07,0,0,1,16.85,2.55c10.25,2.17,15.42,3.32,17.88,6.64,3.22,4.35.21,7.21,3.57,13.79,1.91,3.72,4.87,6.11,10.73,10.72,7.41,5.85,9,5.61,14.8,10.21a74.13,74.13,0,0,1,12.77,13.28c4.16,5.59,3.73,6.79,10.72,19.41,4.8,8.65,7.19,13,10.76,17.57a104.74,104.74,0,0,0,14.77,15.11c8.58,7.49,10.71,7.54,15.32,13.27a43.21,43.21,0,0,1,7.66,13.79c1.08,3.42,2.81,8.9,1.54,15.32s-4.15,6.39-7.15,14.3c-1.1,2.88-3.89,10.52-2.05,19.4,1.05,5,3.15,8.38,5.62,12.26,5.4,8.46,9.15,9.71,15.83,17.36,1.94,2.21,1.81,2.33,13.28,20.42,11.14,17.58,11.24,17.45,12.76,20.43a120.82,120.82,0,0,1,9.71,26.55c3.22,12.61,3.91,22.38,4.59,32.68.95,14.48-.23,15.17.51,35.24.53,14.44,1.18,15,1.53,28.59.41,15.82.62,23.74-1,31.15a84.4,84.4,0,0,1-12.25,28.09c-8.29,12.74-12,11.53-17.36,22.47s-3.13,14.89-8.69,23.48c-4.37,6.78-9.22,9.64-17.86,15.48-32.63,22.07-34,28.94-42.9,27.93-11.49-1.3-21.94-14-25-26.55-5.12-20.78,12.61-30.68,26.42-67,4.56-12,16-43.08,10.51-78.38-1.22-7.89-1.92-7.12-22.12-60.93-10.82-28.8-16.29-43.41-19.41-54.13-11.71-40.22-5.26-42.6-13.27-61.79-18.37-43.93-65.39-63-77.62-67.4-8.33-3-40-13.66-77.11-6.13-20.83,4.23-22.94,10-62.62,21.44-28.1,8.06-28.51,5.56-47.46,12.26-36.58,12.94-38.62,23.52-55.88,22.47-16.43-1-16.59-10.71-51.33-27.44a318.5,318.5,0,0,0-44.29-17.18c-23.64-6.86-38.27-7.51-53.48-20.74-6-5.2-12.63-12.85-11.24-14.81C2787.91,1447.49,2791.19,1449.11,2801,1451.74Z" transform="matrix(1, 0, 0, 1, -1894.083008, -1950.568359)" style="fill: rgb(0, 102, 0); opacity: 0.5; stroke: rgb(0, 102, 0);"/>
  <path class="b" d="M3011.79,1993.18c14.52-7.79,27.26-22.58,39.83-62.9,14.25-45.71,35.61-114.19,4-143-6-5.52-21.24-10.25-51.63-19.7-17.37-5.4-17.71-4.49-53.11-14-38.48-10.34-41.08-12.23-54.46-13.53-22.65-2.21-22.81,2.46-44.64,0-30-3.38-33.56-12.62-50.92-9.67-16.82,2.85-34.33,15.05-39.37,31.37-4.18,13.54,1.63,25.37,8.17,40.3,30.7,70.06,16.18,68.19,37.69,100.72,19.36,29.27,41.55,46.55,60.93,61.64,15.37,12,27.8,21.5,47.42,28.82a139.78,139.78,0,0,0,61.28,8.52C2988.14,2000.64,3000,1999.5,3011.79,1993.18Z" transform="matrix(1, 0, 0, 1, -1894.083008, -1950.568359)" style="fill: rgb(102, 51, 102); opacity: 0.5; stroke: rgb(102, 51, 102);"/>
  <path class="c" d="M3051.53,1993.24c-7.9-8.48-2.28-28.15,10.26-36.46,9.2-6.1,23.94-7.27,30.12,0,7.59,8.92.64,28.62-12.43,36.46C3071.16,1998.24,3057.78,2000,3051.53,1993.24Z" transform="matrix(1, 0, 0, 1, -1894.083008, -1950.568359)" style="fill: rgb(255, 255, 255); opacity: 0.5; stroke: rgb(255, 255, 255);"/>
  <path class="c" d="M2825.41,2233.07c1.72-1.2,5-4.36,3.53-43.75-.91-23.91-1.44-36-5.11-43.36-.72-1.45-15-28.83-44.43-31.41-21.84-1.91-47.4,10.23-53.61,31.37-5.34,18.17,6,35,9.19,39.87,3,4.51,8.51,11.35,38.05,27.57C2803.12,2229.89,2818.31,2238.05,2825.41,2233.07Z" transform="matrix(1, 0, 0, 1, -1894.083008, -1950.568359)" style="fill: rgb(255, 255, 255); opacity: 0.5; stroke: rgb(255, 255, 255);"/>
  <path class="c" d="M2530.29,1774c8.51,11.44,15.13,20.62,14.73,33.44-.33,10.73-5.64,25.93-14.73,27.83-14.92,3.11-18.69-34.1-57.71-61.27-22.07-15.37-42.16-18.29-49.13-38.5-1-3-4.13-11.94,0-19.15,7.06-12.36,31.7-13.41,49.13-7.71C2484.38,1712.45,2499.84,1733,2530.29,1774Z" transform="matrix(1, 0, 0, 1, -1894.083008, -1950.568359)" style="fill: rgb(255, 255, 255); opacity: 0.5; stroke: rgb(255, 255, 255);"/>
  <path class="b" d="M2632.34,2880c-3.69-10.84,11.07-34,40.61-80.18,23.94-37.47,36.81-57.32,60.5-79.28a276.81,276.81,0,0,1,67.66-46.07c73.13-35,184.53-46.31,218,.77,2.15,3,6.63,17.47,15.58,46.37,11.62,37.54,17.43,56.31,21.95,79.57,8.47,43.67,1.68,44.47,10.72,80.37,9.2,36.57,17.25,39.74,15.32,58.48-3.11,30-24.71,30.72-33.7,64-4.46,16.45-.84,22.48,6.13,83.51,4.18,36.71.3,40.87,5.37,53.73,2.9,7.36,13.11,30.41,20.67,47.76a95.14,95.14,0,0,1,4.6,14.22c1.66,6.91,2.48,10.45,1.53,14.81-1.21,5.54-4.48,9.2-7.66,12.77-5,5.62-6.68,4.71-11.75,10.21-4.48,4.87-3.5,5.93-9.19,13.28s-7,6.64-10.21,11.74c-2.11,3.38-3.48,8.09-6.13,17.36-.71,2.5-2.51,8.95-4.59,18.39-1.82,8.23-2.72,12.35-3.07,16.34a60.2,60.2,0,0,0,1,19.91c1.5,6.42,2.72,11.63,6.64,16.34a14.07,14.07,0,0,1,3.07,15.32c-2.78,7.18-11.11,5.5-23.49,13.79a55.08,55.08,0,0,0-15.32,15.32c-3.55,5.42-5.07,10-7.66,17.87-2.71,8.19-4.05,12.39-3.58,17.87a34.45,34.45,0,0,0,4.6,13.85c4.29,7.89,7.22,7.37,11.23,15.26a40.59,40.59,0,0,1,4.09,13.28c.73,5.76,1.12,8.85-.51,11.74-3.24,5.74-10,2.89-19.41,9.19-4.33,2.92-6.8,6.2-11.74,12.77a98,98,0,0,0-9.19,14.81c-9.73,19.15-7.79,27.08-15.32,41.36,0,0-6.4,12.13-15.83,20.42-32.76,28.8-99.31,7.69-103.64-14.42-3.28-16.73,30.78-22.15,39.82-57.41,6.33-24.71-6.8-36.12-6.14-68.08.59-28.25,11.42-31.24,21.24-66.85,11.42-41.4-.12-44.46,8.89-105.61,6.31-42.82,9.46-64.23,23.63-86.4,12.44-19.48,23.61-25.73,30-47.57,1.23-4.22,5.54-20.2,0-53.71-3-18.44-8.85-53.55-29.09-83.6-10.45-15.51-31.53-39.76-99.07-65.88C2714.23,2893.34,2643.34,2912.35,2632.34,2880Z" transform="matrix(1, 0, 0, 1, -1894.083008, -1950.568359)" style="fill: rgb(102, 51, 102); opacity: 0.5; stroke: rgb(102, 51, 102);"/>
  <text style="font-family: Arial, sans-serif; font-size: 70px; font-weight: 700; text-anchor: middle; white-space: pre;" x="1756.393" y="1704.6">Shell</text>
  <text style="font-family: Arial, sans-serif; font-size: 70px; font-weight: 700; text-anchor: middle; white-space: pre;" x="1759.928" y="1574.482">Clay</text>
  <text style="font-family: Arial, sans-serif; font-size: 70px; font-weight: 700; text-anchor: middle; white-space: pre;" x="1759.396" y="1824.624">Sludge</text>
  <text style="font-family: Arial, sans-serif; font-size: 70px; font-weight: 700; text-anchor: middle; white-space: pre;" x="1751.123" y="1950.438">Grass</text>
</svg>