<?xml version="1.0" encoding="utf-8"?>
<svg viewBox="-4119.141 -1618.854 4096 4096" xmlns="http://www.w3.org/2000/svg">
  <path class="a" d="M1691.23,2561.36c1.6-8.52-6-16.7-24-32.42-33.9-29.68-59.66-46.86-72-55.94-40.53-29.83-27.25-39.19-74.55-82-46.67-42.24-60.44-33.9-85.28-67.91-25.61-35.06-21-57.58-42.38-66.07-20.75-8.22-44,5.4-82,27.62-55.35,32.37-51.07,47.37-84.45,56.13-25.47,6.68-38.21.62-81.59,12.54-14,3.85-37.07,10.35-36.87,18.09.13,5.32,11.13,7.14,41.87,20.43,19,8.23,28.77,12.49,38.81,19.4,13.5,9.31,28,19.3,33.7,36.77,4.4,13.47,3,29.51,2,39.83-1.06,11.9-3.11,17.73,0,26.55,2.74,7.76,5.71,7.18,12.7,19,4.28,7.23,3.91,8.71,11.81,26,5.53,12.08,8.33,18.13,10.21,18.83,11.47,4.27,38.9-24.47,52.11-59.68,12.82-34.17,1.71-46.3,14.28-60.26,20.15-22.38,73.47-18.68,109.78,2.79,39.9,23.6,39.21,56.79,80.87,70.41,6.08,2,18.25,5.26,44.24,13.61,27.07,8.7,32.16,11,34.72,12.26,25.28,12,25.52,20.79,40.86,24.72C1659,2587.88,1688.48,2576.07,1691.23,2561.36Z" transform="matrix(1, 0, 0, 1, -4118.641113, -1618.353882)" style="fill: rgb(0, 102, 0); opacity: 0.5; stroke: rgb(0, 102, 0); stroke-miterlimit: 10;"/>
  <path class="b" d="M1595.74,2715.57c4.42-1.29,21.94-6.45,28.09-21.19,8.3-19.89-7.91-48.14-28.6-59.49-26.22-14.38-41.46,8.38-74.55.11-33.57-8.39-55.48-41.23-85.28-85.9-22.58-33.83-29.73-55-44.57-54.63-12.24.33-24.34,15.19-25.89,29.1-1.5,13.39,7.11,22.83,27.06,47,38.67,46.82,27.93,37.53,43.4,54.13,22.86,24.51,46.6,50,84.77,71.49C1544.57,2709.93,1569.23,2723.37,1595.74,2715.57Z" transform="matrix(1, 0, 0, 1, -4118.641113, -1618.353882)" style="fill: rgb(102, 51, 102); opacity: 0.5; stroke: rgb(102, 51, 102); stroke-miterlimit: 10; stroke-width: 5px;"/>
  <path class="b" d="M1725.83,2755c10.63-2.44,21.51-1.63,43.28,0,35.87,2.68,65.26,11.15,78.89,15,30.27,8.55,33.44,12.33,62.51,20.13,12.82,3.44,35.06,9.31,55.83,11.49,8.7.91,93.08,8.49,153.14-46.4,25.08-22.92,39.84-51.19,40.52-52.52,15.61-30.46,12.34-46.18,31-65.37,18.34-18.86,37.46-20.07,37-29.89-.6-12.8-33.18-12.25-43.74-36.16-4.34-9.82-2.78-18.82,0-34.79a151.52,151.52,0,0,1,22.46-56.71c20.51-31,29.08-20,58.47-56.28,10.41-12.85,21.81-29.62,42.9-36.26,9.59-3,12.88-1.33,14.29,0,5.25,4.87-.86,17.83-8.68,39.83-10.76,30.3-5.8,24.39-16.08,52.75-13.75,37.93-20.58,42.87-17.62,56.71,1.85,8.66,4.75,7.82,22,34.79,17.43,27.26,14.47,28.12,22,36.16,22,23.54,45.46,14.06,52.51,29.9,3,6.8,1.48,14.76-31.4,69.27-16.76,27.77-25.13,41.65-29.11,45.93-35.1,37.78-77.25,34.65-78,49.83-1.1,22.38,89.93,42.53,88,71-.25,3.57-2.12,9.46-3.83,24.74-1.52,13.47-1.1,18.1-.77,20.68A58.11,58.11,0,0,0,2329,2941c5.92,9.66,13.32,14.58,26.47,23.32,7.42,4.94,7.2,4,20.25,11.92,16.84,10.15,19.11,12.8,29.11,18.38s17.87,8.56,29.87,13c7,2.58,20.8,7.51,54.39,16.08,7.78,2,28.24,7.14,55.91,13,36.38,7.73,29.95,5,50.55,9.95,16.78,4.05,26.16,7.11,42.13,7.66,9.89.34,11.32-.65,21.45,0,18.34,1.19,21.53,5,36.76,6.9,7.42.94,5.1-.16,46-2.3,19.63-1,29.44-1.54,31.41-1.53,15.62.09,19.91,1.4,28.08-1.54,2.71-1,2.17-1.09,20.17-11.48,12.87-7.43,14.86-8.36,16.85-9.2,11.39-4.77,12.63-2.24,20.68-6.12,6.12-3,11.23-8.1,21.45-18.39,9.91-10,9.19-10.75,13.79-13.78,4.32-2.86,10.54-4.72,23-8.43,13.22-4,15.87-3.81,18.38-3.06,5,1.48,5.75,4.28,12.25,6.12a27.73,27.73,0,0,0,12.26.77c9.29-1.63,10-7.39,18.38-8.43,6.32-.78,7.55,2.3,13,.77,5-1.38,6.52-4.62,11.49-9.19,6.34-5.81,8.28-4.64,19.15-11.49,14.57-9.18,12.27-12,20.68-15.32,5.57-2.17,5.21-.39,26.05-2.3,14.18-1.29,16.09-2.28,23-1.53,2.24.24,7.4,1.44,17.62,3.83,14.4,3.36,15.14,3.76,18.38,3.83a48.26,48.26,0,0,0,19.15-3.83c9.32-3.91,8.54-7,16.09-9.19a34.47,34.47,0,0,1,20.68.51c5.69,2.06,7,4.5,12.26,4.85,4.5.3,5.95-1.32,11.48-2.3,6.66-1.17,7.25.69,16.86.77,5,0,13.09.1,22.21-3.06,5.71-2,6.4-3.36,10.72-3.83,6.34-.7,8.72,1.84,15,2.74,4.94.71,6.59-.4,21-3.89,17.42-4.22,15.61-2.74,22.21-5,7.74-2.63,6.54-3.41,23-10.73,8.15-3.62,1.85-.49,19.92-7.66,8-3.15,11.12-4.52,14.55-3.06,4.19,1.79,6.42,6.82,6.89,10.72.66,5.41-2.13,8-6.12,17.62a115.12,115.12,0,0,0-5.36,16.85c-2.75,10.76-1.66,12.3-4.34,22.22-1.61,5.94-1.84,4.79-5.62,16.08-5.06,15.1-4.4,16.4-7.66,23-3.65,7.35-4.42,5.62-9.19,14.55-5.82,10.89-6.34,16.57-10.73,17.62-2.87.69-3.67-1.51-9.95-3.83-6.7-2.48-12.32-2.41-21.45-2.3-7.22.09-10.83.13-15.32,1.53s-11.85,3.7-15.32,10.22c-2.37,4.45-1.82,8.84-.76,17.36,1,7.81,2.3,8.23,3.06,15.32a49.38,49.38,0,0,1-9.19,36c-3.18,4.65-3.46,3.69-10.73,12.25-9.48,11.18-10.07,14.06-14.55,15.32-4.09,1.15-4.7-.94-13.79-.76-6.22.12-9.81.19-13,2.29-4.25,2.79-3.35,6.2-7.66,15.32-1.73,3.68-5.24,8.83-12.25,19.15-6.32,9.29-7.63,10.53-7.66,13.79-.06,5.37,3.43,7.73,2.3,13.79-.26,1.34-.95,5.06-3.83,6.89-2.31,1.47-4.62.84-10,0-9.39-1.48-14.14-2.19-16.85-.77-1.88,1-3.55,4-6.9,10-2.71,4.85-4.38,7.89-5.36,12.26-1.23,5.51.15,6.33-.76,9.95-1.4,5.55-5.38,6.49-16.09,15.32-6.77,5.59-5.39,5.39-16.85,15.32-6.15,5.33-6.39,5.26-10.72,9.19-12.54,11.4-13.81,15-14.3,17.11-1.1,4.65.43,6.73-1.79,9.7-2.55,3.41-7.12,4.1-10.72,4.6-6,.82-10.13-.13-14.56-.77-6.44-.93-17.47-2.53-27.57.77-5.65,1.84-3.7,2.83-15.32,9.19-12.57,6.88-15.62,6.13-22.21,11.49-4,3.27-6.52,6.77-11.49,13.79a163.82,163.82,0,0,0-13.79,23.74c-2.93,6.43-2.94,7.81-5.36,10.72-3.25,3.94-6.14,5-15.32,10-8.36,4.54-12.53,6.81-16.85,10-7.34,5.35-6.18,6.64-13.79,13-4.9,4.11-4.89,3.17-25.27,16.09a164.94,164.94,0,0,0-14.56,10c-7.19,5.6-6.47,6.15-10,8.43-6.57,4.29-10.18,3-29.11,6.13-8.37,1.37-18.57,3.4-20.68,3.83-10.72,2.14-13.78,3-19.15,2.55-3.23-.27-7.26-1.54-15.32-4.09a160.76,160.76,0,0,1-19.15-6.89c-7.13-3.18-10.7-4.78-14.55-7.66-5.22-3.91-6.42-6.41-11.49-8.42-4.56-1.81-5.5-.55-10-2.3a26.37,26.37,0,0,1-11.49-9.19c-4.33-6.18-1.84-8.89-5.36-17.62-4-10-8.21-8.69-10.72-16.85-2.7-8.75,1.79-11.26-.77-21.45-1.71-6.8-3.81-6.08-7.66-15.32-3.43-8.24-2.15-9.75-6.13-24.51-2.33-8.65-3.73-13.74-6.89-19.91-4.62-9-8.43-8.39-10.72-15.32-2.87-8.67,1.34-12.28-2.3-18.39-3.05-5.11-6.37-3.17-13-9.19-7.53-6.81-6.05-11.81-13.79-18.38-4.22-3.58-5.75-3-10.72-6.13-11.41-7.12-10.76-14.68-21.45-26.81a79.05,79.05,0,0,0-24.51-18.38c-6.86-3.25-6.19-1.59-24.51-7.66-12.34-4.09-18.78-6.26-26.81-10.72s-7.08-5.32-16.08-10.73c-11-6.6-20.23-10-28.35-13-13-4.8-19.48-7.21-29.1-8.42-11.1-1.4-14.54.24-23-3.07-6.55-2.56-7.71-4.81-15.32-6.89-7.11-1.94-8.74-.7-14.55-3.06-7.24-3-6.85-5.74-12.26-6.9s-7.16,1.34-15.32,1.53c-4,.1-7-.42-12.25-1.53-24.47-5.18-31-9.13-46-9.95a123.73,123.73,0,0,0-13,0c-10.55.57-12.2,2.06-20.68,2.29-3.22.09-8.27-.45-18.39-1.53-11.77-1.26-14.76-2-17.61-3.06a37.2,37.2,0,0,1-11.49-6.13c-5.92-4.79-4.95-7.45-10-11.49-4.82-3.88-10-4.84-16.85-6.13-9.51-1.77-10.12.28-17.62-1.53-7.93-1.91-13.61-5.73-17.61-8.42-2.79-1.88-5.94-4.57-12.26-10-9.48-8.1-8.61-8-10.72-9.19-9.73-5.54-20.89-3.65-23.75-3.07-6.31,1.28-6.26,3.05-16.08,5.36-7.71,1.82-11.61,1.63-13,1.54-4.14-.29-6.39-1.24-12.26-3.07-9.46-2.94-8.93-2.14-16.85-4.59-17.74-5.51-17.92-8.8-25.36-8.43-8,.4-10,4.29-15.24,2.3s-4.86-6.47-11.49-10c-5.41-2.85-6.78-.44-12.25-3.06-6.49-3.11-6-7.17-13.79-13-2.37-1.78-5.41-3.23-11.49-6.13-7.2-3.44-12.12-5.79-18.57-7.47-8.65-2.25-10-.68-17.43-2.49-7.27-1.76-12.35-4.79-19.15-9.19-18.6-12.06-27.91-18.09-37.53-26.81-23-20.85-20.64-29.68-41-51.85-21.76-23.72-45.71-36.79-75.44-53-13.56-7.39-25.71-14-43.28-21.53-32.87-14.06-53-17.66-58.6-34-2.45-7.13-1-13.46,0-18.09C1675.08,2767.35,1723.19,2755.61,1725.83,2755Z" transform="matrix(1, 0, 0, 1, -4118.641113, -1618.353882)" style="fill: rgb(102, 51, 102); opacity: 0.5; stroke: rgb(102, 51, 102); stroke-miterlimit: 10; stroke-width: 5px;"/>
  <path class="c" d="M2409.83,2569.91c32.43-6.9,61-13,95.17-33.42,30.9-18.48,52.47-31.38,61.47-56.72,9.52-26.8-4.78-40.08,7.66-56.32,13.22-17.27,32.77-6.65,72.58-25.67,21.33-10.19,35.49-22.68,44.29-30.45,22.21-19.61,30.43-35,43-51.07,15.63-20,38.07-35.55,82.94-66.61,68.26-47.25,73-40.52,109.06-71.34,9.17-7.83,28.11-27.67,66-67.34,38.65-40.47,49.81-53.84,60.08-67.34,18.18-23.87,31.87-45.86,42.67-71.45a169.33,169.33,0,0,0,12.48-46.89c2.25-19.5,3.68-31.87-3.82-40.51-12.22-14.08-41.38-10.47-59.75-.08-13.93,7.88-21,19.3-32.37,38.17-11.52,19.1-14.41,29.81-22,46.9-7,15.58-9.66,18.16-45.17,73.78-35.38,55.39-32.17,52-42.9,67.36-27.37,39.12-41.05,58.68-53.62,67.33-26.28,18.12-50.11,12.8-163.54.06-106.92-12-125.42-11.74-148,0-20.41,10.55-37.49,30.59-71.66,70.66-25.49,29.9-35.57,47.72-38.77,69.34-.94,6.33-5.83,39.37,10.69,49,6.39,3.73,15.4,3.62,22.21,0,15.7-8.32,12-31.11,19.15-51.08,13.6-37.73,65-61.73,108-61.48,38.2.23,91.79,19.74,98,55.92,4.8,27.82-20.47,53.42-23.66,56.65-9.81,9.93-19.05,14.21-56.77,28.09-45.87,16.88-68.8,25.32-80.68,28-45.88,10.38-49.83,1-90.12,11.33-23.64,6.05-73,18.67-77.37,44.71-3.43,20.39,23.58,31.91,19.15,56.8-3.62,20.34-24.43,28.3-21.21,35.57C2357.14,2581.14,2393.79,2573.33,2409.83,2569.91Z" transform="matrix(1, 0, 0, 1, -4118.641113, -1618.353882)" style="fill: rgb(102, 51, 102); opacity: 0.5; stroke: rgb(102, 51, 102); stroke-miterlimit: 10;"/>
  <path class="c" d="M2809.47,2110.93c12-6.79,11.67-17.4,26.22-38.11,12.72-18.1,16.51-15,26.44-29,23.19-32.76,6.51-52.16,25.87-71.49,12.53-12.51,21.44-5.82,63.74-29.31,14.45-8,19.26-12,19.93-17.59,2-16.47-35.16-26.14-33.71-40.57,1.42-14.1,37.52-10.9,68.17-40.24,13.1-12.54,28.3-34,22.21-43.84s-31-5.63-46.72-.12c-25.55,9-26.07,21.73-57.45,43.81-33.69,23.7-52.31,22.53-57.45,40.26s11.56,26,6.9,40.44c-8.59,26.64-68.63,9.5-108.62,46.87-29.51,27.57-29.11,67.08-29,71.48s2,52.74,35,67.33C2772.58,2111.52,2793,2120.23,2809.47,2110.93Z" transform="matrix(1, 0, 0, 1, -4118.641113, -1618.353882)" style="fill: rgb(102, 51, 102); opacity: 0.5; stroke: rgb(102, 51, 102); stroke-miterlimit: 10;"/>
  <path class="c" d="M3193,1669.53c1.85-23.27,22.83-24.89,31.15-53.92,5-17.46-1.59-20.33,2.55-43.7.87-4.88,5.28-28,19.92-49.1,22.84-32.92,45.92-25.38,67.4-55.94,4.93-7,22.88-32.56,15.32-55.94-13.53-41.83-96.74-39.8-114.89-39.36-9.94.25-21.21,1.71-31.41,9.2a47.69,47.69,0,0,0-16.08,21.44c-1.69,4.59-4.23,13.81,4.59,51.32,5.14,21.83,7.23,23.91,9.2,38.3,1.42,10.38,2.84,20.81,1.19,33.36-1.3,9.86-3.89,16.35-18.81,46.72-18.34,37.32-19.44,37.7-19.92,43.7-1.74,21.94,12.24,25.8,11.49,50.09-.46,14.87-6.07,25.76-14.72,42.51-9.23,17.89-13.62,19.23-28.17,42.56-16,25.64-23.92,38.7-19.83,50.14,5.64,15.75,27.85,19.94,29.79,20.28,21.71,3.8,39.47-10.22,52.08-20.17,15.54-12.26,22.68-25.34,24.51-28.85a81.46,81.46,0,0,0,7.67-21.27c1.74-8.84,2-18.82-3.07-42.6C3196,1675.76,3192.26,1679.08,3193,1669.53Z" transform="matrix(1, 0, 0, 1, -4118.641113, -1618.353882)" style="fill: rgb(102, 51, 102); opacity: 0.5; stroke: rgb(102, 51, 102); stroke-miterlimit: 10;"/>
  <path class="c" d="M3415.85,1269.9a56,56,0,0,0-20.11,21.12c-11.69,20.55-8.66,42.39-5.74,61.51,4.72,30.92,12.59,32.5,16,58.4,2.06,15.9,5.18,39.93-5.16,58.74-23.44,42.62-101.8,32.49-104.12,53.14-1.77,15.78,43.73,24.84,43.92,49.1.11,14.23-15.49,15.24-29.62,43.29-5.76,11.44-3.19,11.31-15.32,50.37-8.75,28.19-9.76,27.19-12.23,39-6.09,29,.77,31.56-5.35,49.21-7.54,21.73-18.42,19.22-31.85,47-8.66,17.91-10.67,32.47-12.23,43.83-2.58,18.76-4.56,33.13,4,40,6.55,5.25,18,5.11,25,0,4.84-3.57,6.44-8.79,8.17-15.12a398.53,398.53,0,0,0,8.68-39.83c2.38-14.26,6.7-23.64,15.32-42.39a274.67,274.67,0,0,1,30.13-50c7.18-9.51,17.32-22.79,33.43-37,11.8-10.43,15.52-11.4,24.27-21.17,12.3-13.74,12.34-20.09,22-30.13s20.38-14.11,33.7-19.91c16.24-7.08,20.27-5.82,34.21-13.74a205.66,205.66,0,0,0,19.92-13.33c3.77-2.75,12-8.77,19.91-15.83a168.16,168.16,0,0,0,33.19-39.83c9.23-15.52,13.29-28.46,16.85-39.83,5.44-17.33,7.26-30.33,10.73-55.15,1.51-10.83-.18-1.08,2.55-31.14,1.05-11.52,1.72-17.6-1.6-24.52-2.84-5.93-7.2-9.51-11.17-12.76-7.06-5.8-9.62-4.84-20.93-12.77-5.13-3.59-5.77-4.61-9.19-6.13-7.11-3.14-9.59-1.07-15.32-3.57-8.42-3.66-12.53-12.23-13.28-13.79-3.44-7.17-1.37-10.58-5.62-15.32-3-3.32-4.88-2.62-9.19-6.12-5.51-4.49-7.85-10.09-9.19-13.28-4-9.63-1.08-13.33-3.77-24.32-1.2-4.92-3-12.35-8-17.61C3457.4,1257.82,3432.32,1260.15,3415.85,1269.9Z" transform="matrix(1, 0, 0, 1, -4118.641113, -1618.353882)" style="fill: rgb(102, 51, 102); opacity: 0.5; stroke: rgb(102, 51, 102); stroke-miterlimit: 10;"/>
  <path class="a" d="M2972.42,1571.93c11.8-34.33,16-34.45,17.58-48.76.69-6.31,3.63-33.43-13-53.55-8.52-10.33-21.51-15.09-47.49-24.62-11.13-4.08-22.51-7-45.19-13a317.06,317.06,0,0,0-55.15-10c-18.74-1.64-25.1-.37-26,2.43-.8,2.38,2.67,5,6.89,10,5.7,6.7,8.4,12.89,13.79,25.28,8.09,18.58,9.76,35.87,10.72,46.72,1.36,15.27-.2,20,2.88,34.47,2,9.41,3.21,10.05,4.78,19.15s1.57,16.83,1.53,32.17c0,11.66,0,17.57-.87,26.15-1,10.83-1.7,17.44-4.49,25.94-1.67,5.1-5.58,12-13.34,25.72-3.51,6.23-5.86,10.06-9.84,14.28a122.42,122.42,0,0,1-9.41,8.35c-5,4.17-6.4,5.21-12.94,10.54-15.13,12.32-8.87,7.91-15.66,13.28-3.35,2.64-6,4.58-8.37,8.36-1.56,2.47-3.65,5.78-3,9.47.71,4,3.92,4.09,6.26,8.72,1.11,2.2,1.45,4.3,1,14.3-.56,12.88-1.28,13-.73,14.25,4.65,10.55,59.38,10.53,97.62-20.74,5.94-4.85,1.14-2,36.56-42.61,24.39-28,28.32-31.24,34.46-42.47,3.73-6.84,8.41-21.35,17.62-50.09C2968.11,1586.05,2967.39,1586.57,2972.42,1571.93Z" transform="matrix(1, 0, 0, 1, -4118.641113, -1618.353882)" style="fill: rgb(0, 102, 0); opacity: 0.5; stroke: rgb(0, 102, 0); stroke-miterlimit: 10;"/>
  <rect class="d" x="3400.26" y="3203.93" width="82.45" height="82.45" style="fill: none; opacity: 0.5; stroke: rgb(0, 0, 0);" transform="matrix(1, 0, 0, 1, -4119.141113, -1618.853882)"/>
  <rect class="e" x="3400.26" y="3327.6" width="82.45" height="82.45" style="fill: rgb(102, 51, 102); opacity: 0.5; stroke: rgb(102, 51, 102);" transform="matrix(1, 0, 0, 1, -4119.141113, -1618.853882)"/>
  <rect class="f" x="3400.26" y="3451.27" width="82.45" height="82.45" style="fill: rgb(0, 102, 0); opacity: 0.5; stroke: rgb(0, 102, 0);" transform="matrix(1, 0, 0, 1, -4119.141113, -1618.853882)"/>
  <path class="c" d="M2929.53,1273.53c13.77-8.16,28.75-12.12,45.45-16.53,17.44-4.61,19.28-3.28,43.4-8.74,16.58-3.76,17.39-4.77,48.13-12.9,28.09-7.42,42.28-11.14,49.92-11.62,17.14-1,22.36,2.1,53.61,5.43,5.43.58,22.48,2.15,44.43,3,29.94,1.17,37.83-.3,44.42-2.3,9.73-2.94,22.72-6.88,30.64-19.15,8.31-12.86,9.82-33,0-42.12-5.12-4.75-12.2-5.45-19.15-6.13-8.68-.86-11,1-24.51,2.12-7.53.6-13.19.46-24.51.18-5.74-.15-9.86-.37-26.81-1.54-21.93-1.51-33-2.28-36.76-3-5.38-1-5.61-1.39-29.88-8.49-16.69-4.88-25-7.32-28.34-8.13-20.73-5.12-23.37-2.94-49-7.95-14.3-2.79-23.59-4.61-36-9.19-15-5.55-15.92-8.26-29.87-13-12.44-4.25-21.91-5.58-36.77-7.66-17.86-2.51-29.15-4.09-43.65-3-15.86,1.15-20.07,4.32-41.37,9.15-21.5,4.88-37.9,6.34-52.85,7.66-33.22,3-51.37,4.56-74.3,0-31.28-6.22-34.21-16.52-71.23-22.21a232.89,232.89,0,0,0-38.3-2.58c-15.62.22-23.62.33-34.47,3.35-13.19,3.67-14.66,7.22-23,6.89-10.7-.42-12.46-6.46-27.58-11.49a78.52,78.52,0,0,0-27.57-3.83c-12.12.38-15.09,3.38-33.71,7.66a211.09,211.09,0,0,1-34.46,5.36c-10.07.67-24.52,1.53-42.13-2.15-19.65-4.11-18.38-8.68-30.64-8.57-10.52.1-20.78,3.55-37.53,9.19-8.44,2.84-8.91,3.46-13.79,4.6-12.19,2.84-18.79,1.21-29.87,1.53-9.09.26-21.35.62-32.17,6.13-17.09,8.7-13,21.29-27.58,29.1-16.84,9-38.78,1.07-54.38-4.59-10.49-3.81-9.84-5.28-26.81-12.26-9-3.68-22.24-9.14-36-12.25-25-5.66-27.85,1.79-57.19-1.79-17.93-2.19-15.27-4.78-47.47-11.23-19-3.81-19.64-2.86-46.93-7.59-39-6.77-40.07-9.14-45.53-7-30.27,12.05-42.78,103.19-2.5,137.58,23.75,20.28,51,20.48,51,20.48,10.7.07,16.79-2.62,30.64-.27,12.57,2.13,13.38,5.34,31.4,10.72,11.26,3.37,19.86,4.78,36,7.43,6.79,1.11,8.38,1.24,29.87,4.06,28,3.68,30.53,4.15,52.09,6.9,15.35,2,23,2.93,24.51,3.06,31.33,2.65,38.77-1.7,64.34,2.3,6.63,1,10.61,2,19.91,3.06,11,1.22,14.7.87,28.34,1.53a416.35,416.35,0,0,1,42.13,3.83c13.29,2,11.75,2.54,22.21,3.83,13.13,1.62,24.88,3.07,39.07.77,8-1.29,4.92-1.85,27.57-7.66,16.35-4.19,22.23-5,27.58-5.36a86,86,0,0,1,21.44.76c6.72,1.15,13.26,3.59,26.05,8.43,14.82,5.61,12.82,5.6,17.61,6.89,11.41,3.09,21.09,2.71,31.41,2.3,5.06-.2,3.71-.38,20.68-1.53,9.71-.66,13.7-.84,19.15,0a64,64,0,0,1,13.78,3.83c5.23,2,9.85,4.34,17.62,9.19,4.59,2.86,11.86,7.58,25.28,17.62,10.58,7.91,10.85,8.56,19.15,14.55,9.44,6.81,16.76,11.51,19.15,13,9.86,6.27,16.3,10.37,25.27,14.55,3.22,1.51,10.36,4.09,24.51,9.2,18.87,6.8,21.65,7.58,28.34,10.72a189.2,189.2,0,0,1,18.39,10c16,9.82,16.72,13.48,22.21,14.55,11.55,2.25,22.32-11.2,37.53-28.34,35.42-39.9,30.84-27.57,55.15-57.45C2912.1,1292.26,2911.54,1284.19,2929.53,1273.53Z" transform="matrix(1, 0, 0, 1, -4118.641113, -1618.353882)" style="fill: rgb(102, 51, 102); opacity: 0.5; stroke: rgb(102, 51, 102); stroke-miterlimit: 10;"/>
  <path class="c" d="M1565.57,1179.62c11.18,3.21,31,8.91,54.36,2,30.25-9,45.63-32.87,49.6-39.55,18.12-30.56,19.06-74.57,3.32-83-12.67-6.77-24.67,15.68-52.92,13.28-23.81-2-26.86-19-49.21-19-22,0-25.36,16.33-47.44,16.37-25.27,0-35.88-21.36-46.58-15.78-11.55,6-11.25,37.27,0,60,8.1,16.33,20.19,24.81,43.47,41.15C1536.71,1166.67,1547.9,1174.53,1565.57,1179.62Z" transform="matrix(1, 0, 0, 1, -4118.641113, -1618.353882)" style="fill: rgb(102, 51, 102); opacity: 0.5; stroke: rgb(102, 51, 102); stroke-miterlimit: 10;"/>
  <path class="c" d="M1672.85,945.7c1.05,6.88,1.9,12.41,0,19.41-5.71,21-30.81,35.18-52.92,36.76-22.84,1.64-25.19-11.35-49.21-10.21-26.08,1.24-30.25,16.89-50.55,14.3-22.84-2.92-26.38-23.87-43.47-22.47-19.31,1.58-20.39,28.81-43.88,33.7-8.67,1.81-20.41-2.54-43.88-11.23-15.65-5.79-24.42-9-34.73-15.76-6.11-4-18.18-12.72-34.72-35.31-22.54-30.78-16.94-37.53-35.75-63.32-10.76-14.76-25.31-34.71-51.12-44.73-18.6-7.22-38.06-7.34-45.9-7.39-26.4-.17-35.2,6.61-46.08.7-18.66-10.13-24.27-41.43-18.26-45.6,1.54-1.06,5.2.4,12.51,3.32,13.18,5.27,14.14,8.08,20.68,9.19,6.22,1.06,6.13-1.38,20.69-3.06,4.84-.56,9.86-.71,19.7-1,10.25-.28,16.83-.26,21.74-.3,18.55-.14,18.57-1.17,38.21-1.64,16.72-.4,26.34-.62,39.62.84,4.54.49,4.63.65,21.92,2.85,19.45,2.46,18.67,2.18,21.49,2.76,8.45,1.76,6.54,2.49,30.93,11,9.71,3.4,16.22,5.45,22.13,8.68.15.09,3.68,2,8.58,4.36a47.13,47.13,0,0,0,7,3c5.35,1.3,9-1.68,14.31-3.53,4.59-1.59,11.69-.84,25.9.64,8.92.93,13.38,1.4,19.54,2.89,7,1.7,7.79,2.66,23.49,8.17,8,2.82,14.06,4.75,19.15,6.38,11.32,3.63,17,5.45,23.32,7,6.07,1.47,11.14,2.4,20.42,4.11,1.4.26,2.6.48,13.85,2.44,18,3.13,18,3.11,18.83,3.32,5,1.24,8.54,2.67,23.41,10,14.11,6.92,21.18,10.36,23,11.49C1636.53,889.86,1667.38,909.94,1672.85,945.7Z" transform="matrix(1, 0, 0, 1, -4118.641113, -1618.353882)" style="fill: rgb(102, 51, 102); opacity: 0.5; stroke: rgb(102, 51, 102); stroke-miterlimit: 10;"/>
  <path class="a" d="M1388.94,1399.15c-1,.67-13.93,9.49-22.49,16.34-14.82,11.84-12.91,14.88-35.73,38.81-15,15.73-19.82,18.62-20.42,26.55-.86,11.23,7.86,17.84,4.08,24.51-3,5.23-9.44,3.18-20.42,8.17-12.36,5.62-19.31,15.1-22.47,19.41-6.49,8.85-4.57,11.38-13.28,33.7-7.45,19.08-9.44,18.74-13.27,31.66-4.81,16.21-1.43,15.94-6.13,30.64-5,15.62-10,19.58-13.28,34.72-1.64,7.59.36,11.19-2,19.4-2.51,8.6-5.09,9.23-7.15,17.37-1.42,5.6-.74,7.47-1,21.44-.21,10.65-.32,16-1,21.45-.44,3.4-1,6-7.15,27.57-4.45,15.49-6.67,23.23-7.15,24.51-5.21,13.94-8.56,17-7.15,23.49,1.62,7.42,7,7.74,8.17,15.32,1,6.83-3.07,8.43-5.11,18.39-2.2,10.79.33,20.18,2,26.55,2.87,10.66,5.23,9.67,7.15,19.4,1.61,8.2.24,10.46,2,20.94,1.93,11.27,4.14,12.35,3.06,14.81-4.88,11.15-60.55,11.86-86.21-18.81-9-10.72-4.55-13.65-18-45.53-15.88-37.77-24-38.22-29.61-62.34-4-17.27-3.09-30.92-1.43-55.11,1.18-17.18,3.64-30.56,8.57-57.32,6.74-36.55,8.49-36.74,10.22-53.4,3.44-33.2-3.13-35.94,0-59.15,3.81-28.29,16.74-47.74,33.68-73.21,18.72-28.13,37.89-46.09,51.19-58.4,14.78-13.67,30.15-27.89,53-41.16,42.54-24.7,80.79-26.85,157.28-31.15,4.81-.27,21.4-1.11,22.46,3.07C1412.17,1384.78,1404.5,1388.56,1388.94,1399.15Z" transform="matrix(1, 0, 0, 1, -4118.641113, -1618.353882)" style="fill: rgb(0, 102, 0); opacity: 0.5; stroke: rgb(0, 102, 0); stroke-miterlimit: 10;"/>
  <path class="a" d="M773.11,1066.21c.71,4.27-3.81,6.24-7.15,20.43-1.61,6.84-1.78,13.33-2.05,26-.35,17.13.48,20.47.06,38.81-.2,8.71-.4,8.56-.47,16-.11,10.49.24,15.35.41,27.64.07,4.65.13,11.69,0,20.41a167.67,167.67,0,0,1-1.06,18.4c-.33,3-1.35,12.07-2.55,15.57-5.92,17.24-56.37,16-56.85,16-47.59-1.16-95.24,2.55-142.81.84-56.67-2-128-2.23-131.74-20.42-.56-2.75.09-6.86-.82-21.58-.3-4.87-.82-10.58-1.74-17.23-1.54-11.21-3.43-14.41-5.61-28.6a287.48,287.48,0,0,1-3.07-30.64,305,305,0,0,1,1-39.82c.32-3.56,1.62-17.63,5.11-35.75,3.54-18.42,5.37-20.37,7.15-34.72,1.35-10.9,2.79-16.23,3.06-19.41,1-11.4-.22-14.74,2.3-17.1,6.38-6,25.49,4.72,29.36,6.89,20.45,11.46,30.33,25.14,36.77,31.66,20.58,20.84,53.48,10.54,111.32,6.13C697.56,1039.39,770.37,1049.88,773.11,1066.21Z" transform="matrix(1, 0, 0, 1, -4118.641113, -1618.353882)" style="fill: rgb(0, 102, 0); opacity: 0.5; stroke: rgb(0, 102, 0); stroke-miterlimit: 10;"/>
  <path class="c" d="M864.17,908.08a257.65,257.65,0,0,1,25.36-6.63c42-8.73,51.83.28,63.32-8.85,20.42-16.24-2.45-51.7,22.47-75.58,6-5.79,14.3-10.37,25.53-23.93,7-8.42,14.59-17.8,11.75-23.56-2.43-4.91-10.37-3-26.56-5.1-7-.93-21-5.39-49-14.3-20.38-6.49-21.89-7.39-30.13-9.19-16.57-3.64-18.35-1.73-28.59-5.11-15.86-5.24-16.06-11.29-32.17-18.38-4.47-2-15.46-4.06-37.28-8.17s-25.11-4.24-41.36-7.66c-14.13-3-13.69-3.31-23.49-5.11-13.12-2.41-15.45-2.1-34.21-5.11-16.86-2.7-16.85-3.25-23-3.57a118.47,118.47,0,0,0-29.62,2.55c-19.4,4.06-20.49,9-35.23,9.71-4.23.19-8.13,0-13.28,2-5.53,2.23-7.12,5-14.3,11.23-8.33,7.29-8.43,5.58-18.89,14.3-7.26,6.05-6.09,5.94-14.3,12.77-7.19,6-9,6.8-12.25,10.72-4.74,5.66-3.89,7.36-8.17,12.25-4.63,5.29-7.38,5.3-13.79,10.22-5.2,4-4.52,4.84-15.32,16.85-11,12.25-12,11.67-16.85,18.38-3.83,5.31-6,9.5-10.21,17.87-1.9,3.74-3.57,7.25-10.73,24-9.18,21.51-10.4,25-10.72,30.64a58.32,58.32,0,0,0,2.55,18.38c2.69,8.74,16.79,43.21,63.32,65.88,67.21,32.74,102.39-7.69,157.79,23.74A201.19,201.19,0,0,0,742.47,1010c22.86,4.86,30.54,2.22,34.72,0,15.5-8.2,14.51-27.8,22.81-47C807.5,945.75,824.17,924.79,864.17,908.08Z" transform="matrix(1, 0, 0, 1, -4118.641113, -1618.353882)" style="fill: rgb(102, 51, 102); opacity: 0.5; stroke: rgb(102, 51, 102); stroke-miterlimit: 10;"/>
  <path class="c" d="M652.34,1296.51c31.45,4.75,59.77,26.82,72.77,54.49,5.3,11.3,6.85,27.15,9.95,58.87,3.48,35.53.19,38.53,4.73,56.81,3.84,15.5,9.73,39.28,30.51,56.94,26.33,22.38,59.35,20.28,71.23,19.53,11.61-.74,36.34-2.31,56.58-19.53,11.64-9.91,13-17.51,33-59.15,15.54-32.27,23.3-48.4,28.34-54.6,27.37-33.67,51.77-17.41,81.27-45.44,37.22-35.37,12.23-74.38,56.09-116.94,9.4-9.12,10.53-7.32,43.79-35.23,6.9-5.79,24.83-21,46.34-42.13,18.63-18.33,28-27.63,29.87-34.47,6.78-24.47-13.24-50.26-30.13-72-6.65-8.57-6.48-7.07-46.34-47.49-25.9-26.27-35-36.06-43.53-52.08-4.09-7.69-20.11-37.83-11-46.73,8.59-8.36,36.77,4.61,54.51,17.62,26.18,19.19,23.79,34.18,46.34,44.42,18,8.18,23.42.4,45.9,7.66,26.15,8.46,42.08,26.51,51.12,36.77,25.6,29,32.42,60.34,35.75,76.6,2.71,13.22,8,40.61,0,73.8-6,24.69-16.33,40.27-35.75,69.43-23.53,35.36-51.12,64.71-51.12,64.71-10.26,10.92-17.67,17.71-28,31.8-13.9,18.9-12.65,23.1-23.75,37.53-12.87,16.74-20.43,18.74-42.89,39.07-18.51,16.75-21,23-37.53,39.06-51.1,49.62-106.57,40.85-110.3,66.64-2.59,17.87,24,22.2,35.23,60.3,2,6.74,9.69,32.89-.72,59.15s-27.37,23.31-43.19,53.27c-12.57,23.81-13.14,47-13.28,57.32-.07,5.39.2,9.46,9.33,55.11,8.59,43,11.93,57.24,13.14,62.34,5.15,21.82,7.73,32.74,11.74,44.68,6.25,18.57,15.09,38.93,22.22,50.55,26.65,43.47,68.16,28.11,138.63,79.53a275.67,275.67,0,0,1,55.15,53.28c12.15,15.6,25.56,33.18,32.94,60,3.74,13.57,9.59,34.83,2.3,60-2.72,9.36-11.71,40.32-36.77,49.06-30.94,10.79-71.5-17.46-82.72-49.06-8.81-24.82,6.09-35.85-1.53-60-4.93-15.58-17.73-31.78-80.43-60-84.79-38.11-95.34-23.73-137.87-53.28-35-24.34-59-55.73-74.3-75.7-20.66-27-28.22-43.91-30.64-49.56-7.32-17.08-6.09-21.12-16.43-53.43-8.89-27.77-13.34-41.65-21.87-58.41-17-33.47-26.31-31.95-32.93-55.11-6.68-23.35,2.2-26.86-3.83-57.32-3.77-19-7.38-18.46-19.3-53.27-9.6-28.06-8.76-32.81-17.47-59.15-10.93-33.1-16.4-49.64-23.74-59.15-33.63-43.56-93.53-18.75-117.19-59.15-3.18-5.42-5.69-21.81-10.73-54.6-5.08-33.1-7.62-49.66-4.59-58.87,11.27-34.29,55.91-51,85-54.49A91.35,91.35,0,0,1,652.34,1296.51Z" transform="matrix(1, 0, 0, 1, -4118.641113, -1618.353882)" style="fill: rgb(102, 51, 102); opacity: 0.5; stroke: rgb(102, 51, 102); stroke-miterlimit: 10;"/>
  <rect class="h" width="1" height="1" style="fill: none;" transform="matrix(1, 0, 0, 1, -4119.141113, -1618.853882)"/>
  <rect class="h" x="4095" y="4095" width="1" height="1" style="fill: none;" transform="matrix(1, 0, 0, 1, -4119.141113, -1618.853882)"/>
  <text style="font-family: Arial, sans-serif; font-size: 75px; font-weight: 700; white-space: pre;" x="-595.125" y="1648.218">Clay</text>
  <text style="font-family: Arial, sans-serif; font-size: 75px; font-weight: 700; white-space: pre;" x="-603.576" y="1772.303">Sludge </text>
  <text style="font-family: Arial, sans-serif; font-size: 75px; font-weight: 700; white-space: pre;" x="-600.344" y="1899.729">Grass</text>
</svg>