<?xml version="1.0" encoding="utf-8"?>
<svg viewBox="-6193.691 -3544.242 4096 4096" xmlns="http://www.w3.org/2000/svg">
  <path class="a" d="M2713.87,1039.15a76.89,76.89,0,0,0,9.19,3.06c5.33,1.41,6.51,1.12,9.88,2.39,2.26.85,3.19,1.54,10.21,6.29,9.92,6.73,9.14,6.09,10.55,7.15,1.85,1.4,5.06,4.13,11.41,9.53,6.84,5.84,7.68,6.63,9.95,7.58,3.09,1.29,4.59,1.1,9.45,2.81a57.9,57.9,0,0,1,7.66,3.32" transform="matrix(1, 0, 0, 1, -6193.190918, -3543.742187)" style="fill: none; opacity: 0.5; stroke: rgb(255, 0, 0); stroke-width: 5px;"/>
  <path class="b" d="M2469.11,685.72a48.17,48.17,0,0,0-1.37-10.66c-.95-3.89-1.64-4.59-2.38-7.49-1.32-5.16-.71-9.23.34-16.34a63.94,63.94,0,0,1,3.41-14.29c2.65-7,4.56-7.69,7.83-14.3,2-4,1.83-4.87,6.46-22.47,2.77-10.49,4.15-15.74,5.45-19.74,1.92-5.91,2.25-6,7.15-19.75,2.91-8.15,4.38-12.28,5.11-15.32,1.57-6.53,1.4-9,3.06-17,1.18-5.67,2.83-7.93,3.4-13.28a41.94,41.94,0,0,0,0-9.19c-.67-6.83-.93-45-.34-139.23" transform="matrix(1, 0, 0, 1, -6193.190918, -3543.742187)" style="fill: none; opacity: 0.5; stroke: rgb(255, 0, 51); stroke-width: 5px;"/>
  <path class="a" d="M3473.75,2580.38a138.37,138.37,0,0,0-5-15.44c-2.07-5.31-2.53-5.47-6.13-14.3-2.37-5.8-2.83-7.34-4.6-10.73-.47-.9-1.51-2.85-5.61-9.19-1.77-2.72-4.18-6.39-7.15-10.72" transform="matrix(1, 0, 0, 1, -6193.190918, -3543.742187)" style="fill: none; opacity: 0.5; stroke: rgb(255, 0, 0); stroke-width: 5px;"/>
  <path class="a" d="M3254.3,3249.7c8.08-12.38,15.3-22.51,20.93-30.13,7.9-10.66,11.84-16,17.37-22,4.31-4.66,7-7,12.25-13.28,4-4.73,5.59-7.09,10.72-13.79,1.55-2,7.81-10.15,13.79-17.36a325.17,325.17,0,0,1,23.49-25.53c6.22-6,10.34-10,16.85-14.81,6.28-4.63,7.28-4.5,16.34-10.72,9.56-6.57,14.34-9.86,19.41-15.32,4.27-4.62,6.63-8.42,11.23-15.83a216.58,216.58,0,0,0,11.75-22c5.84-12.41,5.19-13.41,12.25-28.59,3.79-8.15,6.67-13.65,8.68-17.37,2.92-5.38,5.58-9.87,7.66-13.27" transform="matrix(1, 0, 0, 1, -6193.190918, -3543.742187)" style="fill: none; opacity: 0.5; stroke: rgb(255, 0, 0); stroke-width: 5px;"/>
  <path class="a" d="M2401.79,3688.6a32.4,32.4,0,0,0-12.26,1.53c-1.56.51-3.75,1.38-11.49,6.13-4,2.47-6.73,4.13-10.72,6.89-9.75,6.75-10.05,8.23-18.38,13.79-6.67,4.44-7.27,4-10.73,6.89a45.85,45.85,0,0,0-11.49,14.55" transform="matrix(1, 0, 0, 1, -6193.190918, -3543.742187)" style="fill: none; opacity: 0.5; stroke: rgb(255, 0, 0); stroke-width: 5px;"/>
  <path class="a" d="M1232.94,3335.49c3,3.83,5.83,7.41,8.42,10.72,8,10.25,9.19,11.82,10.73,14.56a55.57,55.57,0,0,1,6.12,15.32c1.73,7.58.21,8.95,2.3,13.78,1.82,4.19,3.68,4.83,10,11.49a152.45,152.45,0,0,1,13,16.09,127.42,127.42,0,0,1,9.19,15.32c2.1,4.13,3.7,8.11,6.89,16.08,5,12.33,4.2,11.75,6.9,17.62,3.65,8,5,8.88,6.13,13.79a44,44,0,0,1,.76,13.78c-.72,11.8-3.94,13.4-2.3,19.15.9,3.13,3.67,6.17,9.2,12.26,3.64,4,6.89,7.1,9.19,9.19" transform="matrix(1, 0, 0, 1, -6193.190918, -3543.742187)" style="fill: none; opacity: 0.5; stroke: rgb(255, 0, 0); stroke-width: 5px;"/>
  <path class="a" d="M728.17,2186c.05-3.06.17-7.06.51-11.74.54-7.5.81-11.25,2-15.83,1.79-6.64,3.07-6,4.09-11.24,1.23-6.29-.5-7.91,0-15.83a60.77,60.77,0,0,1,2.55-13.27c1.06-3.85,2.93-8.58,6.64-17.87,1.85-4.65,2.78-7,3.57-8.69a85.92,85.92,0,0,1,8.17-14.29c3.27-4.51,3.7-3.9,11.24-12.26,5.07-5.62,8.84-10.3,11.23-13.28,7.39-9.18,6.85-9.51,11.24-14.29,5-5.44,6.08-5.45,11.23-11.24,4.58-5.14,6.87-7.72,8.68-11.23,4.44-8.62,1-11.26,5.62-20.94,2-4.24,3.32-5,6.13-11.23a56.78,56.78,0,0,0,3.57-10.21c1.2-5,1.8-7.5,1-10.22-1.1-3.85-3.36-3.62-6.13-8.68-1.31-2.4-3.36-6.17-2.55-10.72a13.52,13.52,0,0,1,5.11-8.17c6-4.22,14.79-1.85,14.81-2a22,22,0,0,0-4.09-.51" transform="matrix(1, 0, 0, 1, -6193.190918, -3543.742187)" style="fill: none; opacity: 0.5; stroke: rgb(255, 0, 0); stroke-width: 5px;"/>
  <path class="a" d="M1450.47,1010c2-1.82,4.9-4.47,8.42-7.66,7-6.35,10.61-9.59,13.79-12.25,7.84-6.58,8.15-5.9,13.79-10.73,5.92-5.06,11.43-9.78,15.32-16.08,1.73-2.81,3.12-5.91,6.12-26,1.93-12.89,2.7-20.65,4.6-35.24,1.23-9.46,2.2-16.13,2.3-16.85,2.12-15.34,2.89-151,.76-514" transform="matrix(1, 0, 0, 1, -6193.190918, -3543.742187)" style="fill: none; opacity: 0.5; stroke: rgb(255, 0, 0); stroke-width: 5px;"/>
  <path class="c" d="M2374,751.92c5.89-9.25-.13-14.87,1.49-36.91a115.72,115.72,0,0,1,12.44-44.18c5.84-11.7,11.45-22.92,23.5-29.39,12.82-6.89,19.22-1,26.64-5.65,18.15-11.32-2.65-57.3-7.43-129.24-3.57-53.62,5.19-70.25-10.21-84.76-15.82-14.9-43.93-15.14-77.38-15.42-26.89-.23-32.75,3.92-50.28-.92-25.83-7.14-28.89-20.5-47.36-22.21-21.53-2-49.85,13.18-56.62,34.27-12.43,38.72,55,74.94,42,106.75-6.44,15.82-24.68,10.76-73.66,39-30.05,17.34-45.25,26.37-53.75,44.37-11.75,24.9-8.4,60.37,10.66,81.08,17.65,19.18,31.4,6.85,94,26.29,50.58,15.73,75.87,23.59,95,36.91,6.05,4.21,18.5,13.47,35.74,14C2341.1,766,2364.7,766.51,2374,751.92Z" transform="matrix(1, 0, 0, 1, -6193.190918, -3543.742187)" style="fill: rgb(102, 51, 102); opacity: 0.5; stroke: rgb(102, 51, 102);"/>
  <path class="d" d="M2789.11,1361.36c1.26-3.42,3.82-13.71-21.11-44.93-22.59-28.3-27.34-23.17-37-39.41-16.75-28.17-5.07-48.08-23.58-63.23-11.09-9.09-16.79-3.29-26.42-12.75-15.49-15.22-4.24-33.68-18.53-53.13-2.59-3.51-13.42-9.67-35-21.85-30.52-17.24-36.84-19.12-49.41-29.53-12.19-10.1-8.72-10.38-22.23-21.61-20.42-17-29.22-17-37.85-30.15s-2.32-16.73-10-29c-14.31-23-41.19-18.15-46-34.28-4.39-14.74,16.59-23.59,13-39.28-4.68-20.5-43.45-18.3-48.15-39.66-3-13.56,10.7-23.22,4.12-38.84-2.13-5.06-6.73-11.54-10.54-10.9-2.54.42-4.27,3.89-6.13,10.9-3.41,12.82-6.48,24.38-3.3,36,7,25.52,37.51,26.46,38,43,.49,15.57-26.36,20.87-25,34.7,1.43,14.75,33.17,13.36,49.53,40.87,4.19,7,.85,5,9.7,26.54,7.2,17.49,12.1,25.39,16.15,41.4a74.85,74.85,0,0,1,2.61,20.2c-.15,10.47-2.54,12.09-1.9,15.75,3,17.39,60.94,5.18,94.79,36.55,11.75,10.88,5.14,12.68,28.27,42.38,2.61,3.35,6.81,8.62,36.25,41.26,22.68,25.14,24,25.75,31.15,34.73,10.78,13.49,19.11,23.93,27.46,39.42,11.94,22.13,10.39,29.52,22.59,42.86,6.3,6.89,16.27,17.8,29.1,16.36C2777.55,1374.78,2786.18,1369.3,2789.11,1361.36Z" transform="matrix(1, 0, 0, 1, -6193.190918, -3543.742187)" style="fill: rgb(102, 204, 204); opacity: 0.5; stroke: rgb(109, 191, 191);"/>
  <path class="c" d="M2244.38,1381.49c-3.13-18.56,5.07-33.42,9.58-41.58,11-19.9,27.27-29.64,33.48-33.25,18.32-10.66,35.22-12.18,57.94-14.22,14.63-1.31,25.35-.72,41.35.16,17.23.94,25.92,1.48,30,4.42,17,12.4,14,50.54,0,75.58-5.72,10.24-14.69,26.29-30,28.93-13.6,2.36-25.68-7-40.05.68-1.71.92-2.85,1.76-7.38,5.67-27.71,23.92-28.68,30.21-36.72,31.84-14.52,3-29.42-13.89-39.77-25.59C2255,1405.35,2246.85,1396.09,2244.38,1381.49Z" transform="matrix(1, 0, 0, 1, -6193.190918, -3543.742187)" style="fill: rgb(102, 51, 102); opacity: 0.5; stroke: rgb(102, 51, 102);"/>
  <path class="c" d="M2279.61,1533.84c11.27-3.95,24.42-8.33,38-2.58,2.29,1,14.72,6.25,19.06,19.07,4.09,12.08-.67,26-8.82,34.09-13.53,13.46-27.93,2.5-50.4,15.59-11.62,6.78-18,15.7-27.67,29.07-6.58,9.13-15.81,22-20.76,40.16-7.84,28.83,3.22,41.14-9,59.4-2.16,3.23-9.95,14.85-21.87,15.36-10.42.45-19.65-7.76-24.13-15.38-7.47-12.7-2.2-24.58,6-59.4,11.55-49,6.61-48.84,14.72-63.79,9-16.51,20.29-26.08,42.94-45.21C2259.09,1542.1,2271.61,1536.64,2279.61,1533.84Z" transform="matrix(1, 0, 0, 1, -6193.190918, -3543.742187)" style="fill: rgb(102, 51, 102); opacity: 0.5; stroke: rgb(102, 51, 102);"/>
  <path class="c" d="M2954.55,1359.3c6.4-6.21,10.56-8.07,14.64-8.15,3.14-.07,8,.88,15.49,8.15,9,8.7,12.41,17.32,18.55,31.29,12.17,27.66,11.58,22.86,15.66,34.3,5.66,15.84,9.2,25.79,9.45,39.94a96.65,96.65,0,0,1-8.43,40,104.1,104.1,0,0,1-25.26,34.28c-12.41,11.22-29.86,27-53.37,25.19-15.35-1.18-34.22-9.9-40.27-25.18-1.2-3-1.74-5.9,1.8-34.29,2.55-20.46,3.82-30.68,5.79-40a333,333,0,0,1,11.91-41.51c5-14.17,9.26-23.17,14.77-34.93C2940,1378.43,2945,1368.63,2954.55,1359.3Z" transform="matrix(1, 0, 0, 1, -6193.190918, -3543.742187)" style="fill: rgb(102, 51, 102); opacity: 0.5; stroke: rgb(102, 51, 102);"/>
  <path class="e" d="M2985.7,1619c7.79,8.45,14.7,26.91,7.15,39-6.82,11-18.49,5.61-46,19.91-7.91,4.12-5.59,3.86-23.71,14.52-27.87,16.39-33.4,17-36.54,17.14-16.1.55-34.32-10.5-33.64-18.6,1.09-13.09,50.11-1.57,76.53-33,11.47-13.63,25.56-25,36.47-39,1-1.34,4.28-5.59,9-5.88C2980,1612.79,2984,1617.14,2985.7,1619Z" transform="matrix(1, 0, 0, 1, -6193.190918, -3543.742187)" style="fill: rgb(0, 0, 255); opacity: 0.5; stroke: rgb(0, 0, 255);"/>
  <path class="e" d="M2896,1803.6c10.19,11.51,14.41,22.48,20,37.49,7.39,19.82,11,29.9,6,37.93-3.41,5.49-10.62,10.07-18,9.32-8.55-.87-13.51-8.53-14-9.32-7.87-12.57,4.9-23.21,1-37.94-5.75-21.76-40-22.67-40-37.51,0-8,9.94-16,18.79-16.85C2880.16,1785.72,2888.05,1794.63,2896,1803.6Z" transform="matrix(1, 0, 0, 1, -6193.190918, -3543.742187)" style="fill: rgb(0, 0, 255); opacity: 0.5; stroke: rgb(0, 0, 255);"/>
  <path class="e" d="M3012,2028.69c3.17-.56,46.73-8.85,53-37.5,3.19-14.57-4.79-27.48-9-34.3-13.26-21.46-36.51-27.9-83-40.76-7.39-2-14.82-3.84-19,0-3.94,3.61-3.18,10.51,4,40.76,4.55,19.14,6.86,28.82,9,34.3,6.41,16.48,12.72,32.7,27,37.5C3000.09,2030.74,3005.19,2029.9,3012,2028.69Z" transform="matrix(1, 0, 0, 1, -6193.190918, -3543.742187)" style="fill: rgb(0, 0, 255); opacity: 0.5; stroke: rgb(0, 0, 255);"/>
  <path class="d" d="M2944,1956.87c2.7,4.06,1.2,8.12.9,15.27-.17,4.09.6,8.93,2.15,18.62,1.67,10.45,6.51,19.63,16.8,37.9,14.19,25.22,18.1,24.11,25.2,40.54,5.65,13.06,11.45,26.48,9,42.8-2.36,15.7-9.9,17.81-12.68,37.91-1.51,10.9-.63,19.91.1,27.45.65,6.58,1.88,14.73,6.58,32.08,5.15,19,10.19,33.3,12.36,39.4,10.11,28.43,18.77,50.12,19.85,52.82,21.54,53.81,26,57.88,23.09,69.49-4.5,17.73-21.24,33-39.29,37.55-3.37.85-12.14,2.68-25,0-28.79-6-47-28.25-55-37.54-2.37-2.73-30.91-25.57-88-71.24-75-60-91.18-58.51-111-90.47-3.86-6.23-42.31-62.31-23.78-87.65,5.39-7.37,12-7.24,41.33-13.73,57.71-12.75,86.82-19.52,99.45-38.85,5.68-8.69,1.34-8.52,14-40.54,7.92-20,11.88-30,18-37.9,14.73-18.92,25.76-16.83,44.95-33.88,1.8-1.6,6.14-5.56,11.69-5.22A12.41,12.41,0,0,1,2944,1956.87Z" transform="matrix(1, 0, 0, 1, -6193.190918, -3543.742187)" style="fill: rgb(102, 204, 204); opacity: 0.5; stroke: rgb(109, 191, 191);"/>
  <path class="d" d="M2918,2753.29c-4.85-12.7,13.37-21.43,11-46.65-.88-9.49-6.26-20.35-17-42.08-11.83-23.93-16.35-28.59-14-33.46,4-8.3,23-7.21,58.6-2.33,100.8,13.83,126.06,29.59,135.83,36.23,28.16,19.15,33.78,34.73,35.58,41.09.54,1.92,7.61,28.34-6.48,47.19-8.67,11.6-22.7,16.78-106.21,15.91C2938.18,2768.39,2922,2763.67,2918,2753.29Z" transform="matrix(1, 0, 0, 1, -6193.190918, -3543.742187)" style="fill: rgb(102, 204, 204); opacity: 0.5; stroke: rgb(109, 191, 191);"/>
  <path class="d" d="M1666.5,2158.21c-10.22-3.89-13.46-20.17-13.56-29.36-.16-14.06,6.94-24,13.63-33.44,5.65-7.94,16-22.52,34.36-29.11,11.55-4.15,12.78-.29,39.83-3.33a345.6,345.6,0,0,0,37.54-6.55c30.42-6.7,30.13-10.09,37-8.42,22.44,5.44,31,42.82,37.28,70.64,6.41,28.15,2.09,35.83,0,38.81-4.59,6.54-9.7,6.39-37.27,16.83-24.33,9.22-24.54,10.92-37,14.32-21.1,5.74-31.57,8.91-40.1,5.58-22.15-8.64-19.06-42.67-37.27-46.38C1687.26,2145,1678.6,2162.81,1666.5,2158.21Z" transform="matrix(1, 0, 0, 1, -6193.190918, -3543.742187)" style="fill: rgb(102, 204, 204); opacity: 0.5; stroke: rgb(109, 191, 191);"/>
  <path class="d" d="M960.31,2057.94c9.5-26.82,57.26-34.74,87-32.43,34.05,2.64,62.37,20.07,92.64,38.7,3.84,2.37,12.77,8.52,30.65,20.82,27.74,19.09,41.79,29.44,56.33,45,11.17,12,13.68,17.42,14.57,19.5,6,14,4.09,27.37,1.36,44.84-3.07,19.65-4.6,29.48-9.53,36.77-14,20.79-44.7,29-68.08,22.81-16.87-4.45-13.66-12.06-34.73-21.79-32.4-15-51.28-2.19-72.17-18.79-7.58-6-5.62-8.14-18.22-26.86-22.74-33.79-35.29-36.11-54.21-62.64C970,2101.47,953.21,2078,960.31,2057.94Z" transform="matrix(1, 0, 0, 1, -6193.190918, -3543.742187)" style="fill: rgb(102, 204, 204); opacity: 0.5; stroke: rgb(109, 191, 191);"/>
  <path class="e" d="M1930.68,1257.61c26,2.49,36.87-35.18,59.4-32.34,15.59,2,30.15,22.5,26.69,36.77-2,8.23-9.61,12.78-16.22,16.73-19.22,11.49-28.67,3.55-54.48,12.37-18.17,6.21-22.37,13.18-33.77,10.85-10.72-2.19-18.21-10.64-20.65-13.39-2.87-3.25-5.78-9.62-11.48-22.22-5.59-12.35-9.06-21-10.22-32.41-.85-8.35.42-9.57,1-10,4.06-2.69,13.36,7.6,29.87,18.38C1915.65,1252.05,1923,1256.88,1930.68,1257.61Z" transform="matrix(1, 0, 0, 1, -6193.190918, -3543.742187)" style="fill: rgb(0, 0, 255); opacity: 0.5; stroke: rgb(0, 0, 255);"/>
  <path class="e" d="M1230,1729.37c15.16-9.07,49.19-29.43,46-38-2.76-7.45-32.26-2.72-51,.28-17.88,2.87-91.86,14.73-93,37.37-.51,10,13.56,18,15.33,19,14.28,8.06,30.24,3.3,45.86-1.36C1198.81,1745,1210.4,1741.1,1230,1729.37Z" transform="matrix(1, 0, 0, 1, -6193.190918, -3543.742187)" style="fill: rgb(0, 0, 255); opacity: 0.5; stroke: rgb(0, 0, 255);"/>
  <path class="e" d="M2781.16,3179.78c5.26-4-12.28-22.89-5.53-48.86,1.45-5.6,4.32-12.62,1.22-15.52-.87-.81-3.42-2.43-14.81,1.94-13.37,5.14-23.93,9.2-26.62,16.71C2728.72,3152.78,2773.58,3185.53,2781.16,3179.78Z" transform="matrix(1, 0, 0, 1, -6193.190918, -3543.742187)" style="fill: rgb(0, 0, 255); opacity: 0.5; stroke: rgb(0, 0, 255);"/>
  <path class="c" d="M3042.88,3098.18c14.27-7.28,22.31-23.8,24-37.18,1.81-14-4.17-17.31-16.38-53.41-9.73-28.79-8.87-35.34-17.53-41.75-14-10.32-37-8.67-42,.19-3.5,6.18,4.46,11.15,1.15,20.45-3.08,8.67-13.48,14.2-27.15,21.49-5.85,3.12-6.43,2.88-8.08,4.55-10.47,10.56-1.75,34.82-.84,37.38C2967.71,3082.23,3013,3113.43,3042.88,3098.18Z" transform="matrix(1, 0, 0, 1, -6193.190918, -3543.742187)" style="fill: rgb(102, 51, 102); opacity: 0.5; stroke: rgb(102, 51, 102);"/>
  <path class="c" d="M2968.91,3217.22c-1.06-24.77-33.48-51.71-48-46.16-6.15,2.34-8.91,10.39-11.06,16.67-3.93,11.49-.35,16-2.23,26.23-3.61,19.68-20.29,21.51-19.48,34.26.83,13,18.88,22.83,30.64,26.06,9.57,2.63,17.21,1.5,27.65-.05,20.74-3.07,30.82-11.27,33.19-13.29,4.12-3.51,9.56-8.15,8.69-12.89-1.09-5.91-10.85-5.74-16.35-14.18C2968.09,3228,2969.12,3222.24,2968.91,3217.22Z" transform="matrix(1, 0, 0, 1, -6193.190918, -3543.742187)" style="fill: rgb(102, 51, 102); opacity: 0.5; stroke: rgb(102, 51, 102);"/>
  <path class="c" d="M853.14,3101.49c31.17,13.92,38.23,16.22,46.4,18a148.58,148.58,0,0,0,38.48,3.06,163.79,163.79,0,0,0,40.6-6.89c14.87-4.47,28.35-8.71,31.43-19.15.69-2.34.81-4.85,0-9.19-2.21-11.85-10.63-33.09-31.37-44.05-12.89-6.82-14.73-1.31-40.59-8.27-17.07-4.59-16.05-6.93-38.48-14.57-31-10.58-43.26-9.6-46.39-18.39-3.61-10.1,10.76-16.42,9.25-28.19-2.08-16.21-30.94-16.8-84.47-42-44.31-20.87-66.46-31.31-70.26-34.44-4.16-3.43-14.69-12.56-27.57-11.26-7.56.76-17.41,5.27-18.17,11.46-1.39,11.35,29.43,14.29,35.53,35,4.6,15.61-10.28,22.86-6.13,41.07,2.36,10.32,8.57,14.29,28.09,33,27.23,26.12,20.53,23.56,36.77,37.64a321.74,321.74,0,0,0,59.25,39.92C820.79,3087,831.57,3091.85,853.14,3101.49Z" transform="matrix(1, 0, 0, 1, -6193.190918, -3543.742187)" style="fill: rgb(102, 51, 102); opacity: 0.5; stroke: rgb(102, 51, 102);"/>
  <path class="c" d="M894.55,2059.15c-9.09,8.71-9.3,10.56-52.25,73.85C815,2173.31,811,2178.52,802,2185.79c-8.3,6.7-5.23,2.51-44,27.18-15.7,10-26.48,17.22-30.34,13.92-3-2.54-.93-10.57.51-14.31,2.26-5.86,4.93-6,7.66-12.24,2.13-4.83,2.39-9,2.72-14.28.61-9.53-1.44-11.18.34-17.89a62.27,62.27,0,0,1,3.58-9.19c2.79-6.36,3.79-7.13,4.59-10.21,1.28-4.87-.22-6.82-.51-12.77-.41-8.48,2.11-15.16,4.09-20.43,2.32-6.15,3.46-6.17,7.66-16.34,2.59-6.26,2.2-6.36,3.57-8.68,3.71-6.26,7.16-6.57,13.28-12.76,1.43-1.45,1.11-1.31,10.72-14.81,5.55-7.8,8.35-11.73,9.7-13.28,1.95-2.23,5.73-5.91,13.28-13.27,5.58-5.44,6.4-6.16,7.66-8.17,2.19-3.51,2.42-5.71,4.6-13.79,2.08-7.74,3.12-11.61,4.59-15.32,3.42-8.6,5.31-8.5,7.66-15.83,1.58-4.94,2-9,2.55-14.3.83-8-1.78-10.53.52-14.81.42-.79,2.24-2.91,5.87-7.15,3.32-3.86,3.94-4.38,4.6-5.85,1.08-2.4,1.16-5,.25-10-1.55-8.49-3.44-10.24-4.48-15.69-.66-3.46-.14-7.63.9-16,1.54-12.27,2.82-12.66,3.34-21.12.5-8.31-.71-8.42.24-15.64.66-5,1.48-6.72,2.55-14.3.81-5.67,1.21-8.5,1-10.72-.27-3.22-1.06-5.19-6.63-16.85-4.55-9.52-5.39-11.06-5.62-14.3a27.28,27.28,0,0,1,1.53-10.73c2-5.54,4.19-6.14,5.62-11.51,1.37-5.19,0-7.26,1.53-8.4,3.76-2.76,15.25,7,16.85,8.38a80.05,80.05,0,0,1,16,19c15.34,24.41,13.28,17.39,25.36,37.68,11,18.4,16.45,27.61,19.64,37.83,2,6.39,2.76,10.95,5,40.08,2.43,31.56,3.64,47.56,3.28,58.6-.75,23.29-1.12,34.94-7.49,48.12C918.44,2040.91,909.85,2044.48,894.55,2059.15Z" transform="matrix(1, 0, 0, 1, -6193.190918, -3543.742187)" style="fill: rgb(102, 51, 102); opacity: 0.5; stroke: rgb(102, 51, 102);"/>
  <path class="c" d="M1105,1367c-32,9.33-49.61-1.32-82.63,11.82-10.33,4.11-15.06,7.72-17.4,9.68-13.72,11.51-15.08,25-22.15,39.63-6.39,13.26-16.21,22.11-35.85,39.81-9.41,8.49-26.07,19.25-59,40.42-24.59,15.82-35.61,22.29-40.34,18.45-1.24-1-1.93-2.63-1-18.42,1.07-18.63,2.94-32.26,3.06-33.16,1.66-11.92,2-12,4.09-26,3.08-20.69,2.43-21.11,4.21-31.15,2.69-15.2,4.26-14.78,10.09-38.3,5.89-23.79,4.51-25.13,9.19-38.8,3.12-9.14,6.34-16,12.76-29.62,5.46-11.59,9.28-19.71,15.32-30.13,11.28-19.44,14.72-20,16.85-29.62,1.8-8-.39-8.68-1-28.59-.38-12.14-.73-23,1.53-35.24,1.43-7.7,3.74-20.18,11.75-32.17,13.36-20,27.49-16,44.27-37.89,7.32-9.55,4.58-10.23,15-24.67,10.5-14.61,17.12-23.57,28.7-27.82,3-1.11,2.21-.37,26.45-3.57,17.08-2.26,17.3-2.6,20.43-2.56,14.9.24,26.19,8.29,33.7,13.79,23.47,17.19,19.13,30.67,37.79,39.83,11.82,5.81,23.47,5.25,34.72,4.72,8.76-.42,23.61-1.12,38.35-9.83,4.4-2.59,6.89-4.78,36.21-34,10.71-10.67,12.6-12.6,14.29-11.92,2.33.93,6.71,7.76-14.3,86.38-20.83,78-14.49,100.1-36.2,118-15.95,13.14-23.61,7.11-38.36,22.85-19.86,21.2-14.28,41-34.71,60.15C1129.07,1360,1116.38,1363.68,1105,1367Z" transform="matrix(1, 0, 0, 1, -6193.190918, -3543.742187)" style="fill: rgb(102, 51, 102); opacity: 0.5; stroke: rgb(102, 51, 102);"/>
  <path class="c" d="M1191.43,1468.06c9.17-6.5,13.08-3.9,29.61-9.1,31.29-9.84,52.7-30.31,59.21-36.66,22.67-22.12,28.1-29.29,28.1-29.29,5.27-7,10.75-15.33,19.82-16.33,1-.11,6.71-.64,11.23,3.06,5.73,4.69,6.34,13.53,4.09,19.41-2.67,7-9.27,9.5-15.77,13.21-3.73,2.13-12.36,10.76-29.47,27.94-42.86,43-40.28,42.71-48.2,47.65-16.32,10.19-25,10.15-29.62,20.47-5.92,13.31,4.73,22-1,33.5-8.76,17.41-42.73,15.82-49,15.53-12.67-.6-38.68-4.55-40.38-15-1.56-9.62,19.46-11.55,37.32-36.53C1179.86,1488.33,1177.69,1477.8,1191.43,1468.06Z" transform="matrix(1, 0, 0, 1, -6193.190918, -3543.742187)" style="fill: rgb(102, 51, 102); opacity: 0.5; stroke: rgb(102, 51, 102);"/>
  <path class="c" d="M1329.93,1162c-5.28-5.8-16.06-18-13.5-31.44.63-3.31,2.68-9.94,13.5-18.38,18.83-14.69,40.78-16.57,76.19-19.17,27.27-2,40.9-3,44.35-3,9.71,0,17.35.46,27-3.26,11.07-4.27,17.87-11.38,21.47-15.22,2.6-2.78,19.45-21.31,20.07-48.46.36-15.9-5.22-18.43-2.16-30.38,4.54-17.75,20.6-26.7,22.22-27.57,14.5-7.8,35.74-8.79,46.89,1.82,10.1,9.62,8.07,25.09,4,56.13-7.77,60-11.66,90-11.62,92.68.69,45.8,20.51,101,53.46,111a86.38,86.38,0,0,0,27.73,2.93c22.08-1.2,29.31-10.17,43.92-6.13,8.49,2.35,19.29,9,20.42,18.38,1.26,10.33-9.78,19.87-17.51,24.13-15.39,8.47-23.21-1-44.09,8-.92.39-7,3.43-19.15,9.49-12.64,6.31-15,7.56-16,8-20.82,9.7-54.52-36.66-111-54.76-25.23-8.08-32.6-3.36-65.62-15.77-19.77-7.43-17.41-9.23-45.19-21.51C1361.88,1180.31,1346.83,1180.58,1329.93,1162Z" transform="matrix(1, 0, 0, 1, -6193.190918, -3543.742187)" style="fill: rgb(102, 51, 102); opacity: 0.5; stroke: rgb(102, 51, 102);"/>
  <path class="c" d="M1999.48,1091.48c16.81,9.69,18.71,13.66,19.33,16.61,1.84,8.82-5.62,19.33-14.55,23-7.12,2.91-13.7.84-22.63-1.94-49.61-15.47-50.36-15.27-54.34-18.5-12-9.74-27.49-29.69-21.08-42.36,4.49-8.87,18.47-11.77,28.34-10.73,11.92,1.26,12.68,7.73,34.47,19.15C1981.21,1083.07,1985.12,1083.22,1999.48,1091.48Z" transform="matrix(1, 0, 0, 1, -6193.190918, -3543.742187)" style="fill: rgb(102, 51, 102); opacity: 0.5; stroke: rgb(102, 51, 102);"/>
  <path class="c" d="M1962.07,1917.64c12.93-13.32,19.4-20,23-22.15,19.7-11.75,48.52-7.56,52,1.93,1.76,4.83-4.21,7.83-7.58,23.26a76.66,76.66,0,0,0-1.61,17.28c.51,13.66,6.36,22.55,10.8,31.4,12.67,25.3,3.36,29.62,13.79,82.73.65,3.28,2.54,12.71-1.79,15.88-2.45,1.8-5,.15-13.36-.32-9.54-.53-10.82,1.34-16.59.44-8.25-1.3-10-5.78-16.51-8.73-11.07-5-19.63,1.79-40.6,6.34-18,3.9-26.94,5.85-35.86,3.07-15.55-4.87-24-23.9-41-62a26.44,26.44,0,0,1-2.55-13.28,24.6,24.6,0,0,1,2.55-8.85c6-12.2,21.69-18.93,40.34-33.7,6.59-5.22,11.63-9.92,15-13C1950.46,1930.16,1954.12,1925.82,1962.07,1917.64Z" transform="matrix(1, 0, 0, 1, -6193.190918, -3543.742187)" style="fill: rgb(102, 51, 102); opacity: 0.5; stroke: rgb(102, 51, 102);"/>
  <path class="d" d="M3344,2858.37c11.19-.47,20.19-23,22-39.36.67-6-.55-15.09-3-33-2.29-16.68-3.43-21-5.6-35.46-4.08-27.27-2.17-26.12-5.4-44.59-1.83-10.48-1.67-6.4-11.15-45.33-5.32-21.84-5.84-25-9.84-29.61-13.44-15.33-37-12.78-39.18-12.52-6.12.75-20.07,2.47-25.82,12.58-2.47,4.33-3.61,10.52,4,33.89,6.46,19.86,9.57,22.43,15.7,39.32,10,27.63,5,29.83,14.3,49,8.37,17.19,13.83,18.27,17.11,32.23,3.51,14.94-1.6,18.54.9,33.56C3321,2837,3332.77,2858.85,3344,2858.37Z" transform="matrix(1, 0, 0, 1, -6193.190918, -3543.742187)" style="fill: rgb(102, 204, 204); opacity: 0.5; stroke: rgb(109, 191, 191);"/>
  <path class="f" d="M2872,2518.05c5.45-8.46-1.45-19.58-9-37.83-16.56-40-9.85-50.4-27-71.57-4.29-5.3-10.41-12.71-21-18.44-17.85-9.66-44.57-12.47-53.2-.56-.93,1.29-4.27,6.36-1.8,19,6.64,34,38,34.07,55,71.32,7.11,15.59,7.11,27.6,20,38,3.35,2.69,12.21,9.81,23.3,7.95C2859.53,2525.67,2868,2524.25,2872,2518.05Z" transform="matrix(1, 0, 0, 1, -6193.190918, -3543.742187)" style="fill: rgb(255, 255, 255); opacity: 0.5; stroke: rgb(255, 255, 255);"/>
  <path class="f" d="M3185,2584.93c14.12-5.4,21.26-17,28.7-29.16,8-13,14.09-23,14.3-37.74,0-2.35,0-21.94-14-37.82-4.72-5.35-10.92-12.37-18.88-12s-12.92,7.75-22,20.87a109.09,109.09,0,0,0-15.11,28.95,115.24,115.24,0,0,0-5.51,33.85c-.33,17.37-.52,27.69,6.51,33.06C3167.65,2591.56,3181.48,2586.28,3185,2584.93Z" transform="matrix(1, 0, 0, 1, -6193.190918, -3543.742187)" style="fill: rgb(255, 255, 255); opacity: 0.5; stroke: rgb(255, 255, 255);"/>
  <path class="f" d="M3178.23,2269.66c6,9.37-.49,16.77,1,30.26,1.51,13.75,9,13.23,20.77,37.33,8.05,16.52,10.49,29,11.31,33.93,2.09,12.43,5.2,31.05-4.31,37.52-4.63,3.15-12,3.26-17,0-9.76-6.3-2.47-20.08-10.45-37.55-8.77-19.19-23.37-15.21-30.55-33.93-4.3-11.21,1.39-11.45-2-37.32-2.22-16.91-5.5-23.32-1-30.27,3.74-5.78,11.69-10.11,19.45-8.81S3177.62,2268.7,3178.23,2269.66Z" transform="matrix(1, 0, 0, 1, -6193.190918, -3543.742187)" style="fill: rgb(255, 255, 255); opacity: 0.5; stroke: rgb(255, 255, 255);"/>
  <path class="f" d="M3160,2147.23c9.62-13,15.95-21.52,19-37.48,1.56-8.19,6.48-33.88-5-40.55-5.65-3.29-12.76-.49-14,0-13.4,5.28-16.83,23.59-20,40.55-1.34,7.18-3.79,23.8,3,37.48,2.6,5.24,5,6.91,7.13,7.15C3154.06,2154.83,3157.58,2150.5,3160,2147.23Z" transform="matrix(1, 0, 0, 1, -6193.190918, -3543.742187)" style="fill: rgb(255, 255, 255); opacity: 0.5; stroke: rgb(255, 255, 255);"/>
  <path class="f" d="M3122.19,1916.11c5.16-10.95-2.89-15.53-1.19-37.54.74-9.59,2.64-13.54-.29-18.75-3.53-6.28-11.18-9.21-17.31-9.52-7.38-.37-16,2.89-19.69,9.54-2.61,4.77-1,8.28.29,18.75,3,24.19-2.6,29.74,3.81,40.16,1.27,2.06,6.5,10.55,14.83,11.21S3118.75,1923.41,3122.19,1916.11Z" transform="matrix(1, 0, 0, 1, -6193.190918, -3543.742187)" style="fill: rgb(255, 255, 255); opacity: 0.5; stroke: rgb(255, 255, 255);"/>
  <path class="f" d="M3076,1747.29c2.12-2.93,3.67-6.94,3-18.77-.89-15.83-1.49-26.54-9-37.51-2.41-3.51-13.25-19.35-24.81-16.88-6.9,1.47-12.77,9.19-13.79,16.88-1.94,14.66,15,19.7,14.6,37.53-.19,8.63-4.27,12.82-1,18.77,3.91,7.11,13.52,8,14,8A19.64,19.64,0,0,0,3076,1747.29Z" transform="matrix(1, 0, 0, 1, -6193.190918, -3543.742187)" style="fill: rgb(255, 255, 255); opacity: 0.5; stroke: rgb(255, 255, 255);"/>
  <path class="f" d="M2720.5,3225c-11.51,7.23-17.56.71-46.45,5.21-8.46,1.32-21,3.34-35.58,9.53-17,7.19-16.82,11.52-32.18,17.26-10,3.75-18.95,4.83-36.82,7-25.2,3.06-23.36.28-39.81,3.23-17.5,3.15-23.26,7-33.49,3.77-7.16-2.24-16.89-8-17-15.17-.13-6.63,8-11.56,17.06-16.83,10.95-6.42,18.88-8.43,33.48-13,28.31-8.86,26.91-10.15,39.79-13,17-3.76,20.17-1.65,36.82-4,27.87-3.93,50.31-14.25,67.4-22.11,23.84-11,33.61-18.95,46.84-14.75,1.12.35,12.05,4,16.16,14C2742.16,3199.38,2732.92,3217.2,2720.5,3225Z" transform="matrix(1, 0, 0, 1, -6193.190918, -3543.742187)" style="fill: rgb(255, 255, 255); opacity: 0.5; stroke: rgb(255, 255, 255);"/>
  <path class="f" d="M779.26,2519.4A98.22,98.22,0,0,0,791,2551.89c5.43,9.43,14.63,20.26,53.11,40.61,44.21,23.38,67.49,27.82,67.14,38.32-.2,6.28-8.8,12.06-16.08,13.27-12.38,2-23.5-8.7-28.6-13.23-6.21-5.53-33.32-16.45-87.55-38.3-60-24.18-79.62-26.23-82-40.54-1.82-10.94,7.77-20.88,19-32.53,20.65-21.42,52.38-36.72,61.45-28.22C782,2495.54,777,2502.18,779.26,2519.4Z" transform="matrix(1, 0, 0, 1, -6193.190918, -3543.742187)" style="fill: rgb(255, 255, 255); opacity: 0.5; stroke: rgb(255, 255, 255);"/>
  <path class="f" d="M1783.47,3332c17.14,2.36,29.7,18,33.14,22.38,11.06,14.12,14.68,27.77,18,40.85,5.16,20.31,9.28,36.55,0,47.76-.78.94-8.46,9.94-18,8.92s-11.71-11-33.14-54.63c-.46-.94-12.28-25-14.57-48-.45-4.56-.79-11.67,3.58-15.32C1773.81,3332.8,1776.76,3331.08,1783.47,3332Z" transform="matrix(1, 0, 0, 1, -6193.190918, -3543.742187)" style="fill: rgb(255, 255, 255); opacity: 0.5; stroke: rgb(255, 255, 255);"/>
  <path class="f" d="M1671,3243.28c-3.4-16.39-7.66-23.58-12.13-36.13-6-17-7.54-32-10.55-62-3.64-36.3-1-47.88-11.74-61.11a48.24,48.24,0,0,0-20.45-14.66c-20-7.36-45.63-.76-56.15,14.66-7.45,10.93-.84,16.76-3.13,44.53-3.15,38.15-17.36,48.14-9.2,66.52,4.14,9.35,7.37,5.77,23.52,24.41,18.12,20.91,16.13,27.81,31.17,41.34a92.42,92.42,0,0,0,32.27,18.74c11.5,3.82,27.13,9,35.16,1.74C1677.49,3274.39,1674.38,3259.42,1671,3243.28Z" transform="matrix(1, 0, 0, 1, -6193.190918, -3543.742187)" style="fill: rgb(255, 255, 255); opacity: 0.5; stroke: rgb(255, 255, 255);"/>
  <path class="f" d="M1125.38,2879c8.66,12.6,24.57,18.83,37.87,18.51,19.31-.48,23.3-14.55,55.47-37.6,27.45-19.66,34.39-16.47,67.07-40.68,26.6-19.7,32.68-29.74,34.72-40,.22-1.09,4-21.68-8.17-36.08-22.13-26.17-79.58-11.28-108.94,2.55-22.42,10.57-37.72,24.88-47,33.53-19.4,18.15-26.43,31.47-28.26,35.07-4.11,8.1-10.38,20.8-9.87,37.79C1118.51,2859.29,1118.82,2869.45,1125.38,2879Z" transform="matrix(1, 0, 0, 1, -6193.190918, -3543.742187)" style="fill: rgb(255, 255, 255); opacity: 0.5; stroke: rgb(255, 255, 255);"/>
  <path class="e" d="M1483,3006.67c-8.28-7.49-21.7-19.63-39.45-18.93-5.14.21-13.68,1.61-35.55,19-9.77,7.77-20.35,17.25-46.4,46.38-24.83,27.75-31.59,37.43-37.53,49.53-8.24,16.74-12.35,25.11-9.19,30.72,11.4,20.25,95.81-7.24,153.19-40.67,27.55-16.05,38.87-27.65,40.12-41.73C1510,3031,1490.9,3013.8,1483,3006.67Z" transform="matrix(1, 0, 0, 1, -6193.190918, -3543.742187)" style="fill: rgb(0, 0, 255); opacity: 0.5; stroke: rgb(0, 0, 255);"/>
  <path class="d" d="M1484.37,2780.94c-15.84-14.32-39.51-12.18-50-11.24a93.06,93.06,0,0,0-40.38,13.79,117.77,117.77,0,0,0-20.13,16.7,153.14,153.14,0,0,0-15.87,18.54c-13.83,18.44-42.61,25.27-79.11,38.68-45.13,16.59-67.7,24.88-76.42,40.1-9.41,16.43-6.41,34.45,0,69.81,10.11,56.07,21.35,54,24.87,87,6,56.73-25.12,80.57-9.71,127.15a126.5,126.5,0,0,0,20.3,37c6.74,8.24,15.38,18.58,30.57,25.51,5.22,2.39,30.69,14.83,39.27,6.15,8.79-8.88-10.41-29.45-13.77-69.94a147.61,147.61,0,0,1,5.09-52.1c6-20.69,20.75-39.81,50-77.2,23.84-30.45,34.36-40.15,39.35-44.57,17.36-15.36,27.46-24.31,43.92-29.89,27-9.14,41.24.83,53.62-11.74,4.45-4.53,7-14.13,12-33.34,6.07-23,3.77-24.1,8.38-36.62,6-16.38,10.69-16.52,20.43-37.4,9.34-20,14.13-30.3,9.7-38.18-6.08-10.79-22.14-4.06-38.2-19C1489.54,2792,1492.64,2788.41,1484.37,2780.94Z" transform="matrix(1, 0, 0, 1, -6193.190918, -3543.742187)" style="fill: rgb(102, 204, 204); opacity: 0.5; stroke: rgb(109, 191, 191);"/>
  <path class="c" d="M2496.05,3444.77c.27,17.6-8.88,56.59-42.94,77.1-17.43,10.51-19.6,3-43.92,13.28-40.77,17.18-38.84,39.94-68.93,47-6.87,1.6-27.57-2-69-9.19-28.75-5-33.45-6.77-38.65-10.73-26.52-20.18-20.9-63-20.55-65.36,1.24-8.55,4.3-29.62,20.41-40.34,10.15-6.75,19.26-5.27,38.84-5.51,0,0,30.64-.38,71.52-7.77,5.52-1,2.26-.55,67.4-16.23,13.19-3.18,25.84-6.13,42.92-5.72,12.24.29,33.92,1.07,40.78,14.06A19.83,19.83,0,0,1,2496.05,3444.77Z" transform="matrix(1, 0, 0, 1, -6193.190918, -3543.742187)" style="fill: rgb(102, 51, 102); opacity: 0.5; stroke: rgb(102, 51, 102);"/>
  <path class="c" d="M2495.91,3204.6c-9.07,9.8-12.34,8.75-42.77,27.4-30.81,18.88-28.08,20.33-42.91,28-21.2,11-28.58,8.92-69.46,20-42.47,11.51-38.25,14.73-69.46,22-19.26,4.49-38.69,6.5-77.54,10.54-41,4.25-61.44,6.38-77.69,5.46-25.52-1.44-25.4-5.09-79.14-14.17-53.33-9-53.85-5.49-70.92-11.83-26.69-9.91-42.39-24.84-72.58-53.53-42-39.94-43.07-55.47-76.86-74.55-17.37-9.81-23.69-9.44-35.47-20.43-28-26.13-34.7-67.8-28.09-71.49,2-1.14,3.83,2.21,17.87,8.68a151.91,151.91,0,0,0,19.92,7.66c11.07,3.35,12.14,2.12,18.89,5.11,3.84,1.69,10.35,4.57,15.74,10.81,4.88,5.64,3.52,7.88,10.3,20.34,3.73,6.84,5.62,10.32,9.2,14.29,5.91,6.59,9.31,6.62,19.4,14.3,6.15,4.69,4.51,4.39,15.32,13.79,2.53,2.2,10.69,9.23,21.83,17.48,8,5.92,12,8.88,16.47,11.11,2.14,1.08,3.87,1.81,19.4,7.15,13.83,4.76,13.13,4.41,17.87,6.13,14.24,5.15,13.42,5.73,21.45,8.17,11.06,3.37,12.68,2.31,19.41,5.62,5.62,2.76,6,4.23,13.27,8.68,5.07,3.08,6.37,3.27,17.87,8.68,3.15,1.48,10.78,5.24,26.05,12.77,11.26,5.55,12.36,6.13,15.32,7.14,2.77,1,7.85,2.52,20.93,4.09,2.7.32,13.33,1.56,31.66,2,10.78.29,16.17.43,23.49,0s14.3-1.48,28.09-3.57c15.28-2.33,22.93-3.49,29.61-5.11,5.85-1.42,10.83-2.89,19.92-4.59,4.62-.87,8.16-1.54,12.76-2.05,11.62-1.28,15.45,0,29.11-.51,8.19-.32,12.29-.48,17.36-1.53,4.26-.88,7.94-2,25.53-10.21,16.93-7.85,18.12-8.89,25-11.24a168.85,168.85,0,0,1,18.89-5.1c11.7-2.46,12.58-1.37,19.4-3.58,7-2.26,7.08-3.73,18.9-9.19,8.92-4.12,8.91-3.3,17.36-7.15a186.43,186.43,0,0,0,41.36-26c8.35-7,13.28-11.74,13.28-11.74,4.94-4.74,6-6.25,9.19-8.17,5-3.06,6.81-2.11,14.81-4.6,8.2-2.56,10.22-4.79,24-9.7,5.72-2,8-2.61,9.63-1.39,3.07,2.33,1.26,9.59,0,14.15C2512.32,3177.86,2508.63,3190.85,2495.91,3204.6Z" transform="matrix(1, 0, 0, 1, -6193.190918, -3543.742187)" style="fill: rgb(102, 51, 102); opacity: 0.5; stroke: rgb(102, 51, 102);"/>
  <rect class="g" x="3207.67" y="460.07" width="80.5" height="80.5" style="fill: none; opacity: 0.5; stroke: rgb(0, 0, 0);" transform="matrix(1, 0, 0, 1, -6193.690918, -3544.242187)"/>
  <rect class="c" x="3207.67" y="580.82" width="80.5" height="80.5" style="fill: rgb(102, 51, 102); opacity: 0.5; stroke: rgb(102, 51, 102);" transform="matrix(1, 0, 0, 1, -6193.690918, -3544.242187)"/>
  <rect class="e" x="3205.87" y="701.56" width="80.5" height="80.5" style="fill: rgb(0, 0, 255); opacity: 0.5; stroke: rgb(0, 0, 255);" transform="matrix(1, 0, 0, 1, -6193.690918, -3544.242187)"/>
  <rect class="f" x="3205.87" y="822.3" width="80.5" height="80.5" style="fill: rgb(255, 255, 255); opacity: 0.5; stroke: rgb(255, 255, 255);" transform="matrix(1, 0, 0, 1, -6193.690918, -3544.242187)"/>
  <rect class="i" x="3205.87" y="943.05" width="80.5" height="80.5" style="fill: rgb(109, 191, 191); opacity: 0.5; stroke: rgb(109, 191, 191);" transform="matrix(1, 0, 0, 1, -6193.690918, -3544.242187)"/>
  <rect class="j" width="1" height="1" style="fill: none; opacity: 0.5;" transform="matrix(1, 0, 0, 1, -6193.690918, -3544.242187)"/>
  <rect class="j" x="4095" y="4095" width="1" height="1" style="fill: none; opacity: 0.5;" transform="matrix(1, 0, 0, 1, -6193.690918, -3544.242187)"/>
  <path class="c" d="M1226.81,2516.11c-8.34,14.13-13.43,25.31-21.19,42.36-10.82,23.78-9.38,26.88-16.17,34-10.89,11.47-31.71,21.54-45.28,13.45-14.76-8.8-12.69-34.16-12.26-39.49,1-11.68,8.37-24.61,23.15-50,13.81-23.7,19.74-30.47,25.94-36.06,15-13.5,26.13-15.32,29.55-15.74,3.25-.4,18.8-2.33,25.54,6.81,1.57,2.14,2.79,5.06,3.06,10.21C1239.86,2495.36,1232.93,2505.74,1226.81,2516.11Z" transform="matrix(1, 0, 0, 1, -6193.190918, -3543.742187)" style="fill: rgb(102, 51, 102); opacity: 0.5; stroke: rgb(102, 51, 102);"/>
  <text style="font-family: Arial, sans-serif; font-size: 75px; font-weight: 700; white-space: pre;" x="-2858.018" y="-2536.809">Sand-pebble</text>
  <text style="font-family: Arial, sans-serif; font-size: 75px; font-weight: 700; white-space: pre;" x="-2852.888" y="-3015.897">Clay</text>
  <text style="font-family: Arial, sans-serif; font-size: 75px; font-weight: 700; white-space: pre;" x="-2857.923" y="-2887.656">Sludge </text>
  <text style="font-family: Arial, sans-serif; font-size: 75px; font-weight: 700; white-space: pre;" x="-2854.141" y="-2774.721">Pebble</text>
  <text style="font-family: Arial, sans-serif; font-size: 75px; font-weight: 700; white-space: pre;" x="-2850.361" y="-2654.885">Shell</text>
</svg>